solid 10
   facet normal 1.000000e+00 0.000000e+00 0.000000e+00
      outer loop
         vertex 4.549600e+01 2.419846e+01 2.068632e+01
         vertex 4.549600e+01 2.328966e+01 2.207734e+01
         vertex 4.549600e+01 0.000000e+00 0.000000e+00
      endloop
   endfacet
   facet normal 1.000000e+00 0.000000e+00 0.000000e+00
      outer loop
         vertex 4.549600e+01 4.206089e+01 2.520970e+01
         vertex 4.549600e+01 4.165299e+01 2.359897e+01
         vertex 4.549600e+01 6.427521e+01 0.000000e+00
      endloop
   endfacet
   facet normal 1.000000e+00 0.000000e+00 0.000000e+00
      outer loop
         vertex 4.549600e+01 6.427521e+01 0.000000e+00
         vertex 4.549600e+01 4.165299e+01 2.359897e+01
         vertex 4.549600e+01 4.098554e+01 2.207734e+01
      endloop
   endfacet
   facet normal 1.000000e+00 0.000000e+00 0.000000e+00
      outer loop
         vertex 4.549600e+01 6.427521e+01 0.000000e+00
         vertex 4.549600e+01 4.098554e+01 2.207734e+01
         vertex 4.549600e+01 4.007675e+01 2.068632e+01
      endloop
   endfacet
   facet normal 1.000000e+00 -0.000000e+00 0.000000e+00
      outer loop
         vertex 4.549600e+01 4.206089e+01 2.520970e+01
         vertex 4.549600e+01 6.427521e+01 0.000000e+00
         vertex 4.549600e+01 4.219810e+01 2.686561e+01
      endloop
   endfacet
   facet normal 1.000000e+00 -0.000000e+00 0.000000e+00
      outer loop
         vertex 4.549600e+01 4.219810e+01 2.686561e+01
         vertex 4.549600e+01 6.427521e+01 0.000000e+00
         vertex 4.549600e+01 6.427521e+01 4.000000e+01
      endloop
   endfacet
   facet normal 1.000000e+00 0.000000e+00 0.000000e+00
      outer loop
         vertex 4.549600e+01 4.219810e+01 2.686561e+01
         vertex 4.549600e+01 6.427521e+01 4.000000e+01
         vertex 4.549600e+01 4.219810e+01 4.000000e+01
      endloop
   endfacet
   facet normal 1.000000e+00 0.000000e+00 0.000000e+00
      outer loop
         vertex 4.549600e+01 2.966790e+01 1.711296e+01
         vertex 4.549600e+01 2.809635e+01 1.765247e+01
         vertex 4.549600e+01 0.000000e+00 0.000000e+00
      endloop
   endfacet
   facet normal 1.000000e+00 0.000000e+00 0.000000e+00
      outer loop
         vertex 4.549600e+01 2.328966e+01 2.207734e+01
         vertex 4.549600e+01 2.262221e+01 2.359897e+01
         vertex 4.549600e+01 0.000000e+00 0.000000e+00
      endloop
   endfacet
   facet normal 1.000000e+00 0.000000e+00 0.000000e+00
      outer loop
         vertex 4.549600e+01 0.000000e+00 0.000000e+00
         vertex 4.549600e+01 2.262221e+01 2.359897e+01
         vertex 4.549600e+01 2.221432e+01 2.520970e+01
      endloop
   endfacet
   facet normal 1.000000e+00 0.000000e+00 0.000000e+00
      outer loop
         vertex 4.549600e+01 0.000000e+00 0.000000e+00
         vertex 4.549600e+01 2.221432e+01 2.520970e+01
         vertex 4.549600e+01 0.000000e+00 4.000000e+01
      endloop
   endfacet
   facet normal 1.000000e+00 0.000000e+00 0.000000e+00
      outer loop
         vertex 4.549600e+01 0.000000e+00 4.000000e+01
         vertex 4.549600e+01 2.221432e+01 2.520970e+01
         vertex 4.549600e+01 2.207711e+01 2.686561e+01
      endloop
   endfacet
   facet normal 1.000000e+00 -0.000000e+00 0.000000e+00
      outer loop
         vertex 4.549600e+01 0.000000e+00 4.000000e+01
         vertex 4.549600e+01 2.207711e+01 2.686561e+01
         vertex 4.549600e+01 2.207711e+01 4.000000e+01
      endloop
   endfacet
   facet normal 1.000000e+00 0.000000e+00 0.000000e+00
      outer loop
         vertex 4.549600e+01 2.809635e+01 1.765247e+01
         vertex 4.549600e+01 2.663503e+01 1.844330e+01
         vertex 4.549600e+01 0.000000e+00 0.000000e+00
      endloop
   endfacet
   facet normal 1.000000e+00 0.000000e+00 0.000000e+00
      outer loop
         vertex 4.549600e+01 0.000000e+00 0.000000e+00
         vertex 4.549600e+01 2.663503e+01 1.844330e+01
         vertex 4.549600e+01 2.532381e+01 1.946386e+01
      endloop
   endfacet
   facet normal 1.000000e+00 0.000000e+00 0.000000e+00
      outer loop
         vertex 4.549600e+01 0.000000e+00 0.000000e+00
         vertex 4.549600e+01 2.532381e+01 1.946386e+01
         vertex 4.549600e+01 2.419846e+01 2.068632e+01
      endloop
   endfacet
   facet normal 1.000000e+00 0.000000e+00 0.000000e+00
      outer loop
         vertex 4.549600e+01 4.007675e+01 2.068632e+01
         vertex 4.549600e+01 3.895139e+01 1.946386e+01
         vertex 4.549600e+01 6.427521e+01 0.000000e+00
      endloop
   endfacet
   facet normal 1.000000e+00 0.000000e+00 0.000000e+00
      outer loop
         vertex 4.549600e+01 6.427521e+01 0.000000e+00
         vertex 4.549600e+01 3.895139e+01 1.946386e+01
         vertex 4.549600e+01 3.764017e+01 1.844330e+01
      endloop
   endfacet
   facet normal 1.000000e+00 0.000000e+00 0.000000e+00
      outer loop
         vertex 4.549600e+01 6.427521e+01 0.000000e+00
         vertex 4.549600e+01 3.764017e+01 1.844330e+01
         vertex 4.549600e+01 3.617886e+01 1.765247e+01
      endloop
   endfacet
   facet normal 1.000000e+00 0.000000e+00 0.000000e+00
      outer loop
         vertex 4.549600e+01 3.617886e+01 1.765247e+01
         vertex 4.549600e+01 3.460731e+01 1.711296e+01
         vertex 4.549600e+01 6.427521e+01 0.000000e+00
      endloop
   endfacet
   facet normal 1.000000e+00 0.000000e+00 0.000000e+00
      outer loop
         vertex 4.549600e+01 6.427521e+01 0.000000e+00
         vertex 4.549600e+01 3.460731e+01 1.711296e+01
         vertex 4.549600e+01 3.296839e+01 1.683947e+01
      endloop
   endfacet
   facet normal 1.000000e+00 0.000000e+00 0.000000e+00
      outer loop
         vertex 4.549600e+01 6.427521e+01 0.000000e+00
         vertex 4.549600e+01 3.296839e+01 1.683947e+01
         vertex 4.549600e+01 0.000000e+00 0.000000e+00
      endloop
   endfacet
   facet normal 1.000000e+00 0.000000e+00 0.000000e+00
      outer loop
         vertex 4.549600e+01 0.000000e+00 0.000000e+00
         vertex 4.549600e+01 3.296839e+01 1.683947e+01
         vertex 4.549600e+01 3.130681e+01 1.683947e+01
      endloop
   endfacet
   facet normal 1.000000e+00 0.000000e+00 0.000000e+00
      outer loop
         vertex 4.549600e+01 0.000000e+00 0.000000e+00
         vertex 4.549600e+01 3.130681e+01 1.683947e+01
         vertex 4.549600e+01 2.966790e+01 1.711296e+01
      endloop
   endfacet
endsolid