solid 5
   facet normal -0.000000e+00 0.000000e+00 1.000000e+00
      outer loop
         vertex 2.753993e+01 4.688563e+01 9.000000e+00
         vertex 2.935056e+01 4.616875e+01 9.000000e+00
         vertex 3.546967e+01 5.738239e+01 9.000000e+00
      endloop
   endfacet
   facet normal 0.000000e+00 -0.000000e+00 1.000000e+00
      outer loop
         vertex 7.728186e+00 3.599403e+01 9.000000e+00
         vertex 8.329961e+00 3.784611e+01 9.000000e+00
         vertex 4.861821e+00 5.476946e+01 9.000000e+00
      endloop
   endfacet
   facet normal 0.000000e+00 0.000000e+00 1.000000e+00
      outer loop
         vertex 4.861821e+00 5.476946e+01 9.000000e+00
         vertex 8.329961e+00 3.784611e+01 9.000000e+00
         vertex 9.159117e+00 3.960815e+01 9.000000e+00
      endloop
   endfacet
   facet normal 0.000000e+00 0.000000e+00 1.000000e+00
      outer loop
         vertex 4.861821e+00 5.476946e+01 9.000000e+00
         vertex 9.159117e+00 3.960815e+01 9.000000e+00
         vertex 1.020258e+01 4.125239e+01 9.000000e+00
      endloop
   endfacet
   facet normal -0.000000e+00 0.000000e+00 1.000000e+00
      outer loop
         vertex 3.776782e+01 3.599403e+01 9.000000e+00
         vertex 3.813272e+01 3.408114e+01 9.000000e+00
         vertex 4.063418e+01 5.476946e+01 9.000000e+00
      endloop
   endfacet
   facet normal 0.000000e+00 0.000000e+00 1.000000e+00
      outer loop
         vertex 4.063418e+01 5.476946e+01 9.000000e+00
         vertex 3.813272e+01 3.408114e+01 9.000000e+00
         vertex 3.825500e+01 3.213760e+01 9.000000e+00
      endloop
   endfacet
   facet normal 0.000000e+00 0.000000e+00 1.000000e+00
      outer loop
         vertex 4.063418e+01 5.476946e+01 9.000000e+00
         vertex 3.825500e+01 3.213760e+01 9.000000e+00
         vertex 4.063418e+01 9.505741e+00 9.000000e+00
      endloop
   endfacet
   facet normal 0.000000e+00 0.000000e+00 1.000000e+00
      outer loop
         vertex 4.063418e+01 9.505741e+00 9.000000e+00
         vertex 3.825500e+01 3.213760e+01 9.000000e+00
         vertex 3.813272e+01 3.019406e+01 9.000000e+00
      endloop
   endfacet
   facet normal 0.000000e+00 0.000000e+00 1.000000e+00
      outer loop
         vertex 4.063418e+01 9.505741e+00 9.000000e+00
         vertex 3.813272e+01 3.019406e+01 9.000000e+00
         vertex 3.776782e+01 2.828117e+01 9.000000e+00
      endloop
   endfacet
   facet normal 0.000000e+00 0.000000e+00 1.000000e+00
      outer loop
         vertex 3.776782e+01 2.828117e+01 9.000000e+00
         vertex 3.716604e+01 2.642910e+01 9.000000e+00
         vertex 4.063418e+01 9.505741e+00 9.000000e+00
      endloop
   endfacet
   facet normal 0.000000e+00 0.000000e+00 1.000000e+00
      outer loop
         vertex 4.063418e+01 9.505741e+00 9.000000e+00
         vertex 3.716604e+01 2.642910e+01 9.000000e+00
         vertex 3.633688e+01 2.466705e+01 9.000000e+00
      endloop
   endfacet
   facet normal 0.000000e+00 0.000000e+00 1.000000e+00
      outer loop
         vertex 4.063418e+01 9.505741e+00 9.000000e+00
         vertex 3.633688e+01 2.466705e+01 9.000000e+00
         vertex 3.529342e+01 2.302282e+01 9.000000e+00
      endloop
   endfacet
   facet normal 0.000000e+00 0.000000e+00 1.000000e+00
      outer loop
         vertex 1.286347e+01 2.018926e+01 9.000000e+00
         vertex 1.144389e+01 2.152233e+01 9.000000e+00
         vertex 4.861821e+00 9.505741e+00 9.000000e+00
      endloop
   endfacet
   facet normal 0.000000e+00 0.000000e+00 1.000000e+00
      outer loop
         vertex 4.861821e+00 9.505741e+00 9.000000e+00
         vertex 1.144389e+01 2.152233e+01 9.000000e+00
         vertex 1.020258e+01 2.302282e+01 9.000000e+00
      endloop
   endfacet
   facet normal 0.000000e+00 0.000000e+00 1.000000e+00
      outer loop
         vertex 4.063418e+01 5.476946e+01 9.000000e+00
         vertex 3.405211e+01 4.275287e+01 9.000000e+00
         vertex 3.529342e+01 4.125239e+01 9.000000e+00
      endloop
   endfacet
   facet normal 0.000000e+00 0.000000e+00 1.000000e+00
      outer loop
         vertex 3.529342e+01 2.302282e+01 9.000000e+00
         vertex 3.405211e+01 2.152233e+01 9.000000e+00
         vertex 4.063418e+01 9.505741e+00 9.000000e+00
      endloop
   endfacet
   facet normal 0.000000e+00 0.000000e+00 1.000000e+00
      outer loop
         vertex 4.063418e+01 9.505741e+00 9.000000e+00
         vertex 3.405211e+01 2.152233e+01 9.000000e+00
         vertex 3.263253e+01 2.018926e+01 9.000000e+00
      endloop
   endfacet
   facet normal 0.000000e+00 0.000000e+00 1.000000e+00
      outer loop
         vertex 4.063418e+01 9.505741e+00 9.000000e+00
         vertex 3.263253e+01 2.018926e+01 9.000000e+00
         vertex 3.810759e+01 8.089258e+00 9.000000e+00
      endloop
   endfacet
   facet normal 0.000000e+00 0.000000e+00 1.000000e+00
      outer loop
         vertex 3.810759e+01 8.089258e+00 9.000000e+00
         vertex 3.263253e+01 2.018926e+01 9.000000e+00
         vertex 3.105707e+01 1.904461e+01 9.000000e+00
      endloop
   endfacet
   facet normal 0.000000e+00 0.000000e+00 1.000000e+00
      outer loop
         vertex 3.810759e+01 8.089258e+00 9.000000e+00
         vertex 3.105707e+01 1.904461e+01 9.000000e+00
         vertex 3.546967e+01 6.892817e+00 9.000000e+00
      endloop
   endfacet
   facet normal 0.000000e+00 0.000000e+00 1.000000e+00
      outer loop
         vertex 3.546967e+01 6.892817e+00 9.000000e+00
         vertex 3.105707e+01 1.904461e+01 9.000000e+00
         vertex 2.935056e+01 1.810645e+01 9.000000e+00
      endloop
   endfacet
   facet normal 0.000000e+00 0.000000e+00 1.000000e+00
      outer loop
         vertex 3.546967e+01 6.892817e+00 9.000000e+00
         vertex 2.935056e+01 1.810645e+01 9.000000e+00
         vertex 3.273955e+01 5.925088e+00 9.000000e+00
      endloop
   endfacet
   facet normal 0.000000e+00 0.000000e+00 1.000000e+00
      outer loop
         vertex 3.273955e+01 5.925088e+00 9.000000e+00
         vertex 2.935056e+01 1.810645e+01 9.000000e+00
         vertex 2.753993e+01 1.738957e+01 9.000000e+00
      endloop
   endfacet
   facet normal 0.000000e+00 0.000000e+00 1.000000e+00
      outer loop
         vertex 3.273955e+01 5.925088e+00 9.000000e+00
         vertex 2.753993e+01 1.738957e+01 9.000000e+00
         vertex 2.993700e+01 5.193087e+00 9.000000e+00
      endloop
   endfacet
   facet normal 0.000000e+00 0.000000e+00 1.000000e+00
      outer loop
         vertex 2.993700e+01 5.193087e+00 9.000000e+00
         vertex 2.753993e+01 1.738957e+01 9.000000e+00
         vertex 2.565372e+01 1.690528e+01 9.000000e+00
      endloop
   endfacet
   facet normal 0.000000e+00 0.000000e+00 1.000000e+00
      outer loop
         vertex 1.020258e+01 2.302282e+01 9.000000e+00
         vertex 9.159117e+00 2.466705e+01 9.000000e+00
         vertex 4.861821e+00 9.505741e+00 9.000000e+00
      endloop
   endfacet
   facet normal 0.000000e+00 0.000000e+00 1.000000e+00
      outer loop
         vertex 4.861821e+00 9.505741e+00 9.000000e+00
         vertex 9.159117e+00 2.466705e+01 9.000000e+00
         vertex 8.329961e+00 2.642910e+01 9.000000e+00
      endloop
   endfacet
   facet normal 0.000000e+00 0.000000e+00 1.000000e+00
      outer loop
         vertex 4.861821e+00 9.505741e+00 9.000000e+00
         vertex 8.329961e+00 2.642910e+01 9.000000e+00
         vertex 7.728186e+00 2.828117e+01 9.000000e+00
      endloop
   endfacet
   facet normal 0.000000e+00 0.000000e+00 1.000000e+00
      outer loop
         vertex 1.984228e+01 4.736993e+01 9.000000e+00
         vertex 1.555900e+01 5.908212e+01 9.000000e+00
         vertex 1.795608e+01 4.688563e+01 9.000000e+00
      endloop
   endfacet
   facet normal 0.000000e+00 0.000000e+00 1.000000e+00
      outer loop
         vertex 1.795608e+01 4.688563e+01 9.000000e+00
         vertex 1.555900e+01 5.908212e+01 9.000000e+00
         vertex 1.275646e+01 5.835012e+01 9.000000e+00
      endloop
   endfacet
   facet normal 0.000000e+00 0.000000e+00 1.000000e+00
      outer loop
         vertex 1.795608e+01 4.688563e+01 9.000000e+00
         vertex 1.275646e+01 5.835012e+01 9.000000e+00
         vertex 1.614544e+01 4.616875e+01 9.000000e+00
      endloop
   endfacet
   facet normal 0.000000e+00 0.000000e+00 1.000000e+00
      outer loop
         vertex 1.614544e+01 4.616875e+01 9.000000e+00
         vertex 1.275646e+01 5.835012e+01 9.000000e+00
         vertex 1.002633e+01 5.738239e+01 9.000000e+00
      endloop
   endfacet
   facet normal 0.000000e+00 0.000000e+00 1.000000e+00
      outer loop
         vertex 1.614544e+01 4.616875e+01 9.000000e+00
         vertex 1.002633e+01 5.738239e+01 9.000000e+00
         vertex 1.443894e+01 4.523059e+01 9.000000e+00
      endloop
   endfacet
   facet normal 0.000000e+00 0.000000e+00 1.000000e+00
      outer loop
         vertex 1.443894e+01 4.523059e+01 9.000000e+00
         vertex 1.002633e+01 5.738239e+01 9.000000e+00
         vertex 7.388412e+00 5.618595e+01 9.000000e+00
      endloop
   endfacet
   facet normal 0.000000e+00 0.000000e+00 1.000000e+00
      outer loop
         vertex 1.443894e+01 4.523059e+01 9.000000e+00
         vertex 7.388412e+00 5.618595e+01 9.000000e+00
         vertex 1.286347e+01 4.408595e+01 9.000000e+00
      endloop
   endfacet
   facet normal 0.000000e+00 0.000000e+00 1.000000e+00
      outer loop
         vertex 1.286347e+01 4.408595e+01 9.000000e+00
         vertex 7.388412e+00 5.618595e+01 9.000000e+00
         vertex 4.861821e+00 5.476946e+01 9.000000e+00
      endloop
   endfacet
   facet normal 0.000000e+00 0.000000e+00 1.000000e+00
      outer loop
         vertex 1.286347e+01 4.408595e+01 9.000000e+00
         vertex 4.861821e+00 5.476946e+01 9.000000e+00
         vertex 1.144389e+01 4.275287e+01 9.000000e+00
      endloop
   endfacet
   facet normal 0.000000e+00 0.000000e+00 1.000000e+00
      outer loop
         vertex 1.144389e+01 4.275287e+01 9.000000e+00
         vertex 4.861821e+00 5.476946e+01 9.000000e+00
         vertex 1.020258e+01 4.125239e+01 9.000000e+00
      endloop
   endfacet
   facet normal 0.000000e+00 0.000000e+00 1.000000e+00
      outer loop
         vertex 3.546967e+01 5.738239e+01 9.000000e+00
         vertex 2.935056e+01 4.616875e+01 9.000000e+00
         vertex 3.810759e+01 5.618595e+01 9.000000e+00
      endloop
   endfacet
   facet normal 0.000000e+00 0.000000e+00 1.000000e+00
      outer loop
         vertex 3.810759e+01 5.618595e+01 9.000000e+00
         vertex 2.935056e+01 4.616875e+01 9.000000e+00
         vertex 3.105707e+01 4.523059e+01 9.000000e+00
      endloop
   endfacet
   facet normal 0.000000e+00 0.000000e+00 1.000000e+00
      outer loop
         vertex 3.810759e+01 5.618595e+01 9.000000e+00
         vertex 3.105707e+01 4.523059e+01 9.000000e+00
         vertex 4.063418e+01 5.476946e+01 9.000000e+00
      endloop
   endfacet
   facet normal 0.000000e+00 0.000000e+00 1.000000e+00
      outer loop
         vertex 4.063418e+01 5.476946e+01 9.000000e+00
         vertex 3.105707e+01 4.523059e+01 9.000000e+00
         vertex 3.263253e+01 4.408595e+01 9.000000e+00
      endloop
   endfacet
   facet normal 0.000000e+00 0.000000e+00 1.000000e+00
      outer loop
         vertex 4.063418e+01 5.476946e+01 9.000000e+00
         vertex 3.263253e+01 4.408595e+01 9.000000e+00
         vertex 3.405211e+01 4.275287e+01 9.000000e+00
      endloop
   endfacet
   facet normal 0.000000e+00 0.000000e+00 1.000000e+00
      outer loop
         vertex 1.795608e+01 1.738957e+01 9.000000e+00
         vertex 1.555900e+01 5.193087e+00 9.000000e+00
         vertex 1.984228e+01 1.690528e+01 9.000000e+00
      endloop
   endfacet
   facet normal 0.000000e+00 0.000000e+00 1.000000e+00
      outer loop
         vertex 1.984228e+01 1.690528e+01 9.000000e+00
         vertex 1.555900e+01 5.193087e+00 9.000000e+00
         vertex 1.841365e+01 4.702119e+00 9.000000e+00
      endloop
   endfacet
   facet normal 0.000000e+00 0.000000e+00 1.000000e+00
      outer loop
         vertex 1.984228e+01 1.690528e+01 9.000000e+00
         vertex 1.841365e+01 4.702119e+00 9.000000e+00
         vertex 2.177431e+01 1.666121e+01 9.000000e+00
      endloop
   endfacet
   facet normal 0.000000e+00 0.000000e+00 1.000000e+00
      outer loop
         vertex 2.177431e+01 1.666121e+01 9.000000e+00
         vertex 1.841365e+01 4.702119e+00 9.000000e+00
         vertex 2.129972e+01 4.455741e+00 9.000000e+00
      endloop
   endfacet
   facet normal -0.000000e+00 0.000000e+00 1.000000e+00
      outer loop
         vertex 2.177431e+01 1.666121e+01 9.000000e+00
         vertex 2.129972e+01 4.455741e+00 9.000000e+00
         vertex 2.372169e+01 1.666121e+01 9.000000e+00
      endloop
   endfacet
   facet normal 0.000000e+00 0.000000e+00 1.000000e+00
      outer loop
         vertex 2.372169e+01 1.666121e+01 9.000000e+00
         vertex 2.129972e+01 4.455741e+00 9.000000e+00
         vertex 2.419628e+01 4.455741e+00 9.000000e+00
      endloop
   endfacet
   facet normal -0.000000e+00 0.000000e+00 1.000000e+00
      outer loop
         vertex 2.372169e+01 1.666121e+01 9.000000e+00
         vertex 2.419628e+01 4.455741e+00 9.000000e+00
         vertex 2.565372e+01 1.690528e+01 9.000000e+00
      endloop
   endfacet
   facet normal 0.000000e+00 0.000000e+00 1.000000e+00
      outer loop
         vertex 2.565372e+01 1.690528e+01 9.000000e+00
         vertex 2.419628e+01 4.455741e+00 9.000000e+00
         vertex 2.708235e+01 4.702119e+00 9.000000e+00
      endloop
   endfacet
   facet normal 0.000000e+00 0.000000e+00 1.000000e+00
      outer loop
         vertex 2.565372e+01 1.690528e+01 9.000000e+00
         vertex 2.708235e+01 4.702119e+00 9.000000e+00
         vertex 2.993700e+01 5.193087e+00 9.000000e+00
      endloop
   endfacet
   facet normal 0.000000e+00 0.000000e+00 1.000000e+00
      outer loop
         vertex 1.286347e+01 2.018926e+01 9.000000e+00
         vertex 4.861821e+00 9.505741e+00 9.000000e+00
         vertex 1.443894e+01 1.904461e+01 9.000000e+00
      endloop
   endfacet
   facet normal 0.000000e+00 0.000000e+00 1.000000e+00
      outer loop
         vertex 1.443894e+01 1.904461e+01 9.000000e+00
         vertex 4.861821e+00 9.505741e+00 9.000000e+00
         vertex 7.388412e+00 8.089258e+00 9.000000e+00
      endloop
   endfacet
   facet normal 0.000000e+00 0.000000e+00 1.000000e+00
      outer loop
         vertex 1.443894e+01 1.904461e+01 9.000000e+00
         vertex 7.388412e+00 8.089258e+00 9.000000e+00
         vertex 1.614544e+01 1.810645e+01 9.000000e+00
      endloop
   endfacet
   facet normal 0.000000e+00 0.000000e+00 1.000000e+00
      outer loop
         vertex 1.614544e+01 1.810645e+01 9.000000e+00
         vertex 7.388412e+00 8.089258e+00 9.000000e+00
         vertex 1.002633e+01 6.892817e+00 9.000000e+00
      endloop
   endfacet
   facet normal 0.000000e+00 0.000000e+00 1.000000e+00
      outer loop
         vertex 1.614544e+01 1.810645e+01 9.000000e+00
         vertex 1.002633e+01 6.892817e+00 9.000000e+00
         vertex 1.795608e+01 1.738957e+01 9.000000e+00
      endloop
   endfacet
   facet normal 0.000000e+00 0.000000e+00 1.000000e+00
      outer loop
         vertex 1.795608e+01 1.738957e+01 9.000000e+00
         vertex 1.002633e+01 6.892817e+00 9.000000e+00
         vertex 1.275646e+01 5.925088e+00 9.000000e+00
      endloop
   endfacet
   facet normal 0.000000e+00 0.000000e+00 1.000000e+00
      outer loop
         vertex 1.795608e+01 1.738957e+01 9.000000e+00
         vertex 1.275646e+01 5.925088e+00 9.000000e+00
         vertex 1.555900e+01 5.193087e+00 9.000000e+00
      endloop
   endfacet
   facet normal 0.000000e+00 0.000000e+00 1.000000e+00
      outer loop
         vertex 3.546967e+01 5.738239e+01 9.000000e+00
         vertex 3.273955e+01 5.835012e+01 9.000000e+00
         vertex 2.753993e+01 4.688563e+01 9.000000e+00
      endloop
   endfacet
   facet normal 0.000000e+00 0.000000e+00 1.000000e+00
      outer loop
         vertex 2.753993e+01 4.688563e+01 9.000000e+00
         vertex 3.273955e+01 5.835012e+01 9.000000e+00
         vertex 2.993700e+01 5.908212e+01 9.000000e+00
      endloop
   endfacet
   facet normal 0.000000e+00 -0.000000e+00 1.000000e+00
      outer loop
         vertex 2.753993e+01 4.688563e+01 9.000000e+00
         vertex 2.993700e+01 5.908212e+01 9.000000e+00
         vertex 2.565372e+01 4.736993e+01 9.000000e+00
      endloop
   endfacet
   facet normal 0.000000e+00 0.000000e+00 1.000000e+00
      outer loop
         vertex 2.565372e+01 4.736993e+01 9.000000e+00
         vertex 2.993700e+01 5.908212e+01 9.000000e+00
         vertex 2.708235e+01 5.957308e+01 9.000000e+00
      endloop
   endfacet
   facet normal 0.000000e+00 -0.000000e+00 1.000000e+00
      outer loop
         vertex 2.565372e+01 4.736993e+01 9.000000e+00
         vertex 2.708235e+01 5.957308e+01 9.000000e+00
         vertex 2.372169e+01 4.761400e+01 9.000000e+00
      endloop
   endfacet
   facet normal 0.000000e+00 0.000000e+00 1.000000e+00
      outer loop
         vertex 2.372169e+01 4.761400e+01 9.000000e+00
         vertex 2.708235e+01 5.957308e+01 9.000000e+00
         vertex 2.419628e+01 5.981946e+01 9.000000e+00
      endloop
   endfacet
   facet normal 0.000000e+00 -0.000000e+00 1.000000e+00
      outer loop
         vertex 2.372169e+01 4.761400e+01 9.000000e+00
         vertex 2.419628e+01 5.981946e+01 9.000000e+00
         vertex 2.177431e+01 4.761400e+01 9.000000e+00
      endloop
   endfacet
   facet normal 0.000000e+00 -0.000000e+00 1.000000e+00
      outer loop
         vertex 2.177431e+01 4.761400e+01 9.000000e+00
         vertex 2.419628e+01 5.981946e+01 9.000000e+00
         vertex 2.129972e+01 5.981946e+01 9.000000e+00
      endloop
   endfacet
   facet normal 0.000000e+00 0.000000e+00 1.000000e+00
      outer loop
         vertex 2.177431e+01 4.761400e+01 9.000000e+00
         vertex 2.129972e+01 5.981946e+01 9.000000e+00
         vertex 1.984228e+01 4.736993e+01 9.000000e+00
      endloop
   endfacet
   facet normal 0.000000e+00 -0.000000e+00 1.000000e+00
      outer loop
         vertex 1.984228e+01 4.736993e+01 9.000000e+00
         vertex 2.129972e+01 5.981946e+01 9.000000e+00
         vertex 1.841365e+01 5.957308e+01 9.000000e+00
      endloop
   endfacet
   facet normal 0.000000e+00 0.000000e+00 1.000000e+00
      outer loop
         vertex 1.984228e+01 4.736993e+01 9.000000e+00
         vertex 1.841365e+01 5.957308e+01 9.000000e+00
         vertex 1.555900e+01 5.908212e+01 9.000000e+00
      endloop
   endfacet
   facet normal -0.000000e+00 0.000000e+00 1.000000e+00
      outer loop
         vertex 3.529342e+01 4.125239e+01 9.000000e+00
         vertex 3.633688e+01 3.960815e+01 9.000000e+00
         vertex 4.063418e+01 5.476946e+01 9.000000e+00
      endloop
   endfacet
   facet normal 0.000000e+00 0.000000e+00 1.000000e+00
      outer loop
         vertex 4.063418e+01 5.476946e+01 9.000000e+00
         vertex 3.633688e+01 3.960815e+01 9.000000e+00
         vertex 3.716604e+01 3.784611e+01 9.000000e+00
      endloop
   endfacet
   facet normal 0.000000e+00 0.000000e+00 1.000000e+00
      outer loop
         vertex 4.063418e+01 5.476946e+01 9.000000e+00
         vertex 3.716604e+01 3.784611e+01 9.000000e+00
         vertex 3.776782e+01 3.599403e+01 9.000000e+00
      endloop
   endfacet
   facet normal 0.000000e+00 0.000000e+00 1.000000e+00
      outer loop
         vertex 7.728186e+00 2.828117e+01 9.000000e+00
         vertex 7.363283e+00 3.019406e+01 9.000000e+00
         vertex 4.861821e+00 9.505741e+00 9.000000e+00
      endloop
   endfacet
   facet normal 0.000000e+00 0.000000e+00 1.000000e+00
      outer loop
         vertex 4.861821e+00 9.505741e+00 9.000000e+00
         vertex 7.363283e+00 3.019406e+01 9.000000e+00
         vertex 7.241006e+00 3.213760e+01 9.000000e+00
      endloop
   endfacet
   facet normal 0.000000e+00 0.000000e+00 1.000000e+00
      outer loop
         vertex 4.861821e+00 9.505741e+00 9.000000e+00
         vertex 7.241006e+00 3.213760e+01 9.000000e+00
         vertex 4.861821e+00 5.476946e+01 9.000000e+00
      endloop
   endfacet
   facet normal 0.000000e+00 0.000000e+00 1.000000e+00
      outer loop
         vertex 4.861821e+00 5.476946e+01 9.000000e+00
         vertex 7.241006e+00 3.213760e+01 9.000000e+00
         vertex 7.363283e+00 3.408114e+01 9.000000e+00
      endloop
   endfacet
   facet normal 0.000000e+00 0.000000e+00 1.000000e+00
      outer loop
         vertex 4.861821e+00 5.476946e+01 9.000000e+00
         vertex 7.363283e+00 3.408114e+01 9.000000e+00
         vertex 7.728186e+00 3.599403e+01 9.000000e+00
      endloop
   endfacet
   facet normal 0.000000e+00 0.000000e+00 1.000000e+00
      outer loop
         vertex 3.312512e+01 -1.429606e+01 9.000000e+00
         vertex 2.684164e+01 -1.429606e+01 9.000000e+00
         vertex 3.304946e+01 -1.554688e+01 9.000000e+00
      endloop
   endfacet
   facet normal 0.000000e+00 0.000000e+00 1.000000e+00
      outer loop
         vertex 3.304946e+01 -1.554688e+01 9.000000e+00
         vertex 2.684164e+01 -1.429606e+01 9.000000e+00
         vertex 2.677945e+01 -1.500691e+01 9.000000e+00
      endloop
   endfacet
   facet normal 0.000000e+00 0.000000e+00 1.000000e+00
      outer loop
         vertex 3.304946e+01 -1.554688e+01 9.000000e+00
         vertex 2.677945e+01 -1.500691e+01 9.000000e+00
         vertex 3.282358e+01 -1.677947e+01 9.000000e+00
      endloop
   endfacet
   facet normal 0.000000e+00 0.000000e+00 1.000000e+00
      outer loop
         vertex 3.282358e+01 -1.677947e+01 9.000000e+00
         vertex 2.677945e+01 -1.500691e+01 9.000000e+00
         vertex 2.659477e+01 -1.569617e+01 9.000000e+00
      endloop
   endfacet
   facet normal -0.000000e+00 0.000000e+00 1.000000e+00
      outer loop
         vertex 2.588391e+01 -1.692740e+01 9.000000e+00
         vertex 3.128820e+01 -2.019094e+01 9.000000e+00
         vertex 2.629320e+01 -1.634288e+01 9.000000e+00
      endloop
   endfacet
   facet normal 0.000000e+00 0.000000e+00 1.000000e+00
      outer loop
         vertex 2.629320e+01 -1.634288e+01 9.000000e+00
         vertex 3.128820e+01 -2.019094e+01 9.000000e+00
         vertex 3.193649e+01 -1.911855e+01 9.000000e+00
      endloop
   endfacet
   facet normal -0.000000e+00 0.000000e+00 1.000000e+00
      outer loop
         vertex 2.629320e+01 -1.634288e+01 9.000000e+00
         vertex 3.193649e+01 -1.911855e+01 9.000000e+00
         vertex 2.659477e+01 -1.569617e+01 9.000000e+00
      endloop
   endfacet
   facet normal 0.000000e+00 0.000000e+00 1.000000e+00
      outer loop
         vertex 2.659477e+01 -1.569617e+01 9.000000e+00
         vertex 3.193649e+01 -1.911855e+01 9.000000e+00
         vertex 3.245078e+01 -1.797584e+01 9.000000e+00
      endloop
   endfacet
   facet normal 0.000000e+00 0.000000e+00 1.000000e+00
      outer loop
         vertex 2.659477e+01 -1.569617e+01 9.000000e+00
         vertex 3.245078e+01 -1.797584e+01 9.000000e+00
         vertex 3.282358e+01 -1.677947e+01 9.000000e+00
      endloop
   endfacet
   facet normal -0.000000e+00 0.000000e+00 1.000000e+00
      outer loop
         vertex 2.345886e+01 -1.832751e+01 9.000000e+00
         vertex 2.523141e+01 -2.437164e+01 9.000000e+00
         vertex 2.414811e+01 -1.814282e+01 9.000000e+00
      endloop
   endfacet
   facet normal 0.000000e+00 0.000000e+00 1.000000e+00
      outer loop
         vertex 2.414811e+01 -1.814282e+01 9.000000e+00
         vertex 2.523141e+01 -2.437164e+01 9.000000e+00
         vertex 2.642778e+01 -2.399883e+01 9.000000e+00
      endloop
   endfacet
   facet normal -0.000000e+00 0.000000e+00 1.000000e+00
      outer loop
         vertex 2.414811e+01 -1.814282e+01 9.000000e+00
         vertex 2.642778e+01 -2.399883e+01 9.000000e+00
         vertex 2.479482e+01 -1.784126e+01 9.000000e+00
      endloop
   endfacet
   facet normal 0.000000e+00 0.000000e+00 1.000000e+00
      outer loop
         vertex 2.134789e+01 -1.814282e+01 9.000000e+00
         vertex 2.026459e+01 -2.437164e+01 9.000000e+00
         vertex 2.203715e+01 -1.832751e+01 9.000000e+00
      endloop
   endfacet
   facet normal 0.000000e+00 0.000000e+00 1.000000e+00
      outer loop
         vertex 2.203715e+01 -1.832751e+01 9.000000e+00
         vertex 2.026459e+01 -2.437164e+01 9.000000e+00
         vertex 2.149718e+01 -2.459752e+01 9.000000e+00
      endloop
   endfacet
   facet normal 0.000000e+00 0.000000e+00 1.000000e+00
      outer loop
         vertex 2.203715e+01 -1.832751e+01 9.000000e+00
         vertex 2.149718e+01 -2.459752e+01 9.000000e+00
         vertex 2.274800e+01 -1.838970e+01 9.000000e+00
      endloop
   endfacet
   facet normal 0.000000e+00 0.000000e+00 1.000000e+00
      outer loop
         vertex 2.274800e+01 -1.838970e+01 9.000000e+00
         vertex 2.149718e+01 -2.459752e+01 9.000000e+00
         vertex 2.274800e+01 -2.467318e+01 9.000000e+00
      endloop
   endfacet
   facet normal -0.000000e+00 0.000000e+00 1.000000e+00
      outer loop
         vertex 2.274800e+01 -1.838970e+01 9.000000e+00
         vertex 2.274800e+01 -2.467318e+01 9.000000e+00
         vertex 2.345886e+01 -1.832751e+01 9.000000e+00
      endloop
   endfacet
   facet normal 0.000000e+00 0.000000e+00 1.000000e+00
      outer loop
         vertex 2.345886e+01 -1.832751e+01 9.000000e+00
         vertex 2.274800e+01 -2.467318e+01 9.000000e+00
         vertex 2.399882e+01 -2.459752e+01 9.000000e+00
      endloop
   endfacet
   facet normal 0.000000e+00 0.000000e+00 1.000000e+00
      outer loop
         vertex 2.345886e+01 -1.832751e+01 9.000000e+00
         vertex 2.399882e+01 -2.459752e+01 9.000000e+00
         vertex 2.523141e+01 -2.437164e+01 9.000000e+00
      endloop
   endfacet
   facet normal 0.000000e+00 -0.000000e+00 1.000000e+00
      outer loop
         vertex 2.642778e+01 -2.399883e+01 9.000000e+00
         vertex 2.757049e+01 -2.348454e+01 9.000000e+00
         vertex 2.479482e+01 -1.784126e+01 9.000000e+00
      endloop
   endfacet
   facet normal 0.000000e+00 0.000000e+00 1.000000e+00
      outer loop
         vertex 2.479482e+01 -1.784126e+01 9.000000e+00
         vertex 2.757049e+01 -2.348454e+01 9.000000e+00
         vertex 2.864288e+01 -2.283626e+01 9.000000e+00
      endloop
   endfacet
   facet normal -0.000000e+00 0.000000e+00 1.000000e+00
      outer loop
         vertex 2.479482e+01 -1.784126e+01 9.000000e+00
         vertex 2.864288e+01 -2.283626e+01 9.000000e+00
         vertex 2.537934e+01 -1.743197e+01 9.000000e+00
      endloop
   endfacet
   facet normal 0.000000e+00 0.000000e+00 1.000000e+00
      outer loop
         vertex 2.537934e+01 -1.743197e+01 9.000000e+00
         vertex 2.864288e+01 -2.283626e+01 9.000000e+00
         vertex 2.962931e+01 -2.206345e+01 9.000000e+00
      endloop
   endfacet
   facet normal -0.000000e+00 0.000000e+00 1.000000e+00
      outer loop
         vertex 2.537934e+01 -1.743197e+01 9.000000e+00
         vertex 2.962931e+01 -2.206345e+01 9.000000e+00
         vertex 2.588391e+01 -1.692740e+01 9.000000e+00
      endloop
   endfacet
   facet normal 0.000000e+00 0.000000e+00 1.000000e+00
      outer loop
         vertex 2.588391e+01 -1.692740e+01 9.000000e+00
         vertex 2.962931e+01 -2.206345e+01 9.000000e+00
         vertex 3.051539e+01 -2.117736e+01 9.000000e+00
      endloop
   endfacet
   facet normal 0.000000e+00 0.000000e+00 1.000000e+00
      outer loop
         vertex 2.588391e+01 -1.692740e+01 9.000000e+00
         vertex 3.051539e+01 -2.117736e+01 9.000000e+00
         vertex 3.128820e+01 -2.019094e+01 9.000000e+00
      endloop
   endfacet
   facet normal 0.000000e+00 0.000000e+00 1.000000e+00
      outer loop
         vertex 2.011666e+01 -1.743197e+01 9.000000e+00
         vertex 1.685313e+01 -2.283626e+01 9.000000e+00
         vertex 2.070118e+01 -1.784126e+01 9.000000e+00
      endloop
   endfacet
   facet normal 0.000000e+00 0.000000e+00 1.000000e+00
      outer loop
         vertex 2.070118e+01 -1.784126e+01 9.000000e+00
         vertex 1.685313e+01 -2.283626e+01 9.000000e+00
         vertex 1.792551e+01 -2.348454e+01 9.000000e+00
      endloop
   endfacet
   facet normal 0.000000e+00 0.000000e+00 1.000000e+00
      outer loop
         vertex 2.070118e+01 -1.784126e+01 9.000000e+00
         vertex 1.792551e+01 -2.348454e+01 9.000000e+00
         vertex 2.134789e+01 -1.814282e+01 9.000000e+00
      endloop
   endfacet
   facet normal 0.000000e+00 0.000000e+00 1.000000e+00
      outer loop
         vertex 2.134789e+01 -1.814282e+01 9.000000e+00
         vertex 1.792551e+01 -2.348454e+01 9.000000e+00
         vertex 1.906822e+01 -2.399883e+01 9.000000e+00
      endloop
   endfacet
   facet normal 0.000000e+00 0.000000e+00 1.000000e+00
      outer loop
         vertex 2.134789e+01 -1.814282e+01 9.000000e+00
         vertex 1.906822e+01 -2.399883e+01 9.000000e+00
         vertex 2.026459e+01 -2.437164e+01 9.000000e+00
      endloop
   endfacet
   facet normal 0.000000e+00 0.000000e+00 1.000000e+00
      outer loop
         vertex 1.237088e+01 -1.429606e+01 9.000000e+00
         vertex 1.244654e+01 -1.554688e+01 9.000000e+00
         vertex 1.871655e+01 -1.500691e+01 9.000000e+00
      endloop
   endfacet
   facet normal 0.000000e+00 0.000000e+00 1.000000e+00
      outer loop
         vertex 1.871655e+01 -1.500691e+01 9.000000e+00
         vertex 1.244654e+01 -1.554688e+01 9.000000e+00
         vertex 1.267242e+01 -1.677947e+01 9.000000e+00
      endloop
   endfacet
   facet normal 0.000000e+00 0.000000e+00 1.000000e+00
      outer loop
         vertex 1.871655e+01 -1.500691e+01 9.000000e+00
         vertex 1.267242e+01 -1.677947e+01 9.000000e+00
         vertex 1.890124e+01 -1.569617e+01 9.000000e+00
      endloop
   endfacet
   facet normal 0.000000e+00 0.000000e+00 1.000000e+00
      outer loop
         vertex 1.890124e+01 -1.569617e+01 9.000000e+00
         vertex 1.267242e+01 -1.677947e+01 9.000000e+00
         vertex 1.304523e+01 -1.797584e+01 9.000000e+00
      endloop
   endfacet
   facet normal 0.000000e+00 0.000000e+00 1.000000e+00
      outer loop
         vertex 1.890124e+01 -1.569617e+01 9.000000e+00
         vertex 1.304523e+01 -1.797584e+01 9.000000e+00
         vertex 1.920281e+01 -1.634288e+01 9.000000e+00
      endloop
   endfacet
   facet normal 0.000000e+00 0.000000e+00 1.000000e+00
      outer loop
         vertex 1.871655e+01 -1.500691e+01 9.000000e+00
         vertex 1.865436e+01 -1.429606e+01 9.000000e+00
         vertex 1.237088e+01 -1.429606e+01 9.000000e+00
      endloop
   endfacet
   facet normal 0.000000e+00 0.000000e+00 1.000000e+00
      outer loop
         vertex 1.237088e+01 -1.429606e+01 9.000000e+00
         vertex 1.865436e+01 -1.429606e+01 9.000000e+00
         vertex 1.871655e+01 -1.358521e+01 9.000000e+00
      endloop
   endfacet
   facet normal 0.000000e+00 0.000000e+00 1.000000e+00
      outer loop
         vertex 1.237088e+01 -1.429606e+01 9.000000e+00
         vertex 1.871655e+01 -1.358521e+01 9.000000e+00
         vertex 1.237088e+01 -5.000000e+00 9.000000e+00
      endloop
   endfacet
   facet normal 0.000000e+00 0.000000e+00 1.000000e+00
      outer loop
         vertex 1.237088e+01 -5.000000e+00 9.000000e+00
         vertex 1.871655e+01 -1.358521e+01 9.000000e+00
         vertex 1.890124e+01 -1.289595e+01 9.000000e+00
      endloop
   endfacet
   facet normal -0.000000e+00 0.000000e+00 1.000000e+00
      outer loop
         vertex 1.304523e+01 -1.797584e+01 9.000000e+00
         vertex 1.355952e+01 -1.911855e+01 9.000000e+00
         vertex 1.920281e+01 -1.634288e+01 9.000000e+00
      endloop
   endfacet
   facet normal 0.000000e+00 0.000000e+00 1.000000e+00
      outer loop
         vertex 1.920281e+01 -1.634288e+01 9.000000e+00
         vertex 1.355952e+01 -1.911855e+01 9.000000e+00
         vertex 1.420780e+01 -2.019094e+01 9.000000e+00
      endloop
   endfacet
   facet normal 0.000000e+00 0.000000e+00 1.000000e+00
      outer loop
         vertex 1.920281e+01 -1.634288e+01 9.000000e+00
         vertex 1.420780e+01 -2.019094e+01 9.000000e+00
         vertex 1.961209e+01 -1.692740e+01 9.000000e+00
      endloop
   endfacet
   facet normal 0.000000e+00 0.000000e+00 1.000000e+00
      outer loop
         vertex 1.961209e+01 -1.692740e+01 9.000000e+00
         vertex 1.420780e+01 -2.019094e+01 9.000000e+00
         vertex 1.498062e+01 -2.117736e+01 9.000000e+00
      endloop
   endfacet
   facet normal 0.000000e+00 0.000000e+00 1.000000e+00
      outer loop
         vertex 1.961209e+01 -1.692740e+01 9.000000e+00
         vertex 1.498062e+01 -2.117736e+01 9.000000e+00
         vertex 2.011666e+01 -1.743197e+01 9.000000e+00
      endloop
   endfacet
   facet normal 0.000000e+00 0.000000e+00 1.000000e+00
      outer loop
         vertex 2.011666e+01 -1.743197e+01 9.000000e+00
         vertex 1.498062e+01 -2.117736e+01 9.000000e+00
         vertex 1.586670e+01 -2.206345e+01 9.000000e+00
      endloop
   endfacet
   facet normal 0.000000e+00 0.000000e+00 1.000000e+00
      outer loop
         vertex 2.011666e+01 -1.743197e+01 9.000000e+00
         vertex 1.586670e+01 -2.206345e+01 9.000000e+00
         vertex 1.685313e+01 -2.283626e+01 9.000000e+00
      endloop
   endfacet
   facet normal 0.000000e+00 -0.000000e+00 1.000000e+00
      outer loop
         vertex 1.890124e+01 -1.289595e+01 9.000000e+00
         vertex 1.920281e+01 -1.224924e+01 9.000000e+00
         vertex 1.237088e+01 -5.000000e+00 9.000000e+00
      endloop
   endfacet
   facet normal 0.000000e+00 0.000000e+00 1.000000e+00
      outer loop
         vertex 1.237088e+01 -5.000000e+00 9.000000e+00
         vertex 1.920281e+01 -1.224924e+01 9.000000e+00
         vertex 1.961209e+01 -1.166472e+01 9.000000e+00
      endloop
   endfacet
   facet normal -0.000000e+00 -0.000000e+00 1.000000e+00
      outer loop
         vertex 1.237088e+01 -5.000000e+00 9.000000e+00
         vertex 1.961209e+01 -1.166472e+01 9.000000e+00
         vertex 1.230932e+01 -4.217828e+00 9.000000e+00
      endloop
   endfacet
   facet normal 0.000000e+00 0.000000e+00 1.000000e+00
      outer loop
         vertex 1.230932e+01 -4.217828e+00 9.000000e+00
         vertex 1.961209e+01 -1.166472e+01 9.000000e+00
         vertex 2.011666e+01 -1.116015e+01 9.000000e+00
      endloop
   endfacet
   facet normal -0.000000e+00 -0.000000e+00 1.000000e+00
      outer loop
         vertex 1.230932e+01 -4.217828e+00 9.000000e+00
         vertex 2.011666e+01 -1.116015e+01 9.000000e+00
         vertex 1.212616e+01 -3.454915e+00 9.000000e+00
      endloop
   endfacet
   facet normal -0.000000e+00 -0.000000e+00 1.000000e+00
      outer loop
         vertex 1.212616e+01 -3.454915e+00 9.000000e+00
         vertex 2.011666e+01 -1.116015e+01 9.000000e+00
         vertex 1.182591e+01 -2.730048e+00 9.000000e+00
      endloop
   endfacet
   facet normal 0.000000e+00 -0.000000e+00 1.000000e+00
      outer loop
         vertex 3.734295e+01 -6.155830e-02 9.000000e+00
         vertex 3.812512e+01 0.000000e+00 9.000000e+00
         vertex 7.370881e+00 0.000000e+00 9.000000e+00
      endloop
   endfacet
   facet normal -0.000000e+00 0.000000e+00 1.000000e+00
      outer loop
         vertex 2.588391e+01 -1.166472e+01 9.000000e+00
         vertex 2.629320e+01 -1.224924e+01 9.000000e+00
         vertex 3.312512e+01 -5.000000e+00 9.000000e+00
      endloop
   endfacet
   facet normal 0.000000e+00 0.000000e+00 1.000000e+00
      outer loop
         vertex 3.312512e+01 -5.000000e+00 9.000000e+00
         vertex 2.629320e+01 -1.224924e+01 9.000000e+00
         vertex 2.659477e+01 -1.289595e+01 9.000000e+00
      endloop
   endfacet
   facet normal 0.000000e+00 0.000000e+00 1.000000e+00
      outer loop
         vertex 3.312512e+01 -5.000000e+00 9.000000e+00
         vertex 2.659477e+01 -1.289595e+01 9.000000e+00
         vertex 3.312512e+01 -1.429606e+01 9.000000e+00
      endloop
   endfacet
   facet normal 0.000000e+00 0.000000e+00 1.000000e+00
      outer loop
         vertex 3.312512e+01 -1.429606e+01 9.000000e+00
         vertex 2.659477e+01 -1.289595e+01 9.000000e+00
         vertex 2.677945e+01 -1.358521e+01 9.000000e+00
      endloop
   endfacet
   facet normal 0.000000e+00 0.000000e+00 1.000000e+00
      outer loop
         vertex 3.312512e+01 -1.429606e+01 9.000000e+00
         vertex 2.677945e+01 -1.358521e+01 9.000000e+00
         vertex 2.684164e+01 -1.429606e+01 9.000000e+00
      endloop
   endfacet
   facet normal 0.000000e+00 0.000000e+00 1.000000e+00
      outer loop
         vertex 2.070118e+01 -1.075086e+01 9.000000e+00
         vertex 1.090642e+01 -1.464466e+00 9.000000e+00
         vertex 2.011666e+01 -1.116015e+01 9.000000e+00
      endloop
   endfacet
   facet normal 0.000000e+00 0.000000e+00 1.000000e+00
      outer loop
         vertex 2.011666e+01 -1.116015e+01 9.000000e+00
         vertex 1.090642e+01 -1.464466e+00 9.000000e+00
         vertex 1.141597e+01 -2.061074e+00 9.000000e+00
      endloop
   endfacet
   facet normal 0.000000e+00 0.000000e+00 1.000000e+00
      outer loop
         vertex 2.011666e+01 -1.116015e+01 9.000000e+00
         vertex 1.141597e+01 -2.061074e+00 9.000000e+00
         vertex 1.182591e+01 -2.730048e+00 9.000000e+00
      endloop
   endfacet
   facet normal -0.000000e+00 0.000000e+00 1.000000e+00
      outer loop
         vertex 2.479482e+01 -1.075086e+01 9.000000e+00
         vertex 2.537934e+01 -1.116015e+01 9.000000e+00
         vertex 3.458959e+01 -1.464466e+00 9.000000e+00
      endloop
   endfacet
   facet normal 0.000000e+00 -0.000000e+00 1.000000e+00
      outer loop
         vertex 2.070118e+01 -1.075086e+01 9.000000e+00
         vertex 2.134789e+01 -1.044930e+01 9.000000e+00
         vertex 1.090642e+01 -1.464466e+00 9.000000e+00
      endloop
   endfacet
   facet normal 0.000000e+00 0.000000e+00 1.000000e+00
      outer loop
         vertex 1.090642e+01 -1.464466e+00 9.000000e+00
         vertex 2.134789e+01 -1.044930e+01 9.000000e+00
         vertex 2.203715e+01 -1.026461e+01 9.000000e+00
      endloop
   endfacet
   facet normal -0.000000e+00 -0.000000e+00 1.000000e+00
      outer loop
         vertex 1.090642e+01 -1.464466e+00 9.000000e+00
         vertex 2.203715e+01 -1.026461e+01 9.000000e+00
         vertex 1.030981e+01 -9.549150e-01 9.000000e+00
      endloop
   endfacet
   facet normal 0.000000e+00 0.000000e+00 1.000000e+00
      outer loop
         vertex 1.030981e+01 -9.549150e-01 9.000000e+00
         vertex 2.203715e+01 -1.026461e+01 9.000000e+00
         vertex 2.274800e+01 -1.020242e+01 9.000000e+00
      endloop
   endfacet
   facet normal 0.000000e+00 0.000000e+00 1.000000e+00
      outer loop
         vertex 1.030981e+01 -9.549150e-01 9.000000e+00
         vertex 2.274800e+01 -1.020242e+01 9.000000e+00
         vertex 2.345886e+01 -1.026461e+01 9.000000e+00
      endloop
   endfacet
   facet normal 0.000000e+00 0.000000e+00 1.000000e+00
      outer loop
         vertex 3.734295e+01 -6.155830e-02 9.000000e+00
         vertex 7.370881e+00 0.000000e+00 9.000000e+00
         vertex 3.658004e+01 -2.447174e-01 9.000000e+00
      endloop
   endfacet
   facet normal 0.000000e+00 -0.000000e+00 1.000000e+00
      outer loop
         vertex 2.588391e+01 -1.166472e+01 9.000000e+00
         vertex 3.312512e+01 -5.000000e+00 9.000000e+00
         vertex 2.537934e+01 -1.116015e+01 9.000000e+00
      endloop
   endfacet
   facet normal 0.000000e+00 0.000000e+00 1.000000e+00
      outer loop
         vertex 2.537934e+01 -1.116015e+01 9.000000e+00
         vertex 3.312512e+01 -5.000000e+00 9.000000e+00
         vertex 3.318668e+01 -4.217828e+00 9.000000e+00
      endloop
   endfacet
   facet normal 0.000000e+00 0.000000e+00 1.000000e+00
      outer loop
         vertex 2.537934e+01 -1.116015e+01 9.000000e+00
         vertex 3.318668e+01 -4.217828e+00 9.000000e+00
         vertex 3.336984e+01 -3.454915e+00 9.000000e+00
      endloop
   endfacet
   facet normal 0.000000e+00 -0.000000e+00 1.000000e+00
      outer loop
         vertex 3.336984e+01 -3.454915e+00 9.000000e+00
         vertex 3.367009e+01 -2.730048e+00 9.000000e+00
         vertex 2.537934e+01 -1.116015e+01 9.000000e+00
      endloop
   endfacet
   facet normal 0.000000e+00 0.000000e+00 1.000000e+00
      outer loop
         vertex 2.537934e+01 -1.116015e+01 9.000000e+00
         vertex 3.367009e+01 -2.730048e+00 9.000000e+00
         vertex 3.408004e+01 -2.061074e+00 9.000000e+00
      endloop
   endfacet
   facet normal 0.000000e+00 0.000000e+00 1.000000e+00
      outer loop
         vertex 2.537934e+01 -1.116015e+01 9.000000e+00
         vertex 3.408004e+01 -2.061074e+00 9.000000e+00
         vertex 3.458959e+01 -1.464466e+00 9.000000e+00
      endloop
   endfacet
   facet normal 0.000000e+00 0.000000e+00 1.000000e+00
      outer loop
         vertex 3.658004e+01 -2.447174e-01 9.000000e+00
         vertex 7.370881e+00 0.000000e+00 9.000000e+00
         vertex 3.585517e+01 -5.449674e-01 9.000000e+00
      endloop
   endfacet
   facet normal 0.000000e+00 0.000000e+00 1.000000e+00
      outer loop
         vertex 3.585517e+01 -5.449674e-01 9.000000e+00
         vertex 7.370881e+00 0.000000e+00 9.000000e+00
         vertex 8.153053e+00 -6.155830e-02 9.000000e+00
      endloop
   endfacet
   facet normal 0.000000e+00 0.000000e+00 1.000000e+00
      outer loop
         vertex 3.585517e+01 -5.449674e-01 9.000000e+00
         vertex 8.153053e+00 -6.155830e-02 9.000000e+00
         vertex 3.518619e+01 -9.549150e-01 9.000000e+00
      endloop
   endfacet
   facet normal 0.000000e+00 0.000000e+00 1.000000e+00
      outer loop
         vertex 3.518619e+01 -9.549150e-01 9.000000e+00
         vertex 8.153053e+00 -6.155830e-02 9.000000e+00
         vertex 8.915965e+00 -2.447174e-01 9.000000e+00
      endloop
   endfacet
   facet normal 0.000000e+00 0.000000e+00 1.000000e+00
      outer loop
         vertex 3.518619e+01 -9.549150e-01 9.000000e+00
         vertex 8.915965e+00 -2.447174e-01 9.000000e+00
         vertex 9.640833e+00 -5.449674e-01 9.000000e+00
      endloop
   endfacet
   facet normal 0.000000e+00 0.000000e+00 1.000000e+00
      outer loop
         vertex 9.640833e+00 -5.449674e-01 9.000000e+00
         vertex 1.030981e+01 -9.549150e-01 9.000000e+00
         vertex 3.518619e+01 -9.549150e-01 9.000000e+00
      endloop
   endfacet
   facet normal 0.000000e+00 0.000000e+00 1.000000e+00
      outer loop
         vertex 3.518619e+01 -9.549150e-01 9.000000e+00
         vertex 1.030981e+01 -9.549150e-01 9.000000e+00
         vertex 2.345886e+01 -1.026461e+01 9.000000e+00
      endloop
   endfacet
   facet normal 0.000000e+00 0.000000e+00 1.000000e+00
      outer loop
         vertex 3.518619e+01 -9.549150e-01 9.000000e+00
         vertex 2.345886e+01 -1.026461e+01 9.000000e+00
         vertex 3.458959e+01 -1.464466e+00 9.000000e+00
      endloop
   endfacet
   facet normal 0.000000e+00 0.000000e+00 1.000000e+00
      outer loop
         vertex 3.458959e+01 -1.464466e+00 9.000000e+00
         vertex 2.345886e+01 -1.026461e+01 9.000000e+00
         vertex 2.414811e+01 -1.044930e+01 9.000000e+00
      endloop
   endfacet
   facet normal 0.000000e+00 0.000000e+00 1.000000e+00
      outer loop
         vertex 3.458959e+01 -1.464466e+00 9.000000e+00
         vertex 2.414811e+01 -1.044930e+01 9.000000e+00
         vertex 2.479482e+01 -1.075086e+01 9.000000e+00
      endloop
   endfacet
   facet normal 0.000000e+00 -0.000000e+00 1.000000e+00
      outer loop
         vertex 2.414811e+01 8.241802e+01 9.000000e+00
         vertex 2.523141e+01 8.864684e+01 9.000000e+00
         vertex 2.345886e+01 8.260271e+01 9.000000e+00
      endloop
   endfacet
   facet normal 0.000000e+00 0.000000e+00 1.000000e+00
      outer loop
         vertex 2.345886e+01 8.260271e+01 9.000000e+00
         vertex 2.523141e+01 8.864684e+01 9.000000e+00
         vertex 2.399882e+01 8.887272e+01 9.000000e+00
      endloop
   endfacet
   facet normal 0.000000e+00 -0.000000e+00 1.000000e+00
      outer loop
         vertex 2.345886e+01 8.260271e+01 9.000000e+00
         vertex 2.399882e+01 8.887272e+01 9.000000e+00
         vertex 2.274800e+01 8.266490e+01 9.000000e+00
      endloop
   endfacet
   facet normal 0.000000e+00 0.000000e+00 1.000000e+00
      outer loop
         vertex 2.274800e+01 8.266490e+01 9.000000e+00
         vertex 2.399882e+01 8.887272e+01 9.000000e+00
         vertex 2.274800e+01 8.894838e+01 9.000000e+00
      endloop
   endfacet
   facet normal 0.000000e+00 -0.000000e+00 1.000000e+00
      outer loop
         vertex 2.274800e+01 8.266490e+01 9.000000e+00
         vertex 2.274800e+01 8.894838e+01 9.000000e+00
         vertex 2.203715e+01 8.260271e+01 9.000000e+00
      endloop
   endfacet
   facet normal 0.000000e+00 -0.000000e+00 1.000000e+00
      outer loop
         vertex 2.537934e+01 8.170717e+01 9.000000e+00
         vertex 2.864288e+01 8.711147e+01 9.000000e+00
         vertex 2.479482e+01 8.211646e+01 9.000000e+00
      endloop
   endfacet
   facet normal 0.000000e+00 0.000000e+00 1.000000e+00
      outer loop
         vertex 2.479482e+01 8.211646e+01 9.000000e+00
         vertex 2.864288e+01 8.711147e+01 9.000000e+00
         vertex 2.757049e+01 8.775975e+01 9.000000e+00
      endloop
   endfacet
   facet normal 0.000000e+00 -0.000000e+00 1.000000e+00
      outer loop
         vertex 2.479482e+01 8.211646e+01 9.000000e+00
         vertex 2.757049e+01 8.775975e+01 9.000000e+00
         vertex 2.414811e+01 8.241802e+01 9.000000e+00
      endloop
   endfacet
   facet normal 0.000000e+00 0.000000e+00 1.000000e+00
      outer loop
         vertex 2.414811e+01 8.241802e+01 9.000000e+00
         vertex 2.757049e+01 8.775975e+01 9.000000e+00
         vertex 2.642778e+01 8.827404e+01 9.000000e+00
      endloop
   endfacet
   facet normal 0.000000e+00 0.000000e+00 1.000000e+00
      outer loop
         vertex 2.414811e+01 8.241802e+01 9.000000e+00
         vertex 2.642778e+01 8.827404e+01 9.000000e+00
         vertex 2.523141e+01 8.864684e+01 9.000000e+00
      endloop
   endfacet
   facet normal 0.000000e+00 -0.000000e+00 1.000000e+00
      outer loop
         vertex 2.629320e+01 8.061808e+01 9.000000e+00
         vertex 3.128820e+01 8.446614e+01 9.000000e+00
         vertex 2.588391e+01 8.120260e+01 9.000000e+00
      endloop
   endfacet
   facet normal 0.000000e+00 0.000000e+00 1.000000e+00
      outer loop
         vertex 2.588391e+01 8.120260e+01 9.000000e+00
         vertex 3.128820e+01 8.446614e+01 9.000000e+00
         vertex 3.051539e+01 8.545256e+01 9.000000e+00
      endloop
   endfacet
   facet normal 0.000000e+00 -0.000000e+00 1.000000e+00
      outer loop
         vertex 2.588391e+01 8.120260e+01 9.000000e+00
         vertex 3.051539e+01 8.545256e+01 9.000000e+00
         vertex 2.537934e+01 8.170717e+01 9.000000e+00
      endloop
   endfacet
   facet normal 0.000000e+00 0.000000e+00 1.000000e+00
      outer loop
         vertex 2.537934e+01 8.170717e+01 9.000000e+00
         vertex 3.051539e+01 8.545256e+01 9.000000e+00
         vertex 2.962931e+01 8.633865e+01 9.000000e+00
      endloop
   endfacet
   facet normal 0.000000e+00 0.000000e+00 1.000000e+00
      outer loop
         vertex 2.537934e+01 8.170717e+01 9.000000e+00
         vertex 2.962931e+01 8.633865e+01 9.000000e+00
         vertex 2.864288e+01 8.711147e+01 9.000000e+00
      endloop
   endfacet
   facet normal 0.000000e+00 0.000000e+00 1.000000e+00
      outer loop
         vertex 3.312512e+01 7.857126e+01 9.000000e+00
         vertex 3.304946e+01 7.982209e+01 9.000000e+00
         vertex 2.677945e+01 7.928211e+01 9.000000e+00
      endloop
   endfacet
   facet normal 0.000000e+00 0.000000e+00 1.000000e+00
      outer loop
         vertex 2.677945e+01 7.928211e+01 9.000000e+00
         vertex 3.304946e+01 7.982209e+01 9.000000e+00
         vertex 3.282358e+01 8.105467e+01 9.000000e+00
      endloop
   endfacet
   facet normal 0.000000e+00 -0.000000e+00 1.000000e+00
      outer loop
         vertex 2.677945e+01 7.928211e+01 9.000000e+00
         vertex 3.282358e+01 8.105467e+01 9.000000e+00
         vertex 2.659477e+01 7.997137e+01 9.000000e+00
      endloop
   endfacet
   facet normal 0.000000e+00 0.000000e+00 1.000000e+00
      outer loop
         vertex 2.659477e+01 7.997137e+01 9.000000e+00
         vertex 3.282358e+01 8.105467e+01 9.000000e+00
         vertex 3.245078e+01 8.225104e+01 9.000000e+00
      endloop
   endfacet
   facet normal 0.000000e+00 -0.000000e+00 1.000000e+00
      outer loop
         vertex 2.659477e+01 7.997137e+01 9.000000e+00
         vertex 3.245078e+01 8.225104e+01 9.000000e+00
         vertex 2.629320e+01 8.061808e+01 9.000000e+00
      endloop
   endfacet
   facet normal 0.000000e+00 0.000000e+00 1.000000e+00
      outer loop
         vertex 2.629320e+01 8.061808e+01 9.000000e+00
         vertex 3.245078e+01 8.225104e+01 9.000000e+00
         vertex 3.193649e+01 8.339375e+01 9.000000e+00
      endloop
   endfacet
   facet normal 0.000000e+00 0.000000e+00 1.000000e+00
      outer loop
         vertex 2.629320e+01 8.061808e+01 9.000000e+00
         vertex 3.193649e+01 8.339375e+01 9.000000e+00
         vertex 3.128820e+01 8.446614e+01 9.000000e+00
      endloop
   endfacet
   facet normal 0.000000e+00 0.000000e+00 1.000000e+00
      outer loop
         vertex 2.677945e+01 7.928211e+01 9.000000e+00
         vertex 2.684164e+01 7.857126e+01 9.000000e+00
         vertex 3.312512e+01 7.857126e+01 9.000000e+00
      endloop
   endfacet
   facet normal 0.000000e+00 0.000000e+00 1.000000e+00
      outer loop
         vertex 3.312512e+01 7.857126e+01 9.000000e+00
         vertex 2.684164e+01 7.857126e+01 9.000000e+00
         vertex 2.677945e+01 7.786041e+01 9.000000e+00
      endloop
   endfacet
   facet normal 0.000000e+00 0.000000e+00 1.000000e+00
      outer loop
         vertex 3.312512e+01 7.857126e+01 9.000000e+00
         vertex 2.677945e+01 7.786041e+01 9.000000e+00
         vertex 3.312512e+01 6.927520e+01 9.000000e+00
      endloop
   endfacet
   facet normal 0.000000e+00 0.000000e+00 1.000000e+00
      outer loop
         vertex 3.312512e+01 6.927520e+01 9.000000e+00
         vertex 2.677945e+01 7.786041e+01 9.000000e+00
         vertex 2.659477e+01 7.717115e+01 9.000000e+00
      endloop
   endfacet
   facet normal 0.000000e+00 0.000000e+00 1.000000e+00
      outer loop
         vertex 1.237088e+01 7.857126e+01 9.000000e+00
         vertex 1.865436e+01 7.857126e+01 9.000000e+00
         vertex 1.244654e+01 7.982209e+01 9.000000e+00
      endloop
   endfacet
   facet normal 0.000000e+00 0.000000e+00 1.000000e+00
      outer loop
         vertex 1.244654e+01 7.982209e+01 9.000000e+00
         vertex 1.865436e+01 7.857126e+01 9.000000e+00
         vertex 1.871655e+01 7.928211e+01 9.000000e+00
      endloop
   endfacet
   facet normal -0.000000e+00 0.000000e+00 1.000000e+00
      outer loop
         vertex 1.244654e+01 7.982209e+01 9.000000e+00
         vertex 1.871655e+01 7.928211e+01 9.000000e+00
         vertex 1.267242e+01 8.105467e+01 9.000000e+00
      endloop
   endfacet
   facet normal 0.000000e+00 0.000000e+00 1.000000e+00
      outer loop
         vertex 1.267242e+01 8.105467e+01 9.000000e+00
         vertex 1.871655e+01 7.928211e+01 9.000000e+00
         vertex 1.890124e+01 7.997137e+01 9.000000e+00
      endloop
   endfacet
   facet normal 0.000000e+00 0.000000e+00 1.000000e+00
      outer loop
         vertex 1.961209e+01 8.120260e+01 9.000000e+00
         vertex 1.420780e+01 8.446614e+01 9.000000e+00
         vertex 1.920281e+01 8.061808e+01 9.000000e+00
      endloop
   endfacet
   facet normal 0.000000e+00 0.000000e+00 1.000000e+00
      outer loop
         vertex 1.920281e+01 8.061808e+01 9.000000e+00
         vertex 1.420780e+01 8.446614e+01 9.000000e+00
         vertex 1.355952e+01 8.339375e+01 9.000000e+00
      endloop
   endfacet
   facet normal 0.000000e+00 0.000000e+00 1.000000e+00
      outer loop
         vertex 1.920281e+01 8.061808e+01 9.000000e+00
         vertex 1.355952e+01 8.339375e+01 9.000000e+00
         vertex 1.890124e+01 7.997137e+01 9.000000e+00
      endloop
   endfacet
   facet normal 0.000000e+00 0.000000e+00 1.000000e+00
      outer loop
         vertex 1.890124e+01 7.997137e+01 9.000000e+00
         vertex 1.355952e+01 8.339375e+01 9.000000e+00
         vertex 1.304523e+01 8.225104e+01 9.000000e+00
      endloop
   endfacet
   facet normal 0.000000e+00 0.000000e+00 1.000000e+00
      outer loop
         vertex 1.890124e+01 7.997137e+01 9.000000e+00
         vertex 1.304523e+01 8.225104e+01 9.000000e+00
         vertex 1.267242e+01 8.105467e+01 9.000000e+00
      endloop
   endfacet
   facet normal 0.000000e+00 0.000000e+00 1.000000e+00
      outer loop
         vertex 2.274800e+01 8.894838e+01 9.000000e+00
         vertex 2.149718e+01 8.887272e+01 9.000000e+00
         vertex 2.203715e+01 8.260271e+01 9.000000e+00
      endloop
   endfacet
   facet normal 0.000000e+00 0.000000e+00 1.000000e+00
      outer loop
         vertex 2.203715e+01 8.260271e+01 9.000000e+00
         vertex 2.149718e+01 8.887272e+01 9.000000e+00
         vertex 2.026459e+01 8.864684e+01 9.000000e+00
      endloop
   endfacet
   facet normal 0.000000e+00 0.000000e+00 1.000000e+00
      outer loop
         vertex 2.203715e+01 8.260271e+01 9.000000e+00
         vertex 2.026459e+01 8.864684e+01 9.000000e+00
         vertex 2.134789e+01 8.241802e+01 9.000000e+00
      endloop
   endfacet
   facet normal 0.000000e+00 0.000000e+00 1.000000e+00
      outer loop
         vertex 2.134789e+01 8.241802e+01 9.000000e+00
         vertex 2.026459e+01 8.864684e+01 9.000000e+00
         vertex 1.906822e+01 8.827404e+01 9.000000e+00
      endloop
   endfacet
   facet normal 0.000000e+00 0.000000e+00 1.000000e+00
      outer loop
         vertex 2.134789e+01 8.241802e+01 9.000000e+00
         vertex 1.906822e+01 8.827404e+01 9.000000e+00
         vertex 2.070118e+01 8.211646e+01 9.000000e+00
      endloop
   endfacet
   facet normal 0.000000e+00 0.000000e+00 1.000000e+00
      outer loop
         vertex 2.479482e+01 7.502607e+01 9.000000e+00
         vertex 2.414811e+01 7.472450e+01 9.000000e+00
         vertex 3.458959e+01 6.573967e+01 9.000000e+00
      endloop
   endfacet
   facet normal 0.000000e+00 0.000000e+00 1.000000e+00
      outer loop
         vertex 3.458959e+01 6.573967e+01 9.000000e+00
         vertex 2.414811e+01 7.472450e+01 9.000000e+00
         vertex 2.345886e+01 7.453982e+01 9.000000e+00
      endloop
   endfacet
   facet normal 0.000000e+00 0.000000e+00 1.000000e+00
      outer loop
         vertex 3.458959e+01 6.573967e+01 9.000000e+00
         vertex 2.345886e+01 7.453982e+01 9.000000e+00
         vertex 3.518619e+01 6.523012e+01 9.000000e+00
      endloop
   endfacet
   facet normal 0.000000e+00 0.000000e+00 1.000000e+00
      outer loop
         vertex 3.518619e+01 6.523012e+01 9.000000e+00
         vertex 2.345886e+01 7.453982e+01 9.000000e+00
         vertex 2.274800e+01 7.447762e+01 9.000000e+00
      endloop
   endfacet
   facet normal 0.000000e+00 0.000000e+00 1.000000e+00
      outer loop
         vertex 3.518619e+01 6.523012e+01 9.000000e+00
         vertex 2.274800e+01 7.447762e+01 9.000000e+00
         vertex 2.203715e+01 7.453982e+01 9.000000e+00
      endloop
   endfacet
   facet normal 0.000000e+00 0.000000e+00 1.000000e+00
      outer loop
         vertex 8.153053e+00 6.433676e+01 9.000000e+00
         vertex 7.370881e+00 6.427521e+01 9.000000e+00
         vertex 3.812512e+01 6.427521e+01 9.000000e+00
      endloop
   endfacet
   facet normal 0.000000e+00 0.000000e+00 1.000000e+00
      outer loop
         vertex 1.906822e+01 8.827404e+01 9.000000e+00
         vertex 1.792551e+01 8.775975e+01 9.000000e+00
         vertex 2.070118e+01 8.211646e+01 9.000000e+00
      endloop
   endfacet
   facet normal 0.000000e+00 0.000000e+00 1.000000e+00
      outer loop
         vertex 2.070118e+01 8.211646e+01 9.000000e+00
         vertex 1.792551e+01 8.775975e+01 9.000000e+00
         vertex 1.685313e+01 8.711147e+01 9.000000e+00
      endloop
   endfacet
   facet normal 0.000000e+00 0.000000e+00 1.000000e+00
      outer loop
         vertex 2.070118e+01 8.211646e+01 9.000000e+00
         vertex 1.685313e+01 8.711147e+01 9.000000e+00
         vertex 2.011666e+01 8.170717e+01 9.000000e+00
      endloop
   endfacet
   facet normal 0.000000e+00 0.000000e+00 1.000000e+00
      outer loop
         vertex 2.011666e+01 8.170717e+01 9.000000e+00
         vertex 1.685313e+01 8.711147e+01 9.000000e+00
         vertex 1.586670e+01 8.633865e+01 9.000000e+00
      endloop
   endfacet
   facet normal 0.000000e+00 0.000000e+00 1.000000e+00
      outer loop
         vertex 2.011666e+01 8.170717e+01 9.000000e+00
         vertex 1.586670e+01 8.633865e+01 9.000000e+00
         vertex 1.961209e+01 8.120260e+01 9.000000e+00
      endloop
   endfacet
   facet normal 0.000000e+00 0.000000e+00 1.000000e+00
      outer loop
         vertex 1.961209e+01 8.120260e+01 9.000000e+00
         vertex 1.586670e+01 8.633865e+01 9.000000e+00
         vertex 1.498062e+01 8.545256e+01 9.000000e+00
      endloop
   endfacet
   facet normal 0.000000e+00 0.000000e+00 1.000000e+00
      outer loop
         vertex 1.961209e+01 8.120260e+01 9.000000e+00
         vertex 1.498062e+01 8.545256e+01 9.000000e+00
         vertex 1.420780e+01 8.446614e+01 9.000000e+00
      endloop
   endfacet
   facet normal -0.000000e+00 0.000000e+00 1.000000e+00
      outer loop
         vertex 2.479482e+01 7.502607e+01 9.000000e+00
         vertex 3.458959e+01 6.573967e+01 9.000000e+00
         vertex 2.537934e+01 7.543536e+01 9.000000e+00
      endloop
   endfacet
   facet normal 0.000000e+00 0.000000e+00 1.000000e+00
      outer loop
         vertex 2.537934e+01 7.543536e+01 9.000000e+00
         vertex 3.458959e+01 6.573967e+01 9.000000e+00
         vertex 3.408004e+01 6.633627e+01 9.000000e+00
      endloop
   endfacet
   facet normal 0.000000e+00 0.000000e+00 1.000000e+00
      outer loop
         vertex 2.537934e+01 7.543536e+01 9.000000e+00
         vertex 3.408004e+01 6.633627e+01 9.000000e+00
         vertex 3.367009e+01 6.700525e+01 9.000000e+00
      endloop
   endfacet
   facet normal -0.000000e+00 0.000000e+00 1.000000e+00
      outer loop
         vertex 8.153053e+00 6.433676e+01 9.000000e+00
         vertex 3.812512e+01 6.427521e+01 9.000000e+00
         vertex 8.915965e+00 6.451992e+01 9.000000e+00
      endloop
   endfacet
   facet normal 0.000000e+00 0.000000e+00 1.000000e+00
      outer loop
         vertex 2.659477e+01 7.717115e+01 9.000000e+00
         vertex 2.629320e+01 7.652444e+01 9.000000e+00
         vertex 3.312512e+01 6.927520e+01 9.000000e+00
      endloop
   endfacet
   facet normal 0.000000e+00 0.000000e+00 1.000000e+00
      outer loop
         vertex 3.312512e+01 6.927520e+01 9.000000e+00
         vertex 2.629320e+01 7.652444e+01 9.000000e+00
         vertex 2.588391e+01 7.593992e+01 9.000000e+00
      endloop
   endfacet
   facet normal 0.000000e+00 0.000000e+00 1.000000e+00
      outer loop
         vertex 3.312512e+01 6.927520e+01 9.000000e+00
         vertex 2.588391e+01 7.593992e+01 9.000000e+00
         vertex 3.318668e+01 6.849303e+01 9.000000e+00
      endloop
   endfacet
   facet normal 0.000000e+00 0.000000e+00 1.000000e+00
      outer loop
         vertex 3.318668e+01 6.849303e+01 9.000000e+00
         vertex 2.588391e+01 7.593992e+01 9.000000e+00
         vertex 2.537934e+01 7.543536e+01 9.000000e+00
      endloop
   endfacet
   facet normal 0.000000e+00 0.000000e+00 1.000000e+00
      outer loop
         vertex 3.318668e+01 6.849303e+01 9.000000e+00
         vertex 2.537934e+01 7.543536e+01 9.000000e+00
         vertex 3.336984e+01 6.773012e+01 9.000000e+00
      endloop
   endfacet
   facet normal 0.000000e+00 0.000000e+00 1.000000e+00
      outer loop
         vertex 3.336984e+01 6.773012e+01 9.000000e+00
         vertex 2.537934e+01 7.543536e+01 9.000000e+00
         vertex 3.367009e+01 6.700525e+01 9.000000e+00
      endloop
   endfacet
   facet normal -0.000000e+00 0.000000e+00 1.000000e+00
      outer loop
         vertex 1.212616e+01 6.773012e+01 9.000000e+00
         vertex 1.182591e+01 6.700525e+01 9.000000e+00
         vertex 2.011666e+01 7.543536e+01 9.000000e+00
      endloop
   endfacet
   facet normal 0.000000e+00 0.000000e+00 1.000000e+00
      outer loop
         vertex 1.961209e+01 7.593992e+01 9.000000e+00
         vertex 1.920281e+01 7.652444e+01 9.000000e+00
         vertex 1.237088e+01 6.927520e+01 9.000000e+00
      endloop
   endfacet
   facet normal 0.000000e+00 0.000000e+00 1.000000e+00
      outer loop
         vertex 1.237088e+01 6.927520e+01 9.000000e+00
         vertex 1.920281e+01 7.652444e+01 9.000000e+00
         vertex 1.890124e+01 7.717115e+01 9.000000e+00
      endloop
   endfacet
   facet normal 0.000000e+00 0.000000e+00 1.000000e+00
      outer loop
         vertex 1.237088e+01 6.927520e+01 9.000000e+00
         vertex 1.890124e+01 7.717115e+01 9.000000e+00
         vertex 1.237088e+01 7.857126e+01 9.000000e+00
      endloop
   endfacet
   facet normal 0.000000e+00 0.000000e+00 1.000000e+00
      outer loop
         vertex 1.237088e+01 7.857126e+01 9.000000e+00
         vertex 1.890124e+01 7.717115e+01 9.000000e+00
         vertex 1.871655e+01 7.786041e+01 9.000000e+00
      endloop
   endfacet
   facet normal -0.000000e+00 0.000000e+00 1.000000e+00
      outer loop
         vertex 1.237088e+01 7.857126e+01 9.000000e+00
         vertex 1.871655e+01 7.786041e+01 9.000000e+00
         vertex 1.865436e+01 7.857126e+01 9.000000e+00
      endloop
   endfacet
   facet normal -0.000000e+00 0.000000e+00 1.000000e+00
      outer loop
         vertex 1.182591e+01 6.700525e+01 9.000000e+00
         vertex 1.141597e+01 6.633627e+01 9.000000e+00
         vertex 2.011666e+01 7.543536e+01 9.000000e+00
      endloop
   endfacet
   facet normal 0.000000e+00 0.000000e+00 1.000000e+00
      outer loop
         vertex 2.011666e+01 7.543536e+01 9.000000e+00
         vertex 1.141597e+01 6.633627e+01 9.000000e+00
         vertex 1.090642e+01 6.573967e+01 9.000000e+00
      endloop
   endfacet
   facet normal 0.000000e+00 0.000000e+00 1.000000e+00
      outer loop
         vertex 2.011666e+01 7.543536e+01 9.000000e+00
         vertex 1.090642e+01 6.573967e+01 9.000000e+00
         vertex 2.070118e+01 7.502607e+01 9.000000e+00
      endloop
   endfacet
   facet normal -0.000000e+00 0.000000e+00 1.000000e+00
      outer loop
         vertex 8.915965e+00 6.451992e+01 9.000000e+00
         vertex 3.812512e+01 6.427521e+01 9.000000e+00
         vertex 9.640833e+00 6.482017e+01 9.000000e+00
      endloop
   endfacet
   facet normal 0.000000e+00 0.000000e+00 1.000000e+00
      outer loop
         vertex 9.640833e+00 6.482017e+01 9.000000e+00
         vertex 3.812512e+01 6.427521e+01 9.000000e+00
         vertex 3.734295e+01 6.433676e+01 9.000000e+00
      endloop
   endfacet
   facet normal -0.000000e+00 0.000000e+00 1.000000e+00
      outer loop
         vertex 9.640833e+00 6.482017e+01 9.000000e+00
         vertex 3.734295e+01 6.433676e+01 9.000000e+00
         vertex 1.030981e+01 6.523012e+01 9.000000e+00
      endloop
   endfacet
   facet normal 0.000000e+00 0.000000e+00 1.000000e+00
      outer loop
         vertex 1.030981e+01 6.523012e+01 9.000000e+00
         vertex 3.734295e+01 6.433676e+01 9.000000e+00
         vertex 3.658004e+01 6.451992e+01 9.000000e+00
      endloop
   endfacet
   facet normal 0.000000e+00 0.000000e+00 1.000000e+00
      outer loop
         vertex 1.030981e+01 6.523012e+01 9.000000e+00
         vertex 3.658004e+01 6.451992e+01 9.000000e+00
         vertex 3.585517e+01 6.482017e+01 9.000000e+00
      endloop
   endfacet
   facet normal 0.000000e+00 0.000000e+00 1.000000e+00
      outer loop
         vertex 3.585517e+01 6.482017e+01 9.000000e+00
         vertex 3.518619e+01 6.523012e+01 9.000000e+00
         vertex 1.030981e+01 6.523012e+01 9.000000e+00
      endloop
   endfacet
   facet normal 0.000000e+00 0.000000e+00 1.000000e+00
      outer loop
         vertex 1.030981e+01 6.523012e+01 9.000000e+00
         vertex 3.518619e+01 6.523012e+01 9.000000e+00
         vertex 2.203715e+01 7.453982e+01 9.000000e+00
      endloop
   endfacet
   facet normal 0.000000e+00 0.000000e+00 1.000000e+00
      outer loop
         vertex 1.030981e+01 6.523012e+01 9.000000e+00
         vertex 2.203715e+01 7.453982e+01 9.000000e+00
         vertex 1.090642e+01 6.573967e+01 9.000000e+00
      endloop
   endfacet
   facet normal 0.000000e+00 0.000000e+00 1.000000e+00
      outer loop
         vertex 1.090642e+01 6.573967e+01 9.000000e+00
         vertex 2.203715e+01 7.453982e+01 9.000000e+00
         vertex 2.134789e+01 7.472450e+01 9.000000e+00
      endloop
   endfacet
   facet normal 0.000000e+00 0.000000e+00 1.000000e+00
      outer loop
         vertex 1.090642e+01 6.573967e+01 9.000000e+00
         vertex 2.134789e+01 7.472450e+01 9.000000e+00
         vertex 2.070118e+01 7.502607e+01 9.000000e+00
      endloop
   endfacet
   facet normal 0.000000e+00 0.000000e+00 1.000000e+00
      outer loop
         vertex 1.961209e+01 7.593992e+01 9.000000e+00
         vertex 1.237088e+01 6.927520e+01 9.000000e+00
         vertex 2.011666e+01 7.543536e+01 9.000000e+00
      endloop
   endfacet
   facet normal 0.000000e+00 0.000000e+00 1.000000e+00
      outer loop
         vertex 2.011666e+01 7.543536e+01 9.000000e+00
         vertex 1.237088e+01 6.927520e+01 9.000000e+00
         vertex 1.230932e+01 6.849303e+01 9.000000e+00
      endloop
   endfacet
   facet normal 0.000000e+00 0.000000e+00 1.000000e+00
      outer loop
         vertex 2.011666e+01 7.543536e+01 9.000000e+00
         vertex 1.230932e+01 6.849303e+01 9.000000e+00
         vertex 1.212616e+01 6.773012e+01 9.000000e+00
      endloop
   endfacet
   facet normal -0.000000e+00 -9.985334e-01 -5.413893e-02
      outer loop
         vertex 5.149600e+01 2.207711e+01 2.686561e+01
         vertex 4.549600e+01 2.207711e+01 2.686561e+01
         vertex 4.549600e+01 2.213608e+01 2.577788e+01
      endloop
   endfacet
   facet normal 0.000000e+00 -9.985334e-01 -5.413893e-02
      outer loop
         vertex 5.149600e+01 2.207711e+01 2.686561e+01
         vertex 4.549600e+01 2.213608e+01 2.577788e+01
         vertex 5.149600e+01 2.213608e+01 2.577788e+01
      endloop
   endfacet
   facet normal -0.000000e+00 -9.868267e-01 -1.617809e-01
      outer loop
         vertex 5.149600e+01 2.213608e+01 2.577788e+01
         vertex 4.549600e+01 2.213608e+01 2.577788e+01
         vertex 4.549600e+01 2.231232e+01 2.470290e+01
      endloop
   endfacet
   facet normal 0.000000e+00 -9.868267e-01 -1.617809e-01
      outer loop
         vertex 5.149600e+01 2.213608e+01 2.577788e+01
         vertex 4.549600e+01 2.231232e+01 2.470290e+01
         vertex 5.149600e+01 2.231232e+01 2.470290e+01
      endloop
   endfacet
   facet normal -0.000000e+00 -9.635497e-01 -2.675294e-01
      outer loop
         vertex 5.149600e+01 2.231232e+01 2.470290e+01
         vertex 4.549600e+01 2.231232e+01 2.470290e+01
         vertex 4.549600e+01 2.260374e+01 2.365328e+01
      endloop
   endfacet
   facet normal 0.000000e+00 -9.635497e-01 -2.675294e-01
      outer loop
         vertex 5.149600e+01 2.231232e+01 2.470290e+01
         vertex 4.549600e+01 2.260374e+01 2.365328e+01
         vertex 5.149600e+01 2.260374e+01 2.365328e+01
      endloop
   endfacet
   facet normal -0.000000e+00 -9.289769e-01 -3.701377e-01
      outer loop
         vertex 5.149600e+01 2.260374e+01 2.365328e+01
         vertex 4.549600e+01 2.260374e+01 2.365328e+01
         vertex 4.549600e+01 2.300694e+01 2.264132e+01
      endloop
   endfacet
   facet normal 0.000000e+00 -9.289769e-01 -3.701377e-01
      outer loop
         vertex 5.149600e+01 2.260374e+01 2.365328e+01
         vertex 4.549600e+01 2.300694e+01 2.264132e+01
         vertex 5.149600e+01 2.300694e+01 2.264132e+01
      endloop
   endfacet
   facet normal -0.000000e+00 -8.835118e-01 -4.684090e-01
      outer loop
         vertex 5.149600e+01 2.300694e+01 2.264132e+01
         vertex 4.549600e+01 2.300694e+01 2.264132e+01
         vertex 4.549600e+01 2.351720e+01 2.167888e+01
      endloop
   endfacet
   facet normal 0.000000e+00 -8.835118e-01 -4.684090e-01
      outer loop
         vertex 5.149600e+01 2.300694e+01 2.264132e+01
         vertex 4.549600e+01 2.351720e+01 2.167888e+01
         vertex 5.149600e+01 2.351720e+01 2.167888e+01
      endloop
   endfacet
   facet normal -0.000000e+00 -8.276896e-01 -5.611861e-01
      outer loop
         vertex 5.149600e+01 2.351720e+01 2.167888e+01
         vertex 4.549600e+01 2.351720e+01 2.167888e+01
         vertex 4.549600e+01 2.412851e+01 2.077726e+01
      endloop
   endfacet
   facet normal 0.000000e+00 -8.276896e-01 -5.611861e-01
      outer loop
         vertex 5.149600e+01 2.351720e+01 2.167888e+01
         vertex 4.549600e+01 2.412851e+01 2.077726e+01
         vertex 5.149600e+01 2.412851e+01 2.077726e+01
      endloop
   endfacet
   facet normal -0.000000e+00 -7.621619e-01 -6.473864e-01
      outer loop
         vertex 5.149600e+01 2.412851e+01 2.077726e+01
         vertex 4.549600e+01 2.412851e+01 2.077726e+01
         vertex 4.549600e+01 2.483373e+01 1.994701e+01
      endloop
   endfacet
   facet normal 0.000000e+00 -7.621619e-01 -6.473864e-01
      outer loop
         vertex 5.149600e+01 2.412851e+01 2.077726e+01
         vertex 4.549600e+01 2.483373e+01 1.994701e+01
         vertex 5.149600e+01 2.483373e+01 1.994701e+01
      endloop
   endfacet
   facet normal -0.000000e+00 -6.876991e-01 -7.259958e-01
      outer loop
         vertex 5.149600e+01 2.483373e+01 1.994701e+01
         vertex 4.549600e+01 2.483373e+01 1.994701e+01
         vertex 4.549600e+01 2.562458e+01 1.919788e+01
      endloop
   endfacet
   facet normal 0.000000e+00 -6.876991e-01 -7.259958e-01
      outer loop
         vertex 5.149600e+01 2.483373e+01 1.994701e+01
         vertex 4.549600e+01 2.562458e+01 1.919788e+01
         vertex 5.149600e+01 2.562458e+01 1.919788e+01
      endloop
   endfacet
   facet normal -0.000000e+00 -6.051751e-01 -7.960924e-01
      outer loop
         vertex 5.149600e+01 2.562458e+01 1.919788e+01
         vertex 4.549600e+01 2.562458e+01 1.919788e+01
         vertex 4.549600e+01 2.649178e+01 1.853865e+01
      endloop
   endfacet
   facet normal 0.000000e+00 -6.051751e-01 -7.960924e-01
      outer loop
         vertex 5.149600e+01 2.562458e+01 1.919788e+01
         vertex 4.549600e+01 2.649178e+01 1.853865e+01
         vertex 5.149600e+01 2.649178e+01 1.853865e+01
      endloop
   endfacet
   facet normal -0.000000e+00 -5.155527e-01 -8.568578e-01
      outer loop
         vertex 5.149600e+01 2.649178e+01 1.853865e+01
         vertex 4.549600e+01 2.649178e+01 1.853865e+01
         vertex 4.549600e+01 2.742518e+01 1.797704e+01
      endloop
   endfacet
   facet normal 0.000000e+00 -5.155527e-01 -8.568578e-01
      outer loop
         vertex 5.149600e+01 2.649178e+01 1.853865e+01
         vertex 4.549600e+01 2.742518e+01 1.797704e+01
         vertex 5.149600e+01 2.742518e+01 1.797704e+01
      endloop
   endfacet
   facet normal -0.000000e+00 -4.198903e-01 -9.075749e-01
      outer loop
         vertex 5.149600e+01 2.742518e+01 1.797704e+01
         vertex 4.549600e+01 2.742518e+01 1.797704e+01
         vertex 4.549600e+01 2.841383e+01 1.751964e+01
      endloop
   endfacet
   facet normal 0.000000e+00 -4.198903e-01 -9.075749e-01
      outer loop
         vertex 5.149600e+01 2.742518e+01 1.797704e+01
         vertex 4.549600e+01 2.841383e+01 1.751964e+01
         vertex 5.149600e+01 2.841383e+01 1.751964e+01
      endloop
   endfacet
   facet normal -0.000000e+00 -3.193003e-01 -9.476536e-01
      outer loop
         vertex 5.149600e+01 2.841383e+01 1.751964e+01
         vertex 4.549600e+01 2.841383e+01 1.751964e+01
         vertex 4.549600e+01 2.944613e+01 1.717182e+01
      endloop
   endfacet
   facet normal 0.000000e+00 -3.193003e-01 -9.476536e-01
      outer loop
         vertex 5.149600e+01 2.841383e+01 1.751964e+01
         vertex 4.549600e+01 2.944613e+01 1.717182e+01
         vertex 5.149600e+01 2.944613e+01 1.717182e+01
      endloop
   endfacet
   facet normal -0.000000e+00 -2.149705e-01 -9.766205e-01
      outer loop
         vertex 5.149600e+01 2.944613e+01 1.717182e+01
         vertex 4.549600e+01 2.944613e+01 1.717182e+01
         vertex 4.549600e+01 3.051000e+01 1.693765e+01
      endloop
   endfacet
   facet normal 0.000000e+00 -2.149705e-01 -9.766205e-01
      outer loop
         vertex 5.149600e+01 2.944613e+01 1.717182e+01
         vertex 4.549600e+01 3.051000e+01 1.693765e+01
         vertex 5.149600e+01 3.051000e+01 1.693765e+01
      endloop
   endfacet
   facet normal -0.000000e+00 -1.081187e-01 -9.941380e-01
      outer loop
         vertex 5.149600e+01 3.051000e+01 1.693765e+01
         vertex 4.549600e+01 3.051000e+01 1.693765e+01
         vertex 4.549600e+01 3.159294e+01 1.681987e+01
      endloop
   endfacet
   facet normal 0.000000e+00 -1.081187e-01 -9.941380e-01
      outer loop
         vertex 5.149600e+01 3.051000e+01 1.693765e+01
         vertex 4.549600e+01 3.159294e+01 1.681987e+01
         vertex 5.149600e+01 3.159294e+01 1.681987e+01
      endloop
   endfacet
   facet normal 0.000000e+00 0.000000e+00 -1.000000e+00
      outer loop
         vertex 5.149600e+01 3.159294e+01 1.681987e+01
         vertex 4.549600e+01 3.159294e+01 1.681987e+01
         vertex 4.549600e+01 3.268227e+01 1.681987e+01
      endloop
   endfacet
   facet normal 0.000000e+00 0.000000e+00 -1.000000e+00
      outer loop
         vertex 5.149600e+01 3.159294e+01 1.681987e+01
         vertex 4.549600e+01 3.268227e+01 1.681987e+01
         vertex 5.149600e+01 3.268227e+01 1.681987e+01
      endloop
   endfacet
   facet normal 0.000000e+00 1.081189e-01 -9.941380e-01
      outer loop
         vertex 5.149600e+01 3.268227e+01 1.681987e+01
         vertex 4.549600e+01 3.268227e+01 1.681987e+01
         vertex 4.549600e+01 3.376521e+01 1.693765e+01
      endloop
   endfacet
   facet normal 0.000000e+00 1.081189e-01 -9.941380e-01
      outer loop
         vertex 5.149600e+01 3.268227e+01 1.681987e+01
         vertex 4.549600e+01 3.376521e+01 1.693765e+01
         vertex 5.149600e+01 3.376521e+01 1.693765e+01
      endloop
   endfacet
   facet normal 0.000000e+00 2.149705e-01 -9.766205e-01
      outer loop
         vertex 5.149600e+01 3.376521e+01 1.693765e+01
         vertex 4.549600e+01 3.376521e+01 1.693765e+01
         vertex 4.549600e+01 3.482907e+01 1.717182e+01
      endloop
   endfacet
   facet normal 0.000000e+00 2.149705e-01 -9.766205e-01
      outer loop
         vertex 5.149600e+01 3.376521e+01 1.693765e+01
         vertex 4.549600e+01 3.482907e+01 1.717182e+01
         vertex 5.149600e+01 3.482907e+01 1.717182e+01
      endloop
   endfacet
   facet normal 0.000000e+00 3.192998e-01 -9.476537e-01
      outer loop
         vertex 5.149600e+01 3.482907e+01 1.717182e+01
         vertex 4.549600e+01 3.482907e+01 1.717182e+01
         vertex 4.549600e+01 3.586138e+01 1.751964e+01
      endloop
   endfacet
   facet normal 0.000000e+00 3.192998e-01 -9.476537e-01
      outer loop
         vertex 5.149600e+01 3.482907e+01 1.717182e+01
         vertex 4.549600e+01 3.586138e+01 1.751964e+01
         vertex 5.149600e+01 3.586138e+01 1.751964e+01
      endloop
   endfacet
   facet normal 0.000000e+00 4.198903e-01 -9.075749e-01
      outer loop
         vertex 5.149600e+01 3.586138e+01 1.751964e+01
         vertex 4.549600e+01 3.586138e+01 1.751964e+01
         vertex 4.549600e+01 3.685002e+01 1.797704e+01
      endloop
   endfacet
   facet normal 0.000000e+00 4.198903e-01 -9.075749e-01
      outer loop
         vertex 5.149600e+01 3.586138e+01 1.751964e+01
         vertex 4.549600e+01 3.685002e+01 1.797704e+01
         vertex 5.149600e+01 3.685002e+01 1.797704e+01
      endloop
   endfacet
   facet normal 0.000000e+00 5.155535e-01 -8.568574e-01
      outer loop
         vertex 5.149600e+01 3.685002e+01 1.797704e+01
         vertex 4.549600e+01 3.685002e+01 1.797704e+01
         vertex 4.549600e+01 3.778342e+01 1.853865e+01
      endloop
   endfacet
   facet normal 0.000000e+00 5.155535e-01 -8.568574e-01
      outer loop
         vertex 5.149600e+01 3.685002e+01 1.797704e+01
         vertex 4.549600e+01 3.778342e+01 1.853865e+01
         vertex 5.149600e+01 3.778342e+01 1.853865e+01
      endloop
   endfacet
   facet normal 0.000000e+00 6.051751e-01 -7.960924e-01
      outer loop
         vertex 5.149600e+01 3.778342e+01 1.853865e+01
         vertex 4.549600e+01 3.778342e+01 1.853865e+01
         vertex 4.549600e+01 3.865063e+01 1.919788e+01
      endloop
   endfacet
   facet normal 0.000000e+00 6.051751e-01 -7.960924e-01
      outer loop
         vertex 5.149600e+01 3.778342e+01 1.853865e+01
         vertex 4.549600e+01 3.865063e+01 1.919788e+01
         vertex 5.149600e+01 3.865063e+01 1.919788e+01
      endloop
   endfacet
   facet normal 0.000000e+00 6.876983e-01 -7.259966e-01
      outer loop
         vertex 5.149600e+01 3.865063e+01 1.919788e+01
         vertex 4.549600e+01 3.865063e+01 1.919788e+01
         vertex 4.549600e+01 3.944148e+01 1.994701e+01
      endloop
   endfacet
   facet normal 0.000000e+00 6.876983e-01 -7.259966e-01
      outer loop
         vertex 5.149600e+01 3.865063e+01 1.919788e+01
         vertex 4.549600e+01 3.944148e+01 1.994701e+01
         vertex 5.149600e+01 3.944148e+01 1.994701e+01
      endloop
   endfacet
   facet normal 0.000000e+00 7.621619e-01 -6.473864e-01
      outer loop
         vertex 5.149600e+01 3.944148e+01 1.994701e+01
         vertex 4.549600e+01 3.944148e+01 1.994701e+01
         vertex 4.549600e+01 4.014669e+01 2.077726e+01
      endloop
   endfacet
   facet normal 0.000000e+00 7.621619e-01 -6.473864e-01
      outer loop
         vertex 5.149600e+01 3.944148e+01 1.994701e+01
         vertex 4.549600e+01 4.014669e+01 2.077726e+01
         vertex 5.149600e+01 4.014669e+01 2.077726e+01
      endloop
   endfacet
   facet normal 0.000000e+00 8.276896e-01 -5.611861e-01
      outer loop
         vertex 5.149600e+01 4.014669e+01 2.077726e+01
         vertex 4.549600e+01 4.014669e+01 2.077726e+01
         vertex 4.549600e+01 4.075801e+01 2.167888e+01
      endloop
   endfacet
   facet normal 0.000000e+00 8.276896e-01 -5.611861e-01
      outer loop
         vertex 5.149600e+01 4.014669e+01 2.077726e+01
         vertex 4.549600e+01 4.075801e+01 2.167888e+01
         vertex 5.149600e+01 4.075801e+01 2.167888e+01
      endloop
   endfacet
   facet normal 0.000000e+00 8.835125e-01 -4.684076e-01
      outer loop
         vertex 5.149600e+01 4.075801e+01 2.167888e+01
         vertex 4.549600e+01 4.075801e+01 2.167888e+01
         vertex 4.549600e+01 4.126826e+01 2.264132e+01
      endloop
   endfacet
   facet normal 0.000000e+00 8.835125e-01 -4.684076e-01
      outer loop
         vertex 5.149600e+01 4.075801e+01 2.167888e+01
         vertex 4.549600e+01 4.126826e+01 2.264132e+01
         vertex 5.149600e+01 4.126826e+01 2.264132e+01
      endloop
   endfacet
   facet normal 0.000000e+00 9.289763e-01 -3.701392e-01
      outer loop
         vertex 5.149600e+01 4.126826e+01 2.264132e+01
         vertex 4.549600e+01 4.126826e+01 2.264132e+01
         vertex 4.549600e+01 4.167146e+01 2.365328e+01
      endloop
   endfacet
   facet normal 0.000000e+00 9.289763e-01 -3.701392e-01
      outer loop
         vertex 5.149600e+01 4.126826e+01 2.264132e+01
         vertex 4.549600e+01 4.167146e+01 2.365328e+01
         vertex 5.149600e+01 4.167146e+01 2.365328e+01
      endloop
   endfacet
   facet normal 0.000000e+00 9.635501e-01 -2.675278e-01
      outer loop
         vertex 5.149600e+01 4.167146e+01 2.365328e+01
         vertex 4.549600e+01 4.167146e+01 2.365328e+01
         vertex 4.549600e+01 4.196289e+01 2.470290e+01
      endloop
   endfacet
   facet normal 0.000000e+00 9.635501e-01 -2.675278e-01
      outer loop
         vertex 5.149600e+01 4.167146e+01 2.365328e+01
         vertex 4.549600e+01 4.196289e+01 2.470290e+01
         vertex 5.149600e+01 4.196289e+01 2.470290e+01
      endloop
   endfacet
   facet normal 0.000000e+00 9.868267e-01 -1.617809e-01
      outer loop
         vertex 5.149600e+01 4.196289e+01 2.470290e+01
         vertex 4.549600e+01 4.196289e+01 2.470290e+01
         vertex 4.549600e+01 4.213912e+01 2.577788e+01
      endloop
   endfacet
   facet normal 0.000000e+00 9.868267e-01 -1.617809e-01
      outer loop
         vertex 5.149600e+01 4.196289e+01 2.470290e+01
         vertex 4.549600e+01 4.213912e+01 2.577788e+01
         vertex 5.149600e+01 4.213912e+01 2.577788e+01
      endloop
   endfacet
   facet normal 0.000000e+00 9.985334e-01 -5.413893e-02
      outer loop
         vertex 5.149600e+01 4.213912e+01 2.577788e+01
         vertex 4.549600e+01 4.213912e+01 2.577788e+01
         vertex 4.549600e+01 4.219810e+01 2.686561e+01
      endloop
   endfacet
   facet normal 0.000000e+00 9.985334e-01 -5.413893e-02
      outer loop
         vertex 5.149600e+01 4.213912e+01 2.577788e+01
         vertex 4.549600e+01 4.219810e+01 2.686561e+01
         vertex 5.149600e+01 4.219810e+01 2.686561e+01
      endloop
   endfacet
   facet normal 0.000000e+00 1.000000e+00 0.000000e+00
      outer loop
         vertex 5.149600e+01 4.219810e+01 4.000000e+01
         vertex 5.149600e+01 4.219810e+01 2.686561e+01
         vertex 4.549600e+01 4.219810e+01 4.000000e+01
      endloop
   endfacet
   facet normal 0.000000e+00 1.000000e+00 0.000000e+00
      outer loop
         vertex 4.549600e+01 4.219810e+01 4.000000e+01
         vertex 5.149600e+01 4.219810e+01 2.686561e+01
         vertex 4.549600e+01 4.219810e+01 2.686561e+01
      endloop
   endfacet
   facet normal 0.000000e+00 -1.000000e+00 0.000000e+00
      outer loop
         vertex 5.149600e+01 2.207711e+01 2.686561e+01
         vertex 5.149600e+01 2.207711e+01 4.000000e+01
         vertex 4.549600e+01 2.207711e+01 2.686561e+01
      endloop
   endfacet
   facet normal 0.000000e+00 -1.000000e+00 0.000000e+00
      outer loop
         vertex 4.549600e+01 2.207711e+01 2.686561e+01
         vertex 5.149600e+01 2.207711e+01 4.000000e+01
         vertex 4.549600e+01 2.207711e+01 4.000000e+01
      endloop
   endfacet
endsolid