solid 6
   facet normal 0.000000e+00 -1.000000e+00 0.000000e+00
      outer loop
         vertex 0.000000e+00 0.000000e+00 0.000000e+00
         vertex 7.370881e+00 0.000000e+00 0.000000e+00
         vertex 7.370881e+00 0.000000e+00 9.000000e+00
      endloop
   endfacet
   facet normal 0.000000e+00 -1.000000e+00 0.000000e+00
      outer loop
         vertex 3.812512e+01 0.000000e+00 0.000000e+00
         vertex 4.549600e+01 0.000000e+00 0.000000e+00
         vertex 3.812512e+01 0.000000e+00 9.000000e+00
      endloop
   endfacet
   facet normal 0.000000e+00 -1.000000e+00 0.000000e+00
      outer loop
         vertex 3.812512e+01 0.000000e+00 9.000000e+00
         vertex 4.549600e+01 0.000000e+00 0.000000e+00
         vertex 4.549600e+01 0.000000e+00 4.000000e+01
      endloop
   endfacet
   facet normal 0.000000e+00 -1.000000e+00 0.000000e+00
      outer loop
         vertex 3.812512e+01 0.000000e+00 9.000000e+00
         vertex 4.549600e+01 0.000000e+00 4.000000e+01
         vertex 7.370881e+00 0.000000e+00 9.000000e+00
      endloop
   endfacet
   facet normal 0.000000e+00 -1.000000e+00 0.000000e+00
      outer loop
         vertex 7.370881e+00 0.000000e+00 9.000000e+00
         vertex 4.549600e+01 0.000000e+00 4.000000e+01
         vertex 0.000000e+00 0.000000e+00 4.000000e+01
      endloop
   endfacet
   facet normal -0.000000e+00 -1.000000e+00 0.000000e+00
      outer loop
         vertex 7.370881e+00 0.000000e+00 9.000000e+00
         vertex 0.000000e+00 0.000000e+00 4.000000e+01
         vertex 0.000000e+00 0.000000e+00 0.000000e+00
      endloop
   endfacet
   facet normal 0.000000e+00 1.000000e+00 0.000000e+00
      outer loop
         vertex 4.549600e+01 6.427521e+01 0.000000e+00
         vertex 3.812512e+01 6.427521e+01 0.000000e+00
         vertex 3.812512e+01 6.427521e+01 9.000000e+00
      endloop
   endfacet
   facet normal 0.000000e+00 1.000000e+00 -0.000000e+00
      outer loop
         vertex 7.370881e+00 6.427521e+01 0.000000e+00
         vertex 0.000000e+00 6.427521e+01 0.000000e+00
         vertex 7.370881e+00 6.427521e+01 9.000000e+00
      endloop
   endfacet
   facet normal 0.000000e+00 1.000000e+00 0.000000e+00
      outer loop
         vertex 7.370881e+00 6.427521e+01 9.000000e+00
         vertex 0.000000e+00 6.427521e+01 0.000000e+00
         vertex 0.000000e+00 6.427521e+01 4.000000e+01
      endloop
   endfacet
   facet normal 0.000000e+00 1.000000e+00 -0.000000e+00
      outer loop
         vertex 7.370881e+00 6.427521e+01 9.000000e+00
         vertex 0.000000e+00 6.427521e+01 4.000000e+01
         vertex 3.812512e+01 6.427521e+01 9.000000e+00
      endloop
   endfacet
   facet normal 0.000000e+00 1.000000e+00 -0.000000e+00
      outer loop
         vertex 3.812512e+01 6.427521e+01 9.000000e+00
         vertex 0.000000e+00 6.427521e+01 4.000000e+01
         vertex 4.549600e+01 6.427521e+01 4.000000e+01
      endloop
   endfacet
   facet normal -0.000000e+00 1.000000e+00 0.000000e+00
      outer loop
         vertex 3.812512e+01 6.427521e+01 9.000000e+00
         vertex 4.549600e+01 6.427521e+01 4.000000e+01
         vertex 4.549600e+01 6.427521e+01 0.000000e+00
      endloop
   endfacet
endsolid