solid 8
   facet normal 1.000000e+00 0.000000e+00 -0.000000e+00
      outer loop
         vertex 5.149600e+01 2.792113e+01 2.974035e+01
         vertex 5.149600e+01 2.839669e+01 3.033667e+01
         vertex 5.149600e+01 2.207711e+01 4.000000e+01
      endloop
   endfacet
   facet normal 1.000000e+00 -0.000000e+00 0.000000e+00
      outer loop
         vertex 5.149600e+01 3.701409e+01 2.536141e+01
         vertex 5.149600e+01 4.196289e+01 2.470290e+01
         vertex 5.149600e+01 3.718381e+01 2.610501e+01
      endloop
   endfacet
   facet normal 1.000000e+00 0.000000e+00 0.000000e+00
      outer loop
         vertex 5.149600e+01 3.718381e+01 2.610501e+01
         vertex 5.149600e+01 4.196289e+01 2.470290e+01
         vertex 5.149600e+01 4.213912e+01 2.577788e+01
      endloop
   endfacet
   facet normal 1.000000e+00 -0.000000e+00 0.000000e+00
      outer loop
         vertex 5.149600e+01 3.718381e+01 2.610501e+01
         vertex 5.149600e+01 4.213912e+01 2.577788e+01
         vertex 5.149600e+01 3.724081e+01 2.686561e+01
      endloop
   endfacet
   facet normal 1.000000e+00 -0.000000e+00 0.000000e+00
      outer loop
         vertex 5.149600e+01 3.724081e+01 2.686561e+01
         vertex 5.149600e+01 4.213912e+01 2.577788e+01
         vertex 5.149600e+01 4.219810e+01 2.686561e+01
      endloop
   endfacet
   facet normal 1.000000e+00 0.000000e+00 -0.000000e+00
      outer loop
         vertex 5.149600e+01 3.724081e+01 2.686561e+01
         vertex 5.149600e+01 4.219810e+01 2.686561e+01
         vertex 5.149600e+01 3.718381e+01 2.762620e+01
      endloop
   endfacet
   facet normal 1.000000e+00 0.000000e+00 -0.000000e+00
      outer loop
         vertex 5.149600e+01 3.027319e+01 3.161605e+01
         vertex 5.149600e+01 3.100203e+01 3.184086e+01
         vertex 5.149600e+01 2.207711e+01 4.000000e+01
      endloop
   endfacet
   facet normal 1.000000e+00 0.000000e+00 0.000000e+00
      outer loop
         vertex 5.149600e+01 2.207711e+01 4.000000e+01
         vertex 5.149600e+01 3.100203e+01 3.184086e+01
         vertex 5.149600e+01 3.175624e+01 3.195455e+01
      endloop
   endfacet
   facet normal 1.000000e+00 -0.000000e+00 0.000000e+00
      outer loop
         vertex 5.149600e+01 2.207711e+01 4.000000e+01
         vertex 5.149600e+01 3.175624e+01 3.195455e+01
         vertex 5.149600e+01 4.219810e+01 4.000000e+01
      endloop
   endfacet
   facet normal 1.000000e+00 0.000000e+00 0.000000e+00
      outer loop
         vertex 5.149600e+01 4.219810e+01 4.000000e+01
         vertex 5.149600e+01 3.175624e+01 3.195455e+01
         vertex 5.149600e+01 3.251896e+01 3.195455e+01
      endloop
   endfacet
   facet normal 1.000000e+00 0.000000e+00 0.000000e+00
      outer loop
         vertex 5.149600e+01 4.219810e+01 4.000000e+01
         vertex 5.149600e+01 3.251896e+01 3.195455e+01
         vertex 5.149600e+01 3.327317e+01 3.184086e+01
      endloop
   endfacet
   facet normal 1.000000e+00 -0.000000e+00 0.000000e+00
      outer loop
         vertex 5.149600e+01 3.327317e+01 3.184086e+01
         vertex 5.149600e+01 3.400201e+01 3.161605e+01
         vertex 5.149600e+01 4.219810e+01 4.000000e+01
      endloop
   endfacet
   facet normal 1.000000e+00 0.000000e+00 0.000000e+00
      outer loop
         vertex 5.149600e+01 4.219810e+01 4.000000e+01
         vertex 5.149600e+01 3.400201e+01 3.161605e+01
         vertex 5.149600e+01 3.468921e+01 3.128511e+01
      endloop
   endfacet
   facet normal 1.000000e+00 0.000000e+00 0.000000e+00
      outer loop
         vertex 5.149600e+01 4.219810e+01 4.000000e+01
         vertex 5.149600e+01 3.468921e+01 3.128511e+01
         vertex 5.149600e+01 3.531940e+01 3.085545e+01
      endloop
   endfacet
   facet normal 1.000000e+00 0.000000e+00 0.000000e+00
      outer loop
         vertex 5.149600e+01 4.219810e+01 4.000000e+01
         vertex 5.149600e+01 3.673543e+01 2.907981e+01
         vertex 5.149600e+01 4.219810e+01 2.686561e+01
      endloop
   endfacet
   facet normal 1.000000e+00 0.000000e+00 0.000000e+00
      outer loop
         vertex 5.149600e+01 4.219810e+01 2.686561e+01
         vertex 5.149600e+01 3.673543e+01 2.907981e+01
         vertex 5.149600e+01 3.701409e+01 2.836980e+01
      endloop
   endfacet
   facet normal 1.000000e+00 0.000000e+00 0.000000e+00
      outer loop
         vertex 5.149600e+01 4.219810e+01 2.686561e+01
         vertex 5.149600e+01 3.701409e+01 2.836980e+01
         vertex 5.149600e+01 3.718381e+01 2.762620e+01
      endloop
   endfacet
   facet normal 1.000000e+00 -0.000000e+00 0.000000e+00
      outer loop
         vertex 5.149600e+01 3.251896e+01 2.177667e+01
         vertex 5.149600e+01 3.376521e+01 1.693765e+01
         vertex 5.149600e+01 3.327317e+01 2.189035e+01
      endloop
   endfacet
   facet normal 1.000000e+00 0.000000e+00 0.000000e+00
      outer loop
         vertex 5.149600e+01 3.327317e+01 2.189035e+01
         vertex 5.149600e+01 3.376521e+01 1.693765e+01
         vertex 5.149600e+01 3.482907e+01 1.717182e+01
      endloop
   endfacet
   facet normal 1.000000e+00 -0.000000e+00 0.000000e+00
      outer loop
         vertex 5.149600e+01 3.327317e+01 2.189035e+01
         vertex 5.149600e+01 3.482907e+01 1.717182e+01
         vertex 5.149600e+01 3.400201e+01 2.211517e+01
      endloop
   endfacet
   facet normal 1.000000e+00 0.000000e+00 0.000000e+00
      outer loop
         vertex 5.149600e+01 3.400201e+01 2.211517e+01
         vertex 5.149600e+01 3.482907e+01 1.717182e+01
         vertex 5.149600e+01 3.586138e+01 1.751964e+01
      endloop
   endfacet
   facet normal 1.000000e+00 -0.000000e+00 0.000000e+00
      outer loop
         vertex 5.149600e+01 3.400201e+01 2.211517e+01
         vertex 5.149600e+01 3.586138e+01 1.751964e+01
         vertex 5.149600e+01 3.468921e+01 2.244610e+01
      endloop
   endfacet
   facet normal 1.000000e+00 0.000000e+00 0.000000e+00
      outer loop
         vertex 5.149600e+01 3.100203e+01 2.189035e+01
         vertex 5.149600e+01 3.051000e+01 1.693765e+01
         vertex 5.149600e+01 3.175624e+01 2.177667e+01
      endloop
   endfacet
   facet normal 1.000000e+00 0.000000e+00 0.000000e+00
      outer loop
         vertex 5.149600e+01 3.175624e+01 2.177667e+01
         vertex 5.149600e+01 3.051000e+01 1.693765e+01
         vertex 5.149600e+01 3.159294e+01 1.681987e+01
      endloop
   endfacet
   facet normal 1.000000e+00 -0.000000e+00 0.000000e+00
      outer loop
         vertex 5.149600e+01 3.175624e+01 2.177667e+01
         vertex 5.149600e+01 3.159294e+01 1.681987e+01
         vertex 5.149600e+01 3.251896e+01 2.177667e+01
      endloop
   endfacet
   facet normal 1.000000e+00 0.000000e+00 0.000000e+00
      outer loop
         vertex 5.149600e+01 3.251896e+01 2.177667e+01
         vertex 5.149600e+01 3.159294e+01 1.681987e+01
         vertex 5.149600e+01 3.268227e+01 1.681987e+01
      endloop
   endfacet
   facet normal 1.000000e+00 0.000000e+00 0.000000e+00
      outer loop
         vertex 5.149600e+01 3.251896e+01 2.177667e+01
         vertex 5.149600e+01 3.268227e+01 1.681987e+01
         vertex 5.149600e+01 3.376521e+01 1.693765e+01
      endloop
   endfacet
   facet normal 1.000000e+00 0.000000e+00 0.000000e+00
      outer loop
         vertex 5.149600e+01 2.709140e+01 2.610501e+01
         vertex 5.149600e+01 2.703440e+01 2.686561e+01
         vertex 5.149600e+01 2.207711e+01 2.686561e+01
      endloop
   endfacet
   facet normal 1.000000e+00 0.000000e+00 -0.000000e+00
      outer loop
         vertex 5.149600e+01 2.839669e+01 3.033667e+01
         vertex 5.149600e+01 2.895580e+01 3.085545e+01
         vertex 5.149600e+01 2.207711e+01 4.000000e+01
      endloop
   endfacet
   facet normal 1.000000e+00 0.000000e+00 0.000000e+00
      outer loop
         vertex 5.149600e+01 2.207711e+01 4.000000e+01
         vertex 5.149600e+01 2.895580e+01 3.085545e+01
         vertex 5.149600e+01 2.958600e+01 3.128511e+01
      endloop
   endfacet
   facet normal 1.000000e+00 0.000000e+00 0.000000e+00
      outer loop
         vertex 5.149600e+01 2.207711e+01 4.000000e+01
         vertex 5.149600e+01 2.958600e+01 3.128511e+01
         vertex 5.149600e+01 3.027319e+01 3.161605e+01
      endloop
   endfacet
   facet normal 1.000000e+00 -0.000000e+00 0.000000e+00
      outer loop
         vertex 5.149600e+01 3.531940e+01 3.085545e+01
         vertex 5.149600e+01 3.587852e+01 3.033667e+01
         vertex 5.149600e+01 4.219810e+01 4.000000e+01
      endloop
   endfacet
   facet normal 1.000000e+00 0.000000e+00 0.000000e+00
      outer loop
         vertex 5.149600e+01 4.219810e+01 4.000000e+01
         vertex 5.149600e+01 3.587852e+01 3.033667e+01
         vertex 5.149600e+01 3.635407e+01 2.974035e+01
      endloop
   endfacet
   facet normal 1.000000e+00 0.000000e+00 0.000000e+00
      outer loop
         vertex 5.149600e+01 4.219810e+01 4.000000e+01
         vertex 5.149600e+01 3.635407e+01 2.974035e+01
         vertex 5.149600e+01 3.673543e+01 2.907981e+01
      endloop
   endfacet
   facet normal 1.000000e+00 -0.000000e+00 0.000000e+00
      outer loop
         vertex 5.149600e+01 3.635407e+01 2.399087e+01
         vertex 5.149600e+01 4.075801e+01 2.167888e+01
         vertex 5.149600e+01 3.673543e+01 2.465141e+01
      endloop
   endfacet
   facet normal 1.000000e+00 0.000000e+00 0.000000e+00
      outer loop
         vertex 5.149600e+01 3.673543e+01 2.465141e+01
         vertex 5.149600e+01 4.075801e+01 2.167888e+01
         vertex 5.149600e+01 4.126826e+01 2.264132e+01
      endloop
   endfacet
   facet normal 1.000000e+00 -0.000000e+00 0.000000e+00
      outer loop
         vertex 5.149600e+01 3.673543e+01 2.465141e+01
         vertex 5.149600e+01 4.126826e+01 2.264132e+01
         vertex 5.149600e+01 3.701409e+01 2.536141e+01
      endloop
   endfacet
   facet normal 1.000000e+00 0.000000e+00 0.000000e+00
      outer loop
         vertex 5.149600e+01 3.701409e+01 2.536141e+01
         vertex 5.149600e+01 4.126826e+01 2.264132e+01
         vertex 5.149600e+01 4.167146e+01 2.365328e+01
      endloop
   endfacet
   facet normal 1.000000e+00 0.000000e+00 0.000000e+00
      outer loop
         vertex 5.149600e+01 3.701409e+01 2.536141e+01
         vertex 5.149600e+01 4.167146e+01 2.365328e+01
         vertex 5.149600e+01 4.196289e+01 2.470290e+01
      endloop
   endfacet
   facet normal 1.000000e+00 0.000000e+00 -0.000000e+00
      outer loop
         vertex 5.149600e+01 3.586138e+01 1.751964e+01
         vertex 5.149600e+01 3.685002e+01 1.797704e+01
         vertex 5.149600e+01 3.468921e+01 2.244610e+01
      endloop
   endfacet
   facet normal 1.000000e+00 0.000000e+00 0.000000e+00
      outer loop
         vertex 5.149600e+01 3.468921e+01 2.244610e+01
         vertex 5.149600e+01 3.685002e+01 1.797704e+01
         vertex 5.149600e+01 3.778342e+01 1.853865e+01
      endloop
   endfacet
   facet normal 1.000000e+00 -0.000000e+00 0.000000e+00
      outer loop
         vertex 5.149600e+01 3.468921e+01 2.244610e+01
         vertex 5.149600e+01 3.778342e+01 1.853865e+01
         vertex 5.149600e+01 3.531940e+01 2.287576e+01
      endloop
   endfacet
   facet normal 1.000000e+00 0.000000e+00 0.000000e+00
      outer loop
         vertex 5.149600e+01 3.531940e+01 2.287576e+01
         vertex 5.149600e+01 3.778342e+01 1.853865e+01
         vertex 5.149600e+01 3.865063e+01 1.919788e+01
      endloop
   endfacet
   facet normal 1.000000e+00 -0.000000e+00 0.000000e+00
      outer loop
         vertex 5.149600e+01 3.531940e+01 2.287576e+01
         vertex 5.149600e+01 3.865063e+01 1.919788e+01
         vertex 5.149600e+01 3.587852e+01 2.339455e+01
      endloop
   endfacet
   facet normal 1.000000e+00 0.000000e+00 0.000000e+00
      outer loop
         vertex 5.149600e+01 3.587852e+01 2.339455e+01
         vertex 5.149600e+01 3.865063e+01 1.919788e+01
         vertex 5.149600e+01 3.944148e+01 1.994701e+01
      endloop
   endfacet
   facet normal 1.000000e+00 -0.000000e+00 0.000000e+00
      outer loop
         vertex 5.149600e+01 3.587852e+01 2.339455e+01
         vertex 5.149600e+01 3.944148e+01 1.994701e+01
         vertex 5.149600e+01 3.635407e+01 2.399087e+01
      endloop
   endfacet
   facet normal 1.000000e+00 0.000000e+00 0.000000e+00
      outer loop
         vertex 5.149600e+01 3.635407e+01 2.399087e+01
         vertex 5.149600e+01 3.944148e+01 1.994701e+01
         vertex 5.149600e+01 4.014669e+01 2.077726e+01
      endloop
   endfacet
   facet normal 1.000000e+00 0.000000e+00 0.000000e+00
      outer loop
         vertex 5.149600e+01 3.635407e+01 2.399087e+01
         vertex 5.149600e+01 4.014669e+01 2.077726e+01
         vertex 5.149600e+01 4.075801e+01 2.167888e+01
      endloop
   endfacet
   facet normal 1.000000e+00 0.000000e+00 -0.000000e+00
      outer loop
         vertex 5.149600e+01 2.703440e+01 2.686561e+01
         vertex 5.149600e+01 2.709140e+01 2.762620e+01
         vertex 5.149600e+01 2.207711e+01 2.686561e+01
      endloop
   endfacet
   facet normal 1.000000e+00 0.000000e+00 0.000000e+00
      outer loop
         vertex 5.149600e+01 2.207711e+01 2.686561e+01
         vertex 5.149600e+01 2.709140e+01 2.762620e+01
         vertex 5.149600e+01 2.726112e+01 2.836980e+01
      endloop
   endfacet
   facet normal 1.000000e+00 0.000000e+00 0.000000e+00
      outer loop
         vertex 5.149600e+01 2.207711e+01 2.686561e+01
         vertex 5.149600e+01 2.726112e+01 2.836980e+01
         vertex 5.149600e+01 2.207711e+01 4.000000e+01
      endloop
   endfacet
   facet normal 1.000000e+00 0.000000e+00 0.000000e+00
      outer loop
         vertex 5.149600e+01 2.207711e+01 4.000000e+01
         vertex 5.149600e+01 2.726112e+01 2.836980e+01
         vertex 5.149600e+01 2.753977e+01 2.907981e+01
      endloop
   endfacet
   facet normal 1.000000e+00 0.000000e+00 0.000000e+00
      outer loop
         vertex 5.149600e+01 2.207711e+01 4.000000e+01
         vertex 5.149600e+01 2.753977e+01 2.907981e+01
         vertex 5.149600e+01 2.792113e+01 2.974035e+01
      endloop
   endfacet
   facet normal 1.000000e+00 0.000000e+00 0.000000e+00
      outer loop
         vertex 5.149600e+01 2.895580e+01 2.287576e+01
         vertex 5.149600e+01 2.649178e+01 1.853865e+01
         vertex 5.149600e+01 2.958600e+01 2.244610e+01
      endloop
   endfacet
   facet normal 1.000000e+00 0.000000e+00 0.000000e+00
      outer loop
         vertex 5.149600e+01 2.958600e+01 2.244610e+01
         vertex 5.149600e+01 2.649178e+01 1.853865e+01
         vertex 5.149600e+01 2.742518e+01 1.797704e+01
      endloop
   endfacet
   facet normal 1.000000e+00 0.000000e+00 0.000000e+00
      outer loop
         vertex 5.149600e+01 2.958600e+01 2.244610e+01
         vertex 5.149600e+01 2.742518e+01 1.797704e+01
         vertex 5.149600e+01 3.027319e+01 2.211517e+01
      endloop
   endfacet
   facet normal 1.000000e+00 0.000000e+00 0.000000e+00
      outer loop
         vertex 5.149600e+01 3.027319e+01 2.211517e+01
         vertex 5.149600e+01 2.742518e+01 1.797704e+01
         vertex 5.149600e+01 2.841383e+01 1.751964e+01
      endloop
   endfacet
   facet normal 1.000000e+00 0.000000e+00 0.000000e+00
      outer loop
         vertex 5.149600e+01 3.027319e+01 2.211517e+01
         vertex 5.149600e+01 2.841383e+01 1.751964e+01
         vertex 5.149600e+01 3.100203e+01 2.189035e+01
      endloop
   endfacet
   facet normal 1.000000e+00 0.000000e+00 0.000000e+00
      outer loop
         vertex 5.149600e+01 3.100203e+01 2.189035e+01
         vertex 5.149600e+01 2.841383e+01 1.751964e+01
         vertex 5.149600e+01 2.944613e+01 1.717182e+01
      endloop
   endfacet
   facet normal 1.000000e+00 0.000000e+00 0.000000e+00
      outer loop
         vertex 5.149600e+01 3.100203e+01 2.189035e+01
         vertex 5.149600e+01 2.944613e+01 1.717182e+01
         vertex 5.149600e+01 3.051000e+01 1.693765e+01
      endloop
   endfacet
   facet normal 1.000000e+00 0.000000e+00 0.000000e+00
      outer loop
         vertex 5.149600e+01 2.753977e+01 2.465141e+01
         vertex 5.149600e+01 2.351720e+01 2.167888e+01
         vertex 5.149600e+01 2.792113e+01 2.399087e+01
      endloop
   endfacet
   facet normal 1.000000e+00 0.000000e+00 0.000000e+00
      outer loop
         vertex 5.149600e+01 2.792113e+01 2.399087e+01
         vertex 5.149600e+01 2.351720e+01 2.167888e+01
         vertex 5.149600e+01 2.412851e+01 2.077726e+01
      endloop
   endfacet
   facet normal 1.000000e+00 0.000000e+00 0.000000e+00
      outer loop
         vertex 5.149600e+01 2.792113e+01 2.399087e+01
         vertex 5.149600e+01 2.412851e+01 2.077726e+01
         vertex 5.149600e+01 2.839669e+01 2.339455e+01
      endloop
   endfacet
   facet normal 1.000000e+00 0.000000e+00 0.000000e+00
      outer loop
         vertex 5.149600e+01 2.839669e+01 2.339455e+01
         vertex 5.149600e+01 2.412851e+01 2.077726e+01
         vertex 5.149600e+01 2.483373e+01 1.994701e+01
      endloop
   endfacet
   facet normal 1.000000e+00 0.000000e+00 0.000000e+00
      outer loop
         vertex 5.149600e+01 2.839669e+01 2.339455e+01
         vertex 5.149600e+01 2.483373e+01 1.994701e+01
         vertex 5.149600e+01 2.895580e+01 2.287576e+01
      endloop
   endfacet
   facet normal 1.000000e+00 0.000000e+00 0.000000e+00
      outer loop
         vertex 5.149600e+01 2.895580e+01 2.287576e+01
         vertex 5.149600e+01 2.483373e+01 1.994701e+01
         vertex 5.149600e+01 2.562458e+01 1.919788e+01
      endloop
   endfacet
   facet normal 1.000000e+00 0.000000e+00 0.000000e+00
      outer loop
         vertex 5.149600e+01 2.895580e+01 2.287576e+01
         vertex 5.149600e+01 2.562458e+01 1.919788e+01
         vertex 5.149600e+01 2.649178e+01 1.853865e+01
      endloop
   endfacet
   facet normal 1.000000e+00 0.000000e+00 0.000000e+00
      outer loop
         vertex 5.149600e+01 2.207711e+01 2.686561e+01
         vertex 5.149600e+01 2.213608e+01 2.577788e+01
         vertex 5.149600e+01 2.709140e+01 2.610501e+01
      endloop
   endfacet
   facet normal 1.000000e+00 0.000000e+00 0.000000e+00
      outer loop
         vertex 5.149600e+01 2.709140e+01 2.610501e+01
         vertex 5.149600e+01 2.213608e+01 2.577788e+01
         vertex 5.149600e+01 2.231232e+01 2.470290e+01
      endloop
   endfacet
   facet normal 1.000000e+00 0.000000e+00 0.000000e+00
      outer loop
         vertex 5.149600e+01 2.709140e+01 2.610501e+01
         vertex 5.149600e+01 2.231232e+01 2.470290e+01
         vertex 5.149600e+01 2.726112e+01 2.536141e+01
      endloop
   endfacet
   facet normal 1.000000e+00 0.000000e+00 0.000000e+00
      outer loop
         vertex 5.149600e+01 2.726112e+01 2.536141e+01
         vertex 5.149600e+01 2.231232e+01 2.470290e+01
         vertex 5.149600e+01 2.260374e+01 2.365328e+01
      endloop
   endfacet
   facet normal 1.000000e+00 0.000000e+00 0.000000e+00
      outer loop
         vertex 5.149600e+01 2.726112e+01 2.536141e+01
         vertex 5.149600e+01 2.260374e+01 2.365328e+01
         vertex 5.149600e+01 2.753977e+01 2.465141e+01
      endloop
   endfacet
   facet normal 1.000000e+00 0.000000e+00 0.000000e+00
      outer loop
         vertex 5.149600e+01 2.753977e+01 2.465141e+01
         vertex 5.149600e+01 2.260374e+01 2.365328e+01
         vertex 5.149600e+01 2.300694e+01 2.264132e+01
      endloop
   endfacet
   facet normal 1.000000e+00 0.000000e+00 0.000000e+00
      outer loop
         vertex 5.149600e+01 2.753977e+01 2.465141e+01
         vertex 5.149600e+01 2.300694e+01 2.264132e+01
         vertex 5.149600e+01 2.351720e+01 2.167888e+01
      endloop
   endfacet
   facet normal 0.000000e+00 0.000000e+00 1.000000e+00
      outer loop
         vertex 3.312512e+01 -1.429606e+01 9.000000e+00
         vertex 2.684164e+01 -1.429606e+01 9.000000e+00
         vertex 3.304946e+01 -1.554688e+01 9.000000e+00
      endloop
   endfacet
   facet normal 0.000000e+00 0.000000e+00 1.000000e+00
      outer loop
         vertex 3.304946e+01 -1.554688e+01 9.000000e+00
         vertex 2.684164e+01 -1.429606e+01 9.000000e+00
         vertex 2.677945e+01 -1.500691e+01 9.000000e+00
      endloop
   endfacet
   facet normal 0.000000e+00 0.000000e+00 1.000000e+00
      outer loop
         vertex 3.304946e+01 -1.554688e+01 9.000000e+00
         vertex 2.677945e+01 -1.500691e+01 9.000000e+00
         vertex 3.282358e+01 -1.677947e+01 9.000000e+00
      endloop
   endfacet
   facet normal 0.000000e+00 0.000000e+00 1.000000e+00
      outer loop
         vertex 3.282358e+01 -1.677947e+01 9.000000e+00
         vertex 2.677945e+01 -1.500691e+01 9.000000e+00
         vertex 2.659477e+01 -1.569617e+01 9.000000e+00
      endloop
   endfacet
   facet normal -0.000000e+00 0.000000e+00 1.000000e+00
      outer loop
         vertex 2.588391e+01 -1.692740e+01 9.000000e+00
         vertex 3.128820e+01 -2.019094e+01 9.000000e+00
         vertex 2.629320e+01 -1.634288e+01 9.000000e+00
      endloop
   endfacet
   facet normal 0.000000e+00 0.000000e+00 1.000000e+00
      outer loop
         vertex 2.629320e+01 -1.634288e+01 9.000000e+00
         vertex 3.128820e+01 -2.019094e+01 9.000000e+00
         vertex 3.193649e+01 -1.911855e+01 9.000000e+00
      endloop
   endfacet
   facet normal -0.000000e+00 0.000000e+00 1.000000e+00
      outer loop
         vertex 2.629320e+01 -1.634288e+01 9.000000e+00
         vertex 3.193649e+01 -1.911855e+01 9.000000e+00
         vertex 2.659477e+01 -1.569617e+01 9.000000e+00
      endloop
   endfacet
   facet normal 0.000000e+00 0.000000e+00 1.000000e+00
      outer loop
         vertex 2.659477e+01 -1.569617e+01 9.000000e+00
         vertex 3.193649e+01 -1.911855e+01 9.000000e+00
         vertex 3.245078e+01 -1.797584e+01 9.000000e+00
      endloop
   endfacet
   facet normal 0.000000e+00 0.000000e+00 1.000000e+00
      outer loop
         vertex 2.659477e+01 -1.569617e+01 9.000000e+00
         vertex 3.245078e+01 -1.797584e+01 9.000000e+00
         vertex 3.282358e+01 -1.677947e+01 9.000000e+00
      endloop
   endfacet
   facet normal -0.000000e+00 0.000000e+00 1.000000e+00
      outer loop
         vertex 2.345886e+01 -1.832751e+01 9.000000e+00
         vertex 2.523141e+01 -2.437164e+01 9.000000e+00
         vertex 2.414811e+01 -1.814282e+01 9.000000e+00
      endloop
   endfacet
   facet normal 0.000000e+00 0.000000e+00 1.000000e+00
      outer loop
         vertex 2.414811e+01 -1.814282e+01 9.000000e+00
         vertex 2.523141e+01 -2.437164e+01 9.000000e+00
         vertex 2.642778e+01 -2.399883e+01 9.000000e+00
      endloop
   endfacet
   facet normal -0.000000e+00 0.000000e+00 1.000000e+00
      outer loop
         vertex 2.414811e+01 -1.814282e+01 9.000000e+00
         vertex 2.642778e+01 -2.399883e+01 9.000000e+00
         vertex 2.479482e+01 -1.784126e+01 9.000000e+00
      endloop
   endfacet
   facet normal 0.000000e+00 0.000000e+00 1.000000e+00
      outer loop
         vertex 2.134789e+01 -1.814282e+01 9.000000e+00
         vertex 2.026459e+01 -2.437164e+01 9.000000e+00
         vertex 2.203715e+01 -1.832751e+01 9.000000e+00
      endloop
   endfacet
   facet normal 0.000000e+00 0.000000e+00 1.000000e+00
      outer loop
         vertex 2.203715e+01 -1.832751e+01 9.000000e+00
         vertex 2.026459e+01 -2.437164e+01 9.000000e+00
         vertex 2.149718e+01 -2.459752e+01 9.000000e+00
      endloop
   endfacet
   facet normal 0.000000e+00 0.000000e+00 1.000000e+00
      outer loop
         vertex 2.203715e+01 -1.832751e+01 9.000000e+00
         vertex 2.149718e+01 -2.459752e+01 9.000000e+00
         vertex 2.274800e+01 -1.838970e+01 9.000000e+00
      endloop
   endfacet
   facet normal 0.000000e+00 0.000000e+00 1.000000e+00
      outer loop
         vertex 2.274800e+01 -1.838970e+01 9.000000e+00
         vertex 2.149718e+01 -2.459752e+01 9.000000e+00
         vertex 2.274800e+01 -2.467318e+01 9.000000e+00
      endloop
   endfacet
   facet normal -0.000000e+00 0.000000e+00 1.000000e+00
      outer loop
         vertex 2.274800e+01 -1.838970e+01 9.000000e+00
         vertex 2.274800e+01 -2.467318e+01 9.000000e+00
         vertex 2.345886e+01 -1.832751e+01 9.000000e+00
      endloop
   endfacet
   facet normal 0.000000e+00 0.000000e+00 1.000000e+00
      outer loop
         vertex 2.345886e+01 -1.832751e+01 9.000000e+00
         vertex 2.274800e+01 -2.467318e+01 9.000000e+00
         vertex 2.399882e+01 -2.459752e+01 9.000000e+00
      endloop
   endfacet
   facet normal 0.000000e+00 0.000000e+00 1.000000e+00
      outer loop
         vertex 2.345886e+01 -1.832751e+01 9.000000e+00
         vertex 2.399882e+01 -2.459752e+01 9.000000e+00
         vertex 2.523141e+01 -2.437164e+01 9.000000e+00
      endloop
   endfacet
   facet normal 0.000000e+00 -0.000000e+00 1.000000e+00
      outer loop
         vertex 2.642778e+01 -2.399883e+01 9.000000e+00
         vertex 2.757049e+01 -2.348454e+01 9.000000e+00
         vertex 2.479482e+01 -1.784126e+01 9.000000e+00
      endloop
   endfacet
   facet normal 0.000000e+00 0.000000e+00 1.000000e+00
      outer loop
         vertex 2.479482e+01 -1.784126e+01 9.000000e+00
         vertex 2.757049e+01 -2.348454e+01 9.000000e+00
         vertex 2.864288e+01 -2.283626e+01 9.000000e+00
      endloop
   endfacet
   facet normal -0.000000e+00 0.000000e+00 1.000000e+00
      outer loop
         vertex 2.479482e+01 -1.784126e+01 9.000000e+00
         vertex 2.864288e+01 -2.283626e+01 9.000000e+00
         vertex 2.537934e+01 -1.743197e+01 9.000000e+00
      endloop
   endfacet
   facet normal 0.000000e+00 0.000000e+00 1.000000e+00
      outer loop
         vertex 2.537934e+01 -1.743197e+01 9.000000e+00
         vertex 2.864288e+01 -2.283626e+01 9.000000e+00
         vertex 2.962931e+01 -2.206345e+01 9.000000e+00
      endloop
   endfacet
   facet normal -0.000000e+00 0.000000e+00 1.000000e+00
      outer loop
         vertex 2.537934e+01 -1.743197e+01 9.000000e+00
         vertex 2.962931e+01 -2.206345e+01 9.000000e+00
         vertex 2.588391e+01 -1.692740e+01 9.000000e+00
      endloop
   endfacet
   facet normal 0.000000e+00 0.000000e+00 1.000000e+00
      outer loop
         vertex 2.588391e+01 -1.692740e+01 9.000000e+00
         vertex 2.962931e+01 -2.206345e+01 9.000000e+00
         vertex 3.051539e+01 -2.117736e+01 9.000000e+00
      endloop
   endfacet
   facet normal 0.000000e+00 0.000000e+00 1.000000e+00
      outer loop
         vertex 2.588391e+01 -1.692740e+01 9.000000e+00
         vertex 3.051539e+01 -2.117736e+01 9.000000e+00
         vertex 3.128820e+01 -2.019094e+01 9.000000e+00
      endloop
   endfacet
   facet normal 0.000000e+00 0.000000e+00 1.000000e+00
      outer loop
         vertex 2.011666e+01 -1.743197e+01 9.000000e+00
         vertex 1.685313e+01 -2.283626e+01 9.000000e+00
         vertex 2.070118e+01 -1.784126e+01 9.000000e+00
      endloop
   endfacet
   facet normal 0.000000e+00 0.000000e+00 1.000000e+00
      outer loop
         vertex 2.070118e+01 -1.784126e+01 9.000000e+00
         vertex 1.685313e+01 -2.283626e+01 9.000000e+00
         vertex 1.792551e+01 -2.348454e+01 9.000000e+00
      endloop
   endfacet
   facet normal 0.000000e+00 0.000000e+00 1.000000e+00
      outer loop
         vertex 2.070118e+01 -1.784126e+01 9.000000e+00
         vertex 1.792551e+01 -2.348454e+01 9.000000e+00
         vertex 2.134789e+01 -1.814282e+01 9.000000e+00
      endloop
   endfacet
   facet normal 0.000000e+00 0.000000e+00 1.000000e+00
      outer loop
         vertex 2.134789e+01 -1.814282e+01 9.000000e+00
         vertex 1.792551e+01 -2.348454e+01 9.000000e+00
         vertex 1.906822e+01 -2.399883e+01 9.000000e+00
      endloop
   endfacet
   facet normal 0.000000e+00 0.000000e+00 1.000000e+00
      outer loop
         vertex 2.134789e+01 -1.814282e+01 9.000000e+00
         vertex 1.906822e+01 -2.399883e+01 9.000000e+00
         vertex 2.026459e+01 -2.437164e+01 9.000000e+00
      endloop
   endfacet
   facet normal 0.000000e+00 0.000000e+00 1.000000e+00
      outer loop
         vertex 1.237088e+01 -1.429606e+01 9.000000e+00
         vertex 1.244654e+01 -1.554688e+01 9.000000e+00
         vertex 1.871655e+01 -1.500691e+01 9.000000e+00
      endloop
   endfacet
   facet normal 0.000000e+00 0.000000e+00 1.000000e+00
      outer loop
         vertex 1.871655e+01 -1.500691e+01 9.000000e+00
         vertex 1.244654e+01 -1.554688e+01 9.000000e+00
         vertex 1.267242e+01 -1.677947e+01 9.000000e+00
      endloop
   endfacet
   facet normal 0.000000e+00 0.000000e+00 1.000000e+00
      outer loop
         vertex 1.871655e+01 -1.500691e+01 9.000000e+00
         vertex 1.267242e+01 -1.677947e+01 9.000000e+00
         vertex 1.890124e+01 -1.569617e+01 9.000000e+00
      endloop
   endfacet
   facet normal 0.000000e+00 0.000000e+00 1.000000e+00
      outer loop
         vertex 1.890124e+01 -1.569617e+01 9.000000e+00
         vertex 1.267242e+01 -1.677947e+01 9.000000e+00
         vertex 1.304523e+01 -1.797584e+01 9.000000e+00
      endloop
   endfacet
   facet normal 0.000000e+00 0.000000e+00 1.000000e+00
      outer loop
         vertex 1.890124e+01 -1.569617e+01 9.000000e+00
         vertex 1.304523e+01 -1.797584e+01 9.000000e+00
         vertex 1.920281e+01 -1.634288e+01 9.000000e+00
      endloop
   endfacet
   facet normal 0.000000e+00 0.000000e+00 1.000000e+00
      outer loop
         vertex 1.871655e+01 -1.500691e+01 9.000000e+00
         vertex 1.865436e+01 -1.429606e+01 9.000000e+00
         vertex 1.237088e+01 -1.429606e+01 9.000000e+00
      endloop
   endfacet
   facet normal 0.000000e+00 0.000000e+00 1.000000e+00
      outer loop
         vertex 1.237088e+01 -1.429606e+01 9.000000e+00
         vertex 1.865436e+01 -1.429606e+01 9.000000e+00
         vertex 1.871655e+01 -1.358521e+01 9.000000e+00
      endloop
   endfacet
   facet normal 0.000000e+00 0.000000e+00 1.000000e+00
      outer loop
         vertex 1.237088e+01 -1.429606e+01 9.000000e+00
         vertex 1.871655e+01 -1.358521e+01 9.000000e+00
         vertex 1.237088e+01 -5.000000e+00 9.000000e+00
      endloop
   endfacet
   facet normal 0.000000e+00 0.000000e+00 1.000000e+00
      outer loop
         vertex 1.237088e+01 -5.000000e+00 9.000000e+00
         vertex 1.871655e+01 -1.358521e+01 9.000000e+00
         vertex 1.890124e+01 -1.289595e+01 9.000000e+00
      endloop
   endfacet
   facet normal -0.000000e+00 0.000000e+00 1.000000e+00
      outer loop
         vertex 1.304523e+01 -1.797584e+01 9.000000e+00
         vertex 1.355952e+01 -1.911855e+01 9.000000e+00
         vertex 1.920281e+01 -1.634288e+01 9.000000e+00
      endloop
   endfacet
   facet normal 0.000000e+00 0.000000e+00 1.000000e+00
      outer loop
         vertex 1.920281e+01 -1.634288e+01 9.000000e+00
         vertex 1.355952e+01 -1.911855e+01 9.000000e+00
         vertex 1.420780e+01 -2.019094e+01 9.000000e+00
      endloop
   endfacet
   facet normal 0.000000e+00 0.000000e+00 1.000000e+00
      outer loop
         vertex 1.920281e+01 -1.634288e+01 9.000000e+00
         vertex 1.420780e+01 -2.019094e+01 9.000000e+00
         vertex 1.961209e+01 -1.692740e+01 9.000000e+00
      endloop
   endfacet
   facet normal 0.000000e+00 0.000000e+00 1.000000e+00
      outer loop
         vertex 1.961209e+01 -1.692740e+01 9.000000e+00
         vertex 1.420780e+01 -2.019094e+01 9.000000e+00
         vertex 1.498062e+01 -2.117736e+01 9.000000e+00
      endloop
   endfacet
   facet normal 0.000000e+00 0.000000e+00 1.000000e+00
      outer loop
         vertex 1.961209e+01 -1.692740e+01 9.000000e+00
         vertex 1.498062e+01 -2.117736e+01 9.000000e+00
         vertex 2.011666e+01 -1.743197e+01 9.000000e+00
      endloop
   endfacet
   facet normal 0.000000e+00 0.000000e+00 1.000000e+00
      outer loop
         vertex 2.011666e+01 -1.743197e+01 9.000000e+00
         vertex 1.498062e+01 -2.117736e+01 9.000000e+00
         vertex 1.586670e+01 -2.206345e+01 9.000000e+00
      endloop
   endfacet
   facet normal 0.000000e+00 0.000000e+00 1.000000e+00
      outer loop
         vertex 2.011666e+01 -1.743197e+01 9.000000e+00
         vertex 1.586670e+01 -2.206345e+01 9.000000e+00
         vertex 1.685313e+01 -2.283626e+01 9.000000e+00
      endloop
   endfacet
   facet normal 0.000000e+00 -0.000000e+00 1.000000e+00
      outer loop
         vertex 1.890124e+01 -1.289595e+01 9.000000e+00
         vertex 1.920281e+01 -1.224924e+01 9.000000e+00
         vertex 1.237088e+01 -5.000000e+00 9.000000e+00
      endloop
   endfacet
   facet normal 0.000000e+00 0.000000e+00 1.000000e+00
      outer loop
         vertex 1.237088e+01 -5.000000e+00 9.000000e+00
         vertex 1.920281e+01 -1.224924e+01 9.000000e+00
         vertex 1.961209e+01 -1.166472e+01 9.000000e+00
      endloop
   endfacet
   facet normal -0.000000e+00 -0.000000e+00 1.000000e+00
      outer loop
         vertex 1.237088e+01 -5.000000e+00 9.000000e+00
         vertex 1.961209e+01 -1.166472e+01 9.000000e+00
         vertex 1.230932e+01 -4.217828e+00 9.000000e+00
      endloop
   endfacet
   facet normal 0.000000e+00 0.000000e+00 1.000000e+00
      outer loop
         vertex 1.230932e+01 -4.217828e+00 9.000000e+00
         vertex 1.961209e+01 -1.166472e+01 9.000000e+00
         vertex 2.011666e+01 -1.116015e+01 9.000000e+00
      endloop
   endfacet
   facet normal -0.000000e+00 -0.000000e+00 1.000000e+00
      outer loop
         vertex 1.230932e+01 -4.217828e+00 9.000000e+00
         vertex 2.011666e+01 -1.116015e+01 9.000000e+00
         vertex 1.212616e+01 -3.454915e+00 9.000000e+00
      endloop
   endfacet
   facet normal -0.000000e+00 -0.000000e+00 1.000000e+00
      outer loop
         vertex 1.212616e+01 -3.454915e+00 9.000000e+00
         vertex 2.011666e+01 -1.116015e+01 9.000000e+00
         vertex 1.182591e+01 -2.730048e+00 9.000000e+00
      endloop
   endfacet
   facet normal 0.000000e+00 -0.000000e+00 1.000000e+00
      outer loop
         vertex 3.734295e+01 -6.155830e-02 9.000000e+00
         vertex 3.812512e+01 0.000000e+00 9.000000e+00
         vertex 7.370881e+00 0.000000e+00 9.000000e+00
      endloop
   endfacet
   facet normal -0.000000e+00 0.000000e+00 1.000000e+00
      outer loop
         vertex 2.588391e+01 -1.166472e+01 9.000000e+00
         vertex 2.629320e+01 -1.224924e+01 9.000000e+00
         vertex 3.312512e+01 -5.000000e+00 9.000000e+00
      endloop
   endfacet
   facet normal 0.000000e+00 0.000000e+00 1.000000e+00
      outer loop
         vertex 3.312512e+01 -5.000000e+00 9.000000e+00
         vertex 2.629320e+01 -1.224924e+01 9.000000e+00
         vertex 2.659477e+01 -1.289595e+01 9.000000e+00
      endloop
   endfacet
   facet normal 0.000000e+00 0.000000e+00 1.000000e+00
      outer loop
         vertex 3.312512e+01 -5.000000e+00 9.000000e+00
         vertex 2.659477e+01 -1.289595e+01 9.000000e+00
         vertex 3.312512e+01 -1.429606e+01 9.000000e+00
      endloop
   endfacet
   facet normal 0.000000e+00 0.000000e+00 1.000000e+00
      outer loop
         vertex 3.312512e+01 -1.429606e+01 9.000000e+00
         vertex 2.659477e+01 -1.289595e+01 9.000000e+00
         vertex 2.677945e+01 -1.358521e+01 9.000000e+00
      endloop
   endfacet
   facet normal 0.000000e+00 0.000000e+00 1.000000e+00
      outer loop
         vertex 3.312512e+01 -1.429606e+01 9.000000e+00
         vertex 2.677945e+01 -1.358521e+01 9.000000e+00
         vertex 2.684164e+01 -1.429606e+01 9.000000e+00
      endloop
   endfacet
   facet normal 0.000000e+00 0.000000e+00 1.000000e+00
      outer loop
         vertex 2.070118e+01 -1.075086e+01 9.000000e+00
         vertex 1.090642e+01 -1.464466e+00 9.000000e+00
         vertex 2.011666e+01 -1.116015e+01 9.000000e+00
      endloop
   endfacet
   facet normal 0.000000e+00 0.000000e+00 1.000000e+00
      outer loop
         vertex 2.011666e+01 -1.116015e+01 9.000000e+00
         vertex 1.090642e+01 -1.464466e+00 9.000000e+00
         vertex 1.141597e+01 -2.061074e+00 9.000000e+00
      endloop
   endfacet
   facet normal 0.000000e+00 0.000000e+00 1.000000e+00
      outer loop
         vertex 2.011666e+01 -1.116015e+01 9.000000e+00
         vertex 1.141597e+01 -2.061074e+00 9.000000e+00
         vertex 1.182591e+01 -2.730048e+00 9.000000e+00
      endloop
   endfacet
   facet normal -0.000000e+00 0.000000e+00 1.000000e+00
      outer loop
         vertex 2.479482e+01 -1.075086e+01 9.000000e+00
         vertex 2.537934e+01 -1.116015e+01 9.000000e+00
         vertex 3.458959e+01 -1.464466e+00 9.000000e+00
      endloop
   endfacet
   facet normal 0.000000e+00 -0.000000e+00 1.000000e+00
      outer loop
         vertex 2.070118e+01 -1.075086e+01 9.000000e+00
         vertex 2.134789e+01 -1.044930e+01 9.000000e+00
         vertex 1.090642e+01 -1.464466e+00 9.000000e+00
      endloop
   endfacet
   facet normal 0.000000e+00 0.000000e+00 1.000000e+00
      outer loop
         vertex 1.090642e+01 -1.464466e+00 9.000000e+00
         vertex 2.134789e+01 -1.044930e+01 9.000000e+00
         vertex 2.203715e+01 -1.026461e+01 9.000000e+00
      endloop
   endfacet
   facet normal -0.000000e+00 -0.000000e+00 1.000000e+00
      outer loop
         vertex 1.090642e+01 -1.464466e+00 9.000000e+00
         vertex 2.203715e+01 -1.026461e+01 9.000000e+00
         vertex 1.030981e+01 -9.549150e-01 9.000000e+00
      endloop
   endfacet
   facet normal 0.000000e+00 0.000000e+00 1.000000e+00
      outer loop
         vertex 1.030981e+01 -9.549150e-01 9.000000e+00
         vertex 2.203715e+01 -1.026461e+01 9.000000e+00
         vertex 2.274800e+01 -1.020242e+01 9.000000e+00
      endloop
   endfacet
   facet normal 0.000000e+00 0.000000e+00 1.000000e+00
      outer loop
         vertex 1.030981e+01 -9.549150e-01 9.000000e+00
         vertex 2.274800e+01 -1.020242e+01 9.000000e+00
         vertex 2.345886e+01 -1.026461e+01 9.000000e+00
      endloop
   endfacet
   facet normal 0.000000e+00 0.000000e+00 1.000000e+00
      outer loop
         vertex 3.734295e+01 -6.155830e-02 9.000000e+00
         vertex 7.370881e+00 0.000000e+00 9.000000e+00
         vertex 3.658004e+01 -2.447174e-01 9.000000e+00
      endloop
   endfacet
   facet normal 0.000000e+00 -0.000000e+00 1.000000e+00
      outer loop
         vertex 2.588391e+01 -1.166472e+01 9.000000e+00
         vertex 3.312512e+01 -5.000000e+00 9.000000e+00
         vertex 2.537934e+01 -1.116015e+01 9.000000e+00
      endloop
   endfacet
   facet normal 0.000000e+00 0.000000e+00 1.000000e+00
      outer loop
         vertex 2.537934e+01 -1.116015e+01 9.000000e+00
         vertex 3.312512e+01 -5.000000e+00 9.000000e+00
         vertex 3.318668e+01 -4.217828e+00 9.000000e+00
      endloop
   endfacet
   facet normal 0.000000e+00 0.000000e+00 1.000000e+00
      outer loop
         vertex 2.537934e+01 -1.116015e+01 9.000000e+00
         vertex 3.318668e+01 -4.217828e+00 9.000000e+00
         vertex 3.336984e+01 -3.454915e+00 9.000000e+00
      endloop
   endfacet
   facet normal 0.000000e+00 -0.000000e+00 1.000000e+00
      outer loop
         vertex 3.336984e+01 -3.454915e+00 9.000000e+00
         vertex 3.367009e+01 -2.730048e+00 9.000000e+00
         vertex 2.537934e+01 -1.116015e+01 9.000000e+00
      endloop
   endfacet
   facet normal 0.000000e+00 0.000000e+00 1.000000e+00
      outer loop
         vertex 2.537934e+01 -1.116015e+01 9.000000e+00
         vertex 3.367009e+01 -2.730048e+00 9.000000e+00
         vertex 3.408004e+01 -2.061074e+00 9.000000e+00
      endloop
   endfacet
   facet normal 0.000000e+00 0.000000e+00 1.000000e+00
      outer loop
         vertex 2.537934e+01 -1.116015e+01 9.000000e+00
         vertex 3.408004e+01 -2.061074e+00 9.000000e+00
         vertex 3.458959e+01 -1.464466e+00 9.000000e+00
      endloop
   endfacet
   facet normal 0.000000e+00 0.000000e+00 1.000000e+00
      outer loop
         vertex 3.658004e+01 -2.447174e-01 9.000000e+00
         vertex 7.370881e+00 0.000000e+00 9.000000e+00
         vertex 3.585517e+01 -5.449674e-01 9.000000e+00
      endloop
   endfacet
   facet normal 0.000000e+00 0.000000e+00 1.000000e+00
      outer loop
         vertex 3.585517e+01 -5.449674e-01 9.000000e+00
         vertex 7.370881e+00 0.000000e+00 9.000000e+00
         vertex 8.153053e+00 -6.155830e-02 9.000000e+00
      endloop
   endfacet
   facet normal 0.000000e+00 0.000000e+00 1.000000e+00
      outer loop
         vertex 3.585517e+01 -5.449674e-01 9.000000e+00
         vertex 8.153053e+00 -6.155830e-02 9.000000e+00
         vertex 3.518619e+01 -9.549150e-01 9.000000e+00
      endloop
   endfacet
   facet normal 0.000000e+00 0.000000e+00 1.000000e+00
      outer loop
         vertex 3.518619e+01 -9.549150e-01 9.000000e+00
         vertex 8.153053e+00 -6.155830e-02 9.000000e+00
         vertex 8.915965e+00 -2.447174e-01 9.000000e+00
      endloop
   endfacet
   facet normal 0.000000e+00 0.000000e+00 1.000000e+00
      outer loop
         vertex 3.518619e+01 -9.549150e-01 9.000000e+00
         vertex 8.915965e+00 -2.447174e-01 9.000000e+00
         vertex 9.640833e+00 -5.449674e-01 9.000000e+00
      endloop
   endfacet
   facet normal 0.000000e+00 0.000000e+00 1.000000e+00
      outer loop
         vertex 9.640833e+00 -5.449674e-01 9.000000e+00
         vertex 1.030981e+01 -9.549150e-01 9.000000e+00
         vertex 3.518619e+01 -9.549150e-01 9.000000e+00
      endloop
   endfacet
   facet normal 0.000000e+00 0.000000e+00 1.000000e+00
      outer loop
         vertex 3.518619e+01 -9.549150e-01 9.000000e+00
         vertex 1.030981e+01 -9.549150e-01 9.000000e+00
         vertex 2.345886e+01 -1.026461e+01 9.000000e+00
      endloop
   endfacet
   facet normal 0.000000e+00 0.000000e+00 1.000000e+00
      outer loop
         vertex 3.518619e+01 -9.549150e-01 9.000000e+00
         vertex 2.345886e+01 -1.026461e+01 9.000000e+00
         vertex 3.458959e+01 -1.464466e+00 9.000000e+00
      endloop
   endfacet
   facet normal 0.000000e+00 0.000000e+00 1.000000e+00
      outer loop
         vertex 3.458959e+01 -1.464466e+00 9.000000e+00
         vertex 2.345886e+01 -1.026461e+01 9.000000e+00
         vertex 2.414811e+01 -1.044930e+01 9.000000e+00
      endloop
   endfacet
   facet normal 0.000000e+00 0.000000e+00 1.000000e+00
      outer loop
         vertex 3.458959e+01 -1.464466e+00 9.000000e+00
         vertex 2.414811e+01 -1.044930e+01 9.000000e+00
         vertex 2.479482e+01 -1.075086e+01 9.000000e+00
      endloop
   endfacet
   facet normal 0.000000e+00 -0.000000e+00 1.000000e+00
      outer loop
         vertex 2.414811e+01 8.241802e+01 9.000000e+00
         vertex 2.523141e+01 8.864684e+01 9.000000e+00
         vertex 2.345886e+01 8.260271e+01 9.000000e+00
      endloop
   endfacet
   facet normal 0.000000e+00 0.000000e+00 1.000000e+00
      outer loop
         vertex 2.345886e+01 8.260271e+01 9.000000e+00
         vertex 2.523141e+01 8.864684e+01 9.000000e+00
         vertex 2.399882e+01 8.887272e+01 9.000000e+00
      endloop
   endfacet
   facet normal 0.000000e+00 -0.000000e+00 1.000000e+00
      outer loop
         vertex 2.345886e+01 8.260271e+01 9.000000e+00
         vertex 2.399882e+01 8.887272e+01 9.000000e+00
         vertex 2.274800e+01 8.266490e+01 9.000000e+00
      endloop
   endfacet
   facet normal 0.000000e+00 0.000000e+00 1.000000e+00
      outer loop
         vertex 2.274800e+01 8.266490e+01 9.000000e+00
         vertex 2.399882e+01 8.887272e+01 9.000000e+00
         vertex 2.274800e+01 8.894838e+01 9.000000e+00
      endloop
   endfacet
   facet normal 0.000000e+00 -0.000000e+00 1.000000e+00
      outer loop
         vertex 2.274800e+01 8.266490e+01 9.000000e+00
         vertex 2.274800e+01 8.894838e+01 9.000000e+00
         vertex 2.203715e+01 8.260271e+01 9.000000e+00
      endloop
   endfacet
   facet normal 0.000000e+00 -0.000000e+00 1.000000e+00
      outer loop
         vertex 2.537934e+01 8.170717e+01 9.000000e+00
         vertex 2.864288e+01 8.711147e+01 9.000000e+00
         vertex 2.479482e+01 8.211646e+01 9.000000e+00
      endloop
   endfacet
   facet normal 0.000000e+00 0.000000e+00 1.000000e+00
      outer loop
         vertex 2.479482e+01 8.211646e+01 9.000000e+00
         vertex 2.864288e+01 8.711147e+01 9.000000e+00
         vertex 2.757049e+01 8.775975e+01 9.000000e+00
      endloop
   endfacet
   facet normal 0.000000e+00 -0.000000e+00 1.000000e+00
      outer loop
         vertex 2.479482e+01 8.211646e+01 9.000000e+00
         vertex 2.757049e+01 8.775975e+01 9.000000e+00
         vertex 2.414811e+01 8.241802e+01 9.000000e+00
      endloop
   endfacet
   facet normal 0.000000e+00 0.000000e+00 1.000000e+00
      outer loop
         vertex 2.414811e+01 8.241802e+01 9.000000e+00
         vertex 2.757049e+01 8.775975e+01 9.000000e+00
         vertex 2.642778e+01 8.827404e+01 9.000000e+00
      endloop
   endfacet
   facet normal 0.000000e+00 0.000000e+00 1.000000e+00
      outer loop
         vertex 2.414811e+01 8.241802e+01 9.000000e+00
         vertex 2.642778e+01 8.827404e+01 9.000000e+00
         vertex 2.523141e+01 8.864684e+01 9.000000e+00
      endloop
   endfacet
   facet normal 0.000000e+00 -0.000000e+00 1.000000e+00
      outer loop
         vertex 2.629320e+01 8.061808e+01 9.000000e+00
         vertex 3.128820e+01 8.446614e+01 9.000000e+00
         vertex 2.588391e+01 8.120260e+01 9.000000e+00
      endloop
   endfacet
   facet normal 0.000000e+00 0.000000e+00 1.000000e+00
      outer loop
         vertex 2.588391e+01 8.120260e+01 9.000000e+00
         vertex 3.128820e+01 8.446614e+01 9.000000e+00
         vertex 3.051539e+01 8.545256e+01 9.000000e+00
      endloop
   endfacet
   facet normal 0.000000e+00 -0.000000e+00 1.000000e+00
      outer loop
         vertex 2.588391e+01 8.120260e+01 9.000000e+00
         vertex 3.051539e+01 8.545256e+01 9.000000e+00
         vertex 2.537934e+01 8.170717e+01 9.000000e+00
      endloop
   endfacet
   facet normal 0.000000e+00 0.000000e+00 1.000000e+00
      outer loop
         vertex 2.537934e+01 8.170717e+01 9.000000e+00
         vertex 3.051539e+01 8.545256e+01 9.000000e+00
         vertex 2.962931e+01 8.633865e+01 9.000000e+00
      endloop
   endfacet
   facet normal 0.000000e+00 0.000000e+00 1.000000e+00
      outer loop
         vertex 2.537934e+01 8.170717e+01 9.000000e+00
         vertex 2.962931e+01 8.633865e+01 9.000000e+00
         vertex 2.864288e+01 8.711147e+01 9.000000e+00
      endloop
   endfacet
   facet normal 0.000000e+00 0.000000e+00 1.000000e+00
      outer loop
         vertex 3.312512e+01 7.857126e+01 9.000000e+00
         vertex 3.304946e+01 7.982209e+01 9.000000e+00
         vertex 2.677945e+01 7.928211e+01 9.000000e+00
      endloop
   endfacet
   facet normal 0.000000e+00 0.000000e+00 1.000000e+00
      outer loop
         vertex 2.677945e+01 7.928211e+01 9.000000e+00
         vertex 3.304946e+01 7.982209e+01 9.000000e+00
         vertex 3.282358e+01 8.105467e+01 9.000000e+00
      endloop
   endfacet
   facet normal 0.000000e+00 -0.000000e+00 1.000000e+00
      outer loop
         vertex 2.677945e+01 7.928211e+01 9.000000e+00
         vertex 3.282358e+01 8.105467e+01 9.000000e+00
         vertex 2.659477e+01 7.997137e+01 9.000000e+00
      endloop
   endfacet
   facet normal 0.000000e+00 0.000000e+00 1.000000e+00
      outer loop
         vertex 2.659477e+01 7.997137e+01 9.000000e+00
         vertex 3.282358e+01 8.105467e+01 9.000000e+00
         vertex 3.245078e+01 8.225104e+01 9.000000e+00
      endloop
   endfacet
   facet normal 0.000000e+00 -0.000000e+00 1.000000e+00
      outer loop
         vertex 2.659477e+01 7.997137e+01 9.000000e+00
         vertex 3.245078e+01 8.225104e+01 9.000000e+00
         vertex 2.629320e+01 8.061808e+01 9.000000e+00
      endloop
   endfacet
   facet normal 0.000000e+00 0.000000e+00 1.000000e+00
      outer loop
         vertex 2.629320e+01 8.061808e+01 9.000000e+00
         vertex 3.245078e+01 8.225104e+01 9.000000e+00
         vertex 3.193649e+01 8.339375e+01 9.000000e+00
      endloop
   endfacet
   facet normal 0.000000e+00 0.000000e+00 1.000000e+00
      outer loop
         vertex 2.629320e+01 8.061808e+01 9.000000e+00
         vertex 3.193649e+01 8.339375e+01 9.000000e+00
         vertex 3.128820e+01 8.446614e+01 9.000000e+00
      endloop
   endfacet
   facet normal 0.000000e+00 0.000000e+00 1.000000e+00
      outer loop
         vertex 2.677945e+01 7.928211e+01 9.000000e+00
         vertex 2.684164e+01 7.857126e+01 9.000000e+00
         vertex 3.312512e+01 7.857126e+01 9.000000e+00
      endloop
   endfacet
   facet normal 0.000000e+00 0.000000e+00 1.000000e+00
      outer loop
         vertex 3.312512e+01 7.857126e+01 9.000000e+00
         vertex 2.684164e+01 7.857126e+01 9.000000e+00
         vertex 2.677945e+01 7.786041e+01 9.000000e+00
      endloop
   endfacet
   facet normal 0.000000e+00 0.000000e+00 1.000000e+00
      outer loop
         vertex 3.312512e+01 7.857126e+01 9.000000e+00
         vertex 2.677945e+01 7.786041e+01 9.000000e+00
         vertex 3.312512e+01 6.927520e+01 9.000000e+00
      endloop
   endfacet
   facet normal 0.000000e+00 0.000000e+00 1.000000e+00
      outer loop
         vertex 3.312512e+01 6.927520e+01 9.000000e+00
         vertex 2.677945e+01 7.786041e+01 9.000000e+00
         vertex 2.659477e+01 7.717115e+01 9.000000e+00
      endloop
   endfacet
   facet normal 0.000000e+00 0.000000e+00 1.000000e+00
      outer loop
         vertex 1.237088e+01 7.857126e+01 9.000000e+00
         vertex 1.865436e+01 7.857126e+01 9.000000e+00
         vertex 1.244654e+01 7.982209e+01 9.000000e+00
      endloop
   endfacet
   facet normal 0.000000e+00 0.000000e+00 1.000000e+00
      outer loop
         vertex 1.244654e+01 7.982209e+01 9.000000e+00
         vertex 1.865436e+01 7.857126e+01 9.000000e+00
         vertex 1.871655e+01 7.928211e+01 9.000000e+00
      endloop
   endfacet
   facet normal -0.000000e+00 0.000000e+00 1.000000e+00
      outer loop
         vertex 1.244654e+01 7.982209e+01 9.000000e+00
         vertex 1.871655e+01 7.928211e+01 9.000000e+00
         vertex 1.267242e+01 8.105467e+01 9.000000e+00
      endloop
   endfacet
   facet normal 0.000000e+00 0.000000e+00 1.000000e+00
      outer loop
         vertex 1.267242e+01 8.105467e+01 9.000000e+00
         vertex 1.871655e+01 7.928211e+01 9.000000e+00
         vertex 1.890124e+01 7.997137e+01 9.000000e+00
      endloop
   endfacet
   facet normal 0.000000e+00 0.000000e+00 1.000000e+00
      outer loop
         vertex 1.961209e+01 8.120260e+01 9.000000e+00
         vertex 1.420780e+01 8.446614e+01 9.000000e+00
         vertex 1.920281e+01 8.061808e+01 9.000000e+00
      endloop
   endfacet
   facet normal 0.000000e+00 0.000000e+00 1.000000e+00
      outer loop
         vertex 1.920281e+01 8.061808e+01 9.000000e+00
         vertex 1.420780e+01 8.446614e+01 9.000000e+00
         vertex 1.355952e+01 8.339375e+01 9.000000e+00
      endloop
   endfacet
   facet normal 0.000000e+00 0.000000e+00 1.000000e+00
      outer loop
         vertex 1.920281e+01 8.061808e+01 9.000000e+00
         vertex 1.355952e+01 8.339375e+01 9.000000e+00
         vertex 1.890124e+01 7.997137e+01 9.000000e+00
      endloop
   endfacet
   facet normal 0.000000e+00 0.000000e+00 1.000000e+00
      outer loop
         vertex 1.890124e+01 7.997137e+01 9.000000e+00
         vertex 1.355952e+01 8.339375e+01 9.000000e+00
         vertex 1.304523e+01 8.225104e+01 9.000000e+00
      endloop
   endfacet
   facet normal 0.000000e+00 0.000000e+00 1.000000e+00
      outer loop
         vertex 1.890124e+01 7.997137e+01 9.000000e+00
         vertex 1.304523e+01 8.225104e+01 9.000000e+00
         vertex 1.267242e+01 8.105467e+01 9.000000e+00
      endloop
   endfacet
   facet normal 0.000000e+00 0.000000e+00 1.000000e+00
      outer loop
         vertex 2.274800e+01 8.894838e+01 9.000000e+00
         vertex 2.149718e+01 8.887272e+01 9.000000e+00
         vertex 2.203715e+01 8.260271e+01 9.000000e+00
      endloop
   endfacet
   facet normal 0.000000e+00 0.000000e+00 1.000000e+00
      outer loop
         vertex 2.203715e+01 8.260271e+01 9.000000e+00
         vertex 2.149718e+01 8.887272e+01 9.000000e+00
         vertex 2.026459e+01 8.864684e+01 9.000000e+00
      endloop
   endfacet
   facet normal 0.000000e+00 0.000000e+00 1.000000e+00
      outer loop
         vertex 2.203715e+01 8.260271e+01 9.000000e+00
         vertex 2.026459e+01 8.864684e+01 9.000000e+00
         vertex 2.134789e+01 8.241802e+01 9.000000e+00
      endloop
   endfacet
   facet normal 0.000000e+00 0.000000e+00 1.000000e+00
      outer loop
         vertex 2.134789e+01 8.241802e+01 9.000000e+00
         vertex 2.026459e+01 8.864684e+01 9.000000e+00
         vertex 1.906822e+01 8.827404e+01 9.000000e+00
      endloop
   endfacet
   facet normal 0.000000e+00 0.000000e+00 1.000000e+00
      outer loop
         vertex 2.134789e+01 8.241802e+01 9.000000e+00
         vertex 1.906822e+01 8.827404e+01 9.000000e+00
         vertex 2.070118e+01 8.211646e+01 9.000000e+00
      endloop
   endfacet
   facet normal 0.000000e+00 0.000000e+00 1.000000e+00
      outer loop
         vertex 2.479482e+01 7.502607e+01 9.000000e+00
         vertex 2.414811e+01 7.472450e+01 9.000000e+00
         vertex 3.458959e+01 6.573967e+01 9.000000e+00
      endloop
   endfacet
   facet normal 0.000000e+00 0.000000e+00 1.000000e+00
      outer loop
         vertex 3.458959e+01 6.573967e+01 9.000000e+00
         vertex 2.414811e+01 7.472450e+01 9.000000e+00
         vertex 2.345886e+01 7.453982e+01 9.000000e+00
      endloop
   endfacet
   facet normal 0.000000e+00 0.000000e+00 1.000000e+00
      outer loop
         vertex 3.458959e+01 6.573967e+01 9.000000e+00
         vertex 2.345886e+01 7.453982e+01 9.000000e+00
         vertex 3.518619e+01 6.523012e+01 9.000000e+00
      endloop
   endfacet
   facet normal 0.000000e+00 0.000000e+00 1.000000e+00
      outer loop
         vertex 3.518619e+01 6.523012e+01 9.000000e+00
         vertex 2.345886e+01 7.453982e+01 9.000000e+00
         vertex 2.274800e+01 7.447762e+01 9.000000e+00
      endloop
   endfacet
   facet normal 0.000000e+00 0.000000e+00 1.000000e+00
      outer loop
         vertex 3.518619e+01 6.523012e+01 9.000000e+00
         vertex 2.274800e+01 7.447762e+01 9.000000e+00
         vertex 2.203715e+01 7.453982e+01 9.000000e+00
      endloop
   endfacet
   facet normal 0.000000e+00 0.000000e+00 1.000000e+00
      outer loop
         vertex 8.153053e+00 6.433676e+01 9.000000e+00
         vertex 7.370881e+00 6.427521e+01 9.000000e+00
         vertex 3.812512e+01 6.427521e+01 9.000000e+00
      endloop
   endfacet
   facet normal 0.000000e+00 0.000000e+00 1.000000e+00
      outer loop
         vertex 1.906822e+01 8.827404e+01 9.000000e+00
         vertex 1.792551e+01 8.775975e+01 9.000000e+00
         vertex 2.070118e+01 8.211646e+01 9.000000e+00
      endloop
   endfacet
   facet normal 0.000000e+00 0.000000e+00 1.000000e+00
      outer loop
         vertex 2.070118e+01 8.211646e+01 9.000000e+00
         vertex 1.792551e+01 8.775975e+01 9.000000e+00
         vertex 1.685313e+01 8.711147e+01 9.000000e+00
      endloop
   endfacet
   facet normal 0.000000e+00 0.000000e+00 1.000000e+00
      outer loop
         vertex 2.070118e+01 8.211646e+01 9.000000e+00
         vertex 1.685313e+01 8.711147e+01 9.000000e+00
         vertex 2.011666e+01 8.170717e+01 9.000000e+00
      endloop
   endfacet
   facet normal 0.000000e+00 0.000000e+00 1.000000e+00
      outer loop
         vertex 2.011666e+01 8.170717e+01 9.000000e+00
         vertex 1.685313e+01 8.711147e+01 9.000000e+00
         vertex 1.586670e+01 8.633865e+01 9.000000e+00
      endloop
   endfacet
   facet normal 0.000000e+00 0.000000e+00 1.000000e+00
      outer loop
         vertex 2.011666e+01 8.170717e+01 9.000000e+00
         vertex 1.586670e+01 8.633865e+01 9.000000e+00
         vertex 1.961209e+01 8.120260e+01 9.000000e+00
      endloop
   endfacet
   facet normal 0.000000e+00 0.000000e+00 1.000000e+00
      outer loop
         vertex 1.961209e+01 8.120260e+01 9.000000e+00
         vertex 1.586670e+01 8.633865e+01 9.000000e+00
         vertex 1.498062e+01 8.545256e+01 9.000000e+00
      endloop
   endfacet
   facet normal 0.000000e+00 0.000000e+00 1.000000e+00
      outer loop
         vertex 1.961209e+01 8.120260e+01 9.000000e+00
         vertex 1.498062e+01 8.545256e+01 9.000000e+00
         vertex 1.420780e+01 8.446614e+01 9.000000e+00
      endloop
   endfacet
   facet normal -0.000000e+00 0.000000e+00 1.000000e+00
      outer loop
         vertex 2.479482e+01 7.502607e+01 9.000000e+00
         vertex 3.458959e+01 6.573967e+01 9.000000e+00
         vertex 2.537934e+01 7.543536e+01 9.000000e+00
      endloop
   endfacet
   facet normal 0.000000e+00 0.000000e+00 1.000000e+00
      outer loop
         vertex 2.537934e+01 7.543536e+01 9.000000e+00
         vertex 3.458959e+01 6.573967e+01 9.000000e+00
         vertex 3.408004e+01 6.633627e+01 9.000000e+00
      endloop
   endfacet
   facet normal 0.000000e+00 0.000000e+00 1.000000e+00
      outer loop
         vertex 2.537934e+01 7.543536e+01 9.000000e+00
         vertex 3.408004e+01 6.633627e+01 9.000000e+00
         vertex 3.367009e+01 6.700525e+01 9.000000e+00
      endloop
   endfacet
   facet normal -0.000000e+00 0.000000e+00 1.000000e+00
      outer loop
         vertex 8.153053e+00 6.433676e+01 9.000000e+00
         vertex 3.812512e+01 6.427521e+01 9.000000e+00
         vertex 8.915965e+00 6.451992e+01 9.000000e+00
      endloop
   endfacet
   facet normal 0.000000e+00 0.000000e+00 1.000000e+00
      outer loop
         vertex 2.659477e+01 7.717115e+01 9.000000e+00
         vertex 2.629320e+01 7.652444e+01 9.000000e+00
         vertex 3.312512e+01 6.927520e+01 9.000000e+00
      endloop
   endfacet
   facet normal 0.000000e+00 0.000000e+00 1.000000e+00
      outer loop
         vertex 3.312512e+01 6.927520e+01 9.000000e+00
         vertex 2.629320e+01 7.652444e+01 9.000000e+00
         vertex 2.588391e+01 7.593992e+01 9.000000e+00
      endloop
   endfacet
   facet normal 0.000000e+00 0.000000e+00 1.000000e+00
      outer loop
         vertex 3.312512e+01 6.927520e+01 9.000000e+00
         vertex 2.588391e+01 7.593992e+01 9.000000e+00
         vertex 3.318668e+01 6.849303e+01 9.000000e+00
      endloop
   endfacet
   facet normal 0.000000e+00 0.000000e+00 1.000000e+00
      outer loop
         vertex 3.318668e+01 6.849303e+01 9.000000e+00
         vertex 2.588391e+01 7.593992e+01 9.000000e+00
         vertex 2.537934e+01 7.543536e+01 9.000000e+00
      endloop
   endfacet
   facet normal 0.000000e+00 0.000000e+00 1.000000e+00
      outer loop
         vertex 3.318668e+01 6.849303e+01 9.000000e+00
         vertex 2.537934e+01 7.543536e+01 9.000000e+00
         vertex 3.336984e+01 6.773012e+01 9.000000e+00
      endloop
   endfacet
   facet normal 0.000000e+00 0.000000e+00 1.000000e+00
      outer loop
         vertex 3.336984e+01 6.773012e+01 9.000000e+00
         vertex 2.537934e+01 7.543536e+01 9.000000e+00
         vertex 3.367009e+01 6.700525e+01 9.000000e+00
      endloop
   endfacet
   facet normal -0.000000e+00 0.000000e+00 1.000000e+00
      outer loop
         vertex 1.212616e+01 6.773012e+01 9.000000e+00
         vertex 1.182591e+01 6.700525e+01 9.000000e+00
         vertex 2.011666e+01 7.543536e+01 9.000000e+00
      endloop
   endfacet
   facet normal 0.000000e+00 0.000000e+00 1.000000e+00
      outer loop
         vertex 1.961209e+01 7.593992e+01 9.000000e+00
         vertex 1.920281e+01 7.652444e+01 9.000000e+00
         vertex 1.237088e+01 6.927520e+01 9.000000e+00
      endloop
   endfacet
   facet normal 0.000000e+00 0.000000e+00 1.000000e+00
      outer loop
         vertex 1.237088e+01 6.927520e+01 9.000000e+00
         vertex 1.920281e+01 7.652444e+01 9.000000e+00
         vertex 1.890124e+01 7.717115e+01 9.000000e+00
      endloop
   endfacet
   facet normal 0.000000e+00 0.000000e+00 1.000000e+00
      outer loop
         vertex 1.237088e+01 6.927520e+01 9.000000e+00
         vertex 1.890124e+01 7.717115e+01 9.000000e+00
         vertex 1.237088e+01 7.857126e+01 9.000000e+00
      endloop
   endfacet
   facet normal 0.000000e+00 0.000000e+00 1.000000e+00
      outer loop
         vertex 1.237088e+01 7.857126e+01 9.000000e+00
         vertex 1.890124e+01 7.717115e+01 9.000000e+00
         vertex 1.871655e+01 7.786041e+01 9.000000e+00
      endloop
   endfacet
   facet normal -0.000000e+00 0.000000e+00 1.000000e+00
      outer loop
         vertex 1.237088e+01 7.857126e+01 9.000000e+00
         vertex 1.871655e+01 7.786041e+01 9.000000e+00
         vertex 1.865436e+01 7.857126e+01 9.000000e+00
      endloop
   endfacet
   facet normal -0.000000e+00 0.000000e+00 1.000000e+00
      outer loop
         vertex 1.182591e+01 6.700525e+01 9.000000e+00
         vertex 1.141597e+01 6.633627e+01 9.000000e+00
         vertex 2.011666e+01 7.543536e+01 9.000000e+00
      endloop
   endfacet
   facet normal 0.000000e+00 0.000000e+00 1.000000e+00
      outer loop
         vertex 2.011666e+01 7.543536e+01 9.000000e+00
         vertex 1.141597e+01 6.633627e+01 9.000000e+00
         vertex 1.090642e+01 6.573967e+01 9.000000e+00
      endloop
   endfacet
   facet normal 0.000000e+00 0.000000e+00 1.000000e+00
      outer loop
         vertex 2.011666e+01 7.543536e+01 9.000000e+00
         vertex 1.090642e+01 6.573967e+01 9.000000e+00
         vertex 2.070118e+01 7.502607e+01 9.000000e+00
      endloop
   endfacet
   facet normal -0.000000e+00 0.000000e+00 1.000000e+00
      outer loop
         vertex 8.915965e+00 6.451992e+01 9.000000e+00
         vertex 3.812512e+01 6.427521e+01 9.000000e+00
         vertex 9.640833e+00 6.482017e+01 9.000000e+00
      endloop
   endfacet
   facet normal 0.000000e+00 0.000000e+00 1.000000e+00
      outer loop
         vertex 9.640833e+00 6.482017e+01 9.000000e+00
         vertex 3.812512e+01 6.427521e+01 9.000000e+00
         vertex 3.734295e+01 6.433676e+01 9.000000e+00
      endloop
   endfacet
   facet normal -0.000000e+00 0.000000e+00 1.000000e+00
      outer loop
         vertex 9.640833e+00 6.482017e+01 9.000000e+00
         vertex 3.734295e+01 6.433676e+01 9.000000e+00
         vertex 1.030981e+01 6.523012e+01 9.000000e+00
      endloop
   endfacet
   facet normal 0.000000e+00 0.000000e+00 1.000000e+00
      outer loop
         vertex 1.030981e+01 6.523012e+01 9.000000e+00
         vertex 3.734295e+01 6.433676e+01 9.000000e+00
         vertex 3.658004e+01 6.451992e+01 9.000000e+00
      endloop
   endfacet
   facet normal 0.000000e+00 0.000000e+00 1.000000e+00
      outer loop
         vertex 1.030981e+01 6.523012e+01 9.000000e+00
         vertex 3.658004e+01 6.451992e+01 9.000000e+00
         vertex 3.585517e+01 6.482017e+01 9.000000e+00
      endloop
   endfacet
   facet normal 0.000000e+00 0.000000e+00 1.000000e+00
      outer loop
         vertex 3.585517e+01 6.482017e+01 9.000000e+00
         vertex 3.518619e+01 6.523012e+01 9.000000e+00
         vertex 1.030981e+01 6.523012e+01 9.000000e+00
      endloop
   endfacet
   facet normal 0.000000e+00 0.000000e+00 1.000000e+00
      outer loop
         vertex 1.030981e+01 6.523012e+01 9.000000e+00
         vertex 3.518619e+01 6.523012e+01 9.000000e+00
         vertex 2.203715e+01 7.453982e+01 9.000000e+00
      endloop
   endfacet
   facet normal 0.000000e+00 0.000000e+00 1.000000e+00
      outer loop
         vertex 1.030981e+01 6.523012e+01 9.000000e+00
         vertex 2.203715e+01 7.453982e+01 9.000000e+00
         vertex 1.090642e+01 6.573967e+01 9.000000e+00
      endloop
   endfacet
   facet normal 0.000000e+00 0.000000e+00 1.000000e+00
      outer loop
         vertex 1.090642e+01 6.573967e+01 9.000000e+00
         vertex 2.203715e+01 7.453982e+01 9.000000e+00
         vertex 2.134789e+01 7.472450e+01 9.000000e+00
      endloop
   endfacet
   facet normal 0.000000e+00 0.000000e+00 1.000000e+00
      outer loop
         vertex 1.090642e+01 6.573967e+01 9.000000e+00
         vertex 2.134789e+01 7.472450e+01 9.000000e+00
         vertex 2.070118e+01 7.502607e+01 9.000000e+00
      endloop
   endfacet
   facet normal 0.000000e+00 0.000000e+00 1.000000e+00
      outer loop
         vertex 1.961209e+01 7.593992e+01 9.000000e+00
         vertex 1.237088e+01 6.927520e+01 9.000000e+00
         vertex 2.011666e+01 7.543536e+01 9.000000e+00
      endloop
   endfacet
   facet normal 0.000000e+00 0.000000e+00 1.000000e+00
      outer loop
         vertex 2.011666e+01 7.543536e+01 9.000000e+00
         vertex 1.237088e+01 6.927520e+01 9.000000e+00
         vertex 1.230932e+01 6.849303e+01 9.000000e+00
      endloop
   endfacet
   facet normal 0.000000e+00 0.000000e+00 1.000000e+00
      outer loop
         vertex 2.011666e+01 7.543536e+01 9.000000e+00
         vertex 1.230932e+01 6.849303e+01 9.000000e+00
         vertex 1.212616e+01 6.773012e+01 9.000000e+00
      endloop
   endfacet
endsolid