solid 9
   facet normal -1.000000e+00 0.000000e+00 0.000000e+00
      outer loop
         vertex 0.000000e+00 0.000000e+00 4.000000e+01
         vertex 0.000000e+00 6.427521e+01 4.000000e+01
         vertex 0.000000e+00 0.000000e+00 0.000000e+00
      endloop
   endfacet
   facet normal -1.000000e+00 0.000000e+00 0.000000e+00
      outer loop
         vertex 0.000000e+00 0.000000e+00 0.000000e+00
         vertex 0.000000e+00 6.427521e+01 4.000000e+01
         vertex 0.000000e+00 6.427521e+01 0.000000e+00
      endloop
   endfacet
endsolid