solid 6
   facet normal 0.000000e+00 -1.000000e+00 0.000000e+00
      outer loop
         vertex 0.000000e+00 0.000000e+00 1.500000e+01
         vertex 0.000000e+00 0.000000e+00 0.000000e+00
         vertex 6.000000e+01 0.000000e+00 1.500000e+01
      endloop
   endfacet
   facet normal 0.000000e+00 -1.000000e+00 -0.000000e+00
      outer loop
         vertex 6.000000e+01 0.000000e+00 1.500000e+01
         vertex 0.000000e+00 0.000000e+00 0.000000e+00
         vertex 1.000000e+02 0.000000e+00 0.000000e+00
      endloop
   endfacet
   facet normal 0.000000e+00 -1.000000e+00 0.000000e+00
      outer loop
         vertex 6.000000e+01 0.000000e+00 1.500000e+01
         vertex 1.000000e+02 0.000000e+00 0.000000e+00
         vertex 6.000000e+01 0.000000e+00 4.000000e+01
      endloop
   endfacet
   facet normal 0.000000e+00 -1.000000e+00 0.000000e+00
      outer loop
         vertex 6.000000e+01 0.000000e+00 4.000000e+01
         vertex 1.000000e+02 0.000000e+00 0.000000e+00
         vertex 1.000000e+02 0.000000e+00 4.000000e+01
      endloop
   endfacet
   facet normal -0.000000e+00 1.000000e+00 0.000000e+00
      outer loop
         vertex 6.000000e+01 8.000000e+01 4.000000e+01
         vertex 1.000000e+02 8.000000e+01 4.000000e+01
         vertex 6.000000e+01 8.000000e+01 1.500000e+01
      endloop
   endfacet
   facet normal -0.000000e+00 1.000000e+00 0.000000e+00
      outer loop
         vertex 6.000000e+01 8.000000e+01 1.500000e+01
         vertex 1.000000e+02 8.000000e+01 4.000000e+01
         vertex 1.000000e+02 8.000000e+01 0.000000e+00
      endloop
   endfacet
   facet normal 0.000000e+00 1.000000e+00 0.000000e+00
      outer loop
         vertex 6.000000e+01 8.000000e+01 1.500000e+01
         vertex 1.000000e+02 8.000000e+01 0.000000e+00
         vertex 0.000000e+00 8.000000e+01 1.500000e+01
      endloop
   endfacet
   facet normal 0.000000e+00 1.000000e+00 0.000000e+00
      outer loop
         vertex 0.000000e+00 8.000000e+01 1.500000e+01
         vertex 1.000000e+02 8.000000e+01 0.000000e+00
         vertex 0.000000e+00 8.000000e+01 0.000000e+00
      endloop
   endfacet
endsolid