solid 8
   facet normal -2.425356e-01 -9.701425e-01 0.000000e+00
      outer loop
         vertex 6.000000e+01 6.000000e+01 2.500000e+01
         vertex 1.000000e+02 5.000000e+01 2.500000e+01
         vertex 6.000000e+01 6.000000e+01 4.000000e+01
      endloop
   endfacet
   facet normal -2.425356e-01 -9.701425e-01 0.000000e+00
      outer loop
         vertex 6.000000e+01 6.000000e+01 4.000000e+01
         vertex 1.000000e+02 5.000000e+01 2.500000e+01
         vertex 1.000000e+02 5.000000e+01 4.000000e+01
      endloop
   endfacet
   facet normal -2.425356e-01 9.701425e-01 0.000000e+00
      outer loop
         vertex 1.000000e+02 3.000000e+01 2.500000e+01
         vertex 6.000000e+01 2.000000e+01 2.500000e+01
         vertex 1.000000e+02 3.000000e+01 4.000000e+01
      endloop
   endfacet
   facet normal -2.425356e-01 9.701425e-01 0.000000e+00
      outer loop
         vertex 1.000000e+02 3.000000e+01 4.000000e+01
         vertex 6.000000e+01 2.000000e+01 2.500000e+01
         vertex 6.000000e+01 2.000000e+01 4.000000e+01
      endloop
   endfacet
endsolid