solid 2
   facet normal 0.000000e+00 -1.000000e+00 0.000000e+00
      outer loop
         vertex 0.000000e+00 0.000000e+00 0.000000e+00
         vertex 8.000000e+01 0.000000e+00 0.000000e+00
         vertex 0.000000e+00 0.000000e+00 2.500000e+01
      endloop
   endfacet
   facet normal 0.000000e+00 -1.000000e+00 0.000000e+00
      outer loop
         vertex 0.000000e+00 0.000000e+00 2.500000e+01
         vertex 8.000000e+01 0.000000e+00 0.000000e+00
         vertex 8.000000e+01 0.000000e+00 2.500000e+01
      endloop
   endfacet
   facet normal 0.000000e+00 1.000000e+00 -0.000000e+00
      outer loop
         vertex 8.000000e+01 8.000000e+01 0.000000e+00
         vertex 0.000000e+00 8.000000e+01 0.000000e+00
         vertex 8.000000e+01 8.000000e+01 2.500000e+01
      endloop
   endfacet
   facet normal 0.000000e+00 1.000000e+00 0.000000e+00
      outer loop
         vertex 8.000000e+01 8.000000e+01 2.500000e+01
         vertex 0.000000e+00 8.000000e+01 0.000000e+00
         vertex 0.000000e+00 8.000000e+01 2.500000e+01
      endloop
   endfacet
endsolid