solid 6
   facet normal 0.000000e+00 -1.000000e+00 0.000000e+00
      outer loop
         vertex 2.500000e+01 5.500000e+01 0.000000e+00
         vertex 8.000000e+01 5.500000e+01 0.000000e+00
         vertex 2.500000e+01 5.500000e+01 2.500000e+01
      endloop
   endfacet
   facet normal 0.000000e+00 -1.000000e+00 0.000000e+00
      outer loop
         vertex 2.500000e+01 5.500000e+01 2.500000e+01
         vertex 8.000000e+01 5.500000e+01 0.000000e+00
         vertex 8.000000e+01 5.500000e+01 2.500000e+01
      endloop
   endfacet
   facet normal 1.000000e+00 0.000000e+00 0.000000e+00
      outer loop
         vertex 2.000000e+01 3.000000e+01 6.938894e-15
         vertex 2.000000e+01 5.000000e+01 6.938894e-15
         vertex 2.000000e+01 3.000000e+01 2.500000e+01
      endloop
   endfacet
   facet normal 1.000000e+00 -0.000000e+00 0.000000e+00
      outer loop
         vertex 2.000000e+01 3.000000e+01 2.500000e+01
         vertex 2.000000e+01 5.000000e+01 6.938894e-15
         vertex 2.000000e+01 5.000000e+01 2.500000e+01
      endloop
   endfacet
   facet normal -0.000000e+00 1.000000e+00 0.000000e+00
      outer loop
         vertex 2.500000e+01 2.500000e+01 2.500000e+01
         vertex 8.000000e+01 2.500000e+01 2.500000e+01
         vertex 2.500000e+01 2.500000e+01 0.000000e+00
      endloop
   endfacet
   facet normal 0.000000e+00 1.000000e+00 0.000000e+00
      outer loop
         vertex 2.500000e+01 2.500000e+01 0.000000e+00
         vertex 8.000000e+01 2.500000e+01 2.500000e+01
         vertex 8.000000e+01 2.500000e+01 0.000000e+00
      endloop
   endfacet
   facet normal 9.961946e-01 8.715711e-02 -0.000000e+00
      outer loop
         vertex 2.000000e+01 3.000000e+01 0.000000e+00
         vertex 2.000000e+01 3.000000e+01 2.500000e+01
         vertex 2.007596e+01 2.913176e+01 0.000000e+00
      endloop
   endfacet
   facet normal 9.961946e-01 8.715711e-02 -0.000000e+00
      outer loop
         vertex 2.007596e+01 2.913176e+01 0.000000e+00
         vertex 2.000000e+01 3.000000e+01 2.500000e+01
         vertex 2.007596e+01 2.913176e+01 2.500000e+01
      endloop
   endfacet
   facet normal 9.659258e-01 2.588191e-01 -0.000000e+00
      outer loop
         vertex 2.007596e+01 2.913176e+01 0.000000e+00
         vertex 2.007596e+01 2.913176e+01 2.500000e+01
         vertex 2.030154e+01 2.828990e+01 0.000000e+00
      endloop
   endfacet
   facet normal 9.659258e-01 2.588191e-01 -0.000000e+00
      outer loop
         vertex 2.030154e+01 2.828990e+01 0.000000e+00
         vertex 2.007596e+01 2.913176e+01 2.500000e+01
         vertex 2.030154e+01 2.828990e+01 2.500000e+01
      endloop
   endfacet
   facet normal 9.063077e-01 4.226183e-01 -0.000000e+00
      outer loop
         vertex 2.030154e+01 2.828990e+01 0.000000e+00
         vertex 2.030154e+01 2.828990e+01 2.500000e+01
         vertex 2.066987e+01 2.750000e+01 0.000000e+00
      endloop
   endfacet
   facet normal 9.063077e-01 4.226183e-01 -0.000000e+00
      outer loop
         vertex 2.066987e+01 2.750000e+01 0.000000e+00
         vertex 2.030154e+01 2.828990e+01 2.500000e+01
         vertex 2.066987e+01 2.750000e+01 2.500000e+01
      endloop
   endfacet
   facet normal 8.191520e-01 5.735765e-01 -0.000000e+00
      outer loop
         vertex 2.066987e+01 2.750000e+01 0.000000e+00
         vertex 2.066987e+01 2.750000e+01 2.500000e+01
         vertex 2.116978e+01 2.678606e+01 0.000000e+00
      endloop
   endfacet
   facet normal 8.191520e-01 5.735765e-01 -0.000000e+00
      outer loop
         vertex 2.116978e+01 2.678606e+01 0.000000e+00
         vertex 2.066987e+01 2.750000e+01 2.500000e+01
         vertex 2.116978e+01 2.678606e+01 2.500000e+01
      endloop
   endfacet
   facet normal 7.071078e-01 7.071057e-01 -0.000000e+00
      outer loop
         vertex 2.116978e+01 2.678606e+01 0.000000e+00
         vertex 2.116978e+01 2.678606e+01 2.500000e+01
         vertex 2.178606e+01 2.616978e+01 0.000000e+00
      endloop
   endfacet
   facet normal 7.071078e-01 7.071057e-01 -0.000000e+00
      outer loop
         vertex 2.178606e+01 2.616978e+01 0.000000e+00
         vertex 2.116978e+01 2.678606e+01 2.500000e+01
         vertex 2.178606e+01 2.616978e+01 2.500000e+01
      endloop
   endfacet
   facet normal 5.735755e-01 8.191527e-01 -0.000000e+00
      outer loop
         vertex 2.178606e+01 2.616978e+01 0.000000e+00
         vertex 2.178606e+01 2.616978e+01 2.500000e+01
         vertex 2.250000e+01 2.566987e+01 0.000000e+00
      endloop
   endfacet
   facet normal 5.735755e-01 8.191527e-01 -0.000000e+00
      outer loop
         vertex 2.250000e+01 2.566987e+01 0.000000e+00
         vertex 2.178606e+01 2.616978e+01 2.500000e+01
         vertex 2.250000e+01 2.566987e+01 2.500000e+01
      endloop
   endfacet
   facet normal 4.226192e-01 9.063074e-01 -0.000000e+00
      outer loop
         vertex 2.250000e+01 2.566987e+01 0.000000e+00
         vertex 2.250000e+01 2.566987e+01 2.500000e+01
         vertex 2.328990e+01 2.530154e+01 0.000000e+00
      endloop
   endfacet
   facet normal 4.226192e-01 9.063074e-01 -0.000000e+00
      outer loop
         vertex 2.328990e+01 2.530154e+01 0.000000e+00
         vertex 2.250000e+01 2.566987e+01 2.500000e+01
         vertex 2.328990e+01 2.530154e+01 2.500000e+01
      endloop
   endfacet
   facet normal 2.588185e-01 9.659260e-01 -0.000000e+00
      outer loop
         vertex 2.328990e+01 2.530154e+01 0.000000e+00
         vertex 2.328990e+01 2.530154e+01 2.500000e+01
         vertex 2.413176e+01 2.507596e+01 0.000000e+00
      endloop
   endfacet
   facet normal 2.588185e-01 9.659260e-01 -0.000000e+00
      outer loop
         vertex 2.413176e+01 2.507596e+01 0.000000e+00
         vertex 2.328990e+01 2.530154e+01 2.500000e+01
         vertex 2.413176e+01 2.507596e+01 2.500000e+01
      endloop
   endfacet
   facet normal 8.715499e-02 9.961948e-01 -0.000000e+00
      outer loop
         vertex 2.413176e+01 2.507596e+01 0.000000e+00
         vertex 2.413176e+01 2.507596e+01 2.500000e+01
         vertex 2.500000e+01 2.500000e+01 0.000000e+00
      endloop
   endfacet
   facet normal 8.715499e-02 9.961948e-01 -0.000000e+00
      outer loop
         vertex 2.500000e+01 2.500000e+01 0.000000e+00
         vertex 2.413176e+01 2.507596e+01 2.500000e+01
         vertex 2.500000e+01 2.500000e+01 2.500000e+01
      endloop
   endfacet
   facet normal 8.715711e-02 -9.961946e-01 0.000000e+00
      outer loop
         vertex 2.500000e+01 5.500000e+01 0.000000e+00
         vertex 2.500000e+01 5.500000e+01 2.500000e+01
         vertex 2.413176e+01 5.492404e+01 0.000000e+00
      endloop
   endfacet
   facet normal 8.715711e-02 -9.961946e-01 0.000000e+00
      outer loop
         vertex 2.413176e+01 5.492404e+01 0.000000e+00
         vertex 2.500000e+01 5.500000e+01 2.500000e+01
         vertex 2.413176e+01 5.492404e+01 2.500000e+01
      endloop
   endfacet
   facet normal 2.588165e-01 -9.659265e-01 0.000000e+00
      outer loop
         vertex 2.413176e+01 5.492404e+01 0.000000e+00
         vertex 2.413176e+01 5.492404e+01 2.500000e+01
         vertex 2.328990e+01 5.469846e+01 0.000000e+00
      endloop
   endfacet
   facet normal 2.588165e-01 -9.659265e-01 0.000000e+00
      outer loop
         vertex 2.328990e+01 5.469846e+01 0.000000e+00
         vertex 2.413176e+01 5.492404e+01 2.500000e+01
         vertex 2.328990e+01 5.469846e+01 2.500000e+01
      endloop
   endfacet
   facet normal 4.226209e-01 -9.063065e-01 0.000000e+00
      outer loop
         vertex 2.328990e+01 5.469846e+01 0.000000e+00
         vertex 2.328990e+01 5.469846e+01 2.500000e+01
         vertex 2.250000e+01 5.433013e+01 0.000000e+00
      endloop
   endfacet
   facet normal 4.226209e-01 -9.063065e-01 0.000000e+00
      outer loop
         vertex 2.250000e+01 5.433013e+01 0.000000e+00
         vertex 2.328990e+01 5.469846e+01 2.500000e+01
         vertex 2.250000e+01 5.433013e+01 2.500000e+01
      endloop
   endfacet
   facet normal 5.735755e-01 -8.191527e-01 0.000000e+00
      outer loop
         vertex 2.250000e+01 5.433013e+01 0.000000e+00
         vertex 2.250000e+01 5.433013e+01 2.500000e+01
         vertex 2.178606e+01 5.383022e+01 0.000000e+00
      endloop
   endfacet
   facet normal 5.735755e-01 -8.191527e-01 0.000000e+00
      outer loop
         vertex 2.178606e+01 5.383022e+01 0.000000e+00
         vertex 2.250000e+01 5.433013e+01 2.500000e+01
         vertex 2.178606e+01 5.383022e+01 2.500000e+01
      endloop
   endfacet
   facet normal 7.071057e-01 -7.071078e-01 0.000000e+00
      outer loop
         vertex 2.178606e+01 5.383022e+01 0.000000e+00
         vertex 2.178606e+01 5.383022e+01 2.500000e+01
         vertex 2.116978e+01 5.321394e+01 0.000000e+00
      endloop
   endfacet
   facet normal 7.071057e-01 -7.071078e-01 0.000000e+00
      outer loop
         vertex 2.116978e+01 5.321394e+01 0.000000e+00
         vertex 2.178606e+01 5.383022e+01 2.500000e+01
         vertex 2.116978e+01 5.321394e+01 2.500000e+01
      endloop
   endfacet
   facet normal 8.191534e-01 -5.735745e-01 0.000000e+00
      outer loop
         vertex 2.116978e+01 5.321394e+01 0.000000e+00
         vertex 2.116978e+01 5.321394e+01 2.500000e+01
         vertex 2.066987e+01 5.250000e+01 0.000000e+00
      endloop
   endfacet
   facet normal 8.191534e-01 -5.735745e-01 0.000000e+00
      outer loop
         vertex 2.066987e+01 5.250000e+01 0.000000e+00
         vertex 2.116978e+01 5.321394e+01 2.500000e+01
         vertex 2.066987e+01 5.250000e+01 2.500000e+01
      endloop
   endfacet
   facet normal 9.063077e-01 -4.226183e-01 0.000000e+00
      outer loop
         vertex 2.066987e+01 5.250000e+01 0.000000e+00
         vertex 2.066987e+01 5.250000e+01 2.500000e+01
         vertex 2.030154e+01 5.171010e+01 0.000000e+00
      endloop
   endfacet
   facet normal 9.063077e-01 -4.226183e-01 0.000000e+00
      outer loop
         vertex 2.030154e+01 5.171010e+01 0.000000e+00
         vertex 2.066987e+01 5.250000e+01 2.500000e+01
         vertex 2.030154e+01 5.171010e+01 2.500000e+01
      endloop
   endfacet
   facet normal 9.659258e-01 -2.588191e-01 0.000000e+00
      outer loop
         vertex 2.030154e+01 5.171010e+01 0.000000e+00
         vertex 2.030154e+01 5.171010e+01 2.500000e+01
         vertex 2.007596e+01 5.086824e+01 0.000000e+00
      endloop
   endfacet
   facet normal 9.659258e-01 -2.588191e-01 0.000000e+00
      outer loop
         vertex 2.007596e+01 5.086824e+01 0.000000e+00
         vertex 2.030154e+01 5.171010e+01 2.500000e+01
         vertex 2.007596e+01 5.086824e+01 2.500000e+01
      endloop
   endfacet
   facet normal 9.961946e-01 -8.715730e-02 0.000000e+00
      outer loop
         vertex 2.007596e+01 5.086824e+01 0.000000e+00
         vertex 2.007596e+01 5.086824e+01 2.500000e+01
         vertex 2.000000e+01 5.000000e+01 0.000000e+00
      endloop
   endfacet
   facet normal 9.961946e-01 -8.715730e-02 0.000000e+00
      outer loop
         vertex 2.000000e+01 5.000000e+01 0.000000e+00
         vertex 2.007596e+01 5.086824e+01 2.500000e+01
         vertex 2.000000e+01 5.000000e+01 2.500000e+01
      endloop
   endfacet
endsolid