solid 9
   facet normal 0.000000e+00 0.000000e+00 -1.000000e+00
      outer loop
         vertex 7.000000e+01 4.000000e+01 6.000000e+00
         vertex 2.700000e+01 4.000000e+01 6.000000e+00
         vertex 7.000000e+01 8.800000e+01 6.000000e+00
      endloop
   endfacet
   facet normal -0.000000e+00 0.000000e+00 -1.000000e+00
      outer loop
         vertex 7.000000e+01 8.800000e+01 6.000000e+00
         vertex 2.700000e+01 4.000000e+01 6.000000e+00
         vertex 2.700000e+01 8.800000e+01 6.000000e+00
      endloop
   endfacet
endsolid