solid 7
   facet normal 0.000000e+00 -1.000000e+00 0.000000e+00
      outer loop
         vertex 8.000000e+01 2.000000e+01 1.500000e+01
         vertex 7.298899e+01 2.000000e+01 2.059621e+01
         vertex 7.217702e+01 2.000000e+01 1.922818e+01
      endloop
   endfacet
   facet normal 0.000000e+00 -1.000000e+00 -0.000000e+00
      outer loop
         vertex 8.000000e+01 2.000000e+01 2.600000e+01
         vertex 7.391647e+01 2.000000e+01 2.362920e+01
         vertex 8.000000e+01 2.000000e+01 1.500000e+01
      endloop
   endfacet
   facet normal 0.000000e+00 -1.000000e+00 0.000000e+00
      outer loop
         vertex 8.000000e+01 2.000000e+01 1.500000e+01
         vertex 7.391647e+01 2.000000e+01 2.362920e+01
         vertex 7.357374e+01 2.000000e+01 2.207570e+01
      endloop
   endfacet
   facet normal 0.000000e+00 -1.000000e+00 0.000000e+00
      outer loop
         vertex 8.000000e+01 2.000000e+01 1.500000e+01
         vertex 7.357374e+01 2.000000e+01 2.207570e+01
         vertex 7.298899e+01 2.000000e+01 2.059621e+01
      endloop
   endfacet
   facet normal 0.000000e+00 -1.000000e+00 -0.000000e+00
      outer loop
         vertex 7.217702e+01 2.000000e+01 1.922818e+01
         vertex 7.115839e+01 2.000000e+01 1.800621e+01
         vertex 8.000000e+01 2.000000e+01 1.500000e+01
      endloop
   endfacet
   facet normal 0.000000e+00 -1.000000e+00 0.000000e+00
      outer loop
         vertex 8.000000e+01 2.000000e+01 1.500000e+01
         vertex 7.115839e+01 2.000000e+01 1.800621e+01
         vertex 6.995886e+01 2.000000e+01 1.696125e+01
      endloop
   endfacet
   facet normal 0.000000e+00 -1.000000e+00 0.000000e+00
      outer loop
         vertex 8.000000e+01 2.000000e+01 1.500000e+01
         vertex 6.995886e+01 2.000000e+01 1.696125e+01
         vertex 6.860879e+01 2.000000e+01 1.611974e+01
      endloop
   endfacet
   facet normal 0.000000e+00 -1.000000e+00 -0.000000e+00
      outer loop
         vertex 6.860879e+01 2.000000e+01 1.611974e+01
         vertex 6.714237e+01 2.000000e+01 1.550296e+01
         vertex 8.000000e+01 2.000000e+01 1.500000e+01
      endloop
   endfacet
   facet normal 0.000000e+00 -1.000000e+00 0.000000e+00
      outer loop
         vertex 8.000000e+01 2.000000e+01 1.500000e+01
         vertex 6.714237e+01 2.000000e+01 1.550296e+01
         vertex 6.559668e+01 2.000000e+01 1.512654e+01
      endloop
   endfacet
   facet normal 0.000000e+00 -1.000000e+00 0.000000e+00
      outer loop
         vertex 8.000000e+01 2.000000e+01 1.500000e+01
         vertex 6.559668e+01 2.000000e+01 1.512654e+01
         vertex 6.401087e+01 2.000000e+01 1.500000e+01
      endloop
   endfacet
   facet normal 0.000000e+00 -1.000000e+00 0.000000e+00
      outer loop
         vertex 1.193397e+02 2.000000e+01 6.424113e+01
         vertex 1.181546e+02 2.000000e+01 6.621183e+01
         vertex 1.171358e+02 2.000000e+01 6.499430e+01
      endloop
   endfacet
   facet normal -0.000000e+00 -1.000000e+00 -0.000000e+00
      outer loop
         vertex 1.193397e+02 2.000000e+01 6.424113e+01
         vertex 1.171358e+02 2.000000e+01 6.499430e+01
         vertex 1.207541e+02 2.000000e+01 6.242801e+01
      endloop
   endfacet
   facet normal 0.000000e+00 -1.000000e+00 0.000000e+00
      outer loop
         vertex 1.350000e+02 2.000000e+01 5.600000e+01
         vertex 1.327046e+02 2.000000e+01 5.613916e+01
         vertex 1.100000e+02 2.000000e+01 5.600000e+01
      endloop
   endfacet
   facet normal 0.000000e+00 -1.000000e+00 0.000000e+00
      outer loop
         vertex 1.100000e+02 2.000000e+01 5.600000e+01
         vertex 1.327046e+02 2.000000e+01 5.613916e+01
         vertex 1.304429e+02 2.000000e+01 5.655460e+01
      endloop
   endfacet
   facet normal 0.000000e+00 -1.000000e+00 0.000000e+00
      outer loop
         vertex 1.100000e+02 2.000000e+01 5.600000e+01
         vertex 1.304429e+02 2.000000e+01 5.655460e+01
         vertex 1.282479e+02 2.000000e+01 5.724024e+01
      endloop
   endfacet
   facet normal -0.000000e+00 -1.000000e+00 -0.000000e+00
      outer loop
         vertex 1.207541e+02 2.000000e+01 6.242801e+01
         vertex 1.171358e+02 2.000000e+01 6.499430e+01
         vertex 1.223773e+02 2.000000e+01 6.079906e+01
      endloop
   endfacet
   facet normal 0.000000e+00 -1.000000e+00 0.000000e+00
      outer loop
         vertex 1.223773e+02 2.000000e+01 6.079906e+01
         vertex 1.171358e+02 2.000000e+01 6.499430e+01
         vertex 1.159372e+02 2.000000e+01 6.395332e+01
      endloop
   endfacet
   facet normal -0.000000e+00 -1.000000e+00 -0.000000e+00
      outer loop
         vertex 1.223773e+02 2.000000e+01 6.079906e+01
         vertex 1.159372e+02 2.000000e+01 6.395332e+01
         vertex 1.241853e+02 2.000000e+01 5.937813e+01
      endloop
   endfacet
   facet normal -0.000000e+00 -1.000000e+00 -0.000000e+00
      outer loop
         vertex 1.241853e+02 2.000000e+01 5.937813e+01
         vertex 1.159372e+02 2.000000e+01 6.395332e+01
         vertex 1.261518e+02 2.000000e+01 5.818604e+01
      endloop
   endfacet
   facet normal 0.000000e+00 -1.000000e+00 0.000000e+00
      outer loop
         vertex 1.261518e+02 2.000000e+01 5.818604e+01
         vertex 1.159372e+02 2.000000e+01 6.395332e+01
         vertex 1.145890e+02 2.000000e+01 6.311513e+01
      endloop
   endfacet
   facet normal -0.000000e+00 -1.000000e+00 -0.000000e+00
      outer loop
         vertex 1.261518e+02 2.000000e+01 5.818604e+01
         vertex 1.145890e+02 2.000000e+01 6.311513e+01
         vertex 1.282479e+02 2.000000e+01 5.724024e+01
      endloop
   endfacet
   facet normal 0.000000e+00 -1.000000e+00 0.000000e+00
      outer loop
         vertex 1.282479e+02 2.000000e+01 5.724024e+01
         vertex 1.145890e+02 2.000000e+01 6.311513e+01
         vertex 1.131252e+02 2.000000e+01 6.250087e+01
      endloop
   endfacet
   facet normal -0.000000e+00 -1.000000e+00 0.000000e+00
      outer loop
         vertex 1.282479e+02 2.000000e+01 5.724024e+01
         vertex 1.131252e+02 2.000000e+01 6.250087e+01
         vertex 1.100000e+02 2.000000e+01 5.600000e+01
      endloop
   endfacet
   facet normal 0.000000e+00 -1.000000e+00 0.000000e+00
      outer loop
         vertex 8.146831e+01 2.000000e+01 3.527051e+01
         vertex 7.520345e+01 2.000000e+01 3.523038e+01
         vertex 8.065557e+01 2.000000e+01 3.223735e+01
      endloop
   endfacet
   facet normal -0.000000e+00 -1.000000e+00 0.000000e+00
      outer loop
         vertex 8.065557e+01 2.000000e+01 3.223735e+01
         vertex 7.520345e+01 2.000000e+01 3.523038e+01
         vertex 7.449259e+01 2.000000e+01 3.193497e+01
      endloop
   endfacet
   facet normal 0.000000e+00 -1.000000e+00 0.000000e+00
      outer loop
         vertex 8.065557e+01 2.000000e+01 3.223735e+01
         vertex 7.449259e+01 2.000000e+01 3.193497e+01
         vertex 8.016434e+01 2.000000e+01 2.913585e+01
      endloop
   endfacet
   facet normal -0.000000e+00 -1.000000e+00 0.000000e+00
      outer loop
         vertex 8.016434e+01 2.000000e+01 2.913585e+01
         vertex 7.449259e+01 2.000000e+01 3.193497e+01
         vertex 7.409311e+01 2.000000e+01 2.858753e+01
      endloop
   endfacet
   facet normal 0.000000e+00 -1.000000e+00 0.000000e+00
      outer loop
         vertex 8.016434e+01 2.000000e+01 2.913585e+01
         vertex 7.409311e+01 2.000000e+01 2.858753e+01
         vertex 8.000000e+01 2.000000e+01 2.600000e+01
      endloop
   endfacet
   facet normal -0.000000e+00 -1.000000e+00 0.000000e+00
      outer loop
         vertex 8.000000e+01 2.000000e+01 2.600000e+01
         vertex 7.409311e+01 2.000000e+01 2.858753e+01
         vertex 7.400851e+01 2.000000e+01 2.521739e+01
      endloop
   endfacet
   facet normal 0.000000e+00 -1.000000e+00 0.000000e+00
      outer loop
         vertex 8.000000e+01 2.000000e+01 2.600000e+01
         vertex 7.400851e+01 2.000000e+01 2.521739e+01
         vertex 7.391647e+01 2.000000e+01 2.362920e+01
      endloop
   endfacet
   facet normal -0.000000e+00 -1.000000e+00 0.000000e+00
      outer loop
         vertex 9.779790e+01 2.000000e+01 5.340637e+01
         vertex 9.374768e+01 2.000000e+01 5.812261e+01
         vertex 9.500000e+01 2.000000e+01 5.198076e+01
      endloop
   endfacet
   facet normal 0.000000e+00 -1.000000e+00 0.000000e+00
      outer loop
         vertex 9.500000e+01 2.000000e+01 5.198076e+01
         vertex 9.374768e+01 2.000000e+01 5.812261e+01
         vertex 9.081414e+01 2.000000e+01 5.646150e+01
      endloop
   endfacet
   facet normal -0.000000e+00 -1.000000e+00 0.000000e+00
      outer loop
         vertex 9.500000e+01 2.000000e+01 5.198076e+01
         vertex 9.081414e+01 2.000000e+01 5.646150e+01
         vertex 9.236644e+01 2.000000e+01 5.027051e+01
      endloop
   endfacet
   facet normal 0.000000e+00 -1.000000e+00 0.000000e+00
      outer loop
         vertex 9.236644e+01 2.000000e+01 5.027051e+01
         vertex 9.081414e+01 2.000000e+01 5.646150e+01
         vertex 8.804885e+01 2.000000e+01 5.453326e+01
      endloop
   endfacet
   facet normal -0.000000e+00 -1.000000e+00 0.000000e+00
      outer loop
         vertex 9.236644e+01 2.000000e+01 5.027051e+01
         vertex 8.804885e+01 2.000000e+01 5.453326e+01
         vertex 8.992608e+01 2.000000e+01 4.829434e+01
      endloop
   endfacet
   facet normal 0.000000e+00 -1.000000e+00 0.000000e+00
      outer loop
         vertex 8.992608e+01 2.000000e+01 4.829434e+01
         vertex 8.804885e+01 2.000000e+01 5.453326e+01
         vertex 8.547604e+01 2.000000e+01 5.235480e+01
      endloop
   endfacet
   facet normal -0.000000e+00 -1.000000e+00 0.000000e+00
      outer loop
         vertex 8.992608e+01 2.000000e+01 4.829434e+01
         vertex 8.547604e+01 2.000000e+01 5.235480e+01
         vertex 8.770566e+01 2.000000e+01 4.607392e+01
      endloop
   endfacet
   facet normal 0.000000e+00 -1.000000e+00 0.000000e+00
      outer loop
         vertex 8.770566e+01 2.000000e+01 4.607392e+01
         vertex 8.547604e+01 2.000000e+01 5.235480e+01
         vertex 8.311830e+01 2.000000e+01 4.994523e+01
      endloop
   endfacet
   facet normal -0.000000e+00 -1.000000e+00 0.000000e+00
      outer loop
         vertex 8.770566e+01 2.000000e+01 4.607392e+01
         vertex 8.311830e+01 2.000000e+01 4.994523e+01
         vertex 8.572949e+01 2.000000e+01 4.363356e+01
      endloop
   endfacet
   facet normal 0.000000e+00 -1.000000e+00 0.000000e+00
      outer loop
         vertex 8.572949e+01 2.000000e+01 4.363356e+01
         vertex 8.311830e+01 2.000000e+01 4.994523e+01
         vertex 8.099629e+01 2.000000e+01 4.732568e+01
      endloop
   endfacet
   facet normal -0.000000e+00 -1.000000e+00 0.000000e+00
      outer loop
         vertex 8.572949e+01 2.000000e+01 4.363356e+01
         vertex 8.099629e+01 2.000000e+01 4.732568e+01
         vertex 8.401924e+01 2.000000e+01 4.100000e+01
      endloop
   endfacet
   facet normal 0.000000e+00 -1.000000e+00 0.000000e+00
      outer loop
         vertex 8.401924e+01 2.000000e+01 4.100000e+01
         vertex 8.099629e+01 2.000000e+01 4.732568e+01
         vertex 7.912862e+01 2.000000e+01 4.451912e+01
      endloop
   endfacet
   facet normal -0.000000e+00 -1.000000e+00 0.000000e+00
      outer loop
         vertex 8.401924e+01 2.000000e+01 4.100000e+01
         vertex 7.912862e+01 2.000000e+01 4.451912e+01
         vertex 8.259363e+01 2.000000e+01 3.820210e+01
      endloop
   endfacet
   facet normal 0.000000e+00 -1.000000e+00 0.000000e+00
      outer loop
         vertex 8.259363e+01 2.000000e+01 3.820210e+01
         vertex 7.912862e+01 2.000000e+01 4.451912e+01
         vertex 7.753167e+01 2.000000e+01 4.155016e+01
      endloop
   endfacet
   facet normal -0.000000e+00 -1.000000e+00 0.000000e+00
      outer loop
         vertex 8.259363e+01 2.000000e+01 3.820210e+01
         vertex 7.753167e+01 2.000000e+01 4.155016e+01
         vertex 8.146831e+01 2.000000e+01 3.527051e+01
      endloop
   endfacet
   facet normal 0.000000e+00 -1.000000e+00 0.000000e+00
      outer loop
         vertex 8.146831e+01 2.000000e+01 3.527051e+01
         vertex 7.753167e+01 2.000000e+01 4.155016e+01
         vertex 7.621944e+01 2.000000e+01 3.844483e+01
      endloop
   endfacet
   facet normal -0.000000e+00 -1.000000e+00 0.000000e+00
      outer loop
         vertex 8.146831e+01 2.000000e+01 3.527051e+01
         vertex 7.621944e+01 2.000000e+01 3.844483e+01
         vertex 7.520345e+01 2.000000e+01 3.523038e+01
      endloop
   endfacet
   facet normal 0.000000e+00 -1.000000e+00 0.000000e+00
      outer loop
         vertex 1.131252e+02 2.000000e+01 6.250087e+01
         vertex 1.115825e+02 2.000000e+01 6.212601e+01
         vertex 1.100000e+02 2.000000e+01 5.600000e+01
      endloop
   endfacet
   facet normal 0.000000e+00 -1.000000e+00 0.000000e+00
      outer loop
         vertex 1.100000e+02 2.000000e+01 5.600000e+01
         vertex 1.115825e+02 2.000000e+01 6.212601e+01
         vertex 1.100000e+02 2.000000e+01 6.200000e+01
      endloop
   endfacet
   facet normal -0.000000e+00 -1.000000e+00 0.000000e+00
      outer loop
         vertex 1.100000e+02 2.000000e+01 5.600000e+01
         vertex 1.100000e+02 2.000000e+01 6.200000e+01
         vertex 1.068641e+02 2.000000e+01 5.583566e+01
      endloop
   endfacet
   facet normal 0.000000e+00 -1.000000e+00 0.000000e+00
      outer loop
         vertex 1.068641e+02 2.000000e+01 5.583566e+01
         vertex 1.100000e+02 2.000000e+01 6.200000e+01
         vertex 1.066325e+02 2.000000e+01 6.184215e+01
      endloop
   endfacet
   facet normal -0.000000e+00 -1.000000e+00 0.000000e+00
      outer loop
         vertex 1.068641e+02 2.000000e+01 5.583566e+01
         vertex 1.066325e+02 2.000000e+01 6.184215e+01
         vertex 1.037626e+02 2.000000e+01 5.534443e+01
      endloop
   endfacet
   facet normal 0.000000e+00 -1.000000e+00 0.000000e+00
      outer loop
         vertex 1.037626e+02 2.000000e+01 5.534443e+01
         vertex 1.066325e+02 2.000000e+01 6.184215e+01
         vertex 1.032945e+02 2.000000e+01 6.137000e+01
      endloop
   endfacet
   facet normal -0.000000e+00 -1.000000e+00 0.000000e+00
      outer loop
         vertex 1.037626e+02 2.000000e+01 5.534443e+01
         vertex 1.032945e+02 2.000000e+01 6.137000e+01
         vertex 1.007295e+02 2.000000e+01 5.453170e+01
      endloop
   endfacet
   facet normal 0.000000e+00 -1.000000e+00 0.000000e+00
      outer loop
         vertex 1.007295e+02 2.000000e+01 5.453170e+01
         vertex 1.032945e+02 2.000000e+01 6.137000e+01
         vertex 1.000154e+02 2.000000e+01 6.058767e+01
      endloop
   endfacet
   facet normal -0.000000e+00 -1.000000e+00 0.000000e+00
      outer loop
         vertex 1.007295e+02 2.000000e+01 5.453170e+01
         vertex 1.000154e+02 2.000000e+01 6.058767e+01
         vertex 9.779790e+01 2.000000e+01 5.340637e+01
      endloop
   endfacet
   facet normal 0.000000e+00 -1.000000e+00 0.000000e+00
      outer loop
         vertex 9.779790e+01 2.000000e+01 5.340637e+01
         vertex 1.000154e+02 2.000000e+01 6.058767e+01
         vertex 9.682375e+01 2.000000e+01 5.950204e+01
      endloop
   endfacet
   facet normal 0.000000e+00 -1.000000e+00 0.000000e+00
      outer loop
         vertex 9.779790e+01 2.000000e+01 5.340637e+01
         vertex 9.682375e+01 2.000000e+01 5.950204e+01
         vertex 9.374768e+01 2.000000e+01 5.812261e+01
      endloop
   endfacet
   facet normal 0.000000e+00 1.000000e+00 0.000000e+00
      outer loop
         vertex 8.000000e+01 6.000000e+01 1.500000e+01
         vertex 7.298899e+01 6.000000e+01 2.059621e+01
         vertex 7.357374e+01 6.000000e+01 2.207570e+01
      endloop
   endfacet
   facet normal -0.000000e+00 1.000000e+00 0.000000e+00
      outer loop
         vertex 6.860879e+01 6.000000e+01 1.611974e+01
         vertex 6.995886e+01 6.000000e+01 1.696125e+01
         vertex 8.000000e+01 6.000000e+01 1.500000e+01
      endloop
   endfacet
   facet normal 0.000000e+00 1.000000e+00 -0.000000e+00
      outer loop
         vertex 8.000000e+01 6.000000e+01 1.500000e+01
         vertex 7.357374e+01 6.000000e+01 2.207570e+01
         vertex 8.000000e+01 6.000000e+01 2.600000e+01
      endloop
   endfacet
   facet normal -0.000000e+00 1.000000e+00 0.000000e+00
      outer loop
         vertex 6.995886e+01 6.000000e+01 1.696125e+01
         vertex 7.115839e+01 6.000000e+01 1.800621e+01
         vertex 8.000000e+01 6.000000e+01 1.500000e+01
      endloop
   endfacet
   facet normal 0.000000e+00 1.000000e+00 0.000000e+00
      outer loop
         vertex 8.000000e+01 6.000000e+01 1.500000e+01
         vertex 7.115839e+01 6.000000e+01 1.800621e+01
         vertex 7.217702e+01 6.000000e+01 1.922818e+01
      endloop
   endfacet
   facet normal 0.000000e+00 1.000000e+00 0.000000e+00
      outer loop
         vertex 8.000000e+01 6.000000e+01 1.500000e+01
         vertex 7.217702e+01 6.000000e+01 1.922818e+01
         vertex 7.298899e+01 6.000000e+01 2.059621e+01
      endloop
   endfacet
   facet normal 0.000000e+00 1.000000e+00 0.000000e+00
      outer loop
         vertex 6.401087e+01 6.000000e+01 1.500000e+01
         vertex 6.559668e+01 6.000000e+01 1.512654e+01
         vertex 8.000000e+01 6.000000e+01 1.500000e+01
      endloop
   endfacet
   facet normal 0.000000e+00 1.000000e+00 0.000000e+00
      outer loop
         vertex 8.000000e+01 6.000000e+01 1.500000e+01
         vertex 6.559668e+01 6.000000e+01 1.512654e+01
         vertex 6.714237e+01 6.000000e+01 1.550296e+01
      endloop
   endfacet
   facet normal 0.000000e+00 1.000000e+00 0.000000e+00
      outer loop
         vertex 8.000000e+01 6.000000e+01 1.500000e+01
         vertex 6.714237e+01 6.000000e+01 1.550296e+01
         vertex 6.860879e+01 6.000000e+01 1.611974e+01
      endloop
   endfacet
   facet normal 0.000000e+00 1.000000e+00 0.000000e+00
      outer loop
         vertex 1.327046e+02 6.000000e+01 5.613916e+01
         vertex 1.350000e+02 6.000000e+01 5.600000e+01
         vertex 1.100000e+02 6.000000e+01 5.600000e+01
      endloop
   endfacet
   facet normal -0.000000e+00 1.000000e+00 0.000000e+00
      outer loop
         vertex 1.171358e+02 6.000000e+01 6.499430e+01
         vertex 1.181546e+02 6.000000e+01 6.621183e+01
         vertex 1.193397e+02 6.000000e+01 6.424113e+01
      endloop
   endfacet
   facet normal 0.000000e+00 1.000000e+00 -0.000000e+00
      outer loop
         vertex 9.500000e+01 6.000000e+01 5.198076e+01
         vertex 9.374768e+01 6.000000e+01 5.812261e+01
         vertex 9.779790e+01 6.000000e+01 5.340637e+01
      endloop
   endfacet
   facet normal 0.000000e+00 1.000000e+00 0.000000e+00
      outer loop
         vertex 9.779790e+01 6.000000e+01 5.340637e+01
         vertex 9.374768e+01 6.000000e+01 5.812261e+01
         vertex 9.682375e+01 6.000000e+01 5.950204e+01
      endloop
   endfacet
   facet normal 0.000000e+00 1.000000e+00 -0.000000e+00
      outer loop
         vertex 9.779790e+01 6.000000e+01 5.340637e+01
         vertex 9.682375e+01 6.000000e+01 5.950204e+01
         vertex 1.007295e+02 6.000000e+01 5.453170e+01
      endloop
   endfacet
   facet normal 0.000000e+00 1.000000e+00 0.000000e+00
      outer loop
         vertex 1.007295e+02 6.000000e+01 5.453170e+01
         vertex 9.682375e+01 6.000000e+01 5.950204e+01
         vertex 1.000154e+02 6.000000e+01 6.058767e+01
      endloop
   endfacet
   facet normal 0.000000e+00 1.000000e+00 -0.000000e+00
      outer loop
         vertex 1.007295e+02 6.000000e+01 5.453170e+01
         vertex 1.000154e+02 6.000000e+01 6.058767e+01
         vertex 1.037626e+02 6.000000e+01 5.534443e+01
      endloop
   endfacet
   facet normal 0.000000e+00 1.000000e+00 0.000000e+00
      outer loop
         vertex 1.037626e+02 6.000000e+01 5.534443e+01
         vertex 1.000154e+02 6.000000e+01 6.058767e+01
         vertex 1.032945e+02 6.000000e+01 6.137000e+01
      endloop
   endfacet
   facet normal 0.000000e+00 1.000000e+00 -0.000000e+00
      outer loop
         vertex 1.037626e+02 6.000000e+01 5.534443e+01
         vertex 1.032945e+02 6.000000e+01 6.137000e+01
         vertex 1.068641e+02 6.000000e+01 5.583566e+01
      endloop
   endfacet
   facet normal 0.000000e+00 1.000000e+00 0.000000e+00
      outer loop
         vertex 1.068641e+02 6.000000e+01 5.583566e+01
         vertex 1.032945e+02 6.000000e+01 6.137000e+01
         vertex 1.066325e+02 6.000000e+01 6.184215e+01
      endloop
   endfacet
   facet normal 0.000000e+00 1.000000e+00 -0.000000e+00
      outer loop
         vertex 1.068641e+02 6.000000e+01 5.583566e+01
         vertex 1.066325e+02 6.000000e+01 6.184215e+01
         vertex 1.100000e+02 6.000000e+01 5.600000e+01
      endloop
   endfacet
   facet normal 0.000000e+00 1.000000e+00 -0.000000e+00
      outer loop
         vertex 1.100000e+02 6.000000e+01 5.600000e+01
         vertex 1.066325e+02 6.000000e+01 6.184215e+01
         vertex 1.100000e+02 6.000000e+01 6.200000e+01
      endloop
   endfacet
   facet normal -0.000000e+00 1.000000e+00 0.000000e+00
      outer loop
         vertex 1.100000e+02 6.000000e+01 6.200000e+01
         vertex 1.115825e+02 6.000000e+01 6.212601e+01
         vertex 1.100000e+02 6.000000e+01 5.600000e+01
      endloop
   endfacet
   facet normal 0.000000e+00 1.000000e+00 0.000000e+00
      outer loop
         vertex 1.100000e+02 6.000000e+01 5.600000e+01
         vertex 1.115825e+02 6.000000e+01 6.212601e+01
         vertex 1.131252e+02 6.000000e+01 6.250087e+01
      endloop
   endfacet
   facet normal 0.000000e+00 1.000000e+00 0.000000e+00
      outer loop
         vertex 1.100000e+02 6.000000e+01 5.600000e+01
         vertex 1.131252e+02 6.000000e+01 6.250087e+01
         vertex 1.145890e+02 6.000000e+01 6.311513e+01
      endloop
   endfacet
   facet normal 0.000000e+00 1.000000e+00 0.000000e+00
      outer loop
         vertex 7.357374e+01 6.000000e+01 2.207570e+01
         vertex 7.391647e+01 6.000000e+01 2.362920e+01
         vertex 8.000000e+01 6.000000e+01 2.600000e+01
      endloop
   endfacet
   facet normal 0.000000e+00 1.000000e+00 0.000000e+00
      outer loop
         vertex 8.000000e+01 6.000000e+01 2.600000e+01
         vertex 7.391647e+01 6.000000e+01 2.362920e+01
         vertex 7.400851e+01 6.000000e+01 2.521739e+01
      endloop
   endfacet
   facet normal 0.000000e+00 1.000000e+00 -0.000000e+00
      outer loop
         vertex 8.000000e+01 6.000000e+01 2.600000e+01
         vertex 7.400851e+01 6.000000e+01 2.521739e+01
         vertex 8.016434e+01 6.000000e+01 2.913585e+01
      endloop
   endfacet
   facet normal 0.000000e+00 1.000000e+00 0.000000e+00
      outer loop
         vertex 8.016434e+01 6.000000e+01 2.913585e+01
         vertex 7.400851e+01 6.000000e+01 2.521739e+01
         vertex 7.409311e+01 6.000000e+01 2.858753e+01
      endloop
   endfacet
   facet normal 0.000000e+00 1.000000e+00 -0.000000e+00
      outer loop
         vertex 8.016434e+01 6.000000e+01 2.913585e+01
         vertex 7.409311e+01 6.000000e+01 2.858753e+01
         vertex 8.065557e+01 6.000000e+01 3.223735e+01
      endloop
   endfacet
   facet normal 0.000000e+00 1.000000e+00 0.000000e+00
      outer loop
         vertex 1.159372e+02 6.000000e+01 6.395332e+01
         vertex 1.261518e+02 6.000000e+01 5.818604e+01
         vertex 1.145890e+02 6.000000e+01 6.311513e+01
      endloop
   endfacet
   facet normal 0.000000e+00 1.000000e+00 0.000000e+00
      outer loop
         vertex 1.145890e+02 6.000000e+01 6.311513e+01
         vertex 1.261518e+02 6.000000e+01 5.818604e+01
         vertex 1.282479e+02 6.000000e+01 5.724024e+01
      endloop
   endfacet
   facet normal 0.000000e+00 1.000000e+00 0.000000e+00
      outer loop
         vertex 1.145890e+02 6.000000e+01 6.311513e+01
         vertex 1.282479e+02 6.000000e+01 5.724024e+01
         vertex 1.100000e+02 6.000000e+01 5.600000e+01
      endloop
   endfacet
   facet normal 0.000000e+00 1.000000e+00 0.000000e+00
      outer loop
         vertex 1.100000e+02 6.000000e+01 5.600000e+01
         vertex 1.282479e+02 6.000000e+01 5.724024e+01
         vertex 1.304429e+02 6.000000e+01 5.655460e+01
      endloop
   endfacet
   facet normal 0.000000e+00 1.000000e+00 0.000000e+00
      outer loop
         vertex 1.100000e+02 6.000000e+01 5.600000e+01
         vertex 1.304429e+02 6.000000e+01 5.655460e+01
         vertex 1.327046e+02 6.000000e+01 5.613916e+01
      endloop
   endfacet
   facet normal 0.000000e+00 1.000000e+00 0.000000e+00
      outer loop
         vertex 1.193397e+02 6.000000e+01 6.424113e+01
         vertex 1.207541e+02 6.000000e+01 6.242801e+01
         vertex 1.171358e+02 6.000000e+01 6.499430e+01
      endloop
   endfacet
   facet normal 0.000000e+00 1.000000e+00 0.000000e+00
      outer loop
         vertex 1.171358e+02 6.000000e+01 6.499430e+01
         vertex 1.207541e+02 6.000000e+01 6.242801e+01
         vertex 1.223773e+02 6.000000e+01 6.079906e+01
      endloop
   endfacet
   facet normal 0.000000e+00 1.000000e+00 0.000000e+00
      outer loop
         vertex 1.171358e+02 6.000000e+01 6.499430e+01
         vertex 1.223773e+02 6.000000e+01 6.079906e+01
         vertex 1.159372e+02 6.000000e+01 6.395332e+01
      endloop
   endfacet
   facet normal 0.000000e+00 1.000000e+00 0.000000e+00
      outer loop
         vertex 1.159372e+02 6.000000e+01 6.395332e+01
         vertex 1.223773e+02 6.000000e+01 6.079906e+01
         vertex 1.241853e+02 6.000000e+01 5.937813e+01
      endloop
   endfacet
   facet normal 0.000000e+00 1.000000e+00 0.000000e+00
      outer loop
         vertex 1.159372e+02 6.000000e+01 6.395332e+01
         vertex 1.241853e+02 6.000000e+01 5.937813e+01
         vertex 1.261518e+02 6.000000e+01 5.818604e+01
      endloop
   endfacet
   facet normal 0.000000e+00 1.000000e+00 0.000000e+00
      outer loop
         vertex 7.409311e+01 6.000000e+01 2.858753e+01
         vertex 7.449259e+01 6.000000e+01 3.193497e+01
         vertex 8.065557e+01 6.000000e+01 3.223735e+01
      endloop
   endfacet
   facet normal 0.000000e+00 1.000000e+00 0.000000e+00
      outer loop
         vertex 8.065557e+01 6.000000e+01 3.223735e+01
         vertex 7.449259e+01 6.000000e+01 3.193497e+01
         vertex 7.520345e+01 6.000000e+01 3.523038e+01
      endloop
   endfacet
   facet normal 0.000000e+00 1.000000e+00 -0.000000e+00
      outer loop
         vertex 8.065557e+01 6.000000e+01 3.223735e+01
         vertex 7.520345e+01 6.000000e+01 3.523038e+01
         vertex 8.146831e+01 6.000000e+01 3.527051e+01
      endloop
   endfacet
   facet normal 0.000000e+00 1.000000e+00 0.000000e+00
      outer loop
         vertex 8.146831e+01 6.000000e+01 3.527051e+01
         vertex 7.520345e+01 6.000000e+01 3.523038e+01
         vertex 7.621944e+01 6.000000e+01 3.844483e+01
      endloop
   endfacet
   facet normal 0.000000e+00 1.000000e+00 -0.000000e+00
      outer loop
         vertex 8.146831e+01 6.000000e+01 3.527051e+01
         vertex 7.621944e+01 6.000000e+01 3.844483e+01
         vertex 8.259363e+01 6.000000e+01 3.820210e+01
      endloop
   endfacet
   facet normal 0.000000e+00 1.000000e+00 0.000000e+00
      outer loop
         vertex 8.259363e+01 6.000000e+01 3.820210e+01
         vertex 7.621944e+01 6.000000e+01 3.844483e+01
         vertex 7.753167e+01 6.000000e+01 4.155016e+01
      endloop
   endfacet
   facet normal 0.000000e+00 1.000000e+00 -0.000000e+00
      outer loop
         vertex 8.259363e+01 6.000000e+01 3.820210e+01
         vertex 7.753167e+01 6.000000e+01 4.155016e+01
         vertex 8.401924e+01 6.000000e+01 4.100000e+01
      endloop
   endfacet
   facet normal 0.000000e+00 1.000000e+00 0.000000e+00
      outer loop
         vertex 8.401924e+01 6.000000e+01 4.100000e+01
         vertex 7.753167e+01 6.000000e+01 4.155016e+01
         vertex 7.912862e+01 6.000000e+01 4.451912e+01
      endloop
   endfacet
   facet normal 0.000000e+00 1.000000e+00 -0.000000e+00
      outer loop
         vertex 8.401924e+01 6.000000e+01 4.100000e+01
         vertex 7.912862e+01 6.000000e+01 4.451912e+01
         vertex 8.572949e+01 6.000000e+01 4.363356e+01
      endloop
   endfacet
   facet normal 0.000000e+00 1.000000e+00 0.000000e+00
      outer loop
         vertex 8.572949e+01 6.000000e+01 4.363356e+01
         vertex 7.912862e+01 6.000000e+01 4.451912e+01
         vertex 8.099629e+01 6.000000e+01 4.732568e+01
      endloop
   endfacet
   facet normal 0.000000e+00 1.000000e+00 -0.000000e+00
      outer loop
         vertex 8.572949e+01 6.000000e+01 4.363356e+01
         vertex 8.099629e+01 6.000000e+01 4.732568e+01
         vertex 8.770566e+01 6.000000e+01 4.607392e+01
      endloop
   endfacet
   facet normal 0.000000e+00 1.000000e+00 0.000000e+00
      outer loop
         vertex 8.770566e+01 6.000000e+01 4.607392e+01
         vertex 8.099629e+01 6.000000e+01 4.732568e+01
         vertex 8.311830e+01 6.000000e+01 4.994523e+01
      endloop
   endfacet
   facet normal 0.000000e+00 1.000000e+00 -0.000000e+00
      outer loop
         vertex 8.770566e+01 6.000000e+01 4.607392e+01
         vertex 8.311830e+01 6.000000e+01 4.994523e+01
         vertex 8.992608e+01 6.000000e+01 4.829434e+01
      endloop
   endfacet
   facet normal 0.000000e+00 1.000000e+00 0.000000e+00
      outer loop
         vertex 8.992608e+01 6.000000e+01 4.829434e+01
         vertex 8.311830e+01 6.000000e+01 4.994523e+01
         vertex 8.547604e+01 6.000000e+01 5.235480e+01
      endloop
   endfacet
   facet normal 0.000000e+00 1.000000e+00 -0.000000e+00
      outer loop
         vertex 8.992608e+01 6.000000e+01 4.829434e+01
         vertex 8.547604e+01 6.000000e+01 5.235480e+01
         vertex 9.236644e+01 6.000000e+01 5.027051e+01
      endloop
   endfacet
   facet normal 0.000000e+00 1.000000e+00 0.000000e+00
      outer loop
         vertex 9.236644e+01 6.000000e+01 5.027051e+01
         vertex 8.547604e+01 6.000000e+01 5.235480e+01
         vertex 8.804885e+01 6.000000e+01 5.453326e+01
      endloop
   endfacet
   facet normal 0.000000e+00 1.000000e+00 -0.000000e+00
      outer loop
         vertex 9.236644e+01 6.000000e+01 5.027051e+01
         vertex 8.804885e+01 6.000000e+01 5.453326e+01
         vertex 9.500000e+01 6.000000e+01 5.198076e+01
      endloop
   endfacet
   facet normal 0.000000e+00 1.000000e+00 0.000000e+00
      outer loop
         vertex 9.500000e+01 6.000000e+01 5.198076e+01
         vertex 8.804885e+01 6.000000e+01 5.453326e+01
         vertex 9.081414e+01 6.000000e+01 5.646150e+01
      endloop
   endfacet
   facet normal 0.000000e+00 1.000000e+00 0.000000e+00
      outer loop
         vertex 9.500000e+01 6.000000e+01 5.198076e+01
         vertex 9.081414e+01 6.000000e+01 5.646150e+01
         vertex 9.374768e+01 6.000000e+01 5.812261e+01
      endloop
   endfacet
endsolid