solid 2
   facet normal -1.000000e+00 0.000000e+00 0.000000e+00
      outer loop
         vertex 0.000000e+00 7.500000e+01 1.500000e+01
         vertex 0.000000e+00 1.000000e+02 1.500000e+01
         vertex 0.000000e+00 1.000000e+02 0.000000e+00
      endloop
   endfacet
   facet normal -1.000000e+00 0.000000e+00 0.000000e+00
      outer loop
         vertex 0.000000e+00 0.000000e+00 0.000000e+00
         vertex 0.000000e+00 0.000000e+00 1.500000e+01
         vertex 0.000000e+00 2.500000e+01 1.500000e+01
      endloop
   endfacet
   facet normal -1.000000e+00 0.000000e+00 0.000000e+00
      outer loop
         vertex 0.000000e+00 2.500000e+01 5.500000e+01
         vertex 0.000000e+00 7.500000e+01 5.500000e+01
         vertex 0.000000e+00 2.500000e+01 1.500000e+01
      endloop
   endfacet
   facet normal -1.000000e+00 0.000000e+00 0.000000e+00
      outer loop
         vertex 0.000000e+00 2.500000e+01 1.500000e+01
         vertex 0.000000e+00 7.500000e+01 5.500000e+01
         vertex 0.000000e+00 7.500000e+01 1.500000e+01
      endloop
   endfacet
   facet normal -1.000000e+00 0.000000e+00 -0.000000e+00
      outer loop
         vertex 0.000000e+00 2.500000e+01 1.500000e+01
         vertex 0.000000e+00 7.500000e+01 1.500000e+01
         vertex 0.000000e+00 0.000000e+00 0.000000e+00
      endloop
   endfacet
   facet normal -1.000000e+00 0.000000e+00 0.000000e+00
      outer loop
         vertex 0.000000e+00 0.000000e+00 0.000000e+00
         vertex 0.000000e+00 7.500000e+01 1.500000e+01
         vertex 0.000000e+00 1.000000e+02 0.000000e+00
      endloop
   endfacet
endsolid