solid 5
   facet normal 0.000000e+00 1.000000e+00 0.000000e+00
      outer loop
         vertex 0.000000e+00 7.500000e+01 1.500000e+01
         vertex 0.000000e+00 7.500000e+01 5.500000e+01
         vertex 7.000000e+01 7.500000e+01 1.500000e+01
      endloop
   endfacet
   facet normal 0.000000e+00 1.000000e+00 -0.000000e+00
      outer loop
         vertex 7.000000e+01 7.500000e+01 1.500000e+01
         vertex 0.000000e+00 7.500000e+01 5.500000e+01
         vertex 7.000000e+01 7.500000e+01 5.500000e+01
      endloop
   endfacet
endsolid