solid 10
   facet normal 3.675534e-01 9.300024e-01 -0.000000e+00
      outer loop
         vertex 7.141347e+01 2.526192e+01 -6.938894e-15
         vertex 7.141347e+01 2.526192e+01 8.000000e+00
         vertex 1.150905e+02 8.000000e+00 1.354943e+01
      endloop
   endfacet
   facet normal 3.675534e-01 9.300024e-01 -0.000000e+00
      outer loop
         vertex 1.150905e+02 8.000000e+00 1.354943e+01
         vertex 7.141347e+01 2.526192e+01 8.000000e+00
         vertex 1.150905e+02 8.000000e+00 2.154943e+01
      endloop
   endfacet
   facet normal 0.000000e+00 -1.000000e+00 0.000000e+00
      outer loop
         vertex 1.150905e+02 -3.000000e+01 2.303119e+01
         vertex 1.150905e+02 -3.000000e+01 3.156221e+01
         vertex 7.141347e+01 -3.000000e+01 2.303119e+01
      endloop
   endfacet
   facet normal 0.000000e+00 -1.000000e+00 0.000000e+00
      outer loop
         vertex 7.141347e+01 -3.000000e+01 2.303119e+01
         vertex 1.150905e+02 -3.000000e+01 3.156221e+01
         vertex 6.214271e+01 -3.000000e+01 3.156221e+01
      endloop
   endfacet
   facet normal -0.000000e+00 -1.000000e+00 -0.000000e+00
      outer loop
         vertex 7.141347e+01 -3.000000e+01 2.303119e+01
         vertex 6.214271e+01 -3.000000e+01 3.156221e+01
         vertex 7.141347e+01 -3.000000e+01 0.000000e+00
      endloop
   endfacet
   facet normal 0.000000e+00 -1.000000e+00 0.000000e+00
      outer loop
         vertex 7.141347e+01 -3.000000e+01 0.000000e+00
         vertex 6.214271e+01 -3.000000e+01 3.156221e+01
         vertex 6.214271e+01 -3.000000e+01 6.000000e+00
      endloop
   endfacet
   facet normal 0.000000e+00 -1.000000e+00 0.000000e+00
      outer loop
         vertex 7.141347e+01 -3.000000e+01 0.000000e+00
         vertex 6.214271e+01 -3.000000e+01 6.000000e+00
         vertex 6.214271e+01 -3.000000e+01 0.000000e+00
      endloop
   endfacet
endsolid