solid 3
   facet normal 1.000000e+00 -0.000000e+00 0.000000e+00
      outer loop
         vertex 7.141347e+01 -3.000000e+01 2.303119e+01
         vertex 7.141347e+01 -3.000000e+01 0.000000e+00
         vertex 7.141347e+01 0.000000e+00 2.303119e+01
      endloop
   endfacet
   facet normal 1.000000e+00 0.000000e+00 0.000000e+00
      outer loop
         vertex 7.141347e+01 0.000000e+00 2.303119e+01
         vertex 7.141347e+01 -3.000000e+01 0.000000e+00
         vertex 7.141347e+01 0.000000e+00 0.000000e+00
      endloop
   endfacet
   facet normal -1.000000e+00 0.000000e+00 0.000000e+00
      outer loop
         vertex 6.214271e+01 -3.000000e+01 3.156221e+01
         vertex 6.214271e+01 0.000000e+00 3.156221e+01
         vertex 6.214271e+01 -3.000000e+01 6.000000e+00
      endloop
   endfacet
   facet normal -1.000000e+00 0.000000e+00 0.000000e+00
      outer loop
         vertex 6.214271e+01 -3.000000e+01 6.000000e+00
         vertex 6.214271e+01 0.000000e+00 3.156221e+01
         vertex 6.214271e+01 0.000000e+00 6.000000e+00
      endloop
   endfacet
endsolid