solid 5
   facet normal 0.000000e+00 0.000000e+00 -1.000000e+00
      outer loop
         vertex 1.150905e+02 0.000000e+00 2.303119e+01
         vertex 1.030119e+02 -5.582754e+00 2.303119e+01
         vertex 1.028314e+02 -4.909266e+00 2.303119e+01
      endloop
   endfacet
   facet normal 0.000000e+00 -0.000000e+00 -1.000000e+00
      outer loop
         vertex 9.531390e+01 -2.268494e+01 2.303119e+01
         vertex 9.560857e+01 -2.331686e+01 2.303119e+01
         vertex 8.330371e+01 -2.388801e+01 2.303119e+01
      endloop
   endfacet
   facet normal -0.000000e+00 0.000000e+00 -1.000000e+00
      outer loop
         vertex 7.677544e+01 -2.331686e+01 2.303119e+01
         vertex 7.141347e+01 -3.000000e+01 2.303119e+01
         vertex 7.648077e+01 -2.268494e+01 2.303119e+01
      endloop
   endfacet
   facet normal -0.000000e+00 0.000000e+00 -1.000000e+00
      outer loop
         vertex 7.648077e+01 -2.268494e+01 2.303119e+01
         vertex 7.141347e+01 -3.000000e+01 2.303119e+01
         vertex 7.630031e+01 -2.201146e+01 2.303119e+01
      endloop
   endfacet
   facet normal 0.000000e+00 0.000000e+00 -1.000000e+00
      outer loop
         vertex 1.150905e+02 -3.000000e+01 2.303119e+01
         vertex 1.030727e+02 -2.131686e+01 2.303119e+01
         vertex 1.150905e+02 0.000000e+00 2.303119e+01
      endloop
   endfacet
   facet normal 0.000000e+00 0.000000e+00 -1.000000e+00
      outer loop
         vertex 1.150905e+02 0.000000e+00 2.303119e+01
         vertex 1.030727e+02 -2.131686e+01 2.303119e+01
         vertex 1.030727e+02 -6.277347e+00 2.303119e+01
      endloop
   endfacet
   facet normal 0.000000e+00 0.000000e+00 -1.000000e+00
      outer loop
         vertex 1.150905e+02 0.000000e+00 2.303119e+01
         vertex 1.030727e+02 -6.277347e+00 2.303119e+01
         vertex 1.030119e+02 -5.582754e+00 2.303119e+01
      endloop
   endfacet
   facet normal 0.000000e+00 0.000000e+00 -1.000000e+00
      outer loop
         vertex 7.141347e+01 0.000000e+00 2.303119e+01
         vertex 7.623953e+01 -6.277347e+00 2.303119e+01
         vertex 7.141347e+01 -3.000000e+01 2.303119e+01
      endloop
   endfacet
   facet normal 0.000000e+00 0.000000e+00 -1.000000e+00
      outer loop
         vertex 7.141347e+01 -3.000000e+01 2.303119e+01
         vertex 7.623953e+01 -6.277347e+00 2.303119e+01
         vertex 7.623953e+01 -2.131686e+01 2.303119e+01
      endloop
   endfacet
   facet normal 0.000000e+00 0.000000e+00 -1.000000e+00
      outer loop
         vertex 7.141347e+01 -3.000000e+01 2.303119e+01
         vertex 7.623953e+01 -2.131686e+01 2.303119e+01
         vertex 7.630031e+01 -2.201146e+01 2.303119e+01
      endloop
   endfacet
   facet normal 0.000000e+00 -0.000000e+00 -1.000000e+00
      outer loop
         vertex 8.330371e+01 -2.388801e+01 2.303119e+01
         vertex 9.560857e+01 -2.331686e+01 2.303119e+01
         vertex 8.281069e+01 -2.438104e+01 2.303119e+01
      endloop
   endfacet
   facet normal 0.000000e+00 0.000000e+00 -1.000000e+00
      outer loop
         vertex 7.141347e+01 -3.000000e+01 2.303119e+01
         vertex 9.560857e+01 -2.331686e+01 2.303119e+01
         vertex 9.600849e+01 -2.388801e+01 2.303119e+01
      endloop
   endfacet
   facet normal 0.000000e+00 0.000000e+00 -1.000000e+00
      outer loop
         vertex 1.028314e+02 -4.909266e+00 2.303119e+01
         vertex 1.025368e+02 -4.277347e+00 2.303119e+01
         vertex 1.150905e+02 0.000000e+00 2.303119e+01
      endloop
   endfacet
   facet normal 0.000000e+00 0.000000e+00 -1.000000e+00
      outer loop
         vertex 1.150905e+02 0.000000e+00 2.303119e+01
         vertex 1.025368e+02 -4.277347e+00 2.303119e+01
         vertex 1.021369e+02 -3.706196e+00 2.303119e+01
      endloop
   endfacet
   facet normal 0.000000e+00 0.000000e+00 -1.000000e+00
      outer loop
         vertex 1.150905e+02 0.000000e+00 2.303119e+01
         vertex 1.021369e+02 -3.706196e+00 2.303119e+01
         vertex 1.016438e+02 -3.213169e+00 2.303119e+01
      endloop
   endfacet
   facet normal 0.000000e+00 0.000000e+00 -1.000000e+00
      outer loop
         vertex 8.370364e+01 -4.277347e+00 2.303119e+01
         vertex 8.330371e+01 -3.706196e+00 2.303119e+01
         vertex 1.150905e+02 0.000000e+00 2.303119e+01
      endloop
   endfacet
   facet normal 0.000000e+00 0.000000e+00 -1.000000e+00
      outer loop
         vertex 1.150905e+02 0.000000e+00 2.303119e+01
         vertex 8.330371e+01 -3.706196e+00 2.303119e+01
         vertex 8.281069e+01 -3.213169e+00 2.303119e+01
      endloop
   endfacet
   facet normal 0.000000e+00 0.000000e+00 -1.000000e+00
      outer loop
         vertex 1.150905e+02 0.000000e+00 2.303119e+01
         vertex 8.281069e+01 -3.213169e+00 2.303119e+01
         vertex 8.223954e+01 -2.813245e+00 2.303119e+01
      endloop
   endfacet
   facet normal 0.000000e+00 0.000000e+00 -1.000000e+00
      outer loop
         vertex 1.016438e+02 -3.213169e+00 2.303119e+01
         vertex 1.010727e+02 -2.813245e+00 2.303119e+01
         vertex 1.150905e+02 0.000000e+00 2.303119e+01
      endloop
   endfacet
   facet normal 0.000000e+00 0.000000e+00 -1.000000e+00
      outer loop
         vertex 1.150905e+02 0.000000e+00 2.303119e+01
         vertex 1.010727e+02 -2.813245e+00 2.303119e+01
         vertex 1.004408e+02 -2.518576e+00 2.303119e+01
      endloop
   endfacet
   facet normal 0.000000e+00 0.000000e+00 -1.000000e+00
      outer loop
         vertex 1.150905e+02 0.000000e+00 2.303119e+01
         vertex 1.004408e+02 -2.518576e+00 2.303119e+01
         vertex 9.976726e+01 -2.338116e+00 2.303119e+01
      endloop
   endfacet
   facet normal 0.000000e+00 0.000000e+00 -1.000000e+00
      outer loop
         vertex 8.023953e+01 -2.277347e+00 2.303119e+01
         vertex 7.141347e+01 0.000000e+00 2.303119e+01
         vertex 8.093413e+01 -2.338116e+00 2.303119e+01
      endloop
   endfacet
   facet normal 0.000000e+00 0.000000e+00 -1.000000e+00
      outer loop
         vertex 8.093413e+01 -2.338116e+00 2.303119e+01
         vertex 7.141347e+01 0.000000e+00 2.303119e+01
         vertex 1.150905e+02 0.000000e+00 2.303119e+01
      endloop
   endfacet
   facet normal 0.000000e+00 0.000000e+00 -1.000000e+00
      outer loop
         vertex 8.093413e+01 -2.338116e+00 2.303119e+01
         vertex 1.150905e+02 0.000000e+00 2.303119e+01
         vertex 8.160762e+01 -2.518576e+00 2.303119e+01
      endloop
   endfacet
   facet normal 0.000000e+00 0.000000e+00 -1.000000e+00
      outer loop
         vertex 8.160762e+01 -2.518576e+00 2.303119e+01
         vertex 1.150905e+02 0.000000e+00 2.303119e+01
         vertex 8.223954e+01 -2.813245e+00 2.303119e+01
      endloop
   endfacet
   facet normal 0.000000e+00 -0.000000e+00 -1.000000e+00
      outer loop
         vertex 7.677544e+01 -2.331686e+01 2.303119e+01
         vertex 7.717536e+01 -2.388801e+01 2.303119e+01
         vertex 7.141347e+01 -3.000000e+01 2.303119e+01
      endloop
   endfacet
   facet normal 0.000000e+00 0.000000e+00 -1.000000e+00
      outer loop
         vertex 7.141347e+01 -3.000000e+01 2.303119e+01
         vertex 7.717536e+01 -2.388801e+01 2.303119e+01
         vertex 7.766838e+01 -2.438104e+01 2.303119e+01
      endloop
   endfacet
   facet normal 0.000000e+00 0.000000e+00 -1.000000e+00
      outer loop
         vertex 7.141347e+01 -3.000000e+01 2.303119e+01
         vertex 7.766838e+01 -2.438104e+01 2.303119e+01
         vertex 7.823954e+01 -2.478096e+01 2.303119e+01
      endloop
   endfacet
   facet normal 0.000000e+00 0.000000e+00 -1.000000e+00
      outer loop
         vertex 1.004408e+02 -2.507563e+01 2.303119e+01
         vertex 1.010727e+02 -2.478096e+01 2.303119e+01
         vertex 1.150905e+02 -3.000000e+01 2.303119e+01
      endloop
   endfacet
   facet normal 0.000000e+00 0.000000e+00 -1.000000e+00
      outer loop
         vertex 1.025368e+02 -2.331686e+01 2.303119e+01
         vertex 1.028314e+02 -2.268494e+01 2.303119e+01
         vertex 1.150905e+02 -3.000000e+01 2.303119e+01
      endloop
   endfacet
   facet normal 0.000000e+00 0.000000e+00 -1.000000e+00
      outer loop
         vertex 1.150905e+02 -3.000000e+01 2.303119e+01
         vertex 1.028314e+02 -2.268494e+01 2.303119e+01
         vertex 1.030119e+02 -2.201146e+01 2.303119e+01
      endloop
   endfacet
   facet normal 0.000000e+00 0.000000e+00 -1.000000e+00
      outer loop
         vertex 1.150905e+02 -3.000000e+01 2.303119e+01
         vertex 1.030119e+02 -2.201146e+01 2.303119e+01
         vertex 1.030727e+02 -2.131686e+01 2.303119e+01
      endloop
   endfacet
   facet normal 0.000000e+00 -0.000000e+00 -1.000000e+00
      outer loop
         vertex 7.823954e+01 -2.478096e+01 2.303119e+01
         vertex 7.887146e+01 -2.507563e+01 2.303119e+01
         vertex 7.141347e+01 -3.000000e+01 2.303119e+01
      endloop
   endfacet
   facet normal 0.000000e+00 0.000000e+00 -1.000000e+00
      outer loop
         vertex 7.141347e+01 -3.000000e+01 2.303119e+01
         vertex 7.887146e+01 -2.507563e+01 2.303119e+01
         vertex 7.954495e+01 -2.525609e+01 2.303119e+01
      endloop
   endfacet
   facet normal 0.000000e+00 0.000000e+00 -1.000000e+00
      outer loop
         vertex 7.141347e+01 -3.000000e+01 2.303119e+01
         vertex 7.954495e+01 -2.525609e+01 2.303119e+01
         vertex 8.023953e+01 -2.531686e+01 2.303119e+01
      endloop
   endfacet
   facet normal 0.000000e+00 0.000000e+00 -1.000000e+00
      outer loop
         vertex 1.010727e+02 -2.478096e+01 2.303119e+01
         vertex 1.016438e+02 -2.438104e+01 2.303119e+01
         vertex 1.150905e+02 -3.000000e+01 2.303119e+01
      endloop
   endfacet
   facet normal 0.000000e+00 0.000000e+00 -1.000000e+00
      outer loop
         vertex 1.150905e+02 -3.000000e+01 2.303119e+01
         vertex 1.016438e+02 -2.438104e+01 2.303119e+01
         vertex 1.021369e+02 -2.388801e+01 2.303119e+01
      endloop
   endfacet
   facet normal 0.000000e+00 0.000000e+00 -1.000000e+00
      outer loop
         vertex 1.150905e+02 -3.000000e+01 2.303119e+01
         vertex 1.021369e+02 -2.388801e+01 2.303119e+01
         vertex 1.025368e+02 -2.331686e+01 2.303119e+01
      endloop
   endfacet
   facet normal 0.000000e+00 -0.000000e+00 -1.000000e+00
      outer loop
         vertex 8.417877e+01 -2.201146e+01 2.303119e+01
         vertex 9.560857e+01 -4.277347e+00 2.303119e+01
         vertex 8.399831e+01 -2.268494e+01 2.303119e+01
      endloop
   endfacet
   facet normal 0.000000e+00 0.000000e+00 -1.000000e+00
      outer loop
         vertex 8.399831e+01 -2.268494e+01 2.303119e+01
         vertex 9.560857e+01 -4.277347e+00 2.303119e+01
         vertex 9.531390e+01 -4.909266e+00 2.303119e+01
      endloop
   endfacet
   facet normal 0.000000e+00 -0.000000e+00 -1.000000e+00
      outer loop
         vertex 8.399831e+01 -2.268494e+01 2.303119e+01
         vertex 9.531390e+01 -4.909266e+00 2.303119e+01
         vertex 8.370364e+01 -2.331686e+01 2.303119e+01
      endloop
   endfacet
   facet normal 0.000000e+00 0.000000e+00 -1.000000e+00
      outer loop
         vertex 8.370364e+01 -2.331686e+01 2.303119e+01
         vertex 9.531390e+01 -4.909266e+00 2.303119e+01
         vertex 9.513344e+01 -5.582754e+00 2.303119e+01
      endloop
   endfacet
   facet normal 0.000000e+00 0.000000e+00 -1.000000e+00
      outer loop
         vertex 8.399831e+01 -4.909266e+00 2.303119e+01
         vertex 8.370364e+01 -4.277347e+00 2.303119e+01
         vertex 9.837808e+01 -2.338116e+00 2.303119e+01
      endloop
   endfacet
   facet normal -0.000000e+00 0.000000e+00 -1.000000e+00
      outer loop
         vertex 9.837808e+01 -2.338116e+00 2.303119e+01
         vertex 8.370364e+01 -4.277347e+00 2.303119e+01
         vertex 1.150905e+02 0.000000e+00 2.303119e+01
      endloop
   endfacet
   facet normal 0.000000e+00 0.000000e+00 -1.000000e+00
      outer loop
         vertex 9.837808e+01 -2.338116e+00 2.303119e+01
         vertex 1.150905e+02 0.000000e+00 2.303119e+01
         vertex 9.907267e+01 -2.277347e+00 2.303119e+01
      endloop
   endfacet
   facet normal 0.000000e+00 0.000000e+00 -1.000000e+00
      outer loop
         vertex 9.907267e+01 -2.277347e+00 2.303119e+01
         vertex 1.150905e+02 0.000000e+00 2.303119e+01
         vertex 9.976726e+01 -2.338116e+00 2.303119e+01
      endloop
   endfacet
   facet normal -0.000000e+00 0.000000e+00 -1.000000e+00
      outer loop
         vertex 8.023953e+01 -2.277347e+00 2.303119e+01
         vertex 7.954495e+01 -2.338116e+00 2.303119e+01
         vertex 7.141347e+01 0.000000e+00 2.303119e+01
      endloop
   endfacet
   facet normal 0.000000e+00 0.000000e+00 -1.000000e+00
      outer loop
         vertex 7.141347e+01 0.000000e+00 2.303119e+01
         vertex 7.954495e+01 -2.338116e+00 2.303119e+01
         vertex 7.887146e+01 -2.518576e+00 2.303119e+01
      endloop
   endfacet
   facet normal 0.000000e+00 0.000000e+00 -1.000000e+00
      outer loop
         vertex 7.141347e+01 0.000000e+00 2.303119e+01
         vertex 7.887146e+01 -2.518576e+00 2.303119e+01
         vertex 7.823954e+01 -2.813245e+00 2.303119e+01
      endloop
   endfacet
   facet normal -0.000000e+00 0.000000e+00 -1.000000e+00
      outer loop
         vertex 7.823954e+01 -2.813245e+00 2.303119e+01
         vertex 7.766838e+01 -3.213169e+00 2.303119e+01
         vertex 7.141347e+01 0.000000e+00 2.303119e+01
      endloop
   endfacet
   facet normal 0.000000e+00 0.000000e+00 -1.000000e+00
      outer loop
         vertex 7.141347e+01 0.000000e+00 2.303119e+01
         vertex 7.766838e+01 -3.213169e+00 2.303119e+01
         vertex 7.717536e+01 -3.706196e+00 2.303119e+01
      endloop
   endfacet
   facet normal 0.000000e+00 0.000000e+00 -1.000000e+00
      outer loop
         vertex 7.141347e+01 0.000000e+00 2.303119e+01
         vertex 7.717536e+01 -3.706196e+00 2.303119e+01
         vertex 7.677544e+01 -4.277347e+00 2.303119e+01
      endloop
   endfacet
   facet normal -0.000000e+00 0.000000e+00 -1.000000e+00
      outer loop
         vertex 7.677544e+01 -4.277347e+00 2.303119e+01
         vertex 7.648077e+01 -4.909266e+00 2.303119e+01
         vertex 7.141347e+01 0.000000e+00 2.303119e+01
      endloop
   endfacet
   facet normal 0.000000e+00 0.000000e+00 -1.000000e+00
      outer loop
         vertex 7.141347e+01 0.000000e+00 2.303119e+01
         vertex 7.648077e+01 -4.909266e+00 2.303119e+01
         vertex 7.630031e+01 -5.582754e+00 2.303119e+01
      endloop
   endfacet
   facet normal 0.000000e+00 0.000000e+00 -1.000000e+00
      outer loop
         vertex 7.141347e+01 0.000000e+00 2.303119e+01
         vertex 7.630031e+01 -5.582754e+00 2.303119e+01
         vertex 7.623953e+01 -6.277347e+00 2.303119e+01
      endloop
   endfacet
   facet normal 0.000000e+00 0.000000e+00 -1.000000e+00
      outer loop
         vertex 9.513344e+01 -5.582754e+00 2.303119e+01
         vertex 9.507267e+01 -6.277347e+00 2.303119e+01
         vertex 8.370364e+01 -2.331686e+01 2.303119e+01
      endloop
   endfacet
   facet normal 0.000000e+00 0.000000e+00 -1.000000e+00
      outer loop
         vertex 8.370364e+01 -2.331686e+01 2.303119e+01
         vertex 9.507267e+01 -6.277347e+00 2.303119e+01
         vertex 9.507267e+01 -2.131686e+01 2.303119e+01
      endloop
   endfacet
   facet normal 0.000000e+00 -0.000000e+00 -1.000000e+00
      outer loop
         vertex 8.370364e+01 -2.331686e+01 2.303119e+01
         vertex 9.507267e+01 -2.131686e+01 2.303119e+01
         vertex 8.330371e+01 -2.388801e+01 2.303119e+01
      endloop
   endfacet
   facet normal 0.000000e+00 0.000000e+00 -1.000000e+00
      outer loop
         vertex 8.330371e+01 -2.388801e+01 2.303119e+01
         vertex 9.507267e+01 -2.131686e+01 2.303119e+01
         vertex 9.513344e+01 -2.201146e+01 2.303119e+01
      endloop
   endfacet
   facet normal 0.000000e+00 0.000000e+00 -1.000000e+00
      outer loop
         vertex 8.330371e+01 -2.388801e+01 2.303119e+01
         vertex 9.513344e+01 -2.201146e+01 2.303119e+01
         vertex 9.531390e+01 -2.268494e+01 2.303119e+01
      endloop
   endfacet
   facet normal 0.000000e+00 0.000000e+00 -1.000000e+00
      outer loop
         vertex 8.399831e+01 -4.909266e+00 2.303119e+01
         vertex 9.837808e+01 -2.338116e+00 2.303119e+01
         vertex 8.417877e+01 -5.582754e+00 2.303119e+01
      endloop
   endfacet
   facet normal 0.000000e+00 0.000000e+00 -1.000000e+00
      outer loop
         vertex 8.417877e+01 -5.582754e+00 2.303119e+01
         vertex 9.837808e+01 -2.338116e+00 2.303119e+01
         vertex 9.770459e+01 -2.518576e+00 2.303119e+01
      endloop
   endfacet
   facet normal 0.000000e+00 0.000000e+00 -1.000000e+00
      outer loop
         vertex 8.417877e+01 -5.582754e+00 2.303119e+01
         vertex 9.770459e+01 -2.518576e+00 2.303119e+01
         vertex 9.707267e+01 -2.813245e+00 2.303119e+01
      endloop
   endfacet
   facet normal 0.000000e+00 -0.000000e+00 -1.000000e+00
      outer loop
         vertex 8.023953e+01 -2.531686e+01 2.303119e+01
         vertex 8.093413e+01 -2.525609e+01 2.303119e+01
         vertex 7.141347e+01 -3.000000e+01 2.303119e+01
      endloop
   endfacet
   facet normal 0.000000e+00 0.000000e+00 -1.000000e+00
      outer loop
         vertex 7.141347e+01 -3.000000e+01 2.303119e+01
         vertex 8.093413e+01 -2.525609e+01 2.303119e+01
         vertex 8.160762e+01 -2.507563e+01 2.303119e+01
      endloop
   endfacet
   facet normal 0.000000e+00 0.000000e+00 -1.000000e+00
      outer loop
         vertex 7.141347e+01 -3.000000e+01 2.303119e+01
         vertex 8.160762e+01 -2.507563e+01 2.303119e+01
         vertex 9.560857e+01 -2.331686e+01 2.303119e+01
      endloop
   endfacet
   facet normal 0.000000e+00 0.000000e+00 -1.000000e+00
      outer loop
         vertex 9.560857e+01 -2.331686e+01 2.303119e+01
         vertex 8.160762e+01 -2.507563e+01 2.303119e+01
         vertex 8.223954e+01 -2.478096e+01 2.303119e+01
      endloop
   endfacet
   facet normal 0.000000e+00 0.000000e+00 -1.000000e+00
      outer loop
         vertex 9.560857e+01 -2.331686e+01 2.303119e+01
         vertex 8.223954e+01 -2.478096e+01 2.303119e+01
         vertex 8.281069e+01 -2.438104e+01 2.303119e+01
      endloop
   endfacet
   facet normal 0.000000e+00 -0.000000e+00 -1.000000e+00
      outer loop
         vertex 9.600849e+01 -2.388801e+01 2.303119e+01
         vertex 9.650152e+01 -2.438104e+01 2.303119e+01
         vertex 7.141347e+01 -3.000000e+01 2.303119e+01
      endloop
   endfacet
   facet normal 0.000000e+00 0.000000e+00 -1.000000e+00
      outer loop
         vertex 7.141347e+01 -3.000000e+01 2.303119e+01
         vertex 9.650152e+01 -2.438104e+01 2.303119e+01
         vertex 9.707267e+01 -2.478096e+01 2.303119e+01
      endloop
   endfacet
   facet normal 0.000000e+00 0.000000e+00 -1.000000e+00
      outer loop
         vertex 7.141347e+01 -3.000000e+01 2.303119e+01
         vertex 9.707267e+01 -2.478096e+01 2.303119e+01
         vertex 9.770459e+01 -2.507563e+01 2.303119e+01
      endloop
   endfacet
   facet normal 0.000000e+00 -0.000000e+00 -1.000000e+00
      outer loop
         vertex 9.770459e+01 -2.507563e+01 2.303119e+01
         vertex 9.837808e+01 -2.525609e+01 2.303119e+01
         vertex 7.141347e+01 -3.000000e+01 2.303119e+01
      endloop
   endfacet
   facet normal 0.000000e+00 0.000000e+00 -1.000000e+00
      outer loop
         vertex 7.141347e+01 -3.000000e+01 2.303119e+01
         vertex 9.837808e+01 -2.525609e+01 2.303119e+01
         vertex 9.907267e+01 -2.531686e+01 2.303119e+01
      endloop
   endfacet
   facet normal 0.000000e+00 0.000000e+00 -1.000000e+00
      outer loop
         vertex 7.141347e+01 -3.000000e+01 2.303119e+01
         vertex 9.907267e+01 -2.531686e+01 2.303119e+01
         vertex 1.150905e+02 -3.000000e+01 2.303119e+01
      endloop
   endfacet
   facet normal 0.000000e+00 0.000000e+00 -1.000000e+00
      outer loop
         vertex 1.150905e+02 -3.000000e+01 2.303119e+01
         vertex 9.907267e+01 -2.531686e+01 2.303119e+01
         vertex 9.976726e+01 -2.525609e+01 2.303119e+01
      endloop
   endfacet
   facet normal 0.000000e+00 0.000000e+00 -1.000000e+00
      outer loop
         vertex 1.150905e+02 -3.000000e+01 2.303119e+01
         vertex 9.976726e+01 -2.525609e+01 2.303119e+01
         vertex 1.004408e+02 -2.507563e+01 2.303119e+01
      endloop
   endfacet
   facet normal 0.000000e+00 0.000000e+00 -1.000000e+00
      outer loop
         vertex 9.707267e+01 -2.813245e+00 2.303119e+01
         vertex 9.650152e+01 -3.213169e+00 2.303119e+01
         vertex 8.417877e+01 -5.582754e+00 2.303119e+01
      endloop
   endfacet
   facet normal 0.000000e+00 0.000000e+00 -1.000000e+00
      outer loop
         vertex 8.417877e+01 -5.582754e+00 2.303119e+01
         vertex 9.650152e+01 -3.213169e+00 2.303119e+01
         vertex 9.600849e+01 -3.706196e+00 2.303119e+01
      endloop
   endfacet
   facet normal 0.000000e+00 0.000000e+00 -1.000000e+00
      outer loop
         vertex 8.417877e+01 -5.582754e+00 2.303119e+01
         vertex 9.600849e+01 -3.706196e+00 2.303119e+01
         vertex 8.423954e+01 -6.277347e+00 2.303119e+01
      endloop
   endfacet
   facet normal 0.000000e+00 0.000000e+00 -1.000000e+00
      outer loop
         vertex 8.423954e+01 -6.277347e+00 2.303119e+01
         vertex 9.600849e+01 -3.706196e+00 2.303119e+01
         vertex 9.560857e+01 -4.277347e+00 2.303119e+01
      endloop
   endfacet
   facet normal 0.000000e+00 0.000000e+00 -1.000000e+00
      outer loop
         vertex 8.423954e+01 -6.277347e+00 2.303119e+01
         vertex 9.560857e+01 -4.277347e+00 2.303119e+01
         vertex 8.423954e+01 -2.131686e+01 2.303119e+01
      endloop
   endfacet
   facet normal 0.000000e+00 -0.000000e+00 -1.000000e+00
      outer loop
         vertex 8.423954e+01 -2.131686e+01 2.303119e+01
         vertex 9.560857e+01 -4.277347e+00 2.303119e+01
         vertex 8.417877e+01 -2.201146e+01 2.303119e+01
      endloop
   endfacet
   facet normal 0.000000e+00 0.000000e+00 1.000000e+00
      outer loop
         vertex 7.810849e+00 1.749679e+01 4.096710e+01
         vertex 0.000000e+00 1.749679e+01 4.096710e+01
         vertex 7.810849e+00 0.000000e+00 4.096710e+01
      endloop
   endfacet
   facet normal 0.000000e+00 0.000000e+00 1.000000e+00
      outer loop
         vertex 7.810849e+00 0.000000e+00 4.096710e+01
         vertex 0.000000e+00 1.749679e+01 4.096710e+01
         vertex 0.000000e+00 0.000000e+00 4.096710e+01
      endloop
   endfacet
   facet normal -0.000000e+00 0.000000e+00 1.000000e+00
      outer loop
         vertex 0.000000e+00 3.081045e+01 4.096710e+01
         vertex 0.000000e+00 2.615939e+01 4.096710e+01
         vertex 7.810849e+00 3.081045e+01 4.096710e+01
      endloop
   endfacet
   facet normal 0.000000e+00 0.000000e+00 1.000000e+00
      outer loop
         vertex 7.810849e+00 3.081045e+01 4.096710e+01
         vertex 0.000000e+00 2.615939e+01 4.096710e+01
         vertex 7.810849e+00 2.615939e+01 4.096710e+01
      endloop
   endfacet
endsolid