solid 8
   facet normal -8.718400e-01 -4.897907e-01 -0.000000e+00
      outer loop
         vertex 6.214271e+01 -3.000000e+01 6.000000e+00
         vertex 4.528902e+01 1.734723e-14 6.000000e+00
         vertex 6.214271e+01 -3.000000e+01 3.469447e-15
      endloop
   endfacet
   facet normal -8.718400e-01 -4.897907e-01 0.000000e+00
      outer loop
         vertex 6.214271e+01 -3.000000e+01 3.469447e-15
         vertex 4.528902e+01 1.734723e-14 6.000000e+00
         vertex 4.528902e+01 1.734723e-14 3.469447e-15
      endloop
   endfacet
   facet normal -0.000000e+00 1.000000e+00 0.000000e+00
      outer loop
         vertex 7.810849e+00 2.526192e+01 8.000000e+00
         vertex 7.141347e+01 2.526192e+01 8.000000e+00
         vertex 7.810849e+00 2.526192e+01 0.000000e+00
      endloop
   endfacet
   facet normal 0.000000e+00 1.000000e+00 0.000000e+00
      outer loop
         vertex 7.810849e+00 2.526192e+01 0.000000e+00
         vertex 7.141347e+01 2.526192e+01 8.000000e+00
         vertex 7.141347e+01 2.526192e+01 0.000000e+00
      endloop
   endfacet
endsolid