solid 9
   facet normal 0.000000e+00 1.000000e+00 0.000000e+00
      outer loop
         vertex 1.150905e+02 8.000000e+00 3.156221e+01
         vertex 1.150905e+02 8.000000e+00 2.154943e+01
         vertex 7.810849e+00 8.000000e+00 3.156221e+01
      endloop
   endfacet
   facet normal 0.000000e+00 1.000000e+00 0.000000e+00
      outer loop
         vertex 7.810849e+00 8.000000e+00 3.156221e+01
         vertex 1.150905e+02 8.000000e+00 2.154943e+01
         vertex 7.141347e+01 8.000000e+00 8.000000e+00
      endloop
   endfacet
   facet normal 0.000000e+00 1.000000e+00 0.000000e+00
      outer loop
         vertex 7.810849e+00 8.000000e+00 3.156221e+01
         vertex 7.141347e+01 8.000000e+00 8.000000e+00
         vertex 7.810849e+00 8.000000e+00 8.000000e+00
      endloop
   endfacet
   facet normal 0.000000e+00 -1.000000e+00 0.000000e+00
      outer loop
         vertex 6.214271e+01 0.000000e+00 6.000000e+00
         vertex 6.214271e+01 0.000000e+00 3.156221e+01
         vertex 4.528902e+01 0.000000e+00 6.000000e+00
      endloop
   endfacet
   facet normal 0.000000e+00 -1.000000e+00 0.000000e+00
      outer loop
         vertex 4.528902e+01 0.000000e+00 6.000000e+00
         vertex 6.214271e+01 0.000000e+00 3.156221e+01
         vertex 7.810849e+00 0.000000e+00 3.156221e+01
      endloop
   endfacet
   facet normal -0.000000e+00 -1.000000e+00 -0.000000e+00
      outer loop
         vertex 7.810849e+00 0.000000e+00 4.096710e+01
         vertex 0.000000e+00 0.000000e+00 4.096710e+01
         vertex 7.810849e+00 0.000000e+00 3.156221e+01
      endloop
   endfacet
   facet normal -0.000000e+00 -1.000000e+00 0.000000e+00
      outer loop
         vertex 7.810849e+00 0.000000e+00 3.156221e+01
         vertex 0.000000e+00 0.000000e+00 4.096710e+01
         vertex 0.000000e+00 0.000000e+00 0.000000e+00
      endloop
   endfacet
   facet normal 0.000000e+00 -1.000000e+00 -0.000000e+00
      outer loop
         vertex 7.810849e+00 0.000000e+00 3.156221e+01
         vertex 0.000000e+00 0.000000e+00 0.000000e+00
         vertex 4.528902e+01 0.000000e+00 6.000000e+00
      endloop
   endfacet
   facet normal 0.000000e+00 -1.000000e+00 -0.000000e+00
      outer loop
         vertex 4.528902e+01 0.000000e+00 6.000000e+00
         vertex 0.000000e+00 0.000000e+00 0.000000e+00
         vertex 4.528902e+01 0.000000e+00 0.000000e+00
      endloop
   endfacet
endsolid