solid 5
   facet normal -1.000000e+00 0.000000e+00 0.000000e+00
      outer loop
         vertex 0.000000e+00 8.000000e+01 2.653787e-15
         vertex 0.000000e+00 8.000000e+01 1.000000e+01
         vertex 0.000000e+00 1.000000e+02 0.000000e+00
      endloop
   endfacet
   facet normal -1.000000e+00 0.000000e+00 0.000000e+00
      outer loop
         vertex 0.000000e+00 1.000000e+02 0.000000e+00
         vertex 0.000000e+00 8.000000e+01 1.000000e+01
         vertex 0.000000e+00 1.000000e+02 1.000000e+01
      endloop
   endfacet
   facet normal -1.000000e+00 0.000000e+00 0.000000e+00
      outer loop
         vertex 0.000000e+00 6.481533e+01 3.265348e+01
         vertex 0.000000e+00 6.500000e+01 3.500000e+01
         vertex 0.000000e+00 8.000000e+01 3.500000e+01
      endloop
   endfacet
   facet normal -1.000000e+00 0.000000e+00 0.000000e+00
      outer loop
         vertex 0.000000e+00 2.000000e+01 3.500000e+01
         vertex 0.000000e+00 3.500000e+01 3.500000e+01
         vertex 0.000000e+00 3.518467e+01 3.265348e+01
      endloop
   endfacet
   facet normal -1.000000e+00 -0.000000e+00 0.000000e+00
      outer loop
         vertex 0.000000e+00 2.000000e+01 2.653787e-15
         vertex 0.000000e+00 0.000000e+00 0.000000e+00
         vertex 0.000000e+00 2.000000e+01 1.000000e+01
      endloop
   endfacet
   facet normal -1.000000e+00 -0.000000e+00 0.000000e+00
      outer loop
         vertex 0.000000e+00 2.000000e+01 1.000000e+01
         vertex 0.000000e+00 0.000000e+00 0.000000e+00
         vertex 0.000000e+00 0.000000e+00 1.000000e+01
      endloop
   endfacet
   facet normal -1.000000e+00 0.000000e+00 -0.000000e+00
      outer loop
         vertex 0.000000e+00 2.000000e+01 3.500000e+01
         vertex 0.000000e+00 3.518467e+01 3.265348e+01
         vertex 0.000000e+00 0.000000e+00 1.000000e+01
      endloop
   endfacet
   facet normal -1.000000e+00 0.000000e+00 -0.000000e+00
      outer loop
         vertex 0.000000e+00 3.518467e+01 3.265348e+01
         vertex 0.000000e+00 3.573415e+01 3.036474e+01
         vertex 0.000000e+00 0.000000e+00 1.000000e+01
      endloop
   endfacet
   facet normal -1.000000e+00 0.000000e+00 0.000000e+00
      outer loop
         vertex 0.000000e+00 0.000000e+00 1.000000e+01
         vertex 0.000000e+00 3.573415e+01 3.036474e+01
         vertex 0.000000e+00 3.663490e+01 2.819014e+01
      endloop
   endfacet
   facet normal -1.000000e+00 0.000000e+00 0.000000e+00
      outer loop
         vertex 0.000000e+00 0.000000e+00 1.000000e+01
         vertex 0.000000e+00 3.663490e+01 2.819014e+01
         vertex 0.000000e+00 2.000000e+01 1.000000e+01
      endloop
   endfacet
   facet normal -1.000000e+00 0.000000e+00 0.000000e+00
      outer loop
         vertex 0.000000e+00 2.000000e+01 1.000000e+01
         vertex 0.000000e+00 3.663490e+01 2.819014e+01
         vertex 0.000000e+00 3.786474e+01 2.618322e+01
      endloop
   endfacet
   facet normal -1.000000e+00 0.000000e+00 0.000000e+00
      outer loop
         vertex 0.000000e+00 2.000000e+01 1.000000e+01
         vertex 0.000000e+00 3.786474e+01 2.618322e+01
         vertex 0.000000e+00 3.939340e+01 2.439340e+01
      endloop
   endfacet
   facet normal -1.000000e+00 0.000000e+00 0.000000e+00
      outer loop
         vertex 0.000000e+00 1.000000e+02 1.000000e+01
         vertex 0.000000e+00 8.000000e+01 1.000000e+01
         vertex 0.000000e+00 8.000000e+01 3.500000e+01
      endloop
   endfacet
   facet normal -1.000000e+00 0.000000e+00 -0.000000e+00
      outer loop
         vertex 0.000000e+00 8.000000e+01 3.500000e+01
         vertex 0.000000e+00 8.000000e+01 1.000000e+01
         vertex 0.000000e+00 6.426585e+01 3.036474e+01
      endloop
   endfacet
   facet normal -1.000000e+00 0.000000e+00 0.000000e+00
      outer loop
         vertex 0.000000e+00 8.000000e+01 3.500000e+01
         vertex 0.000000e+00 6.426585e+01 3.036474e+01
         vertex 0.000000e+00 6.481533e+01 3.265348e+01
      endloop
   endfacet
   facet normal -1.000000e+00 0.000000e+00 0.000000e+00
      outer loop
         vertex 0.000000e+00 6.060660e+01 2.439340e+01
         vertex 0.000000e+00 6.213525e+01 2.618322e+01
         vertex 0.000000e+00 8.000000e+01 1.000000e+01
      endloop
   endfacet
   facet normal -1.000000e+00 0.000000e+00 0.000000e+00
      outer loop
         vertex 0.000000e+00 8.000000e+01 1.000000e+01
         vertex 0.000000e+00 6.213525e+01 2.618322e+01
         vertex 0.000000e+00 6.336509e+01 2.819014e+01
      endloop
   endfacet
   facet normal -1.000000e+00 0.000000e+00 0.000000e+00
      outer loop
         vertex 0.000000e+00 8.000000e+01 1.000000e+01
         vertex 0.000000e+00 6.336509e+01 2.819014e+01
         vertex 0.000000e+00 6.426585e+01 3.036474e+01
      endloop
   endfacet
   facet normal -1.000000e+00 0.000000e+00 -0.000000e+00
      outer loop
         vertex 0.000000e+00 3.939340e+01 2.439340e+01
         vertex 0.000000e+00 4.118322e+01 2.286475e+01
         vertex 0.000000e+00 2.000000e+01 1.000000e+01
      endloop
   endfacet
   facet normal -1.000000e+00 0.000000e+00 0.000000e+00
      outer loop
         vertex 0.000000e+00 2.000000e+01 1.000000e+01
         vertex 0.000000e+00 4.118322e+01 2.286475e+01
         vertex 0.000000e+00 4.319014e+01 2.163490e+01
      endloop
   endfacet
   facet normal -1.000000e+00 0.000000e+00 0.000000e+00
      outer loop
         vertex 0.000000e+00 2.000000e+01 1.000000e+01
         vertex 0.000000e+00 4.319014e+01 2.163490e+01
         vertex 0.000000e+00 4.536474e+01 2.073415e+01
      endloop
   endfacet
   facet normal -1.000000e+00 0.000000e+00 0.000000e+00
      outer loop
         vertex 0.000000e+00 5.463526e+01 2.073415e+01
         vertex 0.000000e+00 5.680986e+01 2.163490e+01
         vertex 0.000000e+00 8.000000e+01 1.000000e+01
      endloop
   endfacet
   facet normal -1.000000e+00 0.000000e+00 0.000000e+00
      outer loop
         vertex 0.000000e+00 8.000000e+01 1.000000e+01
         vertex 0.000000e+00 5.680986e+01 2.163490e+01
         vertex 0.000000e+00 5.881678e+01 2.286475e+01
      endloop
   endfacet
   facet normal -1.000000e+00 0.000000e+00 0.000000e+00
      outer loop
         vertex 0.000000e+00 8.000000e+01 1.000000e+01
         vertex 0.000000e+00 5.881678e+01 2.286475e+01
         vertex 0.000000e+00 6.060660e+01 2.439340e+01
      endloop
   endfacet
   facet normal -1.000000e+00 0.000000e+00 -0.000000e+00
      outer loop
         vertex 0.000000e+00 4.536474e+01 2.073415e+01
         vertex 0.000000e+00 4.765348e+01 2.018468e+01
         vertex 0.000000e+00 2.000000e+01 1.000000e+01
      endloop
   endfacet
   facet normal -1.000000e+00 0.000000e+00 0.000000e+00
      outer loop
         vertex 0.000000e+00 2.000000e+01 1.000000e+01
         vertex 0.000000e+00 4.765348e+01 2.018468e+01
         vertex 0.000000e+00 5.000000e+01 2.000000e+01
      endloop
   endfacet
   facet normal -1.000000e+00 0.000000e+00 0.000000e+00
      outer loop
         vertex 0.000000e+00 2.000000e+01 1.000000e+01
         vertex 0.000000e+00 5.000000e+01 2.000000e+01
         vertex 0.000000e+00 8.000000e+01 1.000000e+01
      endloop
   endfacet
   facet normal -1.000000e+00 0.000000e+00 0.000000e+00
      outer loop
         vertex 0.000000e+00 8.000000e+01 1.000000e+01
         vertex 0.000000e+00 5.000000e+01 2.000000e+01
         vertex 0.000000e+00 5.234652e+01 2.018468e+01
      endloop
   endfacet
   facet normal -1.000000e+00 0.000000e+00 0.000000e+00
      outer loop
         vertex 0.000000e+00 8.000000e+01 1.000000e+01
         vertex 0.000000e+00 5.234652e+01 2.018468e+01
         vertex 0.000000e+00 5.463526e+01 2.073415e+01
      endloop
   endfacet
   facet normal 1.000000e+00 0.000000e+00 0.000000e+00
      outer loop
         vertex 5.000000e+01 2.000000e+01 3.500000e+01
         vertex 5.000000e+01 0.000000e+00 1.000000e+01
         vertex 5.000000e+01 2.000000e+01 1.000000e+01
      endloop
   endfacet
   facet normal 1.000000e+00 0.000000e+00 0.000000e+00
      outer loop
         vertex 5.000000e+01 2.000000e+01 1.000000e+01
         vertex 5.000000e+01 0.000000e+00 1.000000e+01
         vertex 5.000000e+01 0.000000e+00 0.000000e+00
      endloop
   endfacet
   facet normal 1.000000e+00 0.000000e+00 0.000000e+00
      outer loop
         vertex 5.000000e+01 2.000000e+01 1.000000e+01
         vertex 5.000000e+01 0.000000e+00 0.000000e+00
         vertex 5.000000e+01 2.000000e+01 2.653787e-15
      endloop
   endfacet
   facet normal 1.000000e+00 -0.000000e+00 0.000000e+00
      outer loop
         vertex 5.000000e+01 8.000000e+01 2.653787e-15
         vertex 5.000000e+01 1.000000e+02 0.000000e+00
         vertex 5.000000e+01 8.000000e+01 1.000000e+01
      endloop
   endfacet
   facet normal 1.000000e+00 -0.000000e+00 0.000000e+00
      outer loop
         vertex 5.000000e+01 8.000000e+01 1.000000e+01
         vertex 5.000000e+01 1.000000e+02 0.000000e+00
         vertex 5.000000e+01 1.000000e+02 1.000000e+01
      endloop
   endfacet
   facet normal 1.000000e+00 0.000000e+00 0.000000e+00
      outer loop
         vertex 5.000000e+01 8.000000e+01 3.500000e+01
         vertex 5.000000e+01 6.500000e+01 3.500000e+01
         vertex 5.000000e+01 6.481533e+01 3.265348e+01
      endloop
   endfacet
   facet normal 1.000000e+00 0.000000e+00 0.000000e+00
      outer loop
         vertex 5.000000e+01 8.000000e+01 3.500000e+01
         vertex 5.000000e+01 6.481533e+01 3.265348e+01
         vertex 5.000000e+01 1.000000e+02 1.000000e+01
      endloop
   endfacet
   facet normal 1.000000e+00 0.000000e+00 0.000000e+00
      outer loop
         vertex 5.000000e+01 3.786474e+01 2.618322e+01
         vertex 5.000000e+01 3.663490e+01 2.819014e+01
         vertex 5.000000e+01 2.000000e+01 1.000000e+01
      endloop
   endfacet
   facet normal 1.000000e+00 0.000000e+00 0.000000e+00
      outer loop
         vertex 5.000000e+01 2.000000e+01 1.000000e+01
         vertex 5.000000e+01 3.663490e+01 2.819014e+01
         vertex 5.000000e+01 3.573415e+01 3.036474e+01
      endloop
   endfacet
   facet normal 1.000000e+00 0.000000e+00 0.000000e+00
      outer loop
         vertex 5.000000e+01 2.000000e+01 1.000000e+01
         vertex 5.000000e+01 3.573415e+01 3.036474e+01
         vertex 5.000000e+01 2.000000e+01 3.500000e+01
      endloop
   endfacet
   facet normal 1.000000e+00 0.000000e+00 0.000000e+00
      outer loop
         vertex 5.000000e+01 2.000000e+01 3.500000e+01
         vertex 5.000000e+01 3.573415e+01 3.036474e+01
         vertex 5.000000e+01 3.518467e+01 3.265348e+01
      endloop
   endfacet
   facet normal 1.000000e+00 -0.000000e+00 0.000000e+00
      outer loop
         vertex 5.000000e+01 2.000000e+01 3.500000e+01
         vertex 5.000000e+01 3.518467e+01 3.265348e+01
         vertex 5.000000e+01 3.500000e+01 3.500000e+01
      endloop
   endfacet
   facet normal 1.000000e+00 0.000000e+00 0.000000e+00
      outer loop
         vertex 5.000000e+01 4.536474e+01 2.073415e+01
         vertex 5.000000e+01 4.319014e+01 2.163490e+01
         vertex 5.000000e+01 2.000000e+01 1.000000e+01
      endloop
   endfacet
   facet normal 1.000000e+00 0.000000e+00 0.000000e+00
      outer loop
         vertex 5.000000e+01 6.481533e+01 3.265348e+01
         vertex 5.000000e+01 6.426585e+01 3.036474e+01
         vertex 5.000000e+01 1.000000e+02 1.000000e+01
      endloop
   endfacet
   facet normal 1.000000e+00 0.000000e+00 0.000000e+00
      outer loop
         vertex 5.000000e+01 1.000000e+02 1.000000e+01
         vertex 5.000000e+01 6.426585e+01 3.036474e+01
         vertex 5.000000e+01 6.336509e+01 2.819014e+01
      endloop
   endfacet
   facet normal 1.000000e+00 0.000000e+00 0.000000e+00
      outer loop
         vertex 5.000000e+01 1.000000e+02 1.000000e+01
         vertex 5.000000e+01 6.336509e+01 2.819014e+01
         vertex 5.000000e+01 8.000000e+01 1.000000e+01
      endloop
   endfacet
   facet normal 1.000000e+00 0.000000e+00 0.000000e+00
      outer loop
         vertex 5.000000e+01 8.000000e+01 1.000000e+01
         vertex 5.000000e+01 6.336509e+01 2.819014e+01
         vertex 5.000000e+01 6.213525e+01 2.618322e+01
      endloop
   endfacet
   facet normal 1.000000e+00 0.000000e+00 0.000000e+00
      outer loop
         vertex 5.000000e+01 8.000000e+01 1.000000e+01
         vertex 5.000000e+01 6.213525e+01 2.618322e+01
         vertex 5.000000e+01 6.060660e+01 2.439340e+01
      endloop
   endfacet
   facet normal 1.000000e+00 0.000000e+00 0.000000e+00
      outer loop
         vertex 5.000000e+01 6.060660e+01 2.439340e+01
         vertex 5.000000e+01 5.881678e+01 2.286475e+01
         vertex 5.000000e+01 8.000000e+01 1.000000e+01
      endloop
   endfacet
   facet normal 1.000000e+00 0.000000e+00 0.000000e+00
      outer loop
         vertex 5.000000e+01 8.000000e+01 1.000000e+01
         vertex 5.000000e+01 5.881678e+01 2.286475e+01
         vertex 5.000000e+01 5.680986e+01 2.163490e+01
      endloop
   endfacet
   facet normal 1.000000e+00 0.000000e+00 0.000000e+00
      outer loop
         vertex 5.000000e+01 8.000000e+01 1.000000e+01
         vertex 5.000000e+01 5.680986e+01 2.163490e+01
         vertex 5.000000e+01 5.463526e+01 2.073415e+01
      endloop
   endfacet
   facet normal 1.000000e+00 0.000000e+00 0.000000e+00
      outer loop
         vertex 5.000000e+01 4.319014e+01 2.163490e+01
         vertex 5.000000e+01 4.118322e+01 2.286475e+01
         vertex 5.000000e+01 2.000000e+01 1.000000e+01
      endloop
   endfacet
   facet normal 1.000000e+00 0.000000e+00 0.000000e+00
      outer loop
         vertex 5.000000e+01 2.000000e+01 1.000000e+01
         vertex 5.000000e+01 4.118322e+01 2.286475e+01
         vertex 5.000000e+01 3.939340e+01 2.439340e+01
      endloop
   endfacet
   facet normal 1.000000e+00 0.000000e+00 0.000000e+00
      outer loop
         vertex 5.000000e+01 2.000000e+01 1.000000e+01
         vertex 5.000000e+01 3.939340e+01 2.439340e+01
         vertex 5.000000e+01 3.786474e+01 2.618322e+01
      endloop
   endfacet
   facet normal 1.000000e+00 0.000000e+00 0.000000e+00
      outer loop
         vertex 5.000000e+01 5.463526e+01 2.073415e+01
         vertex 5.000000e+01 5.234652e+01 2.018468e+01
         vertex 5.000000e+01 8.000000e+01 1.000000e+01
      endloop
   endfacet
   facet normal 1.000000e+00 0.000000e+00 0.000000e+00
      outer loop
         vertex 5.000000e+01 8.000000e+01 1.000000e+01
         vertex 5.000000e+01 5.234652e+01 2.018468e+01
         vertex 5.000000e+01 5.000000e+01 2.000000e+01
      endloop
   endfacet
   facet normal 1.000000e+00 0.000000e+00 0.000000e+00
      outer loop
         vertex 5.000000e+01 8.000000e+01 1.000000e+01
         vertex 5.000000e+01 5.000000e+01 2.000000e+01
         vertex 5.000000e+01 2.000000e+01 1.000000e+01
      endloop
   endfacet
   facet normal 1.000000e+00 0.000000e+00 0.000000e+00
      outer loop
         vertex 5.000000e+01 2.000000e+01 1.000000e+01
         vertex 5.000000e+01 5.000000e+01 2.000000e+01
         vertex 5.000000e+01 4.765348e+01 2.018468e+01
      endloop
   endfacet
   facet normal 1.000000e+00 0.000000e+00 0.000000e+00
      outer loop
         vertex 5.000000e+01 2.000000e+01 1.000000e+01
         vertex 5.000000e+01 4.765348e+01 2.018468e+01
         vertex 5.000000e+01 4.536474e+01 2.073415e+01
      endloop
   endfacet
endsolid