solid 6
   facet normal 0.000000e+00 -1.000000e+00 0.000000e+00
      outer loop
         vertex 0.000000e+00 0.000000e+00 1.000000e+01
         vertex 0.000000e+00 0.000000e+00 0.000000e+00
         vertex 1.250000e+01 0.000000e+00 1.000000e+01
      endloop
   endfacet
   facet normal 0.000000e+00 -1.000000e+00 -0.000000e+00
      outer loop
         vertex 1.250000e+01 0.000000e+00 1.000000e+01
         vertex 0.000000e+00 0.000000e+00 0.000000e+00
         vertex 1.250000e+01 0.000000e+00 6.123234e-15
      endloop
   endfacet
   facet normal 0.000000e+00 1.000000e+00 0.000000e+00
      outer loop
         vertex 5.000000e+01 1.000000e+02 1.000000e+01
         vertex 5.000000e+01 1.000000e+02 0.000000e+00
         vertex 3.750000e+01 1.000000e+02 1.000000e+01
      endloop
   endfacet
   facet normal 0.000000e+00 1.000000e+00 0.000000e+00
      outer loop
         vertex 3.750000e+01 1.000000e+02 1.000000e+01
         vertex 5.000000e+01 1.000000e+02 0.000000e+00
         vertex 3.750000e+01 1.000000e+02 0.000000e+00
      endloop
   endfacet
   facet normal 0.000000e+00 1.000000e+00 0.000000e+00
      outer loop
         vertex 0.000000e+00 1.000000e+02 0.000000e+00
         vertex 0.000000e+00 1.000000e+02 1.000000e+01
         vertex 1.250000e+01 1.000000e+02 6.123234e-15
      endloop
   endfacet
   facet normal 0.000000e+00 1.000000e+00 -0.000000e+00
      outer loop
         vertex 1.250000e+01 1.000000e+02 6.123234e-15
         vertex 0.000000e+00 1.000000e+02 1.000000e+01
         vertex 1.250000e+01 1.000000e+02 1.000000e+01
      endloop
   endfacet
   facet normal 0.000000e+00 0.000000e+00 1.000000e+00
      outer loop
         vertex 4.250000e+01 6.500000e+01 3.500000e+01
         vertex 5.000000e+01 6.500000e+01 3.500000e+01
         vertex 4.250000e+01 7.500000e+01 3.500000e+01
      endloop
   endfacet
   facet normal -0.000000e+00 0.000000e+00 1.000000e+00
      outer loop
         vertex 4.250000e+01 7.500000e+01 3.500000e+01
         vertex 5.000000e+01 6.500000e+01 3.500000e+01
         vertex 5.000000e+01 8.000000e+01 3.500000e+01
      endloop
   endfacet
   facet normal 0.000000e+00 -0.000000e+00 1.000000e+00
      outer loop
         vertex 4.250000e+01 7.500000e+01 3.500000e+01
         vertex 5.000000e+01 8.000000e+01 3.500000e+01
         vertex 7.500000e+00 7.500000e+01 3.500000e+01
      endloop
   endfacet
   facet normal 0.000000e+00 -0.000000e+00 1.000000e+00
      outer loop
         vertex 7.500000e+00 7.500000e+01 3.500000e+01
         vertex 5.000000e+01 8.000000e+01 3.500000e+01
         vertex 0.000000e+00 8.000000e+01 3.500000e+01
      endloop
   endfacet
   facet normal 0.000000e+00 0.000000e+00 1.000000e+00
      outer loop
         vertex 7.500000e+00 7.500000e+01 3.500000e+01
         vertex 0.000000e+00 8.000000e+01 3.500000e+01
         vertex 7.500000e+00 6.500000e+01 3.500000e+01
      endloop
   endfacet
   facet normal 0.000000e+00 0.000000e+00 1.000000e+00
      outer loop
         vertex 7.500000e+00 6.500000e+01 3.500000e+01
         vertex 0.000000e+00 8.000000e+01 3.500000e+01
         vertex 0.000000e+00 6.500000e+01 3.500000e+01
      endloop
   endfacet
   facet normal 0.000000e+00 0.000000e+00 1.000000e+00
      outer loop
         vertex 7.500000e+00 3.500000e+01 3.500000e+01
         vertex 0.000000e+00 3.500000e+01 3.500000e+01
         vertex 7.500000e+00 2.500000e+01 3.500000e+01
      endloop
   endfacet
   facet normal 0.000000e+00 0.000000e+00 1.000000e+00
      outer loop
         vertex 7.500000e+00 2.500000e+01 3.500000e+01
         vertex 0.000000e+00 3.500000e+01 3.500000e+01
         vertex 0.000000e+00 2.000000e+01 3.500000e+01
      endloop
   endfacet
   facet normal -0.000000e+00 0.000000e+00 1.000000e+00
      outer loop
         vertex 7.500000e+00 2.500000e+01 3.500000e+01
         vertex 0.000000e+00 2.000000e+01 3.500000e+01
         vertex 4.250000e+01 2.500000e+01 3.500000e+01
      endloop
   endfacet
   facet normal 0.000000e+00 0.000000e+00 1.000000e+00
      outer loop
         vertex 4.250000e+01 2.500000e+01 3.500000e+01
         vertex 0.000000e+00 2.000000e+01 3.500000e+01
         vertex 5.000000e+01 2.000000e+01 3.500000e+01
      endloop
   endfacet
   facet normal -0.000000e+00 0.000000e+00 1.000000e+00
      outer loop
         vertex 4.250000e+01 2.500000e+01 3.500000e+01
         vertex 5.000000e+01 2.000000e+01 3.500000e+01
         vertex 4.250000e+01 3.500000e+01 3.500000e+01
      endloop
   endfacet
   facet normal -0.000000e+00 0.000000e+00 1.000000e+00
      outer loop
         vertex 4.250000e+01 3.500000e+01 3.500000e+01
         vertex 5.000000e+01 2.000000e+01 3.500000e+01
         vertex 5.000000e+01 3.500000e+01 3.500000e+01
      endloop
   endfacet
   facet normal 0.000000e+00 -1.000000e+00 0.000000e+00
      outer loop
         vertex 5.000000e+01 0.000000e+00 0.000000e+00
         vertex 5.000000e+01 0.000000e+00 1.000000e+01
         vertex 3.750000e+01 0.000000e+00 6.123234e-15
      endloop
   endfacet
   facet normal 0.000000e+00 -1.000000e+00 0.000000e+00
      outer loop
         vertex 3.750000e+01 0.000000e+00 6.123234e-15
         vertex 5.000000e+01 0.000000e+00 1.000000e+01
         vertex 3.750000e+01 0.000000e+00 1.000000e+01
      endloop
   endfacet
endsolid