solid 7
   facet normal 0.000000e+00 -1.000000e+00 0.000000e+00
      outer loop
         vertex 1.250000e+01 8.000000e+00 6.938894e-15
         vertex 3.750000e+01 8.000000e+00 6.938894e-15
         vertex 1.250000e+01 8.000000e+00 2.000000e+01
      endloop
   endfacet
   facet normal 0.000000e+00 -1.000000e+00 0.000000e+00
      outer loop
         vertex 1.250000e+01 8.000000e+00 2.000000e+01
         vertex 3.750000e+01 8.000000e+00 6.938894e-15
         vertex 3.750000e+01 8.000000e+00 2.000000e+01
      endloop
   endfacet
   facet normal 0.000000e+00 1.000000e+00 -0.000000e+00
      outer loop
         vertex 3.750000e+01 9.200000e+01 6.938894e-15
         vertex 1.250000e+01 9.200000e+01 6.938894e-15
         vertex 3.750000e+01 9.200000e+01 2.000000e+01
      endloop
   endfacet
   facet normal 0.000000e+00 1.000000e+00 0.000000e+00
      outer loop
         vertex 3.750000e+01 9.200000e+01 2.000000e+01
         vertex 1.250000e+01 9.200000e+01 6.938894e-15
         vertex 1.250000e+01 9.200000e+01 2.000000e+01
      endloop
   endfacet
endsolid