solid 10
   facet normal -0.000000e+00 1.000000e+00 0.000000e+00
      outer loop
         vertex 1.000000e+01 1.280000e+02 1.500000e+01
         vertex 6.000000e+01 1.280000e+02 1.500000e+01
         vertex 1.000000e+01 1.280000e+02 0.000000e+00
      endloop
   endfacet
   facet normal 0.000000e+00 1.000000e+00 0.000000e+00
      outer loop
         vertex 1.000000e+01 1.280000e+02 0.000000e+00
         vertex 6.000000e+01 1.280000e+02 1.500000e+01
         vertex 6.000000e+01 1.280000e+02 0.000000e+00
      endloop
   endfacet
   facet normal -4.625929e-16 -1.000000e+00 -0.000000e+00
      outer loop
         vertex 6.000000e+01 -2.312965e-14 1.500000e+01
         vertex 1.000000e+01 0.000000e+00 1.500000e+01
         vertex 6.000000e+01 -2.312965e-14 0.000000e+00
      endloop
   endfacet
   facet normal -4.625929e-16 -1.000000e+00 0.000000e+00
      outer loop
         vertex 6.000000e+01 -2.312965e-14 0.000000e+00
         vertex 1.000000e+01 0.000000e+00 1.500000e+01
         vertex 1.000000e+01 0.000000e+00 0.000000e+00
      endloop
   endfacet
endsolid