solid 2
   facet normal 0.000000e+00 0.000000e+00 1.000000e+00
      outer loop
         vertex 3.000000e+01 2.450000e+01 9.000000e+00
         vertex 2.800000e+01 2.250000e+01 9.000000e+00
         vertex 7.300000e+01 2.250000e+01 9.000000e+00
      endloop
   endfacet
   facet normal 0.000000e+00 0.000000e+00 1.000000e+00
      outer loop
         vertex 7.300000e+01 5.250000e+01 9.000000e+00
         vertex 2.800000e+01 5.250000e+01 9.000000e+00
         vertex 3.000000e+01 5.050000e+01 9.000000e+00
      endloop
   endfacet
   facet normal -0.000000e+00 0.000000e+00 1.000000e+00
      outer loop
         vertex 7.095442e+01 3.802095e+01 9.000000e+00
         vertex 7.100000e+01 3.750000e+01 9.000000e+00
         vertex 7.500000e+01 5.050000e+01 9.000000e+00
      endloop
   endfacet
   facet normal 0.000000e+00 0.000000e+00 1.000000e+00
      outer loop
         vertex 5.297394e+01 3.468092e+01 9.000000e+00
         vertex 4.295442e+01 3.697906e+01 9.000000e+00
         vertex 4.281908e+01 3.647394e+01 9.000000e+00
      endloop
   endfacet
   facet normal 0.000000e+00 0.000000e+00 1.000000e+00
      outer loop
         vertex 7.081908e+01 3.647394e+01 9.000000e+00
         vertex 7.059807e+01 3.600000e+01 9.000000e+00
         vertex 7.500000e+01 2.450000e+01 9.000000e+00
      endloop
   endfacet
   facet normal 0.000000e+00 0.000000e+00 1.000000e+00
      outer loop
         vertex 7.500000e+01 5.050000e+01 9.000000e+00
         vertex 7.100000e+01 3.750000e+01 9.000000e+00
         vertex 7.500000e+01 2.450000e+01 9.000000e+00
      endloop
   endfacet
   facet normal 0.000000e+00 0.000000e+00 1.000000e+00
      outer loop
         vertex 7.500000e+01 2.450000e+01 9.000000e+00
         vertex 7.100000e+01 3.750000e+01 9.000000e+00
         vertex 7.095442e+01 3.697906e+01 9.000000e+00
      endloop
   endfacet
   facet normal 0.000000e+00 0.000000e+00 1.000000e+00
      outer loop
         vertex 7.500000e+01 2.450000e+01 9.000000e+00
         vertex 7.095442e+01 3.697906e+01 9.000000e+00
         vertex 7.081908e+01 3.647394e+01 9.000000e+00
      endloop
   endfacet
   facet normal 0.000000e+00 0.000000e+00 1.000000e+00
      outer loop
         vertex 6.950000e+01 3.490192e+01 9.000000e+00
         vertex 6.902606e+01 3.468092e+01 9.000000e+00
         vertex 7.500000e+01 2.450000e+01 9.000000e+00
      endloop
   endfacet
   facet normal 0.000000e+00 0.000000e+00 1.000000e+00
      outer loop
         vertex 6.504558e+01 3.697906e+01 9.000000e+00
         vertex 6.500000e+01 3.750000e+01 9.000000e+00
         vertex 5.502606e+01 4.031908e+01 9.000000e+00
      endloop
   endfacet
   facet normal -0.000000e+00 0.000000e+00 1.000000e+00
      outer loop
         vertex 6.992836e+01 3.979813e+01 9.000000e+00
         vertex 7.029814e+01 3.942836e+01 9.000000e+00
         vertex 7.500000e+01 5.050000e+01 9.000000e+00
      endloop
   endfacet
   facet normal 0.000000e+00 0.000000e+00 1.000000e+00
      outer loop
         vertex 6.650000e+01 3.490192e+01 9.000000e+00
         vertex 5.550000e+01 4.009807e+01 9.000000e+00
         vertex 5.592836e+01 3.979813e+01 9.000000e+00
      endloop
   endfacet
   facet normal -0.000000e+00 0.000000e+00 1.000000e+00
      outer loop
         vertex 7.029814e+01 3.942836e+01 9.000000e+00
         vertex 7.059807e+01 3.900000e+01 9.000000e+00
         vertex 7.500000e+01 5.050000e+01 9.000000e+00
      endloop
   endfacet
   facet normal 0.000000e+00 0.000000e+00 1.000000e+00
      outer loop
         vertex 7.500000e+01 5.050000e+01 9.000000e+00
         vertex 7.059807e+01 3.900000e+01 9.000000e+00
         vertex 7.081908e+01 3.852606e+01 9.000000e+00
      endloop
   endfacet
   facet normal 0.000000e+00 0.000000e+00 1.000000e+00
      outer loop
         vertex 7.500000e+01 5.050000e+01 9.000000e+00
         vertex 7.081908e+01 3.852606e+01 9.000000e+00
         vertex 7.095442e+01 3.802095e+01 9.000000e+00
      endloop
   endfacet
   facet normal 0.000000e+00 0.000000e+00 1.000000e+00
      outer loop
         vertex 7.059807e+01 3.600000e+01 9.000000e+00
         vertex 7.029814e+01 3.557164e+01 9.000000e+00
         vertex 7.500000e+01 2.450000e+01 9.000000e+00
      endloop
   endfacet
   facet normal 0.000000e+00 0.000000e+00 1.000000e+00
      outer loop
         vertex 7.500000e+01 2.450000e+01 9.000000e+00
         vertex 7.029814e+01 3.557164e+01 9.000000e+00
         vertex 6.992836e+01 3.520187e+01 9.000000e+00
      endloop
   endfacet
   facet normal 0.000000e+00 0.000000e+00 1.000000e+00
      outer loop
         vertex 7.500000e+01 2.450000e+01 9.000000e+00
         vertex 6.992836e+01 3.520187e+01 9.000000e+00
         vertex 6.950000e+01 3.490192e+01 9.000000e+00
      endloop
   endfacet
   facet normal 0.000000e+00 0.000000e+00 1.000000e+00
      outer loop
         vertex 6.902606e+01 3.468092e+01 9.000000e+00
         vertex 6.852094e+01 3.454558e+01 9.000000e+00
         vertex 7.500000e+01 2.450000e+01 9.000000e+00
      endloop
   endfacet
   facet normal 0.000000e+00 0.000000e+00 1.000000e+00
      outer loop
         vertex 7.500000e+01 2.450000e+01 9.000000e+00
         vertex 6.852094e+01 3.454558e+01 9.000000e+00
         vertex 6.800000e+01 3.450000e+01 9.000000e+00
      endloop
   endfacet
   facet normal 0.000000e+00 0.000000e+00 1.000000e+00
      outer loop
         vertex 7.500000e+01 2.450000e+01 9.000000e+00
         vertex 6.800000e+01 3.450000e+01 9.000000e+00
         vertex 6.747906e+01 3.454558e+01 9.000000e+00
      endloop
   endfacet
   facet normal -0.000000e+00 0.000000e+00 1.000000e+00
      outer loop
         vertex 5.502606e+01 3.468092e+01 9.000000e+00
         vertex 7.500000e+01 2.450000e+01 9.000000e+00
         vertex 5.550000e+01 3.490192e+01 9.000000e+00
      endloop
   endfacet
   facet normal -0.000000e+00 0.000000e+00 1.000000e+00
      outer loop
         vertex 5.550000e+01 3.490192e+01 9.000000e+00
         vertex 7.500000e+01 2.450000e+01 9.000000e+00
         vertex 5.592836e+01 3.520187e+01 9.000000e+00
      endloop
   endfacet
   facet normal 0.000000e+00 0.000000e+00 1.000000e+00
      outer loop
         vertex 5.502606e+01 3.468092e+01 9.000000e+00
         vertex 5.452095e+01 3.454558e+01 9.000000e+00
         vertex 7.500000e+01 2.450000e+01 9.000000e+00
      endloop
   endfacet
   facet normal 0.000000e+00 0.000000e+00 1.000000e+00
      outer loop
         vertex 7.500000e+01 2.450000e+01 9.000000e+00
         vertex 5.452095e+01 3.454558e+01 9.000000e+00
         vertex 5.400000e+01 3.450000e+01 9.000000e+00
      endloop
   endfacet
   facet normal 0.000000e+00 0.000000e+00 1.000000e+00
      outer loop
         vertex 7.500000e+01 2.450000e+01 9.000000e+00
         vertex 5.400000e+01 3.450000e+01 9.000000e+00
         vertex 5.347906e+01 3.454558e+01 9.000000e+00
      endloop
   endfacet
   facet normal 0.000000e+00 0.000000e+00 1.000000e+00
      outer loop
         vertex 5.592836e+01 3.979813e+01 9.000000e+00
         vertex 5.629813e+01 3.942836e+01 9.000000e+00
         vertex 6.650000e+01 3.490192e+01 9.000000e+00
      endloop
   endfacet
   facet normal 0.000000e+00 0.000000e+00 1.000000e+00
      outer loop
         vertex 6.650000e+01 3.490192e+01 9.000000e+00
         vertex 5.629813e+01 3.942836e+01 9.000000e+00
         vertex 5.659807e+01 3.900000e+01 9.000000e+00
      endloop
   endfacet
   facet normal 0.000000e+00 0.000000e+00 1.000000e+00
      outer loop
         vertex 6.650000e+01 3.490192e+01 9.000000e+00
         vertex 5.659807e+01 3.900000e+01 9.000000e+00
         vertex 5.681908e+01 3.852606e+01 9.000000e+00
      endloop
   endfacet
   facet normal 0.000000e+00 0.000000e+00 1.000000e+00
      outer loop
         vertex 6.504558e+01 3.697906e+01 9.000000e+00
         vertex 5.502606e+01 4.031908e+01 9.000000e+00
         vertex 6.518092e+01 3.647394e+01 9.000000e+00
      endloop
   endfacet
   facet normal 0.000000e+00 0.000000e+00 1.000000e+00
      outer loop
         vertex 5.347906e+01 3.454558e+01 9.000000e+00
         vertex 5.297394e+01 3.468092e+01 9.000000e+00
         vertex 7.500000e+01 2.450000e+01 9.000000e+00
      endloop
   endfacet
   facet normal 0.000000e+00 0.000000e+00 1.000000e+00
      outer loop
         vertex 7.500000e+01 2.450000e+01 9.000000e+00
         vertex 5.297394e+01 3.468092e+01 9.000000e+00
         vertex 4.281908e+01 3.647394e+01 9.000000e+00
      endloop
   endfacet
   facet normal 0.000000e+00 0.000000e+00 1.000000e+00
      outer loop
         vertex 7.500000e+01 2.450000e+01 9.000000e+00
         vertex 4.281908e+01 3.647394e+01 9.000000e+00
         vertex 7.300000e+01 2.250000e+01 9.000000e+00
      endloop
   endfacet
   facet normal 0.000000e+00 0.000000e+00 1.000000e+00
      outer loop
         vertex 6.697394e+01 3.468092e+01 9.000000e+00
         vertex 5.681908e+01 3.647394e+01 9.000000e+00
         vertex 6.747906e+01 3.454558e+01 9.000000e+00
      endloop
   endfacet
   facet normal 0.000000e+00 0.000000e+00 1.000000e+00
      outer loop
         vertex 6.747906e+01 3.454558e+01 9.000000e+00
         vertex 5.681908e+01 3.647394e+01 9.000000e+00
         vertex 5.659807e+01 3.600000e+01 9.000000e+00
      endloop
   endfacet
   facet normal 0.000000e+00 0.000000e+00 1.000000e+00
      outer loop
         vertex 6.747906e+01 3.454558e+01 9.000000e+00
         vertex 5.659807e+01 3.600000e+01 9.000000e+00
         vertex 7.500000e+01 2.450000e+01 9.000000e+00
      endloop
   endfacet
   facet normal 0.000000e+00 0.000000e+00 1.000000e+00
      outer loop
         vertex 7.500000e+01 2.450000e+01 9.000000e+00
         vertex 5.659807e+01 3.600000e+01 9.000000e+00
         vertex 5.629813e+01 3.557164e+01 9.000000e+00
      endloop
   endfacet
   facet normal 0.000000e+00 0.000000e+00 1.000000e+00
      outer loop
         vertex 7.500000e+01 2.450000e+01 9.000000e+00
         vertex 5.629813e+01 3.557164e+01 9.000000e+00
         vertex 5.592836e+01 3.520187e+01 9.000000e+00
      endloop
   endfacet
   facet normal 0.000000e+00 0.000000e+00 1.000000e+00
      outer loop
         vertex 5.681908e+01 3.852606e+01 9.000000e+00
         vertex 5.695442e+01 3.802095e+01 9.000000e+00
         vertex 6.650000e+01 3.490192e+01 9.000000e+00
      endloop
   endfacet
   facet normal 0.000000e+00 0.000000e+00 1.000000e+00
      outer loop
         vertex 6.650000e+01 3.490192e+01 9.000000e+00
         vertex 5.695442e+01 3.802095e+01 9.000000e+00
         vertex 5.700000e+01 3.750000e+01 9.000000e+00
      endloop
   endfacet
   facet normal 0.000000e+00 0.000000e+00 1.000000e+00
      outer loop
         vertex 6.650000e+01 3.490192e+01 9.000000e+00
         vertex 5.700000e+01 3.750000e+01 9.000000e+00
         vertex 6.697394e+01 3.468092e+01 9.000000e+00
      endloop
   endfacet
   facet normal 0.000000e+00 0.000000e+00 1.000000e+00
      outer loop
         vertex 6.697394e+01 3.468092e+01 9.000000e+00
         vertex 5.700000e+01 3.750000e+01 9.000000e+00
         vertex 5.695442e+01 3.697906e+01 9.000000e+00
      endloop
   endfacet
   facet normal 0.000000e+00 0.000000e+00 1.000000e+00
      outer loop
         vertex 6.697394e+01 3.468092e+01 9.000000e+00
         vertex 5.695442e+01 3.697906e+01 9.000000e+00
         vertex 5.681908e+01 3.647394e+01 9.000000e+00
      endloop
   endfacet
   facet normal 0.000000e+00 0.000000e+00 1.000000e+00
      outer loop
         vertex 6.650000e+01 3.490192e+01 9.000000e+00
         vertex 6.607164e+01 3.520187e+01 9.000000e+00
         vertex 5.550000e+01 4.009807e+01 9.000000e+00
      endloop
   endfacet
   facet normal 0.000000e+00 0.000000e+00 1.000000e+00
      outer loop
         vertex 5.550000e+01 4.009807e+01 9.000000e+00
         vertex 6.607164e+01 3.520187e+01 9.000000e+00
         vertex 6.570186e+01 3.557164e+01 9.000000e+00
      endloop
   endfacet
   facet normal -0.000000e+00 -0.000000e+00 1.000000e+00
      outer loop
         vertex 5.550000e+01 4.009807e+01 9.000000e+00
         vertex 6.570186e+01 3.557164e+01 9.000000e+00
         vertex 5.502606e+01 4.031908e+01 9.000000e+00
      endloop
   endfacet
   facet normal 0.000000e+00 0.000000e+00 1.000000e+00
      outer loop
         vertex 5.502606e+01 4.031908e+01 9.000000e+00
         vertex 6.570186e+01 3.557164e+01 9.000000e+00
         vertex 6.540193e+01 3.600000e+01 9.000000e+00
      endloop
   endfacet
   facet normal 0.000000e+00 0.000000e+00 1.000000e+00
      outer loop
         vertex 5.502606e+01 4.031908e+01 9.000000e+00
         vertex 6.540193e+01 3.600000e+01 9.000000e+00
         vertex 6.518092e+01 3.647394e+01 9.000000e+00
      endloop
   endfacet
   facet normal 0.000000e+00 0.000000e+00 1.000000e+00
      outer loop
         vertex 4.000000e+01 3.450000e+01 9.000000e+00
         vertex 3.947905e+01 3.454558e+01 9.000000e+00
         vertex 3.000000e+01 2.450000e+01 9.000000e+00
      endloop
   endfacet
   facet normal 0.000000e+00 0.000000e+00 1.000000e+00
      outer loop
         vertex 7.300000e+01 5.250000e+01 9.000000e+00
         vertex 6.747906e+01 4.045442e+01 9.000000e+00
         vertex 6.800000e+01 4.050000e+01 9.000000e+00
      endloop
   endfacet
   facet normal 0.000000e+00 0.000000e+00 1.000000e+00
      outer loop
         vertex 3.718092e+01 3.647394e+01 9.000000e+00
         vertex 3.704558e+01 3.697906e+01 9.000000e+00
         vertex 3.000000e+01 2.450000e+01 9.000000e+00
      endloop
   endfacet
   facet normal 0.000000e+00 -0.000000e+00 1.000000e+00
      outer loop
         vertex 6.570186e+01 3.942836e+01 9.000000e+00
         vertex 6.607164e+01 3.979813e+01 9.000000e+00
         vertex 3.000000e+01 5.050000e+01 9.000000e+00
      endloop
   endfacet
   facet normal 0.000000e+00 0.000000e+00 1.000000e+00
      outer loop
         vertex 3.000000e+01 5.050000e+01 9.000000e+00
         vertex 6.607164e+01 3.979813e+01 9.000000e+00
         vertex 6.650000e+01 4.009807e+01 9.000000e+00
      endloop
   endfacet
   facet normal -0.000000e+00 0.000000e+00 1.000000e+00
      outer loop
         vertex 3.000000e+01 5.050000e+01 9.000000e+00
         vertex 6.650000e+01 4.009807e+01 9.000000e+00
         vertex 7.300000e+01 5.250000e+01 9.000000e+00
      endloop
   endfacet
   facet normal 0.000000e+00 0.000000e+00 1.000000e+00
      outer loop
         vertex 7.300000e+01 5.250000e+01 9.000000e+00
         vertex 6.650000e+01 4.009807e+01 9.000000e+00
         vertex 6.697394e+01 4.031908e+01 9.000000e+00
      endloop
   endfacet
   facet normal 0.000000e+00 0.000000e+00 1.000000e+00
      outer loop
         vertex 7.300000e+01 5.250000e+01 9.000000e+00
         vertex 6.697394e+01 4.031908e+01 9.000000e+00
         vertex 6.747906e+01 4.045442e+01 9.000000e+00
      endloop
   endfacet
   facet normal 0.000000e+00 0.000000e+00 1.000000e+00
      outer loop
         vertex 4.281908e+01 3.647394e+01 9.000000e+00
         vertex 4.259808e+01 3.600000e+01 9.000000e+00
         vertex 7.300000e+01 2.250000e+01 9.000000e+00
      endloop
   endfacet
   facet normal 0.000000e+00 0.000000e+00 1.000000e+00
      outer loop
         vertex 7.300000e+01 2.250000e+01 9.000000e+00
         vertex 4.259808e+01 3.600000e+01 9.000000e+00
         vertex 4.229813e+01 3.557164e+01 9.000000e+00
      endloop
   endfacet
   facet normal 0.000000e+00 0.000000e+00 1.000000e+00
      outer loop
         vertex 7.300000e+01 2.250000e+01 9.000000e+00
         vertex 4.229813e+01 3.557164e+01 9.000000e+00
         vertex 4.192836e+01 3.520187e+01 9.000000e+00
      endloop
   endfacet
   facet normal -0.000000e+00 0.000000e+00 1.000000e+00
      outer loop
         vertex 6.800000e+01 4.050000e+01 9.000000e+00
         vertex 6.852094e+01 4.045442e+01 9.000000e+00
         vertex 7.300000e+01 5.250000e+01 9.000000e+00
      endloop
   endfacet
   facet normal 0.000000e+00 0.000000e+00 1.000000e+00
      outer loop
         vertex 7.300000e+01 5.250000e+01 9.000000e+00
         vertex 6.852094e+01 4.045442e+01 9.000000e+00
         vertex 6.902606e+01 4.031908e+01 9.000000e+00
      endloop
   endfacet
   facet normal 0.000000e+00 0.000000e+00 1.000000e+00
      outer loop
         vertex 7.300000e+01 5.250000e+01 9.000000e+00
         vertex 6.902606e+01 4.031908e+01 9.000000e+00
         vertex 7.500000e+01 5.050000e+01 9.000000e+00
      endloop
   endfacet
   facet normal 0.000000e+00 0.000000e+00 1.000000e+00
      outer loop
         vertex 7.500000e+01 5.050000e+01 9.000000e+00
         vertex 6.902606e+01 4.031908e+01 9.000000e+00
         vertex 6.950000e+01 4.009807e+01 9.000000e+00
      endloop
   endfacet
   facet normal 0.000000e+00 0.000000e+00 1.000000e+00
      outer loop
         vertex 7.500000e+01 5.050000e+01 9.000000e+00
         vertex 6.950000e+01 4.009807e+01 9.000000e+00
         vertex 6.992836e+01 3.979813e+01 9.000000e+00
      endloop
   endfacet
   facet normal 0.000000e+00 0.000000e+00 1.000000e+00
      outer loop
         vertex 4.192836e+01 3.520187e+01 9.000000e+00
         vertex 4.150000e+01 3.490192e+01 9.000000e+00
         vertex 7.300000e+01 2.250000e+01 9.000000e+00
      endloop
   endfacet
   facet normal 0.000000e+00 0.000000e+00 1.000000e+00
      outer loop
         vertex 7.300000e+01 2.250000e+01 9.000000e+00
         vertex 4.150000e+01 3.490192e+01 9.000000e+00
         vertex 4.102606e+01 3.468092e+01 9.000000e+00
      endloop
   endfacet
   facet normal 0.000000e+00 0.000000e+00 1.000000e+00
      outer loop
         vertex 7.300000e+01 2.250000e+01 9.000000e+00
         vertex 4.102606e+01 3.468092e+01 9.000000e+00
         vertex 3.000000e+01 2.450000e+01 9.000000e+00
      endloop
   endfacet
   facet normal 0.000000e+00 0.000000e+00 1.000000e+00
      outer loop
         vertex 3.000000e+01 2.450000e+01 9.000000e+00
         vertex 4.102606e+01 3.468092e+01 9.000000e+00
         vertex 4.052094e+01 3.454558e+01 9.000000e+00
      endloop
   endfacet
   facet normal 0.000000e+00 0.000000e+00 1.000000e+00
      outer loop
         vertex 3.000000e+01 2.450000e+01 9.000000e+00
         vertex 4.052094e+01 3.454558e+01 9.000000e+00
         vertex 4.000000e+01 3.450000e+01 9.000000e+00
      endloop
   endfacet
   facet normal 0.000000e+00 0.000000e+00 1.000000e+00
      outer loop
         vertex 3.947905e+01 3.454558e+01 9.000000e+00
         vertex 3.897394e+01 3.468092e+01 9.000000e+00
         vertex 3.000000e+01 2.450000e+01 9.000000e+00
      endloop
   endfacet
   facet normal 0.000000e+00 0.000000e+00 1.000000e+00
      outer loop
         vertex 3.000000e+01 2.450000e+01 9.000000e+00
         vertex 3.897394e+01 3.468092e+01 9.000000e+00
         vertex 3.850000e+01 3.490192e+01 9.000000e+00
      endloop
   endfacet
   facet normal 0.000000e+00 0.000000e+00 1.000000e+00
      outer loop
         vertex 3.000000e+01 2.450000e+01 9.000000e+00
         vertex 3.850000e+01 3.490192e+01 9.000000e+00
         vertex 3.807164e+01 3.520187e+01 9.000000e+00
      endloop
   endfacet
   facet normal 0.000000e+00 0.000000e+00 1.000000e+00
      outer loop
         vertex 3.000000e+01 2.450000e+01 9.000000e+00
         vertex 3.704558e+01 3.697906e+01 9.000000e+00
         vertex 3.000000e+01 5.050000e+01 9.000000e+00
      endloop
   endfacet
   facet normal 0.000000e+00 0.000000e+00 1.000000e+00
      outer loop
         vertex 3.000000e+01 5.050000e+01 9.000000e+00
         vertex 3.704558e+01 3.697906e+01 9.000000e+00
         vertex 3.700000e+01 3.750000e+01 9.000000e+00
      endloop
   endfacet
   facet normal 0.000000e+00 0.000000e+00 1.000000e+00
      outer loop
         vertex 3.000000e+01 5.050000e+01 9.000000e+00
         vertex 3.700000e+01 3.750000e+01 9.000000e+00
         vertex 3.704558e+01 3.802095e+01 9.000000e+00
      endloop
   endfacet
   facet normal 0.000000e+00 0.000000e+00 1.000000e+00
      outer loop
         vertex 3.807164e+01 3.520187e+01 9.000000e+00
         vertex 3.770187e+01 3.557164e+01 9.000000e+00
         vertex 3.000000e+01 2.450000e+01 9.000000e+00
      endloop
   endfacet
   facet normal 0.000000e+00 0.000000e+00 1.000000e+00
      outer loop
         vertex 3.000000e+01 2.450000e+01 9.000000e+00
         vertex 3.770187e+01 3.557164e+01 9.000000e+00
         vertex 3.740192e+01 3.600000e+01 9.000000e+00
      endloop
   endfacet
   facet normal 0.000000e+00 0.000000e+00 1.000000e+00
      outer loop
         vertex 3.000000e+01 2.450000e+01 9.000000e+00
         vertex 3.740192e+01 3.600000e+01 9.000000e+00
         vertex 3.718092e+01 3.647394e+01 9.000000e+00
      endloop
   endfacet
   facet normal 0.000000e+00 -0.000000e+00 1.000000e+00
      outer loop
         vertex 3.897394e+01 4.031908e+01 9.000000e+00
         vertex 3.947905e+01 4.045442e+01 9.000000e+00
         vertex 3.000000e+01 5.050000e+01 9.000000e+00
      endloop
   endfacet
   facet normal 0.000000e+00 0.000000e+00 1.000000e+00
      outer loop
         vertex 3.000000e+01 5.050000e+01 9.000000e+00
         vertex 3.947905e+01 4.045442e+01 9.000000e+00
         vertex 4.000000e+01 4.050000e+01 9.000000e+00
      endloop
   endfacet
   facet normal 0.000000e+00 -0.000000e+00 1.000000e+00
      outer loop
         vertex 3.704558e+01 3.802095e+01 9.000000e+00
         vertex 3.718092e+01 3.852606e+01 9.000000e+00
         vertex 3.000000e+01 5.050000e+01 9.000000e+00
      endloop
   endfacet
   facet normal 0.000000e+00 0.000000e+00 1.000000e+00
      outer loop
         vertex 3.000000e+01 5.050000e+01 9.000000e+00
         vertex 3.718092e+01 3.852606e+01 9.000000e+00
         vertex 3.740192e+01 3.900000e+01 9.000000e+00
      endloop
   endfacet
   facet normal 0.000000e+00 0.000000e+00 1.000000e+00
      outer loop
         vertex 3.000000e+01 5.050000e+01 9.000000e+00
         vertex 3.740192e+01 3.900000e+01 9.000000e+00
         vertex 3.770187e+01 3.942836e+01 9.000000e+00
      endloop
   endfacet
   facet normal 0.000000e+00 -0.000000e+00 1.000000e+00
      outer loop
         vertex 3.770187e+01 3.942836e+01 9.000000e+00
         vertex 3.807164e+01 3.979813e+01 9.000000e+00
         vertex 3.000000e+01 5.050000e+01 9.000000e+00
      endloop
   endfacet
   facet normal 0.000000e+00 0.000000e+00 1.000000e+00
      outer loop
         vertex 3.000000e+01 5.050000e+01 9.000000e+00
         vertex 3.807164e+01 3.979813e+01 9.000000e+00
         vertex 3.850000e+01 4.009807e+01 9.000000e+00
      endloop
   endfacet
   facet normal 0.000000e+00 0.000000e+00 1.000000e+00
      outer loop
         vertex 3.000000e+01 5.050000e+01 9.000000e+00
         vertex 3.850000e+01 4.009807e+01 9.000000e+00
         vertex 3.897394e+01 4.031908e+01 9.000000e+00
      endloop
   endfacet
   facet normal 0.000000e+00 0.000000e+00 1.000000e+00
      outer loop
         vertex 5.104558e+01 3.802095e+01 9.000000e+00
         vertex 4.229813e+01 3.942836e+01 9.000000e+00
         vertex 4.259808e+01 3.900000e+01 9.000000e+00
      endloop
   endfacet
   facet normal -0.000000e+00 0.000000e+00 1.000000e+00
      outer loop
         vertex 4.295442e+01 3.697906e+01 9.000000e+00
         vertex 5.297394e+01 3.468092e+01 9.000000e+00
         vertex 4.300000e+01 3.750000e+01 9.000000e+00
      endloop
   endfacet
   facet normal 0.000000e+00 0.000000e+00 1.000000e+00
      outer loop
         vertex 4.300000e+01 3.750000e+01 9.000000e+00
         vertex 5.297394e+01 3.468092e+01 9.000000e+00
         vertex 5.250000e+01 3.490192e+01 9.000000e+00
      endloop
   endfacet
   facet normal 0.000000e+00 0.000000e+00 1.000000e+00
      outer loop
         vertex 4.300000e+01 3.750000e+01 9.000000e+00
         vertex 5.250000e+01 3.490192e+01 9.000000e+00
         vertex 5.207164e+01 3.520187e+01 9.000000e+00
      endloop
   endfacet
   facet normal 0.000000e+00 0.000000e+00 1.000000e+00
      outer loop
         vertex 5.207164e+01 3.520187e+01 9.000000e+00
         vertex 5.170187e+01 3.557164e+01 9.000000e+00
         vertex 4.300000e+01 3.750000e+01 9.000000e+00
      endloop
   endfacet
   facet normal 0.000000e+00 0.000000e+00 1.000000e+00
      outer loop
         vertex 4.300000e+01 3.750000e+01 9.000000e+00
         vertex 5.170187e+01 3.557164e+01 9.000000e+00
         vertex 5.140192e+01 3.600000e+01 9.000000e+00
      endloop
   endfacet
   facet normal 0.000000e+00 0.000000e+00 1.000000e+00
      outer loop
         vertex 4.300000e+01 3.750000e+01 9.000000e+00
         vertex 5.140192e+01 3.600000e+01 9.000000e+00
         vertex 5.118092e+01 3.647394e+01 9.000000e+00
      endloop
   endfacet
   facet normal -0.000000e+00 -0.000000e+00 1.000000e+00
      outer loop
         vertex 4.000000e+01 4.050000e+01 9.000000e+00
         vertex 4.052094e+01 4.045442e+01 9.000000e+00
         vertex 3.000000e+01 5.050000e+01 9.000000e+00
      endloop
   endfacet
   facet normal 0.000000e+00 0.000000e+00 1.000000e+00
      outer loop
         vertex 3.000000e+01 5.050000e+01 9.000000e+00
         vertex 4.052094e+01 4.045442e+01 9.000000e+00
         vertex 4.102606e+01 4.031908e+01 9.000000e+00
      endloop
   endfacet
   facet normal 0.000000e+00 0.000000e+00 1.000000e+00
      outer loop
         vertex 3.000000e+01 5.050000e+01 9.000000e+00
         vertex 4.102606e+01 4.031908e+01 9.000000e+00
         vertex 5.347906e+01 4.045442e+01 9.000000e+00
      endloop
   endfacet
   facet normal 0.000000e+00 0.000000e+00 1.000000e+00
      outer loop
         vertex 5.347906e+01 4.045442e+01 9.000000e+00
         vertex 4.102606e+01 4.031908e+01 9.000000e+00
         vertex 4.150000e+01 4.009807e+01 9.000000e+00
      endloop
   endfacet
   facet normal 0.000000e+00 0.000000e+00 1.000000e+00
      outer loop
         vertex 5.347906e+01 4.045442e+01 9.000000e+00
         vertex 4.150000e+01 4.009807e+01 9.000000e+00
         vertex 5.297394e+01 4.031908e+01 9.000000e+00
      endloop
   endfacet
   facet normal 0.000000e+00 0.000000e+00 1.000000e+00
      outer loop
         vertex 4.259808e+01 3.900000e+01 9.000000e+00
         vertex 4.281908e+01 3.852606e+01 9.000000e+00
         vertex 5.104558e+01 3.802095e+01 9.000000e+00
      endloop
   endfacet
   facet normal 0.000000e+00 0.000000e+00 1.000000e+00
      outer loop
         vertex 5.104558e+01 3.802095e+01 9.000000e+00
         vertex 4.281908e+01 3.852606e+01 9.000000e+00
         vertex 4.295442e+01 3.802095e+01 9.000000e+00
      endloop
   endfacet
   facet normal 0.000000e+00 0.000000e+00 1.000000e+00
      outer loop
         vertex 5.104558e+01 3.802095e+01 9.000000e+00
         vertex 4.295442e+01 3.802095e+01 9.000000e+00
         vertex 5.100000e+01 3.750000e+01 9.000000e+00
      endloop
   endfacet
   facet normal 0.000000e+00 0.000000e+00 1.000000e+00
      outer loop
         vertex 5.100000e+01 3.750000e+01 9.000000e+00
         vertex 4.295442e+01 3.802095e+01 9.000000e+00
         vertex 4.300000e+01 3.750000e+01 9.000000e+00
      endloop
   endfacet
   facet normal 0.000000e+00 0.000000e+00 1.000000e+00
      outer loop
         vertex 5.100000e+01 3.750000e+01 9.000000e+00
         vertex 4.300000e+01 3.750000e+01 9.000000e+00
         vertex 5.104558e+01 3.697906e+01 9.000000e+00
      endloop
   endfacet
   facet normal 0.000000e+00 0.000000e+00 1.000000e+00
      outer loop
         vertex 5.104558e+01 3.697906e+01 9.000000e+00
         vertex 4.300000e+01 3.750000e+01 9.000000e+00
         vertex 5.118092e+01 3.647394e+01 9.000000e+00
      endloop
   endfacet
   facet normal 0.000000e+00 -0.000000e+00 1.000000e+00
      outer loop
         vertex 5.347906e+01 4.045442e+01 9.000000e+00
         vertex 5.400000e+01 4.050000e+01 9.000000e+00
         vertex 3.000000e+01 5.050000e+01 9.000000e+00
      endloop
   endfacet
   facet normal 0.000000e+00 0.000000e+00 1.000000e+00
      outer loop
         vertex 3.000000e+01 5.050000e+01 9.000000e+00
         vertex 5.400000e+01 4.050000e+01 9.000000e+00
         vertex 5.452095e+01 4.045442e+01 9.000000e+00
      endloop
   endfacet
   facet normal 0.000000e+00 0.000000e+00 1.000000e+00
      outer loop
         vertex 3.000000e+01 5.050000e+01 9.000000e+00
         vertex 5.452095e+01 4.045442e+01 9.000000e+00
         vertex 5.502606e+01 4.031908e+01 9.000000e+00
      endloop
   endfacet
   facet normal -0.000000e+00 -0.000000e+00 1.000000e+00
      outer loop
         vertex 4.229813e+01 3.942836e+01 9.000000e+00
         vertex 5.104558e+01 3.802095e+01 9.000000e+00
         vertex 4.192836e+01 3.979813e+01 9.000000e+00
      endloop
   endfacet
   facet normal 0.000000e+00 0.000000e+00 1.000000e+00
      outer loop
         vertex 4.192836e+01 3.979813e+01 9.000000e+00
         vertex 5.104558e+01 3.802095e+01 9.000000e+00
         vertex 5.118092e+01 3.852606e+01 9.000000e+00
      endloop
   endfacet
   facet normal -0.000000e+00 -0.000000e+00 1.000000e+00
      outer loop
         vertex 4.192836e+01 3.979813e+01 9.000000e+00
         vertex 5.118092e+01 3.852606e+01 9.000000e+00
         vertex 4.150000e+01 4.009807e+01 9.000000e+00
      endloop
   endfacet
   facet normal 0.000000e+00 0.000000e+00 1.000000e+00
      outer loop
         vertex 4.150000e+01 4.009807e+01 9.000000e+00
         vertex 5.118092e+01 3.852606e+01 9.000000e+00
         vertex 5.140192e+01 3.900000e+01 9.000000e+00
      endloop
   endfacet
   facet normal 0.000000e+00 0.000000e+00 1.000000e+00
      outer loop
         vertex 4.150000e+01 4.009807e+01 9.000000e+00
         vertex 5.140192e+01 3.900000e+01 9.000000e+00
         vertex 5.170187e+01 3.942836e+01 9.000000e+00
      endloop
   endfacet
   facet normal 0.000000e+00 -0.000000e+00 1.000000e+00
      outer loop
         vertex 5.170187e+01 3.942836e+01 9.000000e+00
         vertex 5.207164e+01 3.979813e+01 9.000000e+00
         vertex 4.150000e+01 4.009807e+01 9.000000e+00
      endloop
   endfacet
   facet normal -0.000000e+00 0.000000e+00 1.000000e+00
      outer loop
         vertex 4.150000e+01 4.009807e+01 9.000000e+00
         vertex 5.207164e+01 3.979813e+01 9.000000e+00
         vertex 5.250000e+01 4.009807e+01 9.000000e+00
      endloop
   endfacet
   facet normal 0.000000e+00 0.000000e+00 1.000000e+00
      outer loop
         vertex 4.150000e+01 4.009807e+01 9.000000e+00
         vertex 5.250000e+01 4.009807e+01 9.000000e+00
         vertex 5.297394e+01 4.031908e+01 9.000000e+00
      endloop
   endfacet
   facet normal 0.000000e+00 -0.000000e+00 1.000000e+00
      outer loop
         vertex 6.500000e+01 3.750000e+01 9.000000e+00
         vertex 6.504558e+01 3.802095e+01 9.000000e+00
         vertex 5.502606e+01 4.031908e+01 9.000000e+00
      endloop
   endfacet
   facet normal 0.000000e+00 0.000000e+00 1.000000e+00
      outer loop
         vertex 5.502606e+01 4.031908e+01 9.000000e+00
         vertex 6.504558e+01 3.802095e+01 9.000000e+00
         vertex 6.518092e+01 3.852606e+01 9.000000e+00
      endloop
   endfacet
   facet normal -0.000000e+00 -0.000000e+00 1.000000e+00
      outer loop
         vertex 5.502606e+01 4.031908e+01 9.000000e+00
         vertex 6.518092e+01 3.852606e+01 9.000000e+00
         vertex 3.000000e+01 5.050000e+01 9.000000e+00
      endloop
   endfacet
   facet normal 0.000000e+00 0.000000e+00 1.000000e+00
      outer loop
         vertex 3.000000e+01 5.050000e+01 9.000000e+00
         vertex 6.518092e+01 3.852606e+01 9.000000e+00
         vertex 6.540193e+01 3.900000e+01 9.000000e+00
      endloop
   endfacet
   facet normal 0.000000e+00 0.000000e+00 1.000000e+00
      outer loop
         vertex 3.000000e+01 5.050000e+01 9.000000e+00
         vertex 6.540193e+01 3.900000e+01 9.000000e+00
         vertex 6.570186e+01 3.942836e+01 9.000000e+00
      endloop
   endfacet
endsolid