solid 3
   facet normal -1.000000e+00 0.000000e+00 0.000000e+00
      outer loop
         vertex 0.000000e+00 7.400000e+01 0.000000e+00
         vertex 0.000000e+00 1.000000e+00 0.000000e+00
         vertex 0.000000e+00 7.400000e+01 1.600000e+01
      endloop
   endfacet
   facet normal -1.000000e+00 -0.000000e+00 0.000000e+00
      outer loop
         vertex 0.000000e+00 7.400000e+01 1.600000e+01
         vertex 0.000000e+00 1.000000e+00 0.000000e+00
         vertex 0.000000e+00 1.000000e+00 1.600000e+01
      endloop
   endfacet
   facet normal 1.000000e+00 0.000000e+00 0.000000e+00
      outer loop
         vertex 3.000000e+01 5.050000e+01 1.600000e+01
         vertex 3.000000e+01 2.450000e+01 1.600000e+01
         vertex 3.000000e+01 5.050000e+01 9.000000e+00
      endloop
   endfacet
   facet normal 1.000000e+00 0.000000e+00 0.000000e+00
      outer loop
         vertex 3.000000e+01 5.050000e+01 9.000000e+00
         vertex 3.000000e+01 2.450000e+01 1.600000e+01
         vertex 3.000000e+01 2.450000e+01 9.000000e+00
      endloop
   endfacet
   facet normal 7.071065e-01 7.071071e-01 0.000000e+00
      outer loop
         vertex 2.800000e+01 5.250000e+01 1.600000e+01
         vertex 3.000000e+01 5.050000e+01 1.600000e+01
         vertex 2.800000e+01 5.250000e+01 9.000000e+00
      endloop
   endfacet
   facet normal 7.071065e-01 7.071071e-01 0.000000e+00
      outer loop
         vertex 2.800000e+01 5.250000e+01 9.000000e+00
         vertex 3.000000e+01 5.050000e+01 1.600000e+01
         vertex 3.000000e+01 5.050000e+01 9.000000e+00
      endloop
   endfacet
   facet normal 7.071068e-01 -7.071068e-01 0.000000e+00
      outer loop
         vertex 3.000000e+01 2.450000e+01 1.600000e+01
         vertex 2.800000e+01 2.250000e+01 1.600000e+01
         vertex 3.000000e+01 2.450000e+01 9.000000e+00
      endloop
   endfacet
   facet normal 7.071068e-01 -7.071068e-01 0.000000e+00
      outer loop
         vertex 3.000000e+01 2.450000e+01 9.000000e+00
         vertex 2.800000e+01 2.250000e+01 1.600000e+01
         vertex 2.800000e+01 2.250000e+01 9.000000e+00
      endloop
   endfacet
endsolid