solid 5
   facet normal -0.000000e+00 1.000000e+00 0.000000e+00
      outer loop
         vertex 9.000000e+00 7.500000e+01 1.600000e+01
         vertex 1.500000e+01 7.500000e+01 1.600000e+01
         vertex 9.000000e+00 7.500000e+01 0.000000e+00
      endloop
   endfacet
   facet normal 0.000000e+00 1.000000e+00 0.000000e+00
      outer loop
         vertex 9.000000e+00 7.500000e+01 0.000000e+00
         vertex 1.500000e+01 7.500000e+01 1.600000e+01
         vertex 1.500000e+01 7.500000e+01 0.000000e+00
      endloop
   endfacet
   facet normal 4.336809e-16 -1.000000e+00 0.000000e+00
      outer loop
         vertex 1.500000e+01 1.344411e-14 0.000000e+00
         vertex 1.500000e+01 1.344411e-14 1.600000e+01
         vertex 9.000000e+00 1.084202e-14 0.000000e+00
      endloop
   endfacet
   facet normal 4.336809e-16 -1.000000e+00 0.000000e+00
      outer loop
         vertex 9.000000e+00 1.084202e-14 0.000000e+00
         vertex 1.500000e+01 1.344411e-14 1.600000e+01
         vertex 9.000000e+00 1.084202e-14 1.600000e+01
      endloop
   endfacet
   facet normal 4.336809e-16 -1.000000e+00 0.000000e+00
      outer loop
         vertex 1.000000e+00 7.372575e-15 1.600000e+01
         vertex 1.000000e+00 7.372575e-15 0.000000e+00
         vertex 7.000000e+00 9.974660e-15 1.600000e+01
      endloop
   endfacet
   facet normal 4.336809e-16 -1.000000e+00 0.000000e+00
      outer loop
         vertex 7.000000e+00 9.974660e-15 1.600000e+01
         vertex 1.000000e+00 7.372575e-15 0.000000e+00
         vertex 7.000000e+00 9.974660e-15 0.000000e+00
      endloop
   endfacet
   facet normal 0.000000e+00 1.000000e+00 -0.000000e+00
      outer loop
         vertex 7.000000e+00 7.500000e+01 0.000000e+00
         vertex 1.000000e+00 7.500000e+01 0.000000e+00
         vertex 7.000000e+00 7.500000e+01 1.600000e+01
      endloop
   endfacet
   facet normal 0.000000e+00 1.000000e+00 0.000000e+00
      outer loop
         vertex 7.000000e+00 7.500000e+01 1.600000e+01
         vertex 1.000000e+00 7.500000e+01 0.000000e+00
         vertex 1.000000e+00 7.500000e+01 1.600000e+01
      endloop
   endfacet
endsolid