solid 6
   facet normal 8.715711e-02 -9.961946e-01 0.000000e+00
      outer loop
         vertex 2.100000e+01 2.250000e+01 0.000000e+00
         vertex 2.100000e+01 2.250000e+01 1.600000e+01
         vertex 2.013176e+01 2.242404e+01 0.000000e+00
      endloop
   endfacet
   facet normal 8.715711e-02 -9.961946e-01 0.000000e+00
      outer loop
         vertex 2.013176e+01 2.242404e+01 0.000000e+00
         vertex 2.100000e+01 2.250000e+01 1.600000e+01
         vertex 2.013176e+01 2.242404e+01 1.600000e+01
      endloop
   endfacet
   facet normal 2.588191e-01 -9.659258e-01 0.000000e+00
      outer loop
         vertex 2.013176e+01 2.242404e+01 0.000000e+00
         vertex 2.013176e+01 2.242404e+01 1.600000e+01
         vertex 1.928990e+01 2.219846e+01 0.000000e+00
      endloop
   endfacet
   facet normal 2.588191e-01 -9.659258e-01 0.000000e+00
      outer loop
         vertex 1.928990e+01 2.219846e+01 0.000000e+00
         vertex 2.013176e+01 2.242404e+01 1.600000e+01
         vertex 1.928990e+01 2.219846e+01 1.600000e+01
      endloop
   endfacet
   facet normal 4.226183e-01 -9.063077e-01 0.000000e+00
      outer loop
         vertex 1.928990e+01 2.219846e+01 0.000000e+00
         vertex 1.928990e+01 2.219846e+01 1.600000e+01
         vertex 1.850000e+01 2.183013e+01 0.000000e+00
      endloop
   endfacet
   facet normal 4.226183e-01 -9.063077e-01 0.000000e+00
      outer loop
         vertex 1.850000e+01 2.183013e+01 0.000000e+00
         vertex 1.928990e+01 2.219846e+01 1.600000e+01
         vertex 1.850000e+01 2.183013e+01 1.600000e+01
      endloop
   endfacet
   facet normal 5.735755e-01 -8.191527e-01 0.000000e+00
      outer loop
         vertex 1.850000e+01 2.183013e+01 0.000000e+00
         vertex 1.850000e+01 2.183013e+01 1.600000e+01
         vertex 1.778606e+01 2.133022e+01 0.000000e+00
      endloop
   endfacet
   facet normal 5.735755e-01 -8.191527e-01 0.000000e+00
      outer loop
         vertex 1.778606e+01 2.133022e+01 0.000000e+00
         vertex 1.850000e+01 2.183013e+01 1.600000e+01
         vertex 1.778606e+01 2.133022e+01 1.600000e+01
      endloop
   endfacet
   facet normal 7.071068e-01 -7.071068e-01 0.000000e+00
      outer loop
         vertex 1.778606e+01 2.133022e+01 0.000000e+00
         vertex 1.778606e+01 2.133022e+01 1.600000e+01
         vertex 1.716978e+01 2.071394e+01 0.000000e+00
      endloop
   endfacet
   facet normal 7.071068e-01 -7.071068e-01 0.000000e+00
      outer loop
         vertex 1.716978e+01 2.071394e+01 0.000000e+00
         vertex 1.778606e+01 2.133022e+01 1.600000e+01
         vertex 1.716978e+01 2.071394e+01 1.600000e+01
      endloop
   endfacet
   facet normal 8.191527e-01 -5.735755e-01 0.000000e+00
      outer loop
         vertex 1.716978e+01 2.071394e+01 0.000000e+00
         vertex 1.716978e+01 2.071394e+01 1.600000e+01
         vertex 1.666987e+01 2.000000e+01 0.000000e+00
      endloop
   endfacet
   facet normal 8.191527e-01 -5.735755e-01 0.000000e+00
      outer loop
         vertex 1.666987e+01 2.000000e+01 0.000000e+00
         vertex 1.716978e+01 2.071394e+01 1.600000e+01
         vertex 1.666987e+01 2.000000e+01 1.600000e+01
      endloop
   endfacet
   facet normal 9.063077e-01 -4.226183e-01 0.000000e+00
      outer loop
         vertex 1.666987e+01 2.000000e+01 0.000000e+00
         vertex 1.666987e+01 2.000000e+01 1.600000e+01
         vertex 1.630154e+01 1.921010e+01 0.000000e+00
      endloop
   endfacet
   facet normal 9.063077e-01 -4.226183e-01 0.000000e+00
      outer loop
         vertex 1.630154e+01 1.921010e+01 0.000000e+00
         vertex 1.666987e+01 2.000000e+01 1.600000e+01
         vertex 1.630154e+01 1.921010e+01 1.600000e+01
      endloop
   endfacet
   facet normal 9.659258e-01 -2.588191e-01 0.000000e+00
      outer loop
         vertex 1.630154e+01 1.921010e+01 0.000000e+00
         vertex 1.630154e+01 1.921010e+01 1.600000e+01
         vertex 1.607596e+01 1.836824e+01 0.000000e+00
      endloop
   endfacet
   facet normal 9.659258e-01 -2.588191e-01 0.000000e+00
      outer loop
         vertex 1.607596e+01 1.836824e+01 0.000000e+00
         vertex 1.630154e+01 1.921010e+01 1.600000e+01
         vertex 1.607596e+01 1.836824e+01 1.600000e+01
      endloop
   endfacet
   facet normal 9.961948e-01 -8.715499e-02 0.000000e+00
      outer loop
         vertex 1.607596e+01 1.836824e+01 0.000000e+00
         vertex 1.607596e+01 1.836824e+01 1.600000e+01
         vertex 1.600000e+01 1.750000e+01 0.000000e+00
      endloop
   endfacet
   facet normal 9.961948e-01 -8.715499e-02 0.000000e+00
      outer loop
         vertex 1.600000e+01 1.750000e+01 0.000000e+00
         vertex 1.607596e+01 1.836824e+01 1.600000e+01
         vertex 1.600000e+01 1.750000e+01 1.600000e+01
      endloop
   endfacet
   facet normal -0.000000e+00 -1.000000e+00 -0.000000e+00
      outer loop
         vertex 2.800000e+01 2.250000e+01 1.600000e+01
         vertex 2.100000e+01 2.250000e+01 1.600000e+01
         vertex 2.800000e+01 2.250000e+01 9.000000e+00
      endloop
   endfacet
   facet normal -0.000000e+00 -1.000000e+00 0.000000e+00
      outer loop
         vertex 2.800000e+01 2.250000e+01 9.000000e+00
         vertex 2.100000e+01 2.250000e+01 1.600000e+01
         vertex 2.100000e+01 2.250000e+01 0.000000e+00
      endloop
   endfacet
   facet normal 0.000000e+00 -1.000000e+00 -0.000000e+00
      outer loop
         vertex 2.800000e+01 2.250000e+01 9.000000e+00
         vertex 2.100000e+01 2.250000e+01 0.000000e+00
         vertex 7.300000e+01 2.250000e+01 9.000000e+00
      endloop
   endfacet
   facet normal 0.000000e+00 -1.000000e+00 -0.000000e+00
      outer loop
         vertex 7.300000e+01 2.250000e+01 9.000000e+00
         vertex 2.100000e+01 2.250000e+01 0.000000e+00
         vertex 7.300000e+01 2.250000e+01 0.000000e+00
      endloop
   endfacet
   facet normal 1.000000e+00 0.000000e+00 0.000000e+00
      outer loop
         vertex 1.600000e+01 1.750000e+01 1.600000e+01
         vertex 1.600000e+01 1.000000e+00 1.600000e+01
         vertex 1.600000e+01 1.750000e+01 0.000000e+00
      endloop
   endfacet
   facet normal 1.000000e+00 0.000000e+00 0.000000e+00
      outer loop
         vertex 1.600000e+01 1.750000e+01 0.000000e+00
         vertex 1.600000e+01 1.000000e+00 1.600000e+01
         vertex 1.600000e+01 1.000000e+00 0.000000e+00
      endloop
   endfacet
   facet normal 0.000000e+00 1.000000e+00 0.000000e+00
      outer loop
         vertex 7.300000e+01 5.250000e+01 9.000000e+00
         vertex 7.300000e+01 5.250000e+01 0.000000e+00
         vertex 2.800000e+01 5.250000e+01 9.000000e+00
      endloop
   endfacet
   facet normal 0.000000e+00 1.000000e+00 0.000000e+00
      outer loop
         vertex 2.800000e+01 5.250000e+01 9.000000e+00
         vertex 7.300000e+01 5.250000e+01 0.000000e+00
         vertex 2.100000e+01 5.250000e+01 0.000000e+00
      endloop
   endfacet
   facet normal 0.000000e+00 1.000000e+00 -0.000000e+00
      outer loop
         vertex 2.800000e+01 5.250000e+01 9.000000e+00
         vertex 2.100000e+01 5.250000e+01 0.000000e+00
         vertex 2.800000e+01 5.250000e+01 1.600000e+01
      endloop
   endfacet
   facet normal 0.000000e+00 1.000000e+00 0.000000e+00
      outer loop
         vertex 2.800000e+01 5.250000e+01 1.600000e+01
         vertex 2.100000e+01 5.250000e+01 0.000000e+00
         vertex 2.100000e+01 5.250000e+01 1.600000e+01
      endloop
   endfacet
   facet normal 1.000000e+00 0.000000e+00 0.000000e+00
      outer loop
         vertex 1.600000e+01 5.750000e+01 0.000000e+00
         vertex 1.600000e+01 7.400000e+01 0.000000e+00
         vertex 1.600000e+01 5.750000e+01 1.600000e+01
      endloop
   endfacet
   facet normal 1.000000e+00 -0.000000e+00 0.000000e+00
      outer loop
         vertex 1.600000e+01 5.750000e+01 1.600000e+01
         vertex 1.600000e+01 7.400000e+01 0.000000e+00
         vertex 1.600000e+01 7.400000e+01 1.600000e+01
      endloop
   endfacet
   facet normal 9.961948e-01 8.715481e-02 -0.000000e+00
      outer loop
         vertex 1.600000e+01 5.750000e+01 0.000000e+00
         vertex 1.600000e+01 5.750000e+01 1.600000e+01
         vertex 1.607596e+01 5.663176e+01 0.000000e+00
      endloop
   endfacet
   facet normal 9.961948e-01 8.715481e-02 -0.000000e+00
      outer loop
         vertex 1.607596e+01 5.663176e+01 0.000000e+00
         vertex 1.600000e+01 5.750000e+01 1.600000e+01
         vertex 1.607596e+01 5.663176e+01 1.600000e+01
      endloop
   endfacet
   facet normal 9.659258e-01 2.588191e-01 -0.000000e+00
      outer loop
         vertex 1.607596e+01 5.663176e+01 0.000000e+00
         vertex 1.607596e+01 5.663176e+01 1.600000e+01
         vertex 1.630154e+01 5.578990e+01 0.000000e+00
      endloop
   endfacet
   facet normal 9.659258e-01 2.588191e-01 -0.000000e+00
      outer loop
         vertex 1.630154e+01 5.578990e+01 0.000000e+00
         vertex 1.607596e+01 5.663176e+01 1.600000e+01
         vertex 1.630154e+01 5.578990e+01 1.600000e+01
      endloop
   endfacet
   facet normal 9.063077e-01 4.226183e-01 -0.000000e+00
      outer loop
         vertex 1.630154e+01 5.578990e+01 0.000000e+00
         vertex 1.630154e+01 5.578990e+01 1.600000e+01
         vertex 1.666987e+01 5.500000e+01 0.000000e+00
      endloop
   endfacet
   facet normal 9.063077e-01 4.226183e-01 -0.000000e+00
      outer loop
         vertex 1.666987e+01 5.500000e+01 0.000000e+00
         vertex 1.630154e+01 5.578990e+01 1.600000e+01
         vertex 1.666987e+01 5.500000e+01 1.600000e+01
      endloop
   endfacet
   facet normal 8.191520e-01 5.735765e-01 -0.000000e+00
      outer loop
         vertex 1.666987e+01 5.500000e+01 0.000000e+00
         vertex 1.666987e+01 5.500000e+01 1.600000e+01
         vertex 1.716978e+01 5.428606e+01 0.000000e+00
      endloop
   endfacet
   facet normal 8.191520e-01 5.735765e-01 -0.000000e+00
      outer loop
         vertex 1.716978e+01 5.428606e+01 0.000000e+00
         vertex 1.666987e+01 5.500000e+01 1.600000e+01
         vertex 1.716978e+01 5.428606e+01 1.600000e+01
      endloop
   endfacet
   facet normal 7.071078e-01 7.071057e-01 -0.000000e+00
      outer loop
         vertex 1.716978e+01 5.428606e+01 0.000000e+00
         vertex 1.716978e+01 5.428606e+01 1.600000e+01
         vertex 1.778606e+01 5.366978e+01 0.000000e+00
      endloop
   endfacet
   facet normal 7.071078e-01 7.071057e-01 -0.000000e+00
      outer loop
         vertex 1.778606e+01 5.366978e+01 0.000000e+00
         vertex 1.716978e+01 5.428606e+01 1.600000e+01
         vertex 1.778606e+01 5.366978e+01 1.600000e+01
      endloop
   endfacet
   facet normal 5.735755e-01 8.191527e-01 -0.000000e+00
      outer loop
         vertex 1.778606e+01 5.366978e+01 0.000000e+00
         vertex 1.778606e+01 5.366978e+01 1.600000e+01
         vertex 1.850000e+01 5.316987e+01 0.000000e+00
      endloop
   endfacet
   facet normal 5.735755e-01 8.191527e-01 -0.000000e+00
      outer loop
         vertex 1.850000e+01 5.316987e+01 0.000000e+00
         vertex 1.778606e+01 5.366978e+01 1.600000e+01
         vertex 1.850000e+01 5.316987e+01 1.600000e+01
      endloop
   endfacet
   facet normal 4.226166e-01 9.063086e-01 -0.000000e+00
      outer loop
         vertex 1.850000e+01 5.316987e+01 0.000000e+00
         vertex 1.850000e+01 5.316987e+01 1.600000e+01
         vertex 1.928990e+01 5.280154e+01 0.000000e+00
      endloop
   endfacet
   facet normal 4.226166e-01 9.063086e-01 -0.000000e+00
      outer loop
         vertex 1.928990e+01 5.280154e+01 0.000000e+00
         vertex 1.850000e+01 5.316987e+01 1.600000e+01
         vertex 1.928990e+01 5.280154e+01 1.600000e+01
      endloop
   endfacet
   facet normal 2.588210e-01 9.659253e-01 -0.000000e+00
      outer loop
         vertex 1.928990e+01 5.280154e+01 0.000000e+00
         vertex 1.928990e+01 5.280154e+01 1.600000e+01
         vertex 2.013176e+01 5.257596e+01 0.000000e+00
      endloop
   endfacet
   facet normal 2.588210e-01 9.659253e-01 -0.000000e+00
      outer loop
         vertex 2.013176e+01 5.257596e+01 0.000000e+00
         vertex 1.928990e+01 5.280154e+01 1.600000e+01
         vertex 2.013176e+01 5.257596e+01 1.600000e+01
      endloop
   endfacet
   facet normal 8.715711e-02 9.961946e-01 -0.000000e+00
      outer loop
         vertex 2.013176e+01 5.257596e+01 0.000000e+00
         vertex 2.013176e+01 5.257596e+01 1.600000e+01
         vertex 2.100000e+01 5.250000e+01 0.000000e+00
      endloop
   endfacet
   facet normal 8.715711e-02 9.961946e-01 -0.000000e+00
      outer loop
         vertex 2.100000e+01 5.250000e+01 0.000000e+00
         vertex 2.013176e+01 5.257596e+01 1.600000e+01
         vertex 2.100000e+01 5.250000e+01 1.600000e+01
      endloop
   endfacet
endsolid