solid 8
   facet normal 1.000000e+00 0.000000e+00 0.000000e+00
      outer loop
         vertex 7.500000e+01 5.050000e+01 9.000000e+00
         vertex 7.500000e+01 2.450000e+01 9.000000e+00
         vertex 7.500000e+01 5.050000e+01 0.000000e+00
      endloop
   endfacet
   facet normal 1.000000e+00 0.000000e+00 0.000000e+00
      outer loop
         vertex 7.500000e+01 5.050000e+01 0.000000e+00
         vertex 7.500000e+01 2.450000e+01 9.000000e+00
         vertex 7.500000e+01 2.450000e+01 0.000000e+00
      endloop
   endfacet
   facet normal 7.071055e-01 7.071081e-01 -0.000000e+00
      outer loop
         vertex 7.500000e+01 5.050000e+01 0.000000e+00
         vertex 7.300000e+01 5.250000e+01 0.000000e+00
         vertex 7.500000e+01 5.050000e+01 9.000000e+00
      endloop
   endfacet
   facet normal 7.071055e-01 7.071081e-01 0.000000e+00
      outer loop
         vertex 7.500000e+01 5.050000e+01 9.000000e+00
         vertex 7.300000e+01 5.250000e+01 0.000000e+00
         vertex 7.300000e+01 5.250000e+01 9.000000e+00
      endloop
   endfacet
   facet normal 7.071058e-01 -7.071078e-01 0.000000e+00
      outer loop
         vertex 7.300000e+01 2.250000e+01 0.000000e+00
         vertex 7.500000e+01 2.450000e+01 0.000000e+00
         vertex 7.300000e+01 2.250000e+01 9.000000e+00
      endloop
   endfacet
   facet normal 7.071058e-01 -7.071078e-01 0.000000e+00
      outer loop
         vertex 7.300000e+01 2.250000e+01 9.000000e+00
         vertex 7.500000e+01 2.450000e+01 0.000000e+00
         vertex 7.500000e+01 2.450000e+01 9.000000e+00
      endloop
   endfacet
endsolid