solid 1
   facet normal 0.000000e+00 -0.000000e+00 1.000000e+00
      outer loop
         vertex 4.100000e+01 7.300000e+01 4.100000e+01
         vertex 4.100000e+01 8.200000e+01 4.100000e+01
         vertex 1.000000e+01 7.300000e+01 4.100000e+01
      endloop
   endfacet
   facet normal 0.000000e+00 -0.000000e+00 1.000000e+00
      outer loop
         vertex 1.000000e+01 7.300000e+01 4.100000e+01
         vertex 4.100000e+01 8.200000e+01 4.100000e+01
         vertex 0.000000e+00 8.200000e+01 4.100000e+01
      endloop
   endfacet
   facet normal 0.000000e+00 0.000000e+00 1.000000e+00
      outer loop
         vertex 1.000000e+01 7.300000e+01 4.100000e+01
         vertex 0.000000e+00 8.200000e+01 4.100000e+01
         vertex 1.000000e+01 3.000000e+01 4.100000e+01
      endloop
   endfacet
   facet normal 0.000000e+00 0.000000e+00 1.000000e+00
      outer loop
         vertex 1.000000e+01 3.000000e+01 4.100000e+01
         vertex 0.000000e+00 8.200000e+01 4.100000e+01
         vertex 0.000000e+00 2.100000e+01 4.100000e+01
      endloop
   endfacet
   facet normal -0.000000e+00 0.000000e+00 1.000000e+00
      outer loop
         vertex 1.000000e+01 3.000000e+01 4.100000e+01
         vertex 0.000000e+00 2.100000e+01 4.100000e+01
         vertex 4.100000e+01 3.000000e+01 4.100000e+01
      endloop
   endfacet
   facet normal 0.000000e+00 0.000000e+00 1.000000e+00
      outer loop
         vertex 4.100000e+01 3.000000e+01 4.100000e+01
         vertex 0.000000e+00 2.100000e+01 4.100000e+01
         vertex 4.100000e+01 2.100000e+01 4.100000e+01
      endloop
   endfacet
endsolid