solid 3
   facet normal -0.000000e+00 -3.784851e-15 -1.000000e+00
      outer loop
         vertex 5.600000e+01 2.600000e+01 2.914336e-13
         vertex 5.600000e+01 0.000000e+00 3.898397e-13
         vertex 0.000000e+00 2.600000e+01 2.914336e-13
      endloop
   endfacet
   facet normal 0.000000e+00 -3.784851e-15 -1.000000e+00
      outer loop
         vertex 0.000000e+00 2.600000e+01 2.914336e-13
         vertex 5.600000e+01 0.000000e+00 3.898397e-13
         vertex 0.000000e+00 0.000000e+00 3.898397e-13
      endloop
   endfacet
   facet normal -0.000000e+00 8.714183e-01 4.905407e-01
      outer loop
         vertex 4.100000e+01 3.246713e+01 3.100000e+01
         vertex 5.600000e+01 3.246713e+01 3.100000e+01
         vertex 5.600000e+01 3.307757e+01 2.991559e+01
      endloop
   endfacet
   facet normal 0.000000e+00 -2.552469e-01 9.668759e-01
      outer loop
         vertex 1.856458e+01 5.672294e+01 2.014405e+01
         vertex 1.893917e+01 5.725186e+01 2.028367e+01
         vertex 1.000000e+01 5.725186e+01 2.028367e+01
      endloop
   endfacet
   facet normal 2.228770e-03 1.368267e-02 9.999039e-01
      outer loop
         vertex 1.701805e+01 5.091461e+01 1.950797e+01
         vertex 1.700000e+01 5.150000e+01 1.950000e+01
         vertex 1.000000e+01 5.033601e+01 1.953153e+01
      endloop
   endfacet
   facet normal 4.504362e-03 -0.000000e+00 9.999899e-01
      outer loop
         vertex 1.000000e+01 5.033601e+01 1.953153e+01
         vertex 1.700000e+01 5.150000e+01 1.950000e+01
         vertex 1.000000e+01 5.266399e+01 1.953153e+01
      endloop
   endfacet
   facet normal 0.000000e+00 1.420054e-01 9.898659e-01
      outer loop
         vertex 1.765968e+01 4.802169e+01 1.978323e+01
         vertex 1.737036e+01 4.887328e+01 1.966106e+01
         vertex 1.000000e+01 4.802169e+01 1.978323e+01
      endloop
   endfacet
   facet normal 4.588357e-03 1.029837e-01 9.946725e-01
      outer loop
         vertex 1.000000e+01 4.802169e+01 1.978323e+01
         vertex 1.737036e+01 4.887328e+01 1.966106e+01
         vertex 1.716339e+01 4.974565e+01 1.957170e+01
      endloop
   endfacet
   facet normal 3.336606e-03 1.081187e-01 9.941324e-01
      outer loop
         vertex 1.000000e+01 4.802169e+01 1.978323e+01
         vertex 1.716339e+01 4.974565e+01 1.957170e+01
         vertex 1.000000e+01 5.033601e+01 1.953153e+01
      endloop
   endfacet
   facet normal -0.000000e+00 6.787549e-02 9.976938e-01
      outer loop
         vertex 1.000000e+01 5.033601e+01 1.953153e+01
         vertex 1.716339e+01 4.974565e+01 1.957170e+01
         vertex 1.707158e+01 5.033601e+01 1.953153e+01
      endloop
   endfacet
   facet normal -0.000000e+00 4.068675e-02 9.991720e-01
      outer loop
         vertex 1.000000e+01 5.033601e+01 1.953153e+01
         vertex 1.707158e+01 5.033601e+01 1.953153e+01
         vertex 1.701805e+01 5.091461e+01 1.950797e+01
      endloop
   endfacet
   facet normal 0.000000e+00 1.758069e-01 9.844247e-01
      outer loop
         vertex 1.765968e+01 4.802169e+01 1.978323e+01
         vertex 1.000000e+01 4.802169e+01 1.978323e+01
         vertex 1.792104e+01 4.741938e+01 1.989079e+01
      endloop
   endfacet
   facet normal 3.083865e-03 2.149691e-01 9.766160e-01
      outer loop
         vertex 1.792104e+01 4.741938e+01 1.989079e+01
         vertex 1.000000e+01 4.802169e+01 1.978323e+01
         vertex 1.000000e+01 4.574814e+01 2.028367e+01
      endloop
   endfacet
   facet normal 3.784064e-03 2.118120e-01 9.773031e-01
      outer loop
         vertex 1.792104e+01 4.741938e+01 1.989079e+01
         vertex 1.000000e+01 4.574814e+01 2.028367e+01
         vertex 1.838632e+01 4.655853e+01 2.007557e+01
      endloop
   endfacet
   facet normal 1.461061e-03 3.325390e-01 9.430884e-01
      outer loop
         vertex 2.056591e+01 4.408134e+01 2.082047e+01
         vertex 1.988193e+01 4.468449e+01 2.060885e+01
         vertex 1.000000e+01 4.354203e+01 2.102700e+01
      endloop
   endfacet
   facet normal 4.309637e-03 3.106211e-01 9.505240e-01
      outer loop
         vertex 1.000000e+01 4.354203e+01 2.102700e+01
         vertex 1.988193e+01 4.468449e+01 2.060885e+01
         vertex 1.945987e+01 4.512139e+01 2.046799e+01
      endloop
   endfacet
   facet normal 2.690680e-03 3.193008e-01 9.476496e-01
      outer loop
         vertex 1.000000e+01 4.354203e+01 2.102700e+01
         vertex 1.945987e+01 4.512139e+01 2.046799e+01
         vertex 1.000000e+01 4.574814e+01 2.028367e+01
      endloop
   endfacet
   facet normal -0.000000e+00 2.821367e-01 9.593742e-01
      outer loop
         vertex 1.000000e+01 4.574814e+01 2.028367e+01
         vertex 1.945987e+01 4.512139e+01 2.046799e+01
         vertex 1.893917e+01 4.574814e+01 2.028367e+01
      endloop
   endfacet
   facet normal -0.000000e+00 2.487295e-01 9.685730e-01
      outer loop
         vertex 1.000000e+01 4.574814e+01 2.028367e+01
         vertex 1.893917e+01 4.574814e+01 2.028367e+01
         vertex 1.838632e+01 4.655853e+01 2.007557e+01
      endloop
   endfacet
   facet normal 5.579137e-04 4.427799e-01 8.966301e-01
      outer loop
         vertex 2.588905e+01 4.201967e+01 2.170303e+01
         vertex 2.502300e+01 4.211552e+01 2.165623e+01
         vertex 1.000000e+01 4.142922e+01 2.200449e+01
      endloop
   endfacet
   facet normal -1.434907e-03 4.151785e-01 9.097388e-01
      outer loop
         vertex 5.600000e+01 4.142922e+01 2.200449e+01
         vertex 3.018472e+01 4.274370e+01 2.136388e+01
         vertex 2.964746e+01 4.253655e+01 2.145757e+01
      endloop
   endfacet
   facet normal 2.447886e-04 4.494967e-01 8.932820e-01
      outer loop
         vertex 2.588905e+01 4.201967e+01 2.170303e+01
         vertex 1.000000e+01 4.142922e+01 2.200449e+01
         vertex 2.665440e+01 4.200125e+01 2.171208e+01
      endloop
   endfacet
   facet normal -9.456055e-04 4.246572e-01 9.053537e-01
      outer loop
         vertex 2.964746e+01 4.253655e+01 2.145757e+01
         vertex 2.891608e+01 4.231237e+01 2.156196e+01
         vertex 5.600000e+01 4.142922e+01 2.200449e+01
      endloop
   endfacet
   facet normal -5.552885e-04 4.343237e-01 9.007567e-01
      outer loop
         vertex 5.600000e+01 4.142922e+01 2.200449e+01
         vertex 2.891608e+01 4.231237e+01 2.156196e+01
         vertex 2.791518e+01 4.210600e+01 2.166085e+01
      endloop
   endfacet
   facet normal -3.558618e-04 4.409595e-01 8.975269e-01
      outer loop
         vertex 5.600000e+01 4.142922e+01 2.200449e+01
         vertex 2.791518e+01 4.210600e+01 2.166085e+01
         vertex 2.732968e+01 4.203630e+01 2.169486e+01
      endloop
   endfacet
   facet normal 9.771516e-04 4.354265e-01 9.002238e-01
      outer loop
         vertex 2.502300e+01 4.211552e+01 2.165623e+01
         vertex 2.404443e+01 4.232284e+01 2.155701e+01
         vertex 1.000000e+01 4.142922e+01 2.200449e+01
      endloop
   endfacet
   facet normal 1.588391e-03 4.276763e-01 9.039306e-01
      outer loop
         vertex 1.000000e+01 4.142922e+01 2.200449e+01
         vertex 2.404443e+01 4.232284e+01 2.155701e+01
         vertex 2.353325e+01 4.247512e+01 2.148586e+01
      endloop
   endfacet
   facet normal 2.271707e-03 4.205003e-01 9.072896e-01
      outer loop
         vertex 1.000000e+01 4.142922e+01 2.200449e+01
         vertex 2.353325e+01 4.247512e+01 2.148586e+01
         vertex 2.300388e+01 4.266670e+01 2.139840e+01
      endloop
   endfacet
   facet normal 3.296036e-03 4.117059e-01 9.113108e-01
      outer loop
         vertex 2.300388e+01 4.266670e+01 2.139840e+01
         vertex 2.245660e+01 4.290343e+01 2.129343e+01
         vertex 1.000000e+01 4.142922e+01 2.200449e+01
      endloop
   endfacet
   facet normal 4.822882e-03 4.010808e-01 9.160300e-01
      outer loop
         vertex 1.000000e+01 4.142922e+01 2.200449e+01
         vertex 2.245660e+01 4.290343e+01 2.129343e+01
         vertex 2.189209e+01 4.319234e+01 2.116990e+01
      endloop
   endfacet
   facet normal 1.441102e-03 4.198882e-01 9.075747e-01
      outer loop
         vertex 1.000000e+01 4.142922e+01 2.200449e+01
         vertex 2.189209e+01 4.319234e+01 2.116990e+01
         vertex 1.000000e+01 4.354203e+01 2.102700e+01
      endloop
   endfacet
   facet normal -0.000000e+00 3.782826e-01 9.256902e-01
      outer loop
         vertex 1.000000e+01 4.354203e+01 2.102700e+01
         vertex 2.189209e+01 4.319234e+01 2.116990e+01
         vertex 2.131148e+01 4.354203e+01 2.102700e+01
      endloop
   endfacet
   facet normal -0.000000e+00 3.576307e-01 9.338631e-01
      outer loop
         vertex 1.000000e+01 4.354203e+01 2.102700e+01
         vertex 2.131148e+01 4.354203e+01 2.102700e+01
         vertex 2.056591e+01 4.408134e+01 2.082047e+01
      endloop
   endfacet
   facet normal -4.520888e-04 3.394214e-01 9.406343e-01
      outer loop
         vertex 3.282301e+01 4.440989e+01 2.070270e+01
         vertex 3.235199e+01 4.401640e+01 2.084446e+01
         vertex 5.600000e+01 4.354203e+01 2.102700e+01
      endloop
   endfacet
   facet normal 0.000000e+00 3.591313e-01 9.332870e-01
      outer loop
         vertex 5.600000e+01 4.354203e+01 2.102700e+01
         vertex 3.235199e+01 4.401640e+01 2.084446e+01
         vertex 3.168852e+01 4.354203e+01 2.102700e+01
      endloop
   endfacet
   facet normal 0.000000e+00 4.198886e-01 9.075757e-01
      outer loop
         vertex 5.600000e+01 4.354203e+01 2.102700e+01
         vertex 3.168852e+01 4.354203e+01 2.102700e+01
         vertex 5.600000e+01 4.142922e+01 2.200449e+01
      endloop
   endfacet
   facet normal -3.606203e-03 3.854085e-01 9.227390e-01
      outer loop
         vertex 5.600000e+01 4.142922e+01 2.200449e+01
         vertex 3.168852e+01 4.354203e+01 2.102700e+01
         vertex 3.095764e+01 4.311076e+01 2.120428e+01
      endloop
   endfacet
   facet normal -2.211206e-03 4.026647e-01 9.153449e-01
      outer loop
         vertex 5.600000e+01 4.142922e+01 2.200449e+01
         vertex 3.095764e+01 4.311076e+01 2.120428e+01
         vertex 3.018472e+01 4.274370e+01 2.136388e+01
      endloop
   endfacet
   facet normal -3.545974e-03 1.841292e-01 9.828957e-01
      outer loop
         vertex 3.493493e+01 4.712943e+01 1.994892e+01
         vertex 5.600000e+01 4.574814e+01 2.028367e+01
         vertex 3.534032e+01 4.802169e+01 1.978323e+01
      endloop
   endfacet
   facet normal -0.000000e+00 2.149702e-01 9.766206e-01
      outer loop
         vertex 3.534032e+01 4.802169e+01 1.978323e+01
         vertex 5.600000e+01 4.574814e+01 2.028367e+01
         vertex 5.600000e+01 4.802169e+01 1.978323e+01
      endloop
   endfacet
   facet normal -0.000000e+00 1.488299e-01 9.888628e-01
      outer loop
         vertex 3.534032e+01 4.802169e+01 1.978323e+01
         vertex 5.600000e+01 4.802169e+01 1.978323e+01
         vertex 3.553986e+01 4.857923e+01 1.969932e+01
      endloop
   endfacet
   facet normal -8.311414e-04 2.235433e-01 9.746937e-01
      outer loop
         vertex 3.493493e+01 4.712943e+01 1.994892e+01
         vertex 3.443734e+01 4.627997e+01 2.014331e+01
         vertex 5.600000e+01 4.574814e+01 2.028367e+01
      endloop
   endfacet
   facet normal 0.000000e+00 2.551823e-01 9.668930e-01
      outer loop
         vertex 5.600000e+01 4.574814e+01 2.028367e+01
         vertex 3.443734e+01 4.627997e+01 2.014331e+01
         vertex 3.406083e+01 4.574814e+01 2.028367e+01
      endloop
   endfacet
   facet normal 0.000000e+00 3.193019e-01 9.476530e-01
      outer loop
         vertex 5.600000e+01 4.574814e+01 2.028367e+01
         vertex 3.406083e+01 4.574814e+01 2.028367e+01
         vertex 5.600000e+01 4.354203e+01 2.102700e+01
      endloop
   endfacet
   facet normal -3.638661e-03 2.866157e-01 9.580387e-01
      outer loop
         vertex 5.600000e+01 4.354203e+01 2.102700e+01
         vertex 3.406083e+01 4.574814e+01 2.028367e+01
         vertex 3.347452e+01 4.504972e+01 2.049039e+01
      endloop
   endfacet
   facet normal -1.432447e-03 3.162452e-01 9.486764e-01
      outer loop
         vertex 5.600000e+01 4.354203e+01 2.102700e+01
         vertex 3.347452e+01 4.504972e+01 2.049039e+01
         vertex 3.282301e+01 4.440989e+01 2.070270e+01
      endloop
   endfacet
   facet normal -1.184710e-03 0.000000e+00 9.999993e-01
      outer loop
         vertex 5.600000e+01 5.266399e+01 1.953153e+01
         vertex 3.598230e+01 5.207966e+01 1.950782e+01
         vertex 5.600000e+01 5.033601e+01 1.953153e+01
      endloop
   endfacet
   facet normal -2.358931e-03 -1.348179e-02 9.999063e-01
      outer loop
         vertex 5.600000e+01 5.033601e+01 1.953153e+01
         vertex 3.598230e+01 5.207966e+01 1.950782e+01
         vertex 3.600000e+01 5.149689e+01 1.950000e+01
      endloop
   endfacet
   facet normal -7.820748e-04 1.368480e-02 9.999061e-01
      outer loop
         vertex 3.600000e+01 5.149689e+01 1.950000e+01
         vertex 3.598201e+01 5.091568e+01 1.950794e+01
         vertex 5.600000e+01 5.033601e+01 1.953153e+01
      endloop
   endfacet
   facet normal 0.000000e+00 4.066286e-02 9.991729e-01
      outer loop
         vertex 5.600000e+01 5.033601e+01 1.953153e+01
         vertex 3.598201e+01 5.091568e+01 1.950794e+01
         vertex 3.592842e+01 5.033601e+01 1.953153e+01
      endloop
   endfacet
   facet normal 0.000000e+00 1.081193e-01 9.941379e-01
      outer loop
         vertex 5.600000e+01 5.033601e+01 1.953153e+01
         vertex 3.592842e+01 5.033601e+01 1.953153e+01
         vertex 5.600000e+01 4.802169e+01 1.978323e+01
      endloop
   endfacet
   facet normal -3.795425e-03 7.552871e-02 9.971364e-01
      outer loop
         vertex 5.600000e+01 4.802169e+01 1.978323e+01
         vertex 3.592842e+01 5.033601e+01 1.953153e+01
         vertex 3.577504e+01 4.944486e+01 1.959845e+01
      endloop
   endfacet
   facet normal -9.129679e-04 1.159873e-01 9.932503e-01
      outer loop
         vertex 5.600000e+01 4.802169e+01 1.978323e+01
         vertex 3.577504e+01 4.944486e+01 1.959845e+01
         vertex 3.553986e+01 4.857923e+01 1.969932e+01
      endloop
   endfacet
   facet normal 0.000000e+00 -1.421549e-01 9.898444e-01
      outer loop
         vertex 3.534032e+01 5.497831e+01 1.978323e+01
         vertex 3.562780e+01 5.413309e+01 1.966185e+01
         vertex 5.600000e+01 5.497831e+01 1.978323e+01
      endloop
   endfacet
   facet normal -1.670176e-03 -1.025993e-01 9.947214e-01
      outer loop
         vertex 5.600000e+01 5.497831e+01 1.978323e+01
         vertex 3.562780e+01 5.413309e+01 1.966185e+01
         vertex 3.583538e+01 5.326087e+01 1.957223e+01
      endloop
   endfacet
   facet normal -1.193920e-03 -1.081193e-01 9.941372e-01
      outer loop
         vertex 5.600000e+01 5.497831e+01 1.978323e+01
         vertex 3.583538e+01 5.326087e+01 1.957223e+01
         vertex 5.600000e+01 5.266399e+01 1.953153e+01
      endloop
   endfacet
   facet normal 0.000000e+00 -6.802699e-02 9.976835e-01
      outer loop
         vertex 5.600000e+01 5.266399e+01 1.953153e+01
         vertex 3.583538e+01 5.326087e+01 1.957223e+01
         vertex 3.592842e+01 5.266399e+01 1.953153e+01
      endloop
   endfacet
   facet normal 0.000000e+00 -4.055187e-02 9.991774e-01
      outer loop
         vertex 5.600000e+01 5.266399e+01 1.953153e+01
         vertex 3.592842e+01 5.266399e+01 1.953153e+01
         vertex 3.598230e+01 5.207966e+01 1.950782e+01
      endloop
   endfacet
   facet normal 0.000000e+00 -1.758831e-01 9.844111e-01
      outer loop
         vertex 3.534032e+01 5.497831e+01 1.978323e+01
         vertex 5.600000e+01 5.497831e+01 1.978323e+01
         vertex 3.507740e+01 5.558390e+01 1.989143e+01
      endloop
   endfacet
   facet normal -1.171629e-03 -2.149700e-01 9.766199e-01
      outer loop
         vertex 3.507740e+01 5.558390e+01 1.989143e+01
         vertex 5.600000e+01 5.497831e+01 1.978323e+01
         vertex 5.600000e+01 5.725186e+01 2.028367e+01
      endloop
   endfacet
   facet normal -1.515245e-03 -2.108697e-01 9.775130e-01
      outer loop
         vertex 3.507740e+01 5.558390e+01 1.989143e+01
         vertex 5.600000e+01 5.725186e+01 2.028367e+01
         vertex 3.460979e+01 5.644786e+01 2.007708e+01
      endloop
   endfacet
   facet normal -6.667684e-04 -3.319635e-01 9.432920e-01
      outer loop
         vertex 3.242809e+01 5.892346e+01 2.082223e+01
         vertex 3.311308e+01 5.832035e+01 2.061047e+01
         vertex 5.600000e+01 5.945797e+01 2.102700e+01
      endloop
   endfacet
   facet normal -1.965705e-03 -3.087098e-01 9.511542e-01
      outer loop
         vertex 5.600000e+01 5.945797e+01 2.102700e+01
         vertex 3.311308e+01 5.832035e+01 2.061047e+01
         vertex 3.353938e+01 5.787943e+01 2.046825e+01
      endloop
   endfacet
   facet normal -1.134190e-03 -3.193017e-01 9.476524e-01
      outer loop
         vertex 5.600000e+01 5.945797e+01 2.102700e+01
         vertex 3.353938e+01 5.787943e+01 2.046825e+01
         vertex 5.600000e+01 5.725186e+01 2.028367e+01
      endloop
   endfacet
   facet normal 0.000000e+00 -2.821551e-01 9.593688e-01
      outer loop
         vertex 5.600000e+01 5.725186e+01 2.028367e+01
         vertex 3.353938e+01 5.787943e+01 2.046825e+01
         vertex 3.406083e+01 5.725186e+01 2.028367e+01
      endloop
   endfacet
   facet normal 0.000000e+00 -2.488754e-01 9.685355e-01
      outer loop
         vertex 5.600000e+01 5.725186e+01 2.028367e+01
         vertex 3.406083e+01 5.725186e+01 2.028367e+01
         vertex 3.460979e+01 5.644786e+01 2.007708e+01
      endloop
   endfacet
   facet normal -2.740438e-04 -4.439883e-01 8.960326e-01
      outer loop
         vertex 2.669697e+01 6.099796e+01 2.171169e+01
         vertex 2.751351e+01 6.094578e+01 2.168609e+01
         vertex 5.600000e+01 6.157078e+01 2.200449e+01
      endloop
   endfacet
   facet normal 1.875657e-03 -4.243647e-01 9.054894e-01
      outer loop
         vertex 1.000000e+01 6.157078e+01 2.200449e+01
         vertex 2.320887e+01 6.041171e+01 2.143392e+01
         vertex 2.388489e+01 6.063297e+01 2.153622e+01
      endloop
   endfacet
   facet normal 1.096883e-03 -4.336851e-01 9.010638e-01
      outer loop
         vertex 2.388489e+01 6.063297e+01 2.153622e+01
         vertex 2.481865e+01 6.085003e+01 2.163955e+01
         vertex 1.000000e+01 6.157078e+01 2.200449e+01
      endloop
   endfacet
   facet normal 6.855217e-04 -4.404728e-01 8.977657e-01
      outer loop
         vertex 1.000000e+01 6.157078e+01 2.200449e+01
         vertex 2.481865e+01 6.085003e+01 2.163955e+01
         vertex 2.536205e+01 6.093160e+01 2.167916e+01
      endloop
   endfacet
   facet normal 4.811359e-04 -4.443991e-01 8.958288e-01
      outer loop
         vertex 1.000000e+01 6.157078e+01 2.200449e+01
         vertex 2.536205e+01 6.093160e+01 2.167916e+01
         vertex 2.598428e+01 6.098599e+01 2.170580e+01
      endloop
   endfacet
   facet normal -4.335846e-04 -4.381727e-01 8.988907e-01
      outer loop
         vertex 2.751351e+01 6.094578e+01 2.168609e+01
         vertex 2.844016e+01 6.079977e+01 2.161536e+01
         vertex 5.600000e+01 6.157078e+01 2.200449e+01
      endloop
   endfacet
   facet normal -7.676704e-04 -4.285629e-01 9.035116e-01
      outer loop
         vertex 5.600000e+01 6.157078e+01 2.200449e+01
         vertex 2.844016e+01 6.079977e+01 2.161536e+01
         vertex 2.946017e+01 6.052703e+01 2.148686e+01
      endloop
   endfacet
   facet normal -1.262806e-03 -4.183420e-01 9.082887e-01
      outer loop
         vertex 5.600000e+01 6.157078e+01 2.200449e+01
         vertex 2.946017e+01 6.052703e+01 2.148686e+01
         vertex 2.998713e+01 6.033685e+01 2.140000e+01
      endloop
   endfacet
   facet normal -1.804600e-03 -4.089995e-01 9.125328e-01
      outer loop
         vertex 2.998713e+01 6.033685e+01 2.140000e+01
         vertex 3.053642e+01 6.009984e+01 2.129486e+01
         vertex 5.600000e+01 6.157078e+01 2.200449e+01
      endloop
   endfacet
   facet normal -2.608364e-03 -3.975242e-01 9.175880e-01
      outer loop
         vertex 5.600000e+01 6.157078e+01 2.200449e+01
         vertex 3.053642e+01 6.009984e+01 2.129486e+01
         vertex 3.110718e+01 5.980806e+01 2.117007e+01
      endloop
   endfacet
   facet normal -6.890673e-04 -4.198885e-01 9.075754e-01
      outer loop
         vertex 5.600000e+01 6.157078e+01 2.200449e+01
         vertex 3.110718e+01 5.980806e+01 2.117007e+01
         vertex 5.600000e+01 5.945797e+01 2.102700e+01
      endloop
   endfacet
   facet normal 0.000000e+00 -3.782942e-01 9.256854e-01
      outer loop
         vertex 5.600000e+01 5.945797e+01 2.102700e+01
         vertex 3.110718e+01 5.980806e+01 2.117007e+01
         vertex 3.168852e+01 5.945797e+01 2.102700e+01
      endloop
   endfacet
   facet normal 0.000000e+00 -3.577400e-01 9.338213e-01
      outer loop
         vertex 5.600000e+01 5.945797e+01 2.102700e+01
         vertex 3.168852e+01 5.945797e+01 2.102700e+01
         vertex 3.242809e+01 5.892346e+01 2.082223e+01
      endloop
   endfacet
   facet normal 0.000000e+00 -3.193019e-01 9.476530e-01
      outer loop
         vertex 1.000000e+01 5.725186e+01 2.028367e+01
         vertex 1.893917e+01 5.725186e+01 2.028367e+01
         vertex 1.000000e+01 5.945797e+01 2.102700e+01
      endloop
   endfacet
   facet normal 7.999660e-03 -2.900311e-01 9.569838e-01
      outer loop
         vertex 1.000000e+01 5.945797e+01 2.102700e+01
         vertex 1.893917e+01 5.725186e+01 2.028367e+01
         vertex 1.952774e+01 5.795272e+01 2.049116e+01
      endloop
   endfacet
   facet normal 3.088493e-03 -3.179550e-01 9.481008e-01
      outer loop
         vertex 1.000000e+01 5.945797e+01 2.102700e+01
         vertex 1.952774e+01 5.795272e+01 2.049116e+01
         vertex 2.018341e+01 5.859582e+01 2.070470e+01
      endloop
   endfacet
   facet normal 9.654213e-04 -3.401432e-01 9.403732e-01
      outer loop
         vertex 2.018341e+01 5.859582e+01 2.070470e+01
         vertex 2.065079e+01 5.898577e+01 2.084527e+01
         vertex 1.000000e+01 5.945797e+01 2.102700e+01
      endloop
   endfacet
   facet normal 0.000000e+00 -3.591841e-01 9.332667e-01
      outer loop
         vertex 1.000000e+01 5.945797e+01 2.102700e+01
         vertex 2.065079e+01 5.898577e+01 2.084527e+01
         vertex 2.131148e+01 5.945797e+01 2.102700e+01
      endloop
   endfacet
   facet normal 0.000000e+00 -4.198886e-01 9.075757e-01
      outer loop
         vertex 1.000000e+01 5.945797e+01 2.102700e+01
         vertex 2.131148e+01 5.945797e+01 2.102700e+01
         vertex 1.000000e+01 6.157078e+01 2.200449e+01
      endloop
   endfacet
   facet normal 6.314446e-03 -3.918368e-01 9.200131e-01
      outer loop
         vertex 1.000000e+01 6.157078e+01 2.200449e+01
         vertex 2.131148e+01 5.945797e+01 2.102700e+01
         vertex 2.223257e+01 5.998758e+01 2.124624e+01
      endloop
   endfacet
   facet normal 3.311611e-03 -4.110188e-01 9.116209e-01
      outer loop
         vertex 1.000000e+01 6.157078e+01 2.200449e+01
         vertex 2.223257e+01 5.998758e+01 2.124624e+01
         vertex 2.320887e+01 6.041171e+01 2.143392e+01
      endloop
   endfacet
   facet normal 2.233935e-03 -1.365162e-02 9.999043e-01
      outer loop
         vertex 1.700000e+01 5.150000e+01 1.950000e+01
         vertex 1.701797e+01 5.208399e+01 1.950793e+01
         vertex 1.000000e+01 5.266399e+01 1.953153e+01
      endloop
   endfacet
   facet normal 0.000000e+00 -4.065246e-02 9.991733e-01
      outer loop
         vertex 1.000000e+01 5.266399e+01 1.953153e+01
         vertex 1.701797e+01 5.208399e+01 1.950793e+01
         vertex 1.707158e+01 5.266399e+01 1.953153e+01
      endloop
   endfacet
   facet normal 0.000000e+00 -1.081193e-01 9.941379e-01
      outer loop
         vertex 1.000000e+01 5.266399e+01 1.953153e+01
         vertex 1.707158e+01 5.266399e+01 1.953153e+01
         vertex 1.000000e+01 5.497831e+01 1.978323e+01
      endloop
   endfacet
   facet normal 1.261583e-02 -6.993348e-02 9.974719e-01
      outer loop
         vertex 1.000000e+01 5.497831e+01 1.978323e+01
         vertex 1.707158e+01 5.266399e+01 1.953153e+01
         vertex 1.716426e+01 5.325897e+01 1.957207e+01
      endloop
   endfacet
   facet normal 6.118548e-03 -9.673881e-02 9.952910e-01
      outer loop
         vertex 1.000000e+01 5.497831e+01 1.978323e+01
         vertex 1.716426e+01 5.325897e+01 1.957207e+01
         vertex 1.729343e+01 5.384289e+01 1.962803e+01
      endloop
   endfacet
   facet normal 1.988291e-03 -1.228772e-01 9.924199e-01
      outer loop
         vertex 1.729343e+01 5.384289e+01 1.962803e+01
         vertex 1.745859e+01 5.441597e+01 1.969866e+01
         vertex 1.000000e+01 5.497831e+01 1.978323e+01
      endloop
   endfacet
   facet normal 0.000000e+00 -1.487165e-01 9.888799e-01
      outer loop
         vertex 1.000000e+01 5.497831e+01 1.978323e+01
         vertex 1.745859e+01 5.441597e+01 1.969866e+01
         vertex 1.765968e+01 5.497831e+01 1.978323e+01
      endloop
   endfacet
   facet normal 0.000000e+00 -2.149702e-01 9.766206e-01
      outer loop
         vertex 1.000000e+01 5.497831e+01 1.978323e+01
         vertex 1.765968e+01 5.497831e+01 1.978323e+01
         vertex 1.000000e+01 5.725186e+01 2.028367e+01
      endloop
   endfacet
   facet normal 8.784528e-03 -1.866442e-01 9.823883e-01
      outer loop
         vertex 1.000000e+01 5.725186e+01 2.028367e+01
         vertex 1.765968e+01 5.497831e+01 1.978323e+01
         vertex 1.806990e+01 5.587989e+01 1.995085e+01
      endloop
   endfacet
   facet normal 2.022929e-03 -2.244958e-01 9.744730e-01
      outer loop
         vertex 1.000000e+01 5.725186e+01 2.028367e+01
         vertex 1.806990e+01 5.587989e+01 1.995085e+01
         vertex 1.856458e+01 5.672294e+01 2.014405e+01
      endloop
   endfacet
   facet normal -0.000000e+00 9.985334e-01 5.413895e-02
      outer loop
         vertex 1.000000e+01 3.000000e+01 4.100000e+01
         vertex 4.100000e+01 3.000000e+01 4.100000e+01
         vertex 1.000000e+01 3.012603e+01 3.867544e+01
      endloop
   endfacet
   facet normal -0.000000e+00 9.985334e-01 5.413895e-02
      outer loop
         vertex 1.000000e+01 3.012603e+01 3.867544e+01
         vertex 4.100000e+01 3.000000e+01 4.100000e+01
         vertex 4.100000e+01 3.012603e+01 3.867544e+01
      endloop
   endfacet
   facet normal -0.000000e+00 9.868265e-01 1.617822e-01
      outer loop
         vertex 1.000000e+01 3.012603e+01 3.867544e+01
         vertex 4.100000e+01 3.012603e+01 3.867544e+01
         vertex 1.000000e+01 3.050266e+01 3.637813e+01
      endloop
   endfacet
   facet normal -0.000000e+00 9.868265e-01 1.617822e-01
      outer loop
         vertex 1.000000e+01 3.050266e+01 3.637813e+01
         vertex 4.100000e+01 3.012603e+01 3.867544e+01
         vertex 4.100000e+01 3.050266e+01 3.637813e+01
      endloop
   endfacet
   facet normal -0.000000e+00 9.635500e-01 2.675282e-01
      outer loop
         vertex 1.000000e+01 3.050266e+01 3.637813e+01
         vertex 4.100000e+01 3.050266e+01 3.637813e+01
         vertex 1.000000e+01 3.112546e+01 3.413502e+01
      endloop
   endfacet
   facet normal -0.000000e+00 9.635500e-01 2.675282e-01
      outer loop
         vertex 1.000000e+01 3.112546e+01 3.413502e+01
         vertex 4.100000e+01 3.050266e+01 3.637813e+01
         vertex 4.100000e+01 3.112546e+01 3.413502e+01
      endloop
   endfacet
   facet normal -0.000000e+00 9.289768e-01 3.701380e-01
      outer loop
         vertex 1.000000e+01 3.112546e+01 3.413502e+01
         vertex 4.100000e+01 3.112546e+01 3.413502e+01
         vertex 1.000000e+01 3.198713e+01 3.197239e+01
      endloop
   endfacet
   facet normal -0.000000e+00 9.289768e-01 3.701380e-01
      outer loop
         vertex 1.000000e+01 3.198713e+01 3.197239e+01
         vertex 4.100000e+01 3.112546e+01 3.413502e+01
         vertex 4.100000e+01 3.198713e+01 3.197239e+01
      endloop
   endfacet
   facet normal -0.000000e+00 8.835118e-01 4.684089e-01
      outer loop
         vertex 1.000000e+01 3.198713e+01 3.197239e+01
         vertex 4.100000e+01 3.198713e+01 3.197239e+01
         vertex 1.000000e+01 3.307757e+01 2.991559e+01
      endloop
   endfacet
   facet normal 0.000000e+00 -9.985334e-01 5.413895e-02
      outer loop
         vertex 4.100000e+01 7.300000e+01 4.100000e+01
         vertex 1.000000e+01 7.300000e+01 4.100000e+01
         vertex 4.100000e+01 7.287396e+01 3.867544e+01
      endloop
   endfacet
   facet normal 0.000000e+00 -9.985334e-01 5.413895e-02
      outer loop
         vertex 4.100000e+01 7.287396e+01 3.867544e+01
         vertex 1.000000e+01 7.300000e+01 4.100000e+01
         vertex 1.000000e+01 7.287396e+01 3.867544e+01
      endloop
   endfacet
   facet normal 0.000000e+00 -9.868269e-01 1.617798e-01
      outer loop
         vertex 4.100000e+01 7.287396e+01 3.867544e+01
         vertex 1.000000e+01 7.287396e+01 3.867544e+01
         vertex 4.100000e+01 7.249735e+01 3.637813e+01
      endloop
   endfacet
   facet normal 0.000000e+00 -9.868269e-01 1.617798e-01
      outer loop
         vertex 4.100000e+01 7.249735e+01 3.637813e+01
         vertex 1.000000e+01 7.287396e+01 3.867544e+01
         vertex 1.000000e+01 7.249735e+01 3.637813e+01
      endloop
   endfacet
   facet normal 0.000000e+00 -9.635496e-01 2.675296e-01
      outer loop
         vertex 4.100000e+01 7.249735e+01 3.637813e+01
         vertex 1.000000e+01 7.249735e+01 3.637813e+01
         vertex 4.100000e+01 7.187454e+01 3.413502e+01
      endloop
   endfacet
   facet normal 0.000000e+00 -9.635496e-01 2.675296e-01
      outer loop
         vertex 4.100000e+01 7.187454e+01 3.413502e+01
         vertex 1.000000e+01 7.249735e+01 3.637813e+01
         vertex 1.000000e+01 7.187454e+01 3.413502e+01
      endloop
   endfacet
   facet normal 0.000000e+00 -9.289762e-01 3.701394e-01
      outer loop
         vertex 4.100000e+01 7.187454e+01 3.413502e+01
         vertex 1.000000e+01 7.187454e+01 3.413502e+01
         vertex 4.100000e+01 7.101287e+01 3.197239e+01
      endloop
   endfacet
   facet normal 0.000000e+00 -9.289762e-01 3.701394e-01
      outer loop
         vertex 4.100000e+01 7.101287e+01 3.197239e+01
         vertex 1.000000e+01 7.187454e+01 3.413502e+01
         vertex 1.000000e+01 7.101287e+01 3.197239e+01
      endloop
   endfacet
   facet normal 0.000000e+00 -8.966987e-01 4.426415e-01
      outer loop
         vertex 4.100000e+01 7.101287e+01 3.197239e+01
         vertex 1.000000e+01 7.101287e+01 3.197239e+01
         vertex 4.100000e+01 7.053287e+01 3.100000e+01
      endloop
   endfacet
   facet normal 1.012338e-03 -8.835127e-01 4.684061e-01
      outer loop
         vertex 4.100000e+01 7.053287e+01 3.100000e+01
         vertex 1.000000e+01 7.101287e+01 3.197239e+01
         vertex 1.000000e+01 6.992243e+01 2.991559e+01
      endloop
   endfacet
   facet normal 2.173237e-03 8.966952e-01 4.426433e-01
      outer loop
         vertex 4.100000e+01 3.198713e+01 3.197239e+01
         vertex 4.100000e+01 3.246713e+01 3.100000e+01
         vertex 1.000000e+01 3.307757e+01 2.991559e+01
      endloop
   endfacet
   facet normal -0.000000e+00 8.714183e-01 4.905407e-01
      outer loop
         vertex 1.000000e+01 3.307757e+01 2.991559e+01
         vertex 4.100000e+01 3.246713e+01 3.100000e+01
         vertex 5.600000e+01 3.307757e+01 2.991559e+01
      endloop
   endfacet
   facet normal -0.000000e+00 8.276895e-01 5.611863e-01
      outer loop
         vertex 1.000000e+01 3.307757e+01 2.991559e+01
         vertex 5.600000e+01 3.307757e+01 2.991559e+01
         vertex 1.000000e+01 3.438400e+01 2.798875e+01
      endloop
   endfacet
   facet normal -0.000000e+00 8.276895e-01 5.611863e-01
      outer loop
         vertex 1.000000e+01 3.438400e+01 2.798875e+01
         vertex 5.600000e+01 3.307757e+01 2.991559e+01
         vertex 5.600000e+01 3.438400e+01 2.798875e+01
      endloop
   endfacet
   facet normal -0.000000e+00 7.621616e-01 6.473868e-01
      outer loop
         vertex 1.000000e+01 3.438400e+01 2.798875e+01
         vertex 5.600000e+01 3.438400e+01 2.798875e+01
         vertex 1.000000e+01 3.589110e+01 2.621446e+01
      endloop
   endfacet
   facet normal -0.000000e+00 7.621616e-01 6.473868e-01
      outer loop
         vertex 1.000000e+01 3.589110e+01 2.621446e+01
         vertex 5.600000e+01 3.438400e+01 2.798875e+01
         vertex 5.600000e+01 3.589110e+01 2.621446e+01
      endloop
   endfacet
   facet normal -0.000000e+00 6.876995e-01 7.259954e-01
      outer loop
         vertex 1.000000e+01 3.589110e+01 2.621446e+01
         vertex 5.600000e+01 3.589110e+01 2.621446e+01
         vertex 1.000000e+01 3.758119e+01 2.461352e+01
      endloop
   endfacet
   facet normal -0.000000e+00 6.876995e-01 7.259954e-01
      outer loop
         vertex 1.000000e+01 3.758119e+01 2.461352e+01
         vertex 5.600000e+01 3.589110e+01 2.621446e+01
         vertex 5.600000e+01 3.758119e+01 2.461352e+01
      endloop
   endfacet
   facet normal -0.000000e+00 6.051744e-01 7.960929e-01
      outer loop
         vertex 1.000000e+01 3.758119e+01 2.461352e+01
         vertex 5.600000e+01 3.758119e+01 2.461352e+01
         vertex 1.000000e+01 3.943448e+01 2.320469e+01
      endloop
   endfacet
   facet normal -0.000000e+00 6.051744e-01 7.960929e-01
      outer loop
         vertex 1.000000e+01 3.943448e+01 2.320469e+01
         vertex 5.600000e+01 3.758119e+01 2.461352e+01
         vertex 5.600000e+01 3.943448e+01 2.320469e+01
      endloop
   endfacet
   facet normal -0.000000e+00 5.155539e-01 8.568572e-01
      outer loop
         vertex 1.000000e+01 3.943448e+01 2.320469e+01
         vertex 5.600000e+01 3.943448e+01 2.320469e+01
         vertex 1.000000e+01 4.142922e+01 2.200449e+01
      endloop
   endfacet
   facet normal -0.000000e+00 5.155539e-01 8.568572e-01
      outer loop
         vertex 1.000000e+01 4.142922e+01 2.200449e+01
         vertex 5.600000e+01 3.943448e+01 2.320469e+01
         vertex 5.600000e+01 4.142922e+01 2.200449e+01
      endloop
   endfacet
   facet normal -0.000000e+00 4.551563e-01 8.904116e-01
      outer loop
         vertex 1.000000e+01 4.142922e+01 2.200449e+01
         vertex 5.600000e+01 4.142922e+01 2.200449e+01
         vertex 2.665440e+01 4.200125e+01 2.171208e+01
      endloop
   endfacet
   facet normal -2.517717e-04 4.448860e-01 8.955872e-01
      outer loop
         vertex 2.665440e+01 4.200125e+01 2.171208e+01
         vertex 5.600000e+01 4.142922e+01 2.200449e+01
         vertex 2.732968e+01 4.203630e+01 2.169486e+01
      endloop
   endfacet
   facet normal 1.936777e-04 -4.506568e-01 8.926973e-01
      outer loop
         vertex 2.598428e+01 6.098599e+01 2.170580e+01
         vertex 2.669697e+01 6.099796e+01 2.171169e+01
         vertex 1.000000e+01 6.157078e+01 2.200449e+01
      endloop
   endfacet
   facet normal 0.000000e+00 -4.551386e-01 8.904206e-01
      outer loop
         vertex 1.000000e+01 6.157078e+01 2.200449e+01
         vertex 2.669697e+01 6.099796e+01 2.171169e+01
         vertex 5.600000e+01 6.157078e+01 2.200449e+01
      endloop
   endfacet
   facet normal 0.000000e+00 -5.155539e-01 8.568572e-01
      outer loop
         vertex 1.000000e+01 6.157078e+01 2.200449e+01
         vertex 5.600000e+01 6.157078e+01 2.200449e+01
         vertex 1.000000e+01 6.356552e+01 2.320469e+01
      endloop
   endfacet
   facet normal 0.000000e+00 -5.155539e-01 8.568572e-01
      outer loop
         vertex 1.000000e+01 6.356552e+01 2.320469e+01
         vertex 5.600000e+01 6.157078e+01 2.200449e+01
         vertex 5.600000e+01 6.356552e+01 2.320469e+01
      endloop
   endfacet
   facet normal 0.000000e+00 -6.051752e-01 7.960923e-01
      outer loop
         vertex 1.000000e+01 6.356552e+01 2.320469e+01
         vertex 5.600000e+01 6.356552e+01 2.320469e+01
         vertex 1.000000e+01 6.541880e+01 2.461352e+01
      endloop
   endfacet
   facet normal 0.000000e+00 -6.051752e-01 7.960923e-01
      outer loop
         vertex 1.000000e+01 6.541880e+01 2.461352e+01
         vertex 5.600000e+01 6.356552e+01 2.320469e+01
         vertex 5.600000e+01 6.541880e+01 2.461352e+01
      endloop
   endfacet
   facet normal 0.000000e+00 -6.876995e-01 7.259954e-01
      outer loop
         vertex 1.000000e+01 6.541880e+01 2.461352e+01
         vertex 5.600000e+01 6.541880e+01 2.461352e+01
         vertex 1.000000e+01 6.710890e+01 2.621446e+01
      endloop
   endfacet
   facet normal 0.000000e+00 -6.876995e-01 7.259954e-01
      outer loop
         vertex 1.000000e+01 6.710890e+01 2.621446e+01
         vertex 5.600000e+01 6.541880e+01 2.461352e+01
         vertex 5.600000e+01 6.710890e+01 2.621446e+01
      endloop
   endfacet
   facet normal 0.000000e+00 -7.621608e-01 6.473877e-01
      outer loop
         vertex 1.000000e+01 6.710890e+01 2.621446e+01
         vertex 5.600000e+01 6.710890e+01 2.621446e+01
         vertex 1.000000e+01 6.861600e+01 2.798875e+01
      endloop
   endfacet
   facet normal 0.000000e+00 -7.621608e-01 6.473877e-01
      outer loop
         vertex 1.000000e+01 6.861600e+01 2.798875e+01
         vertex 5.600000e+01 6.710890e+01 2.621446e+01
         vertex 5.600000e+01 6.861600e+01 2.798875e+01
      endloop
   endfacet
   facet normal 0.000000e+00 -8.276887e-01 5.611874e-01
      outer loop
         vertex 1.000000e+01 6.861600e+01 2.798875e+01
         vertex 5.600000e+01 6.861600e+01 2.798875e+01
         vertex 1.000000e+01 6.992243e+01 2.991559e+01
      endloop
   endfacet
   facet normal 0.000000e+00 -8.276887e-01 5.611874e-01
      outer loop
         vertex 1.000000e+01 6.992243e+01 2.991559e+01
         vertex 5.600000e+01 6.861600e+01 2.798875e+01
         vertex 5.600000e+01 6.992243e+01 2.991559e+01
      endloop
   endfacet
   facet normal 0.000000e+00 -8.714196e-01 4.905384e-01
      outer loop
         vertex 1.000000e+01 6.992243e+01 2.991559e+01
         vertex 5.600000e+01 6.992243e+01 2.991559e+01
         vertex 4.100000e+01 7.053287e+01 3.100000e+01
      endloop
   endfacet
   facet normal 0.000000e+00 -8.714196e-01 4.905384e-01
      outer loop
         vertex 4.100000e+01 7.053287e+01 3.100000e+01
         vertex 5.600000e+01 6.992243e+01 2.991559e+01
         vertex 5.600000e+01 7.053287e+01 3.100000e+01
      endloop
   endfacet
   facet normal -0.000000e+00 -3.784852e-15 -1.000000e+00
      outer loop
         vertex 5.600000e+01 1.030000e+02 0.000000e+00
         vertex 5.600000e+01 7.700000e+01 9.840614e-14
         vertex 0.000000e+00 1.030000e+02 0.000000e+00
      endloop
   endfacet
   facet normal 0.000000e+00 -3.784852e-15 -1.000000e+00
      outer loop
         vertex 0.000000e+00 1.030000e+02 0.000000e+00
         vertex 5.600000e+01 7.700000e+01 9.840614e-14
         vertex 0.000000e+00 7.700000e+01 9.840614e-14
      endloop
   endfacet
endsolid