solid 9
   facet normal 0.000000e+00 -1.000000e+00 0.000000e+00
      outer loop
         vertex 5.600000e+01 0.000000e+00 3.898397e-13
         vertex 5.600000e+01 0.000000e+00 1.100000e+01
         vertex 0.000000e+00 0.000000e+00 3.898397e-13
      endloop
   endfacet
   facet normal 0.000000e+00 -1.000000e+00 0.000000e+00
      outer loop
         vertex 0.000000e+00 0.000000e+00 3.898397e-13
         vertex 5.600000e+01 0.000000e+00 1.100000e+01
         vertex 0.000000e+00 0.000000e+00 1.100000e+01
      endloop
   endfacet
   facet normal 0.000000e+00 1.000000e+00 0.000000e+00
      outer loop
         vertex 5.600000e+01 1.030000e+02 1.100000e+01
         vertex 5.600000e+01 1.030000e+02 0.000000e+00
         vertex 0.000000e+00 1.030000e+02 1.100000e+01
      endloop
   endfacet
   facet normal 0.000000e+00 1.000000e+00 0.000000e+00
      outer loop
         vertex 0.000000e+00 1.030000e+02 1.100000e+01
         vertex 5.600000e+01 1.030000e+02 0.000000e+00
         vertex 0.000000e+00 1.030000e+02 0.000000e+00
      endloop
   endfacet
endsolid